G04 #@! TF.GenerationSoftware,KiCad,Pcbnew,(5.1.8)-1*
G04 #@! TF.CreationDate,2020-12-31T16:53:10-05:00*
G04 #@! TF.ProjectId,trackpad_test,74726163-6b70-4616-945f-746573742e6b,rev?*
G04 #@! TF.SameCoordinates,Original*
G04 #@! TF.FileFunction,Soldermask,Bot*
G04 #@! TF.FilePolarity,Negative*
%FSLAX46Y46*%
G04 Gerber Fmt 4.6, Leading zero omitted, Abs format (unit mm)*
G04 Created by KiCad (PCBNEW (5.1.8)-1) date 2020-12-31 16:53:10*
%MOMM*%
%LPD*%
G01*
G04 APERTURE LIST*
%ADD10C,0.508000*%
%ADD11R,3.150000X1.000000*%
%ADD12C,0.100000*%
G04 APERTURE END LIST*
D10*
X125476000Y-128975800D03*
X125476000Y-131475800D03*
X123726000Y-130225800D03*
X124601000Y-130225800D03*
X125476000Y-130225800D03*
X126351000Y-130225800D03*
X127226000Y-130225800D03*
D11*
X145207200Y-125628400D03*
X140157200Y-125628400D03*
X145207200Y-128168400D03*
X140157200Y-128168400D03*
X145207200Y-130708400D03*
X140157200Y-130708400D03*
X145207200Y-133248400D03*
X140157200Y-133248400D03*
X145207200Y-135788400D03*
X140157200Y-135788400D03*
D12*
G36*
X99880547Y-129180082D02*
G01*
X101858191Y-131157980D01*
X97902649Y-131157980D01*
X99880293Y-129180082D01*
X99880547Y-129180082D01*
G37*
G36*
X95118047Y-129180082D02*
G01*
X97095691Y-131157980D01*
X93140149Y-131157980D01*
X95117793Y-129180082D01*
X95118047Y-129180082D01*
G37*
G36*
X90355547Y-129180082D02*
G01*
X92333191Y-131157980D01*
X88377649Y-131157980D01*
X90355293Y-129180082D01*
X90355547Y-129180082D01*
G37*
G36*
X85593047Y-129180082D02*
G01*
X87570691Y-131157980D01*
X83615149Y-131157980D01*
X85592793Y-129180082D01*
X85593047Y-129180082D01*
G37*
G36*
X80830547Y-129180082D02*
G01*
X82808191Y-131157980D01*
X78852649Y-131157980D01*
X80830293Y-129180082D01*
X80830547Y-129180082D01*
G37*
G36*
X76068047Y-129180082D02*
G01*
X78045691Y-131157980D01*
X74090149Y-131157980D01*
X76067793Y-129180082D01*
X76068047Y-129180082D01*
G37*
G36*
X71305547Y-129180082D02*
G01*
X73283191Y-131157980D01*
X69327649Y-131157980D01*
X71305293Y-129180082D01*
X71305547Y-129180082D01*
G37*
G36*
X100282502Y-128777873D02*
G01*
X102260400Y-126800229D01*
X102260400Y-130755771D01*
X100282502Y-128778127D01*
X100282502Y-128777873D01*
G37*
G36*
X100282502Y-124015373D02*
G01*
X102260400Y-122037729D01*
X102260400Y-125993271D01*
X100282502Y-124015627D01*
X100282502Y-124015373D01*
G37*
G36*
X100282502Y-119252873D02*
G01*
X102260400Y-117275229D01*
X102260400Y-121230771D01*
X100282502Y-119253127D01*
X100282502Y-119252873D01*
G37*
G36*
X100282502Y-114490373D02*
G01*
X102260400Y-112512729D01*
X102260400Y-116468271D01*
X100282502Y-114490627D01*
X100282502Y-114490373D01*
G37*
G36*
X100282502Y-109727873D02*
G01*
X102260400Y-107750229D01*
X102260400Y-111705771D01*
X100282502Y-109728127D01*
X100282502Y-109727873D01*
G37*
G36*
X100282502Y-104965373D02*
G01*
X102260400Y-102987729D01*
X102260400Y-106943271D01*
X100282502Y-104965627D01*
X100282502Y-104965373D01*
G37*
G36*
X100282502Y-100202873D02*
G01*
X102260400Y-98225229D01*
X102260400Y-102180771D01*
X100282502Y-100203127D01*
X100282502Y-100202873D01*
G37*
G36*
X66543047Y-129180082D02*
G01*
X68520691Y-131157980D01*
X64565149Y-131157980D01*
X66542793Y-129180082D01*
X66543047Y-129180082D01*
G37*
G36*
X100282502Y-95440373D02*
G01*
X102260400Y-93462729D01*
X102260400Y-97418271D01*
X100282502Y-95440627D01*
X100282502Y-95440373D01*
G37*
G36*
X66140838Y-128778127D02*
G01*
X64162940Y-130755771D01*
X64162940Y-126800229D01*
X66140838Y-128777873D01*
X66140838Y-128778127D01*
G37*
G36*
X66140838Y-124015627D02*
G01*
X64162940Y-125993271D01*
X64162940Y-122037729D01*
X66140838Y-124015373D01*
X66140838Y-124015627D01*
G37*
G36*
X66140838Y-119253127D02*
G01*
X64162940Y-121230771D01*
X64162940Y-117275229D01*
X66140838Y-119252873D01*
X66140838Y-119253127D01*
G37*
G36*
X66140838Y-114490627D02*
G01*
X64162940Y-116468271D01*
X64162940Y-112512729D01*
X66140838Y-114490373D01*
X66140838Y-114490627D01*
G37*
G36*
X66140838Y-109728127D02*
G01*
X64162940Y-111705771D01*
X64162940Y-107750229D01*
X66140838Y-109727873D01*
X66140838Y-109728127D01*
G37*
G36*
X66140838Y-104965627D02*
G01*
X64162940Y-106943271D01*
X64162940Y-102987729D01*
X66140838Y-104965373D01*
X66140838Y-104965627D01*
G37*
G36*
X66140838Y-100203127D02*
G01*
X64162940Y-102180771D01*
X64162940Y-98225229D01*
X66140838Y-100202873D01*
X66140838Y-100203127D01*
G37*
G36*
X99880293Y-95038418D02*
G01*
X97902649Y-93060520D01*
X101858191Y-93060520D01*
X99880547Y-95038418D01*
X99880293Y-95038418D01*
G37*
G36*
X95117793Y-95038418D02*
G01*
X93140149Y-93060520D01*
X97095691Y-93060520D01*
X95118047Y-95038418D01*
X95117793Y-95038418D01*
G37*
G36*
X90355293Y-95038418D02*
G01*
X88377649Y-93060520D01*
X92333191Y-93060520D01*
X90355547Y-95038418D01*
X90355293Y-95038418D01*
G37*
G36*
X85592793Y-95038418D02*
G01*
X83615149Y-93060520D01*
X87570691Y-93060520D01*
X85593047Y-95038418D01*
X85592793Y-95038418D01*
G37*
G36*
X80830293Y-95038418D02*
G01*
X78852649Y-93060520D01*
X82808191Y-93060520D01*
X80830547Y-95038418D01*
X80830293Y-95038418D01*
G37*
G36*
X76067793Y-95038418D02*
G01*
X74090149Y-93060520D01*
X78045691Y-93060520D01*
X76068047Y-95038418D01*
X76067793Y-95038418D01*
G37*
G36*
X71305293Y-95038418D02*
G01*
X69327649Y-93060520D01*
X73283191Y-93060520D01*
X71305547Y-95038418D01*
X71305293Y-95038418D01*
G37*
G36*
X66140838Y-95440627D02*
G01*
X64162940Y-97418271D01*
X64162940Y-93462729D01*
X66140838Y-95440373D01*
X66140838Y-95440627D01*
G37*
G36*
X68922900Y-93464844D02*
G01*
X70898556Y-95440500D01*
X68922900Y-97416156D01*
X66947244Y-95440500D01*
X68922900Y-93464844D01*
G37*
G36*
X68922900Y-98227344D02*
G01*
X70898556Y-100203000D01*
X68922900Y-102178656D01*
X66947244Y-100203000D01*
X68922900Y-98227344D01*
G37*
G36*
X68922900Y-102989844D02*
G01*
X70898556Y-104965500D01*
X68922900Y-106941156D01*
X66947244Y-104965500D01*
X68922900Y-102989844D01*
G37*
G36*
X68922900Y-107752344D02*
G01*
X70898556Y-109728000D01*
X68922900Y-111703656D01*
X66947244Y-109728000D01*
X68922900Y-107752344D01*
G37*
G36*
X68922900Y-112514844D02*
G01*
X70898556Y-114490500D01*
X68922900Y-116466156D01*
X66947244Y-114490500D01*
X68922900Y-112514844D01*
G37*
G36*
X68922900Y-117277344D02*
G01*
X70898556Y-119253000D01*
X68922900Y-121228656D01*
X66947244Y-119253000D01*
X68922900Y-117277344D01*
G37*
G36*
X68922900Y-122039844D02*
G01*
X70898556Y-124015500D01*
X68922900Y-125991156D01*
X66947244Y-124015500D01*
X68922900Y-122039844D01*
G37*
G36*
X68922900Y-126802344D02*
G01*
X70898556Y-128778000D01*
X68922900Y-130753656D01*
X66947244Y-128778000D01*
X68922900Y-126802344D01*
G37*
G36*
X73685400Y-93464844D02*
G01*
X75661056Y-95440500D01*
X73685400Y-97416156D01*
X71709744Y-95440500D01*
X73685400Y-93464844D01*
G37*
G36*
X73685400Y-98227344D02*
G01*
X75661056Y-100203000D01*
X73685400Y-102178656D01*
X71709744Y-100203000D01*
X73685400Y-98227344D01*
G37*
G36*
X73685400Y-102989844D02*
G01*
X75661056Y-104965500D01*
X73685400Y-106941156D01*
X71709744Y-104965500D01*
X73685400Y-102989844D01*
G37*
G36*
X73685400Y-107752344D02*
G01*
X75661056Y-109728000D01*
X73685400Y-111703656D01*
X71709744Y-109728000D01*
X73685400Y-107752344D01*
G37*
G36*
X73685400Y-112514844D02*
G01*
X75661056Y-114490500D01*
X73685400Y-116466156D01*
X71709744Y-114490500D01*
X73685400Y-112514844D01*
G37*
G36*
X73685400Y-117277344D02*
G01*
X75661056Y-119253000D01*
X73685400Y-121228656D01*
X71709744Y-119253000D01*
X73685400Y-117277344D01*
G37*
G36*
X73685400Y-122039844D02*
G01*
X75661056Y-124015500D01*
X73685400Y-125991156D01*
X71709744Y-124015500D01*
X73685400Y-122039844D01*
G37*
G36*
X73685400Y-126802344D02*
G01*
X75661056Y-128778000D01*
X73685400Y-130753656D01*
X71709744Y-128778000D01*
X73685400Y-126802344D01*
G37*
G36*
X78447900Y-93464844D02*
G01*
X80423556Y-95440500D01*
X78447900Y-97416156D01*
X76472244Y-95440500D01*
X78447900Y-93464844D01*
G37*
G36*
X78447900Y-98227344D02*
G01*
X80423556Y-100203000D01*
X78447900Y-102178656D01*
X76472244Y-100203000D01*
X78447900Y-98227344D01*
G37*
G36*
X78447900Y-102989844D02*
G01*
X80423556Y-104965500D01*
X78447900Y-106941156D01*
X76472244Y-104965500D01*
X78447900Y-102989844D01*
G37*
G36*
X78447900Y-107752344D02*
G01*
X80423556Y-109728000D01*
X78447900Y-111703656D01*
X76472244Y-109728000D01*
X78447900Y-107752344D01*
G37*
G36*
X78447900Y-112514844D02*
G01*
X80423556Y-114490500D01*
X78447900Y-116466156D01*
X76472244Y-114490500D01*
X78447900Y-112514844D01*
G37*
G36*
X78447900Y-117277344D02*
G01*
X80423556Y-119253000D01*
X78447900Y-121228656D01*
X76472244Y-119253000D01*
X78447900Y-117277344D01*
G37*
G36*
X78447900Y-122039844D02*
G01*
X80423556Y-124015500D01*
X78447900Y-125991156D01*
X76472244Y-124015500D01*
X78447900Y-122039844D01*
G37*
G36*
X78447900Y-126802344D02*
G01*
X80423556Y-128778000D01*
X78447900Y-130753656D01*
X76472244Y-128778000D01*
X78447900Y-126802344D01*
G37*
G36*
X83210400Y-93464844D02*
G01*
X85186056Y-95440500D01*
X83210400Y-97416156D01*
X81234744Y-95440500D01*
X83210400Y-93464844D01*
G37*
G36*
X83210400Y-98227344D02*
G01*
X85186056Y-100203000D01*
X83210400Y-102178656D01*
X81234744Y-100203000D01*
X83210400Y-98227344D01*
G37*
G36*
X83210400Y-102989844D02*
G01*
X85186056Y-104965500D01*
X83210400Y-106941156D01*
X81234744Y-104965500D01*
X83210400Y-102989844D01*
G37*
G36*
X83210400Y-107752344D02*
G01*
X85186056Y-109728000D01*
X83210400Y-111703656D01*
X81234744Y-109728000D01*
X83210400Y-107752344D01*
G37*
G36*
X83210400Y-112514844D02*
G01*
X85186056Y-114490500D01*
X83210400Y-116466156D01*
X81234744Y-114490500D01*
X83210400Y-112514844D01*
G37*
G36*
X83210400Y-117277344D02*
G01*
X85186056Y-119253000D01*
X83210400Y-121228656D01*
X81234744Y-119253000D01*
X83210400Y-117277344D01*
G37*
G36*
X83210400Y-122039844D02*
G01*
X85186056Y-124015500D01*
X83210400Y-125991156D01*
X81234744Y-124015500D01*
X83210400Y-122039844D01*
G37*
G36*
X83210400Y-126802344D02*
G01*
X85186056Y-128778000D01*
X83210400Y-130753656D01*
X81234744Y-128778000D01*
X83210400Y-126802344D01*
G37*
G36*
X87972900Y-93464844D02*
G01*
X89948556Y-95440500D01*
X87972900Y-97416156D01*
X85997244Y-95440500D01*
X87972900Y-93464844D01*
G37*
G36*
X87972900Y-98227344D02*
G01*
X89948556Y-100203000D01*
X87972900Y-102178656D01*
X85997244Y-100203000D01*
X87972900Y-98227344D01*
G37*
G36*
X87972900Y-102989844D02*
G01*
X89948556Y-104965500D01*
X87972900Y-106941156D01*
X85997244Y-104965500D01*
X87972900Y-102989844D01*
G37*
G36*
X87972900Y-107752344D02*
G01*
X89948556Y-109728000D01*
X87972900Y-111703656D01*
X85997244Y-109728000D01*
X87972900Y-107752344D01*
G37*
G36*
X87972900Y-112514844D02*
G01*
X89948556Y-114490500D01*
X87972900Y-116466156D01*
X85997244Y-114490500D01*
X87972900Y-112514844D01*
G37*
G36*
X87972900Y-117277344D02*
G01*
X89948556Y-119253000D01*
X87972900Y-121228656D01*
X85997244Y-119253000D01*
X87972900Y-117277344D01*
G37*
G36*
X87972900Y-122039844D02*
G01*
X89948556Y-124015500D01*
X87972900Y-125991156D01*
X85997244Y-124015500D01*
X87972900Y-122039844D01*
G37*
G36*
X87972900Y-126802344D02*
G01*
X89948556Y-128778000D01*
X87972900Y-130753656D01*
X85997244Y-128778000D01*
X87972900Y-126802344D01*
G37*
G36*
X92735400Y-93464844D02*
G01*
X94711056Y-95440500D01*
X92735400Y-97416156D01*
X90759744Y-95440500D01*
X92735400Y-93464844D01*
G37*
G36*
X92735400Y-98227344D02*
G01*
X94711056Y-100203000D01*
X92735400Y-102178656D01*
X90759744Y-100203000D01*
X92735400Y-98227344D01*
G37*
G36*
X92735400Y-102989844D02*
G01*
X94711056Y-104965500D01*
X92735400Y-106941156D01*
X90759744Y-104965500D01*
X92735400Y-102989844D01*
G37*
G36*
X92735400Y-107752344D02*
G01*
X94711056Y-109728000D01*
X92735400Y-111703656D01*
X90759744Y-109728000D01*
X92735400Y-107752344D01*
G37*
G36*
X92735400Y-112514844D02*
G01*
X94711056Y-114490500D01*
X92735400Y-116466156D01*
X90759744Y-114490500D01*
X92735400Y-112514844D01*
G37*
G36*
X92735400Y-117277344D02*
G01*
X94711056Y-119253000D01*
X92735400Y-121228656D01*
X90759744Y-119253000D01*
X92735400Y-117277344D01*
G37*
G36*
X92735400Y-122039844D02*
G01*
X94711056Y-124015500D01*
X92735400Y-125991156D01*
X90759744Y-124015500D01*
X92735400Y-122039844D01*
G37*
G36*
X92735400Y-126802344D02*
G01*
X94711056Y-128778000D01*
X92735400Y-130753656D01*
X90759744Y-128778000D01*
X92735400Y-126802344D01*
G37*
G36*
X97497900Y-93464844D02*
G01*
X99473556Y-95440500D01*
X97497900Y-97416156D01*
X95522244Y-95440500D01*
X97497900Y-93464844D01*
G37*
G36*
X97497900Y-98227344D02*
G01*
X99473556Y-100203000D01*
X97497900Y-102178656D01*
X95522244Y-100203000D01*
X97497900Y-98227344D01*
G37*
G36*
X97497900Y-102989844D02*
G01*
X99473556Y-104965500D01*
X97497900Y-106941156D01*
X95522244Y-104965500D01*
X97497900Y-102989844D01*
G37*
G36*
X97497900Y-107752344D02*
G01*
X99473556Y-109728000D01*
X97497900Y-111703656D01*
X95522244Y-109728000D01*
X97497900Y-107752344D01*
G37*
G36*
X97497900Y-112514844D02*
G01*
X99473556Y-114490500D01*
X97497900Y-116466156D01*
X95522244Y-114490500D01*
X97497900Y-112514844D01*
G37*
G36*
X97497900Y-117277344D02*
G01*
X99473556Y-119253000D01*
X97497900Y-121228656D01*
X95522244Y-119253000D01*
X97497900Y-117277344D01*
G37*
G36*
X97497900Y-122039844D02*
G01*
X99473556Y-124015500D01*
X97497900Y-125991156D01*
X95522244Y-124015500D01*
X97497900Y-122039844D01*
G37*
G36*
X97497900Y-126802344D02*
G01*
X99473556Y-128778000D01*
X97497900Y-130753656D01*
X95522244Y-128778000D01*
X97497900Y-126802344D01*
G37*
G36*
X66542920Y-95844824D02*
G01*
X68518576Y-97820480D01*
X66542920Y-99796136D01*
X64567264Y-97820480D01*
X66542920Y-95844824D01*
G37*
G36*
X66542920Y-100607324D02*
G01*
X68518576Y-102582980D01*
X66542920Y-104558636D01*
X64567264Y-102582980D01*
X66542920Y-100607324D01*
G37*
G36*
X66542920Y-105369824D02*
G01*
X68518576Y-107345480D01*
X66542920Y-109321136D01*
X64567264Y-107345480D01*
X66542920Y-105369824D01*
G37*
G36*
X66542920Y-110132324D02*
G01*
X68518576Y-112107980D01*
X66542920Y-114083636D01*
X64567264Y-112107980D01*
X66542920Y-110132324D01*
G37*
G36*
X66542920Y-114894824D02*
G01*
X68518576Y-116870480D01*
X66542920Y-118846136D01*
X64567264Y-116870480D01*
X66542920Y-114894824D01*
G37*
G36*
X66542920Y-119657324D02*
G01*
X68518576Y-121632980D01*
X66542920Y-123608636D01*
X64567264Y-121632980D01*
X66542920Y-119657324D01*
G37*
G36*
X66542920Y-124419824D02*
G01*
X68518576Y-126395480D01*
X66542920Y-128371136D01*
X64567264Y-126395480D01*
X66542920Y-124419824D01*
G37*
G36*
X71305420Y-95844824D02*
G01*
X73281076Y-97820480D01*
X71305420Y-99796136D01*
X69329764Y-97820480D01*
X71305420Y-95844824D01*
G37*
G36*
X71305420Y-100607324D02*
G01*
X73281076Y-102582980D01*
X71305420Y-104558636D01*
X69329764Y-102582980D01*
X71305420Y-100607324D01*
G37*
G36*
X71305420Y-105369824D02*
G01*
X73281076Y-107345480D01*
X71305420Y-109321136D01*
X69329764Y-107345480D01*
X71305420Y-105369824D01*
G37*
G36*
X71305420Y-110132324D02*
G01*
X73281076Y-112107980D01*
X71305420Y-114083636D01*
X69329764Y-112107980D01*
X71305420Y-110132324D01*
G37*
G36*
X71305420Y-114894824D02*
G01*
X73281076Y-116870480D01*
X71305420Y-118846136D01*
X69329764Y-116870480D01*
X71305420Y-114894824D01*
G37*
G36*
X71305420Y-119657324D02*
G01*
X73281076Y-121632980D01*
X71305420Y-123608636D01*
X69329764Y-121632980D01*
X71305420Y-119657324D01*
G37*
G36*
X71305420Y-124419824D02*
G01*
X73281076Y-126395480D01*
X71305420Y-128371136D01*
X69329764Y-126395480D01*
X71305420Y-124419824D01*
G37*
G36*
X76067920Y-95844824D02*
G01*
X78043576Y-97820480D01*
X76067920Y-99796136D01*
X74092264Y-97820480D01*
X76067920Y-95844824D01*
G37*
G36*
X76067920Y-100607324D02*
G01*
X78043576Y-102582980D01*
X76067920Y-104558636D01*
X74092264Y-102582980D01*
X76067920Y-100607324D01*
G37*
G36*
X76067920Y-105369824D02*
G01*
X78043576Y-107345480D01*
X76067920Y-109321136D01*
X74092264Y-107345480D01*
X76067920Y-105369824D01*
G37*
G36*
X76067920Y-110132324D02*
G01*
X78043576Y-112107980D01*
X76067920Y-114083636D01*
X74092264Y-112107980D01*
X76067920Y-110132324D01*
G37*
G36*
X76067920Y-114894824D02*
G01*
X78043576Y-116870480D01*
X76067920Y-118846136D01*
X74092264Y-116870480D01*
X76067920Y-114894824D01*
G37*
G36*
X76067920Y-119657324D02*
G01*
X78043576Y-121632980D01*
X76067920Y-123608636D01*
X74092264Y-121632980D01*
X76067920Y-119657324D01*
G37*
G36*
X76067920Y-124419824D02*
G01*
X78043576Y-126395480D01*
X76067920Y-128371136D01*
X74092264Y-126395480D01*
X76067920Y-124419824D01*
G37*
G36*
X80830420Y-95844824D02*
G01*
X82806076Y-97820480D01*
X80830420Y-99796136D01*
X78854764Y-97820480D01*
X80830420Y-95844824D01*
G37*
G36*
X80830420Y-100607324D02*
G01*
X82806076Y-102582980D01*
X80830420Y-104558636D01*
X78854764Y-102582980D01*
X80830420Y-100607324D01*
G37*
G36*
X80830420Y-105369824D02*
G01*
X82806076Y-107345480D01*
X80830420Y-109321136D01*
X78854764Y-107345480D01*
X80830420Y-105369824D01*
G37*
G36*
X80830420Y-110132324D02*
G01*
X82806076Y-112107980D01*
X80830420Y-114083636D01*
X78854764Y-112107980D01*
X80830420Y-110132324D01*
G37*
G36*
X80830420Y-114894824D02*
G01*
X82806076Y-116870480D01*
X80830420Y-118846136D01*
X78854764Y-116870480D01*
X80830420Y-114894824D01*
G37*
G36*
X80830420Y-119657324D02*
G01*
X82806076Y-121632980D01*
X80830420Y-123608636D01*
X78854764Y-121632980D01*
X80830420Y-119657324D01*
G37*
G36*
X80830420Y-124419824D02*
G01*
X82806076Y-126395480D01*
X80830420Y-128371136D01*
X78854764Y-126395480D01*
X80830420Y-124419824D01*
G37*
G36*
X85592920Y-95844824D02*
G01*
X87568576Y-97820480D01*
X85592920Y-99796136D01*
X83617264Y-97820480D01*
X85592920Y-95844824D01*
G37*
G36*
X85592920Y-100607324D02*
G01*
X87568576Y-102582980D01*
X85592920Y-104558636D01*
X83617264Y-102582980D01*
X85592920Y-100607324D01*
G37*
G36*
X85592920Y-105369824D02*
G01*
X87568576Y-107345480D01*
X85592920Y-109321136D01*
X83617264Y-107345480D01*
X85592920Y-105369824D01*
G37*
G36*
X85592920Y-110132324D02*
G01*
X87568576Y-112107980D01*
X85592920Y-114083636D01*
X83617264Y-112107980D01*
X85592920Y-110132324D01*
G37*
G36*
X85592920Y-114894824D02*
G01*
X87568576Y-116870480D01*
X85592920Y-118846136D01*
X83617264Y-116870480D01*
X85592920Y-114894824D01*
G37*
G36*
X85592920Y-119657324D02*
G01*
X87568576Y-121632980D01*
X85592920Y-123608636D01*
X83617264Y-121632980D01*
X85592920Y-119657324D01*
G37*
G36*
X85592920Y-124419824D02*
G01*
X87568576Y-126395480D01*
X85592920Y-128371136D01*
X83617264Y-126395480D01*
X85592920Y-124419824D01*
G37*
G36*
X90355420Y-95844824D02*
G01*
X92331076Y-97820480D01*
X90355420Y-99796136D01*
X88379764Y-97820480D01*
X90355420Y-95844824D01*
G37*
G36*
X90355420Y-100607324D02*
G01*
X92331076Y-102582980D01*
X90355420Y-104558636D01*
X88379764Y-102582980D01*
X90355420Y-100607324D01*
G37*
G36*
X90355420Y-105369824D02*
G01*
X92331076Y-107345480D01*
X90355420Y-109321136D01*
X88379764Y-107345480D01*
X90355420Y-105369824D01*
G37*
G36*
X90355420Y-110132324D02*
G01*
X92331076Y-112107980D01*
X90355420Y-114083636D01*
X88379764Y-112107980D01*
X90355420Y-110132324D01*
G37*
G36*
X90355420Y-114894824D02*
G01*
X92331076Y-116870480D01*
X90355420Y-118846136D01*
X88379764Y-116870480D01*
X90355420Y-114894824D01*
G37*
G36*
X90355420Y-119657324D02*
G01*
X92331076Y-121632980D01*
X90355420Y-123608636D01*
X88379764Y-121632980D01*
X90355420Y-119657324D01*
G37*
G36*
X90355420Y-124419824D02*
G01*
X92331076Y-126395480D01*
X90355420Y-128371136D01*
X88379764Y-126395480D01*
X90355420Y-124419824D01*
G37*
G36*
X95117920Y-95844824D02*
G01*
X97093576Y-97820480D01*
X95117920Y-99796136D01*
X93142264Y-97820480D01*
X95117920Y-95844824D01*
G37*
G36*
X95117920Y-100607324D02*
G01*
X97093576Y-102582980D01*
X95117920Y-104558636D01*
X93142264Y-102582980D01*
X95117920Y-100607324D01*
G37*
G36*
X95117920Y-105369824D02*
G01*
X97093576Y-107345480D01*
X95117920Y-109321136D01*
X93142264Y-107345480D01*
X95117920Y-105369824D01*
G37*
G36*
X95117920Y-110132324D02*
G01*
X97093576Y-112107980D01*
X95117920Y-114083636D01*
X93142264Y-112107980D01*
X95117920Y-110132324D01*
G37*
G36*
X95117920Y-114894824D02*
G01*
X97093576Y-116870480D01*
X95117920Y-118846136D01*
X93142264Y-116870480D01*
X95117920Y-114894824D01*
G37*
G36*
X95117920Y-119657324D02*
G01*
X97093576Y-121632980D01*
X95117920Y-123608636D01*
X93142264Y-121632980D01*
X95117920Y-119657324D01*
G37*
G36*
X95117920Y-124419824D02*
G01*
X97093576Y-126395480D01*
X95117920Y-128371136D01*
X93142264Y-126395480D01*
X95117920Y-124419824D01*
G37*
G36*
X99880420Y-95844824D02*
G01*
X101856076Y-97820480D01*
X99880420Y-99796136D01*
X97904764Y-97820480D01*
X99880420Y-95844824D01*
G37*
G36*
X99880420Y-100607324D02*
G01*
X101856076Y-102582980D01*
X99880420Y-104558636D01*
X97904764Y-102582980D01*
X99880420Y-100607324D01*
G37*
G36*
X99880420Y-105369824D02*
G01*
X101856076Y-107345480D01*
X99880420Y-109321136D01*
X97904764Y-107345480D01*
X99880420Y-105369824D01*
G37*
G36*
X99880420Y-110132324D02*
G01*
X101856076Y-112107980D01*
X99880420Y-114083636D01*
X97904764Y-112107980D01*
X99880420Y-110132324D01*
G37*
G36*
X99880420Y-114894824D02*
G01*
X101856076Y-116870480D01*
X99880420Y-118846136D01*
X97904764Y-116870480D01*
X99880420Y-114894824D01*
G37*
G36*
X99880420Y-119657324D02*
G01*
X101856076Y-121632980D01*
X99880420Y-123608636D01*
X97904764Y-121632980D01*
X99880420Y-119657324D01*
G37*
G36*
X99880420Y-124419824D02*
G01*
X101856076Y-126395480D01*
X99880420Y-128371136D01*
X97904764Y-126395480D01*
X99880420Y-124419824D01*
G37*
G36*
X66542793Y-95038418D02*
G01*
X64565149Y-93060520D01*
X68520691Y-93060520D01*
X66543047Y-95038418D01*
X66542793Y-95038418D01*
G37*
M02*
