G04 #@! TF.GenerationSoftware,KiCad,Pcbnew,(5.1.8)-1*
G04 #@! TF.CreationDate,2020-12-31T16:53:10-05:00*
G04 #@! TF.ProjectId,trackpad_test,74726163-6b70-4616-945f-746573742e6b,rev?*
G04 #@! TF.SameCoordinates,Original*
G04 #@! TF.FileFunction,Copper,L2,Bot*
G04 #@! TF.FilePolarity,Positive*
%FSLAX46Y46*%
G04 Gerber Fmt 4.6, Leading zero omitted, Abs format (unit mm)*
G04 Created by KiCad (PCBNEW (5.1.8)-1) date 2020-12-31 16:53:10*
%MOMM*%
%LPD*%
G01*
G04 APERTURE LIST*
G04 #@! TA.AperFunction,NonConductor*
%ADD10C,0.254000*%
G04 #@! TD*
G04 #@! TA.AperFunction,ComponentPad*
%ADD11C,0.508000*%
G04 #@! TD*
G04 #@! TA.AperFunction,SMDPad,CuDef*
%ADD12R,3.150000X1.000000*%
G04 #@! TD*
G04 #@! TA.AperFunction,SMDPad,CuDef*
%ADD13C,0.100000*%
G04 #@! TD*
G04 #@! TA.AperFunction,ViaPad*
%ADD14C,0.800000*%
G04 #@! TD*
G04 #@! TA.AperFunction,ViaPad*
%ADD15C,0.457200*%
G04 #@! TD*
G04 #@! TA.AperFunction,ViaPad*
%ADD16C,5.000000*%
G04 #@! TD*
G04 #@! TA.AperFunction,Conductor*
%ADD17C,0.152400*%
G04 #@! TD*
G04 #@! TA.AperFunction,Conductor*
%ADD18C,0.250000*%
G04 #@! TD*
G04 #@! TA.AperFunction,Conductor*
%ADD19C,0.100000*%
G04 #@! TD*
G04 APERTURE END LIST*
D10*
X145444633Y-92171157D02*
X145444633Y-93199252D01*
X145505109Y-93320204D01*
X145565585Y-93380680D01*
X145686538Y-93441157D01*
X145867966Y-93441157D01*
X145988919Y-93380680D01*
X145444633Y-92957347D02*
X145565585Y-93017823D01*
X145807490Y-93017823D01*
X145928442Y-92957347D01*
X145988919Y-92896871D01*
X146049395Y-92775919D01*
X146049395Y-92413061D01*
X145988919Y-92292109D01*
X145928442Y-92231633D01*
X145807490Y-92171157D01*
X145565585Y-92171157D01*
X145444633Y-92231633D01*
X144839871Y-93017823D02*
X144839871Y-92171157D01*
X144839871Y-91747823D02*
X144900347Y-91808300D01*
X144839871Y-91868776D01*
X144779395Y-91808300D01*
X144839871Y-91747823D01*
X144839871Y-91868776D01*
X144416538Y-92171157D02*
X143932728Y-92171157D01*
X144235109Y-91747823D02*
X144235109Y-92836395D01*
X144174633Y-92957347D01*
X144053680Y-93017823D01*
X143932728Y-93017823D01*
X143509395Y-93017823D02*
X143509395Y-91747823D01*
X142965109Y-93017823D02*
X142965109Y-92352585D01*
X143025585Y-92231633D01*
X143146538Y-92171157D01*
X143327966Y-92171157D01*
X143448919Y-92231633D01*
X143509395Y-92292109D01*
X141816061Y-92171157D02*
X141816061Y-93017823D01*
X142360347Y-92171157D02*
X142360347Y-92836395D01*
X142299871Y-92957347D01*
X142178919Y-93017823D01*
X141997490Y-93017823D01*
X141876538Y-92957347D01*
X141816061Y-92896871D01*
X141211300Y-93017823D02*
X141211300Y-91747823D01*
X141211300Y-92231633D02*
X141090347Y-92171157D01*
X140848442Y-92171157D01*
X140727490Y-92231633D01*
X140667014Y-92292109D01*
X140606538Y-92413061D01*
X140606538Y-92775919D01*
X140667014Y-92896871D01*
X140727490Y-92957347D01*
X140848442Y-93017823D01*
X141090347Y-93017823D01*
X141211300Y-92957347D01*
X140062252Y-92896871D02*
X140001776Y-92957347D01*
X140062252Y-93017823D01*
X140122728Y-92957347D01*
X140062252Y-92896871D01*
X140062252Y-93017823D01*
X138913204Y-92957347D02*
X139034157Y-93017823D01*
X139276061Y-93017823D01*
X139397014Y-92957347D01*
X139457490Y-92896871D01*
X139517966Y-92775919D01*
X139517966Y-92413061D01*
X139457490Y-92292109D01*
X139397014Y-92231633D01*
X139276061Y-92171157D01*
X139034157Y-92171157D01*
X138913204Y-92231633D01*
X138187490Y-93017823D02*
X138308442Y-92957347D01*
X138368919Y-92896871D01*
X138429395Y-92775919D01*
X138429395Y-92413061D01*
X138368919Y-92292109D01*
X138308442Y-92231633D01*
X138187490Y-92171157D01*
X138006061Y-92171157D01*
X137885109Y-92231633D01*
X137824633Y-92292109D01*
X137764157Y-92413061D01*
X137764157Y-92775919D01*
X137824633Y-92896871D01*
X137885109Y-92957347D01*
X138006061Y-93017823D01*
X138187490Y-93017823D01*
X137219871Y-93017823D02*
X137219871Y-92171157D01*
X137219871Y-92292109D02*
X137159395Y-92231633D01*
X137038442Y-92171157D01*
X136857014Y-92171157D01*
X136736061Y-92231633D01*
X136675585Y-92352585D01*
X136675585Y-93017823D01*
X136675585Y-92352585D02*
X136615109Y-92231633D01*
X136494157Y-92171157D01*
X136312728Y-92171157D01*
X136191776Y-92231633D01*
X136131300Y-92352585D01*
X136131300Y-93017823D01*
X134619395Y-91687347D02*
X135707966Y-93320204D01*
X133651776Y-92171157D02*
X133651776Y-93199252D01*
X133712252Y-93320204D01*
X133772728Y-93380680D01*
X133893680Y-93441157D01*
X134075109Y-93441157D01*
X134196061Y-93380680D01*
X133651776Y-92957347D02*
X133772728Y-93017823D01*
X134014633Y-93017823D01*
X134135585Y-92957347D01*
X134196061Y-92896871D01*
X134256538Y-92775919D01*
X134256538Y-92413061D01*
X134196061Y-92292109D01*
X134135585Y-92231633D01*
X134014633Y-92171157D01*
X133772728Y-92171157D01*
X133651776Y-92231633D01*
X132502728Y-93017823D02*
X132502728Y-92352585D01*
X132563204Y-92231633D01*
X132684157Y-92171157D01*
X132926061Y-92171157D01*
X133047014Y-92231633D01*
X132502728Y-92957347D02*
X132623680Y-93017823D01*
X132926061Y-93017823D01*
X133047014Y-92957347D01*
X133107490Y-92836395D01*
X133107490Y-92715442D01*
X133047014Y-92594490D01*
X132926061Y-92534014D01*
X132623680Y-92534014D01*
X132502728Y-92473538D01*
X131897966Y-92171157D02*
X131897966Y-93017823D01*
X131897966Y-92292109D02*
X131837490Y-92231633D01*
X131716538Y-92171157D01*
X131535109Y-92171157D01*
X131414157Y-92231633D01*
X131353680Y-92352585D01*
X131353680Y-93017823D01*
X130748919Y-93017823D02*
X130748919Y-92171157D01*
X130748919Y-92292109D02*
X130688442Y-92231633D01*
X130567490Y-92171157D01*
X130386061Y-92171157D01*
X130265109Y-92231633D01*
X130204633Y-92352585D01*
X130204633Y-93017823D01*
X130204633Y-92352585D02*
X130144157Y-92231633D01*
X130023204Y-92171157D01*
X129841776Y-92171157D01*
X129720823Y-92231633D01*
X129660347Y-92352585D01*
X129660347Y-93017823D01*
X128511300Y-93017823D02*
X128511300Y-92352585D01*
X128571776Y-92231633D01*
X128692728Y-92171157D01*
X128934633Y-92171157D01*
X129055585Y-92231633D01*
X128511300Y-92957347D02*
X128632252Y-93017823D01*
X128934633Y-93017823D01*
X129055585Y-92957347D01*
X129116061Y-92836395D01*
X129116061Y-92715442D01*
X129055585Y-92594490D01*
X128934633Y-92534014D01*
X128632252Y-92534014D01*
X128511300Y-92473538D01*
X127906538Y-92171157D02*
X127906538Y-93017823D01*
X127906538Y-92292109D02*
X127846061Y-92231633D01*
X127725109Y-92171157D01*
X127543680Y-92171157D01*
X127422728Y-92231633D01*
X127362252Y-92352585D01*
X127362252Y-93017823D01*
X126213204Y-92957347D02*
X126334157Y-93017823D01*
X126576061Y-93017823D01*
X126697014Y-92957347D01*
X126757490Y-92896871D01*
X126817966Y-92775919D01*
X126817966Y-92413061D01*
X126757490Y-92292109D01*
X126697014Y-92231633D01*
X126576061Y-92171157D01*
X126334157Y-92171157D01*
X126213204Y-92231633D01*
X125124633Y-93017823D02*
X125124633Y-92352585D01*
X125185109Y-92231633D01*
X125306061Y-92171157D01*
X125547966Y-92171157D01*
X125668919Y-92231633D01*
X125124633Y-92957347D02*
X125245585Y-93017823D01*
X125547966Y-93017823D01*
X125668919Y-92957347D01*
X125729395Y-92836395D01*
X125729395Y-92715442D01*
X125668919Y-92594490D01*
X125547966Y-92534014D01*
X125245585Y-92534014D01*
X125124633Y-92473538D01*
X124519871Y-92171157D02*
X124519871Y-93017823D01*
X124519871Y-92292109D02*
X124459395Y-92231633D01*
X124338442Y-92171157D01*
X124157014Y-92171157D01*
X124036061Y-92231633D01*
X123975585Y-92352585D01*
X123975585Y-93017823D01*
X146170347Y-94330157D02*
X145686538Y-94330157D01*
X145988919Y-93906823D02*
X145988919Y-94995395D01*
X145928442Y-95116347D01*
X145807490Y-95176823D01*
X145686538Y-95176823D01*
X145263204Y-95176823D02*
X145263204Y-94330157D01*
X145263204Y-94572061D02*
X145202728Y-94451109D01*
X145142252Y-94390633D01*
X145021300Y-94330157D01*
X144900347Y-94330157D01*
X143932728Y-95176823D02*
X143932728Y-94511585D01*
X143993204Y-94390633D01*
X144114157Y-94330157D01*
X144356061Y-94330157D01*
X144477014Y-94390633D01*
X143932728Y-95116347D02*
X144053680Y-95176823D01*
X144356061Y-95176823D01*
X144477014Y-95116347D01*
X144537490Y-94995395D01*
X144537490Y-94874442D01*
X144477014Y-94753490D01*
X144356061Y-94693014D01*
X144053680Y-94693014D01*
X143932728Y-94632538D01*
X142783680Y-95116347D02*
X142904633Y-95176823D01*
X143146538Y-95176823D01*
X143267490Y-95116347D01*
X143327966Y-95055871D01*
X143388442Y-94934919D01*
X143388442Y-94572061D01*
X143327966Y-94451109D01*
X143267490Y-94390633D01*
X143146538Y-94330157D01*
X142904633Y-94330157D01*
X142783680Y-94390633D01*
X142239395Y-95176823D02*
X142239395Y-93906823D01*
X142118442Y-94693014D02*
X141755585Y-95176823D01*
X141755585Y-94330157D02*
X142239395Y-94813966D01*
X141211300Y-94330157D02*
X141211300Y-95600157D01*
X141211300Y-94390633D02*
X141090347Y-94330157D01*
X140848442Y-94330157D01*
X140727490Y-94390633D01*
X140667014Y-94451109D01*
X140606538Y-94572061D01*
X140606538Y-94934919D01*
X140667014Y-95055871D01*
X140727490Y-95116347D01*
X140848442Y-95176823D01*
X141090347Y-95176823D01*
X141211300Y-95116347D01*
X139517966Y-95176823D02*
X139517966Y-94511585D01*
X139578442Y-94390633D01*
X139699395Y-94330157D01*
X139941300Y-94330157D01*
X140062252Y-94390633D01*
X139517966Y-95116347D02*
X139638919Y-95176823D01*
X139941300Y-95176823D01*
X140062252Y-95116347D01*
X140122728Y-94995395D01*
X140122728Y-94874442D01*
X140062252Y-94753490D01*
X139941300Y-94693014D01*
X139638919Y-94693014D01*
X139517966Y-94632538D01*
X138368919Y-95176823D02*
X138368919Y-93906823D01*
X138368919Y-95116347D02*
X138489871Y-95176823D01*
X138731776Y-95176823D01*
X138852728Y-95116347D01*
X138913204Y-95055871D01*
X138973680Y-94934919D01*
X138973680Y-94572061D01*
X138913204Y-94451109D01*
X138852728Y-94390633D01*
X138731776Y-94330157D01*
X138489871Y-94330157D01*
X138368919Y-94390633D01*
X138066538Y-95297776D02*
X137098919Y-95297776D01*
X136252252Y-95116347D02*
X136373204Y-95176823D01*
X136615109Y-95176823D01*
X136736061Y-95116347D01*
X136796538Y-95055871D01*
X136857014Y-94934919D01*
X136857014Y-94572061D01*
X136796538Y-94451109D01*
X136736061Y-94390633D01*
X136615109Y-94330157D01*
X136373204Y-94330157D01*
X136252252Y-94390633D01*
X135163680Y-95176823D02*
X135163680Y-94511585D01*
X135224157Y-94390633D01*
X135345109Y-94330157D01*
X135587014Y-94330157D01*
X135707966Y-94390633D01*
X135163680Y-95116347D02*
X135284633Y-95176823D01*
X135587014Y-95176823D01*
X135707966Y-95116347D01*
X135768442Y-94995395D01*
X135768442Y-94874442D01*
X135707966Y-94753490D01*
X135587014Y-94693014D01*
X135284633Y-94693014D01*
X135163680Y-94632538D01*
X134558919Y-95176823D02*
X134558919Y-94330157D01*
X134558919Y-94572061D02*
X134498442Y-94451109D01*
X134437966Y-94390633D01*
X134317014Y-94330157D01*
X134196061Y-94330157D01*
X133228442Y-95176823D02*
X133228442Y-93906823D01*
X133228442Y-95116347D02*
X133349395Y-95176823D01*
X133591299Y-95176823D01*
X133712252Y-95116347D01*
X133772728Y-95055871D01*
X133833204Y-94934919D01*
X133833204Y-94572061D01*
X133772728Y-94451109D01*
X133712252Y-94390633D01*
X133591299Y-94330157D01*
X133349395Y-94330157D01*
X133228442Y-94390633D01*
X132926061Y-95297776D02*
X131958442Y-95297776D01*
X131777014Y-94330157D02*
X131474633Y-95176823D01*
X131172252Y-94330157D01*
X130446538Y-93906823D02*
X130325585Y-93906823D01*
X130204633Y-93967300D01*
X130144157Y-94027776D01*
X130083680Y-94148728D01*
X130023204Y-94390633D01*
X130023204Y-94693014D01*
X130083680Y-94934919D01*
X130144157Y-95055871D01*
X130204633Y-95116347D01*
X130325585Y-95176823D01*
X130446538Y-95176823D01*
X130567490Y-95116347D01*
X130627966Y-95055871D01*
X130688442Y-94934919D01*
X130748919Y-94693014D01*
X130748919Y-94390633D01*
X130688442Y-94148728D01*
X130627966Y-94027776D01*
X130567490Y-93967300D01*
X130446538Y-93906823D01*
X129781299Y-95297776D02*
X128813680Y-95297776D01*
X127846061Y-95176823D02*
X128571776Y-95176823D01*
X128208919Y-95176823D02*
X128208919Y-93906823D01*
X128329871Y-94088252D01*
X128450823Y-94209204D01*
X128571776Y-94269680D01*
D11*
X125476000Y-128975800D03*
X125476000Y-131475800D03*
X123726000Y-130225800D03*
X124601000Y-130225800D03*
X125476000Y-130225800D03*
X126351000Y-130225800D03*
X127226000Y-130225800D03*
D12*
X145207200Y-125628400D03*
X140157200Y-125628400D03*
X145207200Y-128168400D03*
X140157200Y-128168400D03*
X145207200Y-130708400D03*
X140157200Y-130708400D03*
X145207200Y-133248400D03*
X140157200Y-133248400D03*
X145207200Y-135788400D03*
X140157200Y-135788400D03*
G04 #@! TA.AperFunction,SMDPad,CuDef*
D13*
G36*
X99880547Y-129180082D02*
G01*
X101858191Y-131157980D01*
X97902649Y-131157980D01*
X99880293Y-129180082D01*
X99880547Y-129180082D01*
G37*
G04 #@! TD.AperFunction*
G04 #@! TA.AperFunction,SMDPad,CuDef*
G36*
X95118047Y-129180082D02*
G01*
X97095691Y-131157980D01*
X93140149Y-131157980D01*
X95117793Y-129180082D01*
X95118047Y-129180082D01*
G37*
G04 #@! TD.AperFunction*
G04 #@! TA.AperFunction,SMDPad,CuDef*
G36*
X90355547Y-129180082D02*
G01*
X92333191Y-131157980D01*
X88377649Y-131157980D01*
X90355293Y-129180082D01*
X90355547Y-129180082D01*
G37*
G04 #@! TD.AperFunction*
G04 #@! TA.AperFunction,SMDPad,CuDef*
G36*
X85593047Y-129180082D02*
G01*
X87570691Y-131157980D01*
X83615149Y-131157980D01*
X85592793Y-129180082D01*
X85593047Y-129180082D01*
G37*
G04 #@! TD.AperFunction*
G04 #@! TA.AperFunction,SMDPad,CuDef*
G36*
X80830547Y-129180082D02*
G01*
X82808191Y-131157980D01*
X78852649Y-131157980D01*
X80830293Y-129180082D01*
X80830547Y-129180082D01*
G37*
G04 #@! TD.AperFunction*
G04 #@! TA.AperFunction,SMDPad,CuDef*
G36*
X76068047Y-129180082D02*
G01*
X78045691Y-131157980D01*
X74090149Y-131157980D01*
X76067793Y-129180082D01*
X76068047Y-129180082D01*
G37*
G04 #@! TD.AperFunction*
G04 #@! TA.AperFunction,SMDPad,CuDef*
G36*
X71305547Y-129180082D02*
G01*
X73283191Y-131157980D01*
X69327649Y-131157980D01*
X71305293Y-129180082D01*
X71305547Y-129180082D01*
G37*
G04 #@! TD.AperFunction*
G04 #@! TA.AperFunction,SMDPad,CuDef*
G36*
X100282502Y-128777873D02*
G01*
X102260400Y-126800229D01*
X102260400Y-130755771D01*
X100282502Y-128778127D01*
X100282502Y-128777873D01*
G37*
G04 #@! TD.AperFunction*
G04 #@! TA.AperFunction,SMDPad,CuDef*
G36*
X100282502Y-124015373D02*
G01*
X102260400Y-122037729D01*
X102260400Y-125993271D01*
X100282502Y-124015627D01*
X100282502Y-124015373D01*
G37*
G04 #@! TD.AperFunction*
G04 #@! TA.AperFunction,SMDPad,CuDef*
G36*
X100282502Y-119252873D02*
G01*
X102260400Y-117275229D01*
X102260400Y-121230771D01*
X100282502Y-119253127D01*
X100282502Y-119252873D01*
G37*
G04 #@! TD.AperFunction*
G04 #@! TA.AperFunction,SMDPad,CuDef*
G36*
X100282502Y-114490373D02*
G01*
X102260400Y-112512729D01*
X102260400Y-116468271D01*
X100282502Y-114490627D01*
X100282502Y-114490373D01*
G37*
G04 #@! TD.AperFunction*
G04 #@! TA.AperFunction,SMDPad,CuDef*
G36*
X100282502Y-109727873D02*
G01*
X102260400Y-107750229D01*
X102260400Y-111705771D01*
X100282502Y-109728127D01*
X100282502Y-109727873D01*
G37*
G04 #@! TD.AperFunction*
G04 #@! TA.AperFunction,SMDPad,CuDef*
G36*
X100282502Y-104965373D02*
G01*
X102260400Y-102987729D01*
X102260400Y-106943271D01*
X100282502Y-104965627D01*
X100282502Y-104965373D01*
G37*
G04 #@! TD.AperFunction*
G04 #@! TA.AperFunction,SMDPad,CuDef*
G36*
X100282502Y-100202873D02*
G01*
X102260400Y-98225229D01*
X102260400Y-102180771D01*
X100282502Y-100203127D01*
X100282502Y-100202873D01*
G37*
G04 #@! TD.AperFunction*
G04 #@! TA.AperFunction,SMDPad,CuDef*
G36*
X66543047Y-129180082D02*
G01*
X68520691Y-131157980D01*
X64565149Y-131157980D01*
X66542793Y-129180082D01*
X66543047Y-129180082D01*
G37*
G04 #@! TD.AperFunction*
G04 #@! TA.AperFunction,SMDPad,CuDef*
G36*
X100282502Y-95440373D02*
G01*
X102260400Y-93462729D01*
X102260400Y-97418271D01*
X100282502Y-95440627D01*
X100282502Y-95440373D01*
G37*
G04 #@! TD.AperFunction*
G04 #@! TA.AperFunction,SMDPad,CuDef*
G36*
X66140838Y-128778127D02*
G01*
X64162940Y-130755771D01*
X64162940Y-126800229D01*
X66140838Y-128777873D01*
X66140838Y-128778127D01*
G37*
G04 #@! TD.AperFunction*
G04 #@! TA.AperFunction,SMDPad,CuDef*
G36*
X66140838Y-124015627D02*
G01*
X64162940Y-125993271D01*
X64162940Y-122037729D01*
X66140838Y-124015373D01*
X66140838Y-124015627D01*
G37*
G04 #@! TD.AperFunction*
G04 #@! TA.AperFunction,SMDPad,CuDef*
G36*
X66140838Y-119253127D02*
G01*
X64162940Y-121230771D01*
X64162940Y-117275229D01*
X66140838Y-119252873D01*
X66140838Y-119253127D01*
G37*
G04 #@! TD.AperFunction*
G04 #@! TA.AperFunction,SMDPad,CuDef*
G36*
X66140838Y-114490627D02*
G01*
X64162940Y-116468271D01*
X64162940Y-112512729D01*
X66140838Y-114490373D01*
X66140838Y-114490627D01*
G37*
G04 #@! TD.AperFunction*
G04 #@! TA.AperFunction,SMDPad,CuDef*
G36*
X66140838Y-109728127D02*
G01*
X64162940Y-111705771D01*
X64162940Y-107750229D01*
X66140838Y-109727873D01*
X66140838Y-109728127D01*
G37*
G04 #@! TD.AperFunction*
G04 #@! TA.AperFunction,SMDPad,CuDef*
G36*
X66140838Y-104965627D02*
G01*
X64162940Y-106943271D01*
X64162940Y-102987729D01*
X66140838Y-104965373D01*
X66140838Y-104965627D01*
G37*
G04 #@! TD.AperFunction*
G04 #@! TA.AperFunction,SMDPad,CuDef*
G36*
X66140838Y-100203127D02*
G01*
X64162940Y-102180771D01*
X64162940Y-98225229D01*
X66140838Y-100202873D01*
X66140838Y-100203127D01*
G37*
G04 #@! TD.AperFunction*
G04 #@! TA.AperFunction,SMDPad,CuDef*
G36*
X99880293Y-95038418D02*
G01*
X97902649Y-93060520D01*
X101858191Y-93060520D01*
X99880547Y-95038418D01*
X99880293Y-95038418D01*
G37*
G04 #@! TD.AperFunction*
G04 #@! TA.AperFunction,SMDPad,CuDef*
G36*
X95117793Y-95038418D02*
G01*
X93140149Y-93060520D01*
X97095691Y-93060520D01*
X95118047Y-95038418D01*
X95117793Y-95038418D01*
G37*
G04 #@! TD.AperFunction*
G04 #@! TA.AperFunction,SMDPad,CuDef*
G36*
X90355293Y-95038418D02*
G01*
X88377649Y-93060520D01*
X92333191Y-93060520D01*
X90355547Y-95038418D01*
X90355293Y-95038418D01*
G37*
G04 #@! TD.AperFunction*
G04 #@! TA.AperFunction,SMDPad,CuDef*
G36*
X85592793Y-95038418D02*
G01*
X83615149Y-93060520D01*
X87570691Y-93060520D01*
X85593047Y-95038418D01*
X85592793Y-95038418D01*
G37*
G04 #@! TD.AperFunction*
G04 #@! TA.AperFunction,SMDPad,CuDef*
G36*
X80830293Y-95038418D02*
G01*
X78852649Y-93060520D01*
X82808191Y-93060520D01*
X80830547Y-95038418D01*
X80830293Y-95038418D01*
G37*
G04 #@! TD.AperFunction*
G04 #@! TA.AperFunction,SMDPad,CuDef*
G36*
X76067793Y-95038418D02*
G01*
X74090149Y-93060520D01*
X78045691Y-93060520D01*
X76068047Y-95038418D01*
X76067793Y-95038418D01*
G37*
G04 #@! TD.AperFunction*
G04 #@! TA.AperFunction,SMDPad,CuDef*
G36*
X71305293Y-95038418D02*
G01*
X69327649Y-93060520D01*
X73283191Y-93060520D01*
X71305547Y-95038418D01*
X71305293Y-95038418D01*
G37*
G04 #@! TD.AperFunction*
G04 #@! TA.AperFunction,SMDPad,CuDef*
G36*
X66140838Y-95440627D02*
G01*
X64162940Y-97418271D01*
X64162940Y-93462729D01*
X66140838Y-95440373D01*
X66140838Y-95440627D01*
G37*
G04 #@! TD.AperFunction*
G04 #@! TA.AperFunction,SMDPad,CuDef*
G36*
X68922900Y-93464844D02*
G01*
X70898556Y-95440500D01*
X68922900Y-97416156D01*
X66947244Y-95440500D01*
X68922900Y-93464844D01*
G37*
G04 #@! TD.AperFunction*
G04 #@! TA.AperFunction,SMDPad,CuDef*
G36*
X68922900Y-98227344D02*
G01*
X70898556Y-100203000D01*
X68922900Y-102178656D01*
X66947244Y-100203000D01*
X68922900Y-98227344D01*
G37*
G04 #@! TD.AperFunction*
G04 #@! TA.AperFunction,SMDPad,CuDef*
G36*
X68922900Y-102989844D02*
G01*
X70898556Y-104965500D01*
X68922900Y-106941156D01*
X66947244Y-104965500D01*
X68922900Y-102989844D01*
G37*
G04 #@! TD.AperFunction*
G04 #@! TA.AperFunction,SMDPad,CuDef*
G36*
X68922900Y-107752344D02*
G01*
X70898556Y-109728000D01*
X68922900Y-111703656D01*
X66947244Y-109728000D01*
X68922900Y-107752344D01*
G37*
G04 #@! TD.AperFunction*
G04 #@! TA.AperFunction,SMDPad,CuDef*
G36*
X68922900Y-112514844D02*
G01*
X70898556Y-114490500D01*
X68922900Y-116466156D01*
X66947244Y-114490500D01*
X68922900Y-112514844D01*
G37*
G04 #@! TD.AperFunction*
G04 #@! TA.AperFunction,SMDPad,CuDef*
G36*
X68922900Y-117277344D02*
G01*
X70898556Y-119253000D01*
X68922900Y-121228656D01*
X66947244Y-119253000D01*
X68922900Y-117277344D01*
G37*
G04 #@! TD.AperFunction*
G04 #@! TA.AperFunction,SMDPad,CuDef*
G36*
X68922900Y-122039844D02*
G01*
X70898556Y-124015500D01*
X68922900Y-125991156D01*
X66947244Y-124015500D01*
X68922900Y-122039844D01*
G37*
G04 #@! TD.AperFunction*
G04 #@! TA.AperFunction,SMDPad,CuDef*
G36*
X68922900Y-126802344D02*
G01*
X70898556Y-128778000D01*
X68922900Y-130753656D01*
X66947244Y-128778000D01*
X68922900Y-126802344D01*
G37*
G04 #@! TD.AperFunction*
G04 #@! TA.AperFunction,SMDPad,CuDef*
G36*
X73685400Y-93464844D02*
G01*
X75661056Y-95440500D01*
X73685400Y-97416156D01*
X71709744Y-95440500D01*
X73685400Y-93464844D01*
G37*
G04 #@! TD.AperFunction*
G04 #@! TA.AperFunction,SMDPad,CuDef*
G36*
X73685400Y-98227344D02*
G01*
X75661056Y-100203000D01*
X73685400Y-102178656D01*
X71709744Y-100203000D01*
X73685400Y-98227344D01*
G37*
G04 #@! TD.AperFunction*
G04 #@! TA.AperFunction,SMDPad,CuDef*
G36*
X73685400Y-102989844D02*
G01*
X75661056Y-104965500D01*
X73685400Y-106941156D01*
X71709744Y-104965500D01*
X73685400Y-102989844D01*
G37*
G04 #@! TD.AperFunction*
G04 #@! TA.AperFunction,SMDPad,CuDef*
G36*
X73685400Y-107752344D02*
G01*
X75661056Y-109728000D01*
X73685400Y-111703656D01*
X71709744Y-109728000D01*
X73685400Y-107752344D01*
G37*
G04 #@! TD.AperFunction*
G04 #@! TA.AperFunction,SMDPad,CuDef*
G36*
X73685400Y-112514844D02*
G01*
X75661056Y-114490500D01*
X73685400Y-116466156D01*
X71709744Y-114490500D01*
X73685400Y-112514844D01*
G37*
G04 #@! TD.AperFunction*
G04 #@! TA.AperFunction,SMDPad,CuDef*
G36*
X73685400Y-117277344D02*
G01*
X75661056Y-119253000D01*
X73685400Y-121228656D01*
X71709744Y-119253000D01*
X73685400Y-117277344D01*
G37*
G04 #@! TD.AperFunction*
G04 #@! TA.AperFunction,SMDPad,CuDef*
G36*
X73685400Y-122039844D02*
G01*
X75661056Y-124015500D01*
X73685400Y-125991156D01*
X71709744Y-124015500D01*
X73685400Y-122039844D01*
G37*
G04 #@! TD.AperFunction*
G04 #@! TA.AperFunction,SMDPad,CuDef*
G36*
X73685400Y-126802344D02*
G01*
X75661056Y-128778000D01*
X73685400Y-130753656D01*
X71709744Y-128778000D01*
X73685400Y-126802344D01*
G37*
G04 #@! TD.AperFunction*
G04 #@! TA.AperFunction,SMDPad,CuDef*
G36*
X78447900Y-93464844D02*
G01*
X80423556Y-95440500D01*
X78447900Y-97416156D01*
X76472244Y-95440500D01*
X78447900Y-93464844D01*
G37*
G04 #@! TD.AperFunction*
G04 #@! TA.AperFunction,SMDPad,CuDef*
G36*
X78447900Y-98227344D02*
G01*
X80423556Y-100203000D01*
X78447900Y-102178656D01*
X76472244Y-100203000D01*
X78447900Y-98227344D01*
G37*
G04 #@! TD.AperFunction*
G04 #@! TA.AperFunction,SMDPad,CuDef*
G36*
X78447900Y-102989844D02*
G01*
X80423556Y-104965500D01*
X78447900Y-106941156D01*
X76472244Y-104965500D01*
X78447900Y-102989844D01*
G37*
G04 #@! TD.AperFunction*
G04 #@! TA.AperFunction,SMDPad,CuDef*
G36*
X78447900Y-107752344D02*
G01*
X80423556Y-109728000D01*
X78447900Y-111703656D01*
X76472244Y-109728000D01*
X78447900Y-107752344D01*
G37*
G04 #@! TD.AperFunction*
G04 #@! TA.AperFunction,SMDPad,CuDef*
G36*
X78447900Y-112514844D02*
G01*
X80423556Y-114490500D01*
X78447900Y-116466156D01*
X76472244Y-114490500D01*
X78447900Y-112514844D01*
G37*
G04 #@! TD.AperFunction*
G04 #@! TA.AperFunction,SMDPad,CuDef*
G36*
X78447900Y-117277344D02*
G01*
X80423556Y-119253000D01*
X78447900Y-121228656D01*
X76472244Y-119253000D01*
X78447900Y-117277344D01*
G37*
G04 #@! TD.AperFunction*
G04 #@! TA.AperFunction,SMDPad,CuDef*
G36*
X78447900Y-122039844D02*
G01*
X80423556Y-124015500D01*
X78447900Y-125991156D01*
X76472244Y-124015500D01*
X78447900Y-122039844D01*
G37*
G04 #@! TD.AperFunction*
G04 #@! TA.AperFunction,SMDPad,CuDef*
G36*
X78447900Y-126802344D02*
G01*
X80423556Y-128778000D01*
X78447900Y-130753656D01*
X76472244Y-128778000D01*
X78447900Y-126802344D01*
G37*
G04 #@! TD.AperFunction*
G04 #@! TA.AperFunction,SMDPad,CuDef*
G36*
X83210400Y-93464844D02*
G01*
X85186056Y-95440500D01*
X83210400Y-97416156D01*
X81234744Y-95440500D01*
X83210400Y-93464844D01*
G37*
G04 #@! TD.AperFunction*
G04 #@! TA.AperFunction,SMDPad,CuDef*
G36*
X83210400Y-98227344D02*
G01*
X85186056Y-100203000D01*
X83210400Y-102178656D01*
X81234744Y-100203000D01*
X83210400Y-98227344D01*
G37*
G04 #@! TD.AperFunction*
G04 #@! TA.AperFunction,SMDPad,CuDef*
G36*
X83210400Y-102989844D02*
G01*
X85186056Y-104965500D01*
X83210400Y-106941156D01*
X81234744Y-104965500D01*
X83210400Y-102989844D01*
G37*
G04 #@! TD.AperFunction*
G04 #@! TA.AperFunction,SMDPad,CuDef*
G36*
X83210400Y-107752344D02*
G01*
X85186056Y-109728000D01*
X83210400Y-111703656D01*
X81234744Y-109728000D01*
X83210400Y-107752344D01*
G37*
G04 #@! TD.AperFunction*
G04 #@! TA.AperFunction,SMDPad,CuDef*
G36*
X83210400Y-112514844D02*
G01*
X85186056Y-114490500D01*
X83210400Y-116466156D01*
X81234744Y-114490500D01*
X83210400Y-112514844D01*
G37*
G04 #@! TD.AperFunction*
G04 #@! TA.AperFunction,SMDPad,CuDef*
G36*
X83210400Y-117277344D02*
G01*
X85186056Y-119253000D01*
X83210400Y-121228656D01*
X81234744Y-119253000D01*
X83210400Y-117277344D01*
G37*
G04 #@! TD.AperFunction*
G04 #@! TA.AperFunction,SMDPad,CuDef*
G36*
X83210400Y-122039844D02*
G01*
X85186056Y-124015500D01*
X83210400Y-125991156D01*
X81234744Y-124015500D01*
X83210400Y-122039844D01*
G37*
G04 #@! TD.AperFunction*
G04 #@! TA.AperFunction,SMDPad,CuDef*
G36*
X83210400Y-126802344D02*
G01*
X85186056Y-128778000D01*
X83210400Y-130753656D01*
X81234744Y-128778000D01*
X83210400Y-126802344D01*
G37*
G04 #@! TD.AperFunction*
G04 #@! TA.AperFunction,SMDPad,CuDef*
G36*
X87972900Y-93464844D02*
G01*
X89948556Y-95440500D01*
X87972900Y-97416156D01*
X85997244Y-95440500D01*
X87972900Y-93464844D01*
G37*
G04 #@! TD.AperFunction*
G04 #@! TA.AperFunction,SMDPad,CuDef*
G36*
X87972900Y-98227344D02*
G01*
X89948556Y-100203000D01*
X87972900Y-102178656D01*
X85997244Y-100203000D01*
X87972900Y-98227344D01*
G37*
G04 #@! TD.AperFunction*
G04 #@! TA.AperFunction,SMDPad,CuDef*
G36*
X87972900Y-102989844D02*
G01*
X89948556Y-104965500D01*
X87972900Y-106941156D01*
X85997244Y-104965500D01*
X87972900Y-102989844D01*
G37*
G04 #@! TD.AperFunction*
G04 #@! TA.AperFunction,SMDPad,CuDef*
G36*
X87972900Y-107752344D02*
G01*
X89948556Y-109728000D01*
X87972900Y-111703656D01*
X85997244Y-109728000D01*
X87972900Y-107752344D01*
G37*
G04 #@! TD.AperFunction*
G04 #@! TA.AperFunction,SMDPad,CuDef*
G36*
X87972900Y-112514844D02*
G01*
X89948556Y-114490500D01*
X87972900Y-116466156D01*
X85997244Y-114490500D01*
X87972900Y-112514844D01*
G37*
G04 #@! TD.AperFunction*
G04 #@! TA.AperFunction,SMDPad,CuDef*
G36*
X87972900Y-117277344D02*
G01*
X89948556Y-119253000D01*
X87972900Y-121228656D01*
X85997244Y-119253000D01*
X87972900Y-117277344D01*
G37*
G04 #@! TD.AperFunction*
G04 #@! TA.AperFunction,SMDPad,CuDef*
G36*
X87972900Y-122039844D02*
G01*
X89948556Y-124015500D01*
X87972900Y-125991156D01*
X85997244Y-124015500D01*
X87972900Y-122039844D01*
G37*
G04 #@! TD.AperFunction*
G04 #@! TA.AperFunction,SMDPad,CuDef*
G36*
X87972900Y-126802344D02*
G01*
X89948556Y-128778000D01*
X87972900Y-130753656D01*
X85997244Y-128778000D01*
X87972900Y-126802344D01*
G37*
G04 #@! TD.AperFunction*
G04 #@! TA.AperFunction,SMDPad,CuDef*
G36*
X92735400Y-93464844D02*
G01*
X94711056Y-95440500D01*
X92735400Y-97416156D01*
X90759744Y-95440500D01*
X92735400Y-93464844D01*
G37*
G04 #@! TD.AperFunction*
G04 #@! TA.AperFunction,SMDPad,CuDef*
G36*
X92735400Y-98227344D02*
G01*
X94711056Y-100203000D01*
X92735400Y-102178656D01*
X90759744Y-100203000D01*
X92735400Y-98227344D01*
G37*
G04 #@! TD.AperFunction*
G04 #@! TA.AperFunction,SMDPad,CuDef*
G36*
X92735400Y-102989844D02*
G01*
X94711056Y-104965500D01*
X92735400Y-106941156D01*
X90759744Y-104965500D01*
X92735400Y-102989844D01*
G37*
G04 #@! TD.AperFunction*
G04 #@! TA.AperFunction,SMDPad,CuDef*
G36*
X92735400Y-107752344D02*
G01*
X94711056Y-109728000D01*
X92735400Y-111703656D01*
X90759744Y-109728000D01*
X92735400Y-107752344D01*
G37*
G04 #@! TD.AperFunction*
G04 #@! TA.AperFunction,SMDPad,CuDef*
G36*
X92735400Y-112514844D02*
G01*
X94711056Y-114490500D01*
X92735400Y-116466156D01*
X90759744Y-114490500D01*
X92735400Y-112514844D01*
G37*
G04 #@! TD.AperFunction*
G04 #@! TA.AperFunction,SMDPad,CuDef*
G36*
X92735400Y-117277344D02*
G01*
X94711056Y-119253000D01*
X92735400Y-121228656D01*
X90759744Y-119253000D01*
X92735400Y-117277344D01*
G37*
G04 #@! TD.AperFunction*
G04 #@! TA.AperFunction,SMDPad,CuDef*
G36*
X92735400Y-122039844D02*
G01*
X94711056Y-124015500D01*
X92735400Y-125991156D01*
X90759744Y-124015500D01*
X92735400Y-122039844D01*
G37*
G04 #@! TD.AperFunction*
G04 #@! TA.AperFunction,SMDPad,CuDef*
G36*
X92735400Y-126802344D02*
G01*
X94711056Y-128778000D01*
X92735400Y-130753656D01*
X90759744Y-128778000D01*
X92735400Y-126802344D01*
G37*
G04 #@! TD.AperFunction*
G04 #@! TA.AperFunction,SMDPad,CuDef*
G36*
X97497900Y-93464844D02*
G01*
X99473556Y-95440500D01*
X97497900Y-97416156D01*
X95522244Y-95440500D01*
X97497900Y-93464844D01*
G37*
G04 #@! TD.AperFunction*
G04 #@! TA.AperFunction,SMDPad,CuDef*
G36*
X97497900Y-98227344D02*
G01*
X99473556Y-100203000D01*
X97497900Y-102178656D01*
X95522244Y-100203000D01*
X97497900Y-98227344D01*
G37*
G04 #@! TD.AperFunction*
G04 #@! TA.AperFunction,SMDPad,CuDef*
G36*
X97497900Y-102989844D02*
G01*
X99473556Y-104965500D01*
X97497900Y-106941156D01*
X95522244Y-104965500D01*
X97497900Y-102989844D01*
G37*
G04 #@! TD.AperFunction*
G04 #@! TA.AperFunction,SMDPad,CuDef*
G36*
X97497900Y-107752344D02*
G01*
X99473556Y-109728000D01*
X97497900Y-111703656D01*
X95522244Y-109728000D01*
X97497900Y-107752344D01*
G37*
G04 #@! TD.AperFunction*
G04 #@! TA.AperFunction,SMDPad,CuDef*
G36*
X97497900Y-112514844D02*
G01*
X99473556Y-114490500D01*
X97497900Y-116466156D01*
X95522244Y-114490500D01*
X97497900Y-112514844D01*
G37*
G04 #@! TD.AperFunction*
G04 #@! TA.AperFunction,SMDPad,CuDef*
G36*
X97497900Y-117277344D02*
G01*
X99473556Y-119253000D01*
X97497900Y-121228656D01*
X95522244Y-119253000D01*
X97497900Y-117277344D01*
G37*
G04 #@! TD.AperFunction*
G04 #@! TA.AperFunction,SMDPad,CuDef*
G36*
X97497900Y-122039844D02*
G01*
X99473556Y-124015500D01*
X97497900Y-125991156D01*
X95522244Y-124015500D01*
X97497900Y-122039844D01*
G37*
G04 #@! TD.AperFunction*
G04 #@! TA.AperFunction,SMDPad,CuDef*
G36*
X97497900Y-126802344D02*
G01*
X99473556Y-128778000D01*
X97497900Y-130753656D01*
X95522244Y-128778000D01*
X97497900Y-126802344D01*
G37*
G04 #@! TD.AperFunction*
G04 #@! TA.AperFunction,SMDPad,CuDef*
G36*
X66542920Y-95844824D02*
G01*
X68518576Y-97820480D01*
X66542920Y-99796136D01*
X64567264Y-97820480D01*
X66542920Y-95844824D01*
G37*
G04 #@! TD.AperFunction*
G04 #@! TA.AperFunction,SMDPad,CuDef*
G36*
X66542920Y-100607324D02*
G01*
X68518576Y-102582980D01*
X66542920Y-104558636D01*
X64567264Y-102582980D01*
X66542920Y-100607324D01*
G37*
G04 #@! TD.AperFunction*
G04 #@! TA.AperFunction,SMDPad,CuDef*
G36*
X66542920Y-105369824D02*
G01*
X68518576Y-107345480D01*
X66542920Y-109321136D01*
X64567264Y-107345480D01*
X66542920Y-105369824D01*
G37*
G04 #@! TD.AperFunction*
G04 #@! TA.AperFunction,SMDPad,CuDef*
G36*
X66542920Y-110132324D02*
G01*
X68518576Y-112107980D01*
X66542920Y-114083636D01*
X64567264Y-112107980D01*
X66542920Y-110132324D01*
G37*
G04 #@! TD.AperFunction*
G04 #@! TA.AperFunction,SMDPad,CuDef*
G36*
X66542920Y-114894824D02*
G01*
X68518576Y-116870480D01*
X66542920Y-118846136D01*
X64567264Y-116870480D01*
X66542920Y-114894824D01*
G37*
G04 #@! TD.AperFunction*
G04 #@! TA.AperFunction,SMDPad,CuDef*
G36*
X66542920Y-119657324D02*
G01*
X68518576Y-121632980D01*
X66542920Y-123608636D01*
X64567264Y-121632980D01*
X66542920Y-119657324D01*
G37*
G04 #@! TD.AperFunction*
G04 #@! TA.AperFunction,SMDPad,CuDef*
G36*
X66542920Y-124419824D02*
G01*
X68518576Y-126395480D01*
X66542920Y-128371136D01*
X64567264Y-126395480D01*
X66542920Y-124419824D01*
G37*
G04 #@! TD.AperFunction*
G04 #@! TA.AperFunction,SMDPad,CuDef*
G36*
X71305420Y-95844824D02*
G01*
X73281076Y-97820480D01*
X71305420Y-99796136D01*
X69329764Y-97820480D01*
X71305420Y-95844824D01*
G37*
G04 #@! TD.AperFunction*
G04 #@! TA.AperFunction,SMDPad,CuDef*
G36*
X71305420Y-100607324D02*
G01*
X73281076Y-102582980D01*
X71305420Y-104558636D01*
X69329764Y-102582980D01*
X71305420Y-100607324D01*
G37*
G04 #@! TD.AperFunction*
G04 #@! TA.AperFunction,SMDPad,CuDef*
G36*
X71305420Y-105369824D02*
G01*
X73281076Y-107345480D01*
X71305420Y-109321136D01*
X69329764Y-107345480D01*
X71305420Y-105369824D01*
G37*
G04 #@! TD.AperFunction*
G04 #@! TA.AperFunction,SMDPad,CuDef*
G36*
X71305420Y-110132324D02*
G01*
X73281076Y-112107980D01*
X71305420Y-114083636D01*
X69329764Y-112107980D01*
X71305420Y-110132324D01*
G37*
G04 #@! TD.AperFunction*
G04 #@! TA.AperFunction,SMDPad,CuDef*
G36*
X71305420Y-114894824D02*
G01*
X73281076Y-116870480D01*
X71305420Y-118846136D01*
X69329764Y-116870480D01*
X71305420Y-114894824D01*
G37*
G04 #@! TD.AperFunction*
G04 #@! TA.AperFunction,SMDPad,CuDef*
G36*
X71305420Y-119657324D02*
G01*
X73281076Y-121632980D01*
X71305420Y-123608636D01*
X69329764Y-121632980D01*
X71305420Y-119657324D01*
G37*
G04 #@! TD.AperFunction*
G04 #@! TA.AperFunction,SMDPad,CuDef*
G36*
X71305420Y-124419824D02*
G01*
X73281076Y-126395480D01*
X71305420Y-128371136D01*
X69329764Y-126395480D01*
X71305420Y-124419824D01*
G37*
G04 #@! TD.AperFunction*
G04 #@! TA.AperFunction,SMDPad,CuDef*
G36*
X76067920Y-95844824D02*
G01*
X78043576Y-97820480D01*
X76067920Y-99796136D01*
X74092264Y-97820480D01*
X76067920Y-95844824D01*
G37*
G04 #@! TD.AperFunction*
G04 #@! TA.AperFunction,SMDPad,CuDef*
G36*
X76067920Y-100607324D02*
G01*
X78043576Y-102582980D01*
X76067920Y-104558636D01*
X74092264Y-102582980D01*
X76067920Y-100607324D01*
G37*
G04 #@! TD.AperFunction*
G04 #@! TA.AperFunction,SMDPad,CuDef*
G36*
X76067920Y-105369824D02*
G01*
X78043576Y-107345480D01*
X76067920Y-109321136D01*
X74092264Y-107345480D01*
X76067920Y-105369824D01*
G37*
G04 #@! TD.AperFunction*
G04 #@! TA.AperFunction,SMDPad,CuDef*
G36*
X76067920Y-110132324D02*
G01*
X78043576Y-112107980D01*
X76067920Y-114083636D01*
X74092264Y-112107980D01*
X76067920Y-110132324D01*
G37*
G04 #@! TD.AperFunction*
G04 #@! TA.AperFunction,SMDPad,CuDef*
G36*
X76067920Y-114894824D02*
G01*
X78043576Y-116870480D01*
X76067920Y-118846136D01*
X74092264Y-116870480D01*
X76067920Y-114894824D01*
G37*
G04 #@! TD.AperFunction*
G04 #@! TA.AperFunction,SMDPad,CuDef*
G36*
X76067920Y-119657324D02*
G01*
X78043576Y-121632980D01*
X76067920Y-123608636D01*
X74092264Y-121632980D01*
X76067920Y-119657324D01*
G37*
G04 #@! TD.AperFunction*
G04 #@! TA.AperFunction,SMDPad,CuDef*
G36*
X76067920Y-124419824D02*
G01*
X78043576Y-126395480D01*
X76067920Y-128371136D01*
X74092264Y-126395480D01*
X76067920Y-124419824D01*
G37*
G04 #@! TD.AperFunction*
G04 #@! TA.AperFunction,SMDPad,CuDef*
G36*
X80830420Y-95844824D02*
G01*
X82806076Y-97820480D01*
X80830420Y-99796136D01*
X78854764Y-97820480D01*
X80830420Y-95844824D01*
G37*
G04 #@! TD.AperFunction*
G04 #@! TA.AperFunction,SMDPad,CuDef*
G36*
X80830420Y-100607324D02*
G01*
X82806076Y-102582980D01*
X80830420Y-104558636D01*
X78854764Y-102582980D01*
X80830420Y-100607324D01*
G37*
G04 #@! TD.AperFunction*
G04 #@! TA.AperFunction,SMDPad,CuDef*
G36*
X80830420Y-105369824D02*
G01*
X82806076Y-107345480D01*
X80830420Y-109321136D01*
X78854764Y-107345480D01*
X80830420Y-105369824D01*
G37*
G04 #@! TD.AperFunction*
G04 #@! TA.AperFunction,SMDPad,CuDef*
G36*
X80830420Y-110132324D02*
G01*
X82806076Y-112107980D01*
X80830420Y-114083636D01*
X78854764Y-112107980D01*
X80830420Y-110132324D01*
G37*
G04 #@! TD.AperFunction*
G04 #@! TA.AperFunction,SMDPad,CuDef*
G36*
X80830420Y-114894824D02*
G01*
X82806076Y-116870480D01*
X80830420Y-118846136D01*
X78854764Y-116870480D01*
X80830420Y-114894824D01*
G37*
G04 #@! TD.AperFunction*
G04 #@! TA.AperFunction,SMDPad,CuDef*
G36*
X80830420Y-119657324D02*
G01*
X82806076Y-121632980D01*
X80830420Y-123608636D01*
X78854764Y-121632980D01*
X80830420Y-119657324D01*
G37*
G04 #@! TD.AperFunction*
G04 #@! TA.AperFunction,SMDPad,CuDef*
G36*
X80830420Y-124419824D02*
G01*
X82806076Y-126395480D01*
X80830420Y-128371136D01*
X78854764Y-126395480D01*
X80830420Y-124419824D01*
G37*
G04 #@! TD.AperFunction*
G04 #@! TA.AperFunction,SMDPad,CuDef*
G36*
X85592920Y-95844824D02*
G01*
X87568576Y-97820480D01*
X85592920Y-99796136D01*
X83617264Y-97820480D01*
X85592920Y-95844824D01*
G37*
G04 #@! TD.AperFunction*
G04 #@! TA.AperFunction,SMDPad,CuDef*
G36*
X85592920Y-100607324D02*
G01*
X87568576Y-102582980D01*
X85592920Y-104558636D01*
X83617264Y-102582980D01*
X85592920Y-100607324D01*
G37*
G04 #@! TD.AperFunction*
G04 #@! TA.AperFunction,SMDPad,CuDef*
G36*
X85592920Y-105369824D02*
G01*
X87568576Y-107345480D01*
X85592920Y-109321136D01*
X83617264Y-107345480D01*
X85592920Y-105369824D01*
G37*
G04 #@! TD.AperFunction*
G04 #@! TA.AperFunction,SMDPad,CuDef*
G36*
X85592920Y-110132324D02*
G01*
X87568576Y-112107980D01*
X85592920Y-114083636D01*
X83617264Y-112107980D01*
X85592920Y-110132324D01*
G37*
G04 #@! TD.AperFunction*
G04 #@! TA.AperFunction,SMDPad,CuDef*
G36*
X85592920Y-114894824D02*
G01*
X87568576Y-116870480D01*
X85592920Y-118846136D01*
X83617264Y-116870480D01*
X85592920Y-114894824D01*
G37*
G04 #@! TD.AperFunction*
G04 #@! TA.AperFunction,SMDPad,CuDef*
G36*
X85592920Y-119657324D02*
G01*
X87568576Y-121632980D01*
X85592920Y-123608636D01*
X83617264Y-121632980D01*
X85592920Y-119657324D01*
G37*
G04 #@! TD.AperFunction*
G04 #@! TA.AperFunction,SMDPad,CuDef*
G36*
X85592920Y-124419824D02*
G01*
X87568576Y-126395480D01*
X85592920Y-128371136D01*
X83617264Y-126395480D01*
X85592920Y-124419824D01*
G37*
G04 #@! TD.AperFunction*
G04 #@! TA.AperFunction,SMDPad,CuDef*
G36*
X90355420Y-95844824D02*
G01*
X92331076Y-97820480D01*
X90355420Y-99796136D01*
X88379764Y-97820480D01*
X90355420Y-95844824D01*
G37*
G04 #@! TD.AperFunction*
G04 #@! TA.AperFunction,SMDPad,CuDef*
G36*
X90355420Y-100607324D02*
G01*
X92331076Y-102582980D01*
X90355420Y-104558636D01*
X88379764Y-102582980D01*
X90355420Y-100607324D01*
G37*
G04 #@! TD.AperFunction*
G04 #@! TA.AperFunction,SMDPad,CuDef*
G36*
X90355420Y-105369824D02*
G01*
X92331076Y-107345480D01*
X90355420Y-109321136D01*
X88379764Y-107345480D01*
X90355420Y-105369824D01*
G37*
G04 #@! TD.AperFunction*
G04 #@! TA.AperFunction,SMDPad,CuDef*
G36*
X90355420Y-110132324D02*
G01*
X92331076Y-112107980D01*
X90355420Y-114083636D01*
X88379764Y-112107980D01*
X90355420Y-110132324D01*
G37*
G04 #@! TD.AperFunction*
G04 #@! TA.AperFunction,SMDPad,CuDef*
G36*
X90355420Y-114894824D02*
G01*
X92331076Y-116870480D01*
X90355420Y-118846136D01*
X88379764Y-116870480D01*
X90355420Y-114894824D01*
G37*
G04 #@! TD.AperFunction*
G04 #@! TA.AperFunction,SMDPad,CuDef*
G36*
X90355420Y-119657324D02*
G01*
X92331076Y-121632980D01*
X90355420Y-123608636D01*
X88379764Y-121632980D01*
X90355420Y-119657324D01*
G37*
G04 #@! TD.AperFunction*
G04 #@! TA.AperFunction,SMDPad,CuDef*
G36*
X90355420Y-124419824D02*
G01*
X92331076Y-126395480D01*
X90355420Y-128371136D01*
X88379764Y-126395480D01*
X90355420Y-124419824D01*
G37*
G04 #@! TD.AperFunction*
G04 #@! TA.AperFunction,SMDPad,CuDef*
G36*
X95117920Y-95844824D02*
G01*
X97093576Y-97820480D01*
X95117920Y-99796136D01*
X93142264Y-97820480D01*
X95117920Y-95844824D01*
G37*
G04 #@! TD.AperFunction*
G04 #@! TA.AperFunction,SMDPad,CuDef*
G36*
X95117920Y-100607324D02*
G01*
X97093576Y-102582980D01*
X95117920Y-104558636D01*
X93142264Y-102582980D01*
X95117920Y-100607324D01*
G37*
G04 #@! TD.AperFunction*
G04 #@! TA.AperFunction,SMDPad,CuDef*
G36*
X95117920Y-105369824D02*
G01*
X97093576Y-107345480D01*
X95117920Y-109321136D01*
X93142264Y-107345480D01*
X95117920Y-105369824D01*
G37*
G04 #@! TD.AperFunction*
G04 #@! TA.AperFunction,SMDPad,CuDef*
G36*
X95117920Y-110132324D02*
G01*
X97093576Y-112107980D01*
X95117920Y-114083636D01*
X93142264Y-112107980D01*
X95117920Y-110132324D01*
G37*
G04 #@! TD.AperFunction*
G04 #@! TA.AperFunction,SMDPad,CuDef*
G36*
X95117920Y-114894824D02*
G01*
X97093576Y-116870480D01*
X95117920Y-118846136D01*
X93142264Y-116870480D01*
X95117920Y-114894824D01*
G37*
G04 #@! TD.AperFunction*
G04 #@! TA.AperFunction,SMDPad,CuDef*
G36*
X95117920Y-119657324D02*
G01*
X97093576Y-121632980D01*
X95117920Y-123608636D01*
X93142264Y-121632980D01*
X95117920Y-119657324D01*
G37*
G04 #@! TD.AperFunction*
G04 #@! TA.AperFunction,SMDPad,CuDef*
G36*
X95117920Y-124419824D02*
G01*
X97093576Y-126395480D01*
X95117920Y-128371136D01*
X93142264Y-126395480D01*
X95117920Y-124419824D01*
G37*
G04 #@! TD.AperFunction*
G04 #@! TA.AperFunction,SMDPad,CuDef*
G36*
X99880420Y-95844824D02*
G01*
X101856076Y-97820480D01*
X99880420Y-99796136D01*
X97904764Y-97820480D01*
X99880420Y-95844824D01*
G37*
G04 #@! TD.AperFunction*
G04 #@! TA.AperFunction,SMDPad,CuDef*
G36*
X99880420Y-100607324D02*
G01*
X101856076Y-102582980D01*
X99880420Y-104558636D01*
X97904764Y-102582980D01*
X99880420Y-100607324D01*
G37*
G04 #@! TD.AperFunction*
G04 #@! TA.AperFunction,SMDPad,CuDef*
G36*
X99880420Y-105369824D02*
G01*
X101856076Y-107345480D01*
X99880420Y-109321136D01*
X97904764Y-107345480D01*
X99880420Y-105369824D01*
G37*
G04 #@! TD.AperFunction*
G04 #@! TA.AperFunction,SMDPad,CuDef*
G36*
X99880420Y-110132324D02*
G01*
X101856076Y-112107980D01*
X99880420Y-114083636D01*
X97904764Y-112107980D01*
X99880420Y-110132324D01*
G37*
G04 #@! TD.AperFunction*
G04 #@! TA.AperFunction,SMDPad,CuDef*
G36*
X99880420Y-114894824D02*
G01*
X101856076Y-116870480D01*
X99880420Y-118846136D01*
X97904764Y-116870480D01*
X99880420Y-114894824D01*
G37*
G04 #@! TD.AperFunction*
G04 #@! TA.AperFunction,SMDPad,CuDef*
G36*
X99880420Y-119657324D02*
G01*
X101856076Y-121632980D01*
X99880420Y-123608636D01*
X97904764Y-121632980D01*
X99880420Y-119657324D01*
G37*
G04 #@! TD.AperFunction*
G04 #@! TA.AperFunction,SMDPad,CuDef*
G36*
X99880420Y-124419824D02*
G01*
X101856076Y-126395480D01*
X99880420Y-128371136D01*
X97904764Y-126395480D01*
X99880420Y-124419824D01*
G37*
G04 #@! TD.AperFunction*
G04 #@! TA.AperFunction,SMDPad,CuDef*
G36*
X66542793Y-95038418D02*
G01*
X64565149Y-93060520D01*
X68520691Y-93060520D01*
X66543047Y-95038418D01*
X66542793Y-95038418D01*
G37*
G04 #@! TD.AperFunction*
D14*
X59944000Y-94589600D03*
X60198000Y-119430800D03*
X109423200Y-103962200D03*
X109499400Y-108458000D03*
X60350400Y-127254000D03*
X143306800Y-137058400D03*
X131318000Y-133858000D03*
X113512600Y-133832600D03*
X114757200Y-135153400D03*
X112268000Y-135077200D03*
X113512600Y-136448800D03*
X116255800Y-133527800D03*
X119278400Y-125476000D03*
X115697000Y-126288800D03*
X114325400Y-125247400D03*
X115697000Y-124256800D03*
X112953800Y-124256800D03*
X112953800Y-126288800D03*
X70180200Y-136398000D03*
X75615800Y-135178800D03*
X108686600Y-111912400D03*
X60452000Y-106832400D03*
X70713600Y-90297000D03*
X98729800Y-90297000D03*
D15*
X111404400Y-119888000D03*
D14*
X112953800Y-106908600D03*
X81483200Y-135026400D03*
X85699600Y-134645400D03*
X87731600Y-139014200D03*
D15*
X90678000Y-134061200D03*
X106807000Y-125628400D03*
X106426000Y-127711200D03*
D14*
X110464600Y-130403600D03*
X112268000Y-137668000D03*
X114757200Y-137642600D03*
X114325400Y-123113800D03*
X115697000Y-122072400D03*
X112953800Y-122072400D03*
X113512600Y-138861800D03*
D15*
X121462800Y-129844800D03*
X127812800Y-124333000D03*
D14*
X105308400Y-130022600D03*
X120819333Y-120446800D03*
X123503266Y-120446800D03*
X126187199Y-120446800D03*
X128871132Y-120446800D03*
X131555065Y-120446800D03*
X134239000Y-120446800D03*
X112953800Y-115570000D03*
X125958600Y-113360200D03*
X128278466Y-113360200D03*
X130598332Y-113360200D03*
X132918200Y-113360200D03*
X112953800Y-113131600D03*
X139141200Y-115062000D03*
X138912600Y-124307600D03*
X125933200Y-90297000D03*
X125095000Y-105664000D03*
X112953800Y-90297000D03*
X144932400Y-113233200D03*
X112953800Y-118668800D03*
X105892600Y-118364000D03*
D15*
X131775200Y-126034800D03*
D14*
X145618200Y-90297000D03*
D15*
X129413000Y-130225800D03*
X132054600Y-128270000D03*
X131953000Y-128955800D03*
X131953000Y-129743200D03*
D16*
X61645800Y-136779000D03*
D14*
X131622800Y-136956800D03*
X137718800Y-132029200D03*
X126339600Y-98552000D03*
X112953800Y-100076000D03*
X126136400Y-138887200D03*
X114325400Y-120446800D03*
X137185400Y-136855200D03*
D15*
X123799600Y-124279990D03*
D14*
X120548400Y-123342400D03*
X128879600Y-127076200D03*
X128778000Y-133527800D03*
D15*
X129463800Y-128803400D03*
D14*
X66497200Y-132537200D03*
X110032800Y-135534400D03*
X76047600Y-132537200D03*
X108331000Y-134162800D03*
X85801200Y-132842000D03*
X106476800Y-133248400D03*
X95961200Y-132638800D03*
X106070400Y-131267200D03*
D15*
X99339401Y-128778000D03*
X80289400Y-128778001D03*
X67144899Y-128778000D03*
X90893900Y-128778000D03*
X66001900Y-128778000D03*
X75526899Y-128778000D03*
X70700900Y-128778000D03*
X71907399Y-128778000D03*
X95656399Y-128778000D03*
X86194900Y-128778001D03*
X89814400Y-128778001D03*
X94576901Y-128778000D03*
X84988400Y-128778000D03*
X76669900Y-128778001D03*
X81368900Y-128778000D03*
X100482400Y-128778000D03*
D14*
X106934000Y-129870200D03*
D15*
X99339401Y-124015500D03*
X80289399Y-124015500D03*
X67144899Y-124015500D03*
X90893900Y-124015500D03*
X66001900Y-124015500D03*
X75526899Y-124015500D03*
X70700900Y-124015500D03*
X71907399Y-124015500D03*
X95656399Y-124015500D03*
X86194901Y-124015500D03*
X89814401Y-124015500D03*
X94576901Y-124015500D03*
X84988400Y-124015500D03*
X76669899Y-124015500D03*
X81368900Y-124015500D03*
X100482400Y-124015500D03*
D14*
X105054400Y-127152400D03*
D15*
X99339401Y-119253000D03*
X80289399Y-119253000D03*
X67144899Y-119253000D03*
X90893900Y-119253000D03*
X66001900Y-119253000D03*
X75526899Y-119253000D03*
X70700900Y-119253000D03*
X71907399Y-119253000D03*
X95656399Y-119253000D03*
X86194901Y-119253000D03*
X89814401Y-119253000D03*
X94576901Y-119253000D03*
X84988400Y-119253000D03*
X76669899Y-119253000D03*
X81368900Y-119253000D03*
X100482400Y-119253000D03*
D14*
X104698800Y-120751600D03*
D15*
X99339401Y-114490500D03*
X80289400Y-114490501D03*
X67144900Y-114490501D03*
X90893900Y-114490500D03*
X66001900Y-114490500D03*
X75526900Y-114490501D03*
X70700900Y-114490500D03*
X71907400Y-114490501D03*
X95656400Y-114490501D03*
X86194900Y-114490501D03*
X89814400Y-114490501D03*
X94576900Y-114490501D03*
X84988400Y-114490500D03*
X76669900Y-114490501D03*
X81368900Y-114490500D03*
X100482400Y-114490500D03*
D14*
X104800400Y-114909600D03*
D15*
X99339401Y-109728000D03*
X80289400Y-109728001D03*
X67144899Y-109728000D03*
X90893900Y-109728000D03*
X66001900Y-109728000D03*
X75526900Y-109728001D03*
X70700900Y-109728000D03*
X71907400Y-109728001D03*
X95656399Y-109728000D03*
X86194900Y-109728001D03*
X89814400Y-109728001D03*
X94576901Y-109728000D03*
X84988400Y-109728000D03*
X76669900Y-109728001D03*
X81368900Y-109728000D03*
X100482400Y-109728000D03*
D14*
X108839000Y-126263400D03*
D15*
X99339400Y-104965500D03*
X80289400Y-104965501D03*
X67144899Y-104965500D03*
X90893900Y-104965500D03*
X66001900Y-104965500D03*
X75526899Y-104965500D03*
X70700900Y-104965500D03*
X71907399Y-104965500D03*
X95656399Y-104965500D03*
X86194901Y-104965500D03*
X89814401Y-104965500D03*
X94576901Y-104965500D03*
X84988400Y-104965500D03*
X76669900Y-104965501D03*
X81368900Y-104965500D03*
X100482400Y-104965500D03*
D14*
X104546400Y-105105200D03*
D15*
X66001900Y-100203000D03*
X67144899Y-100203000D03*
X70700900Y-100203000D03*
X71907399Y-100203000D03*
X75526899Y-100203000D03*
X76669899Y-100203000D03*
X80289399Y-100203000D03*
X81368900Y-100203000D03*
X84988400Y-100203000D03*
X86194901Y-100203000D03*
X89814401Y-100203000D03*
X90893900Y-100203000D03*
X94576901Y-100203000D03*
X95656399Y-100203000D03*
X99339400Y-100203000D03*
X100482400Y-100203000D03*
D14*
X110744000Y-126263400D03*
D15*
X65938400Y-95440500D03*
X67144899Y-95440500D03*
X70700900Y-95440500D03*
X71907399Y-95440500D03*
X75526899Y-95440500D03*
X76606400Y-95440500D03*
X80289400Y-95440500D03*
X81381600Y-95440500D03*
X84988400Y-95440500D03*
X86131400Y-95440500D03*
X89763600Y-95440500D03*
X90957401Y-95440500D03*
X94576901Y-95440500D03*
X95719900Y-95440500D03*
X99275899Y-95440500D03*
X100482400Y-95440500D03*
D14*
X106934000Y-99161600D03*
D15*
X131597400Y-123825000D03*
X122682000Y-127508000D03*
X119176800Y-127609600D03*
X116179570Y-129946400D03*
X112649000Y-127457200D03*
X131699000Y-122377200D03*
X113309400Y-131902200D03*
X131597400Y-123088400D03*
X116103400Y-131013200D03*
X127508000Y-136982200D03*
X119888000Y-92856755D03*
X126517400Y-136956800D03*
X119888000Y-95314910D03*
X118567200Y-136880600D03*
X119888000Y-97773065D03*
X120015000Y-136728200D03*
X119888000Y-100231220D03*
X120573800Y-136194800D03*
X119888000Y-102689375D03*
X121081800Y-135737600D03*
X119888000Y-105147530D03*
X118567200Y-132638800D03*
X119888000Y-107605685D03*
X118668800Y-131343400D03*
X119888000Y-110063840D03*
X118643400Y-130556000D03*
X119888000Y-112522000D03*
X128600200Y-137007600D03*
X119888000Y-90398600D03*
X131470400Y-130556000D03*
X132003800Y-131114800D03*
X121234200Y-131800600D03*
X130911600Y-135407400D03*
X122910600Y-126542800D03*
X132613400Y-127711200D03*
X131013220Y-122250200D03*
X122434399Y-122713799D03*
X137769600Y-134416800D03*
X132638800Y-128752600D03*
X132029200Y-132994400D03*
X133654800Y-134137400D03*
X132207000Y-132003800D03*
X135128000Y-134086600D03*
D17*
X131191000Y-146608800D02*
X131191000Y-146710400D01*
D18*
X144576800Y-135788400D02*
X143306800Y-137058400D01*
X145207200Y-135788400D02*
X144576800Y-135788400D01*
X60883800Y-136398000D02*
X60579000Y-136702800D01*
X70180200Y-136398000D02*
X60883800Y-136398000D01*
X108686600Y-109270800D02*
X109499400Y-108458000D01*
X108686600Y-111912400D02*
X108686600Y-109270800D01*
X112369600Y-106908600D02*
X109423200Y-103962200D01*
X113690400Y-106908600D02*
X112369600Y-106908600D01*
X75768200Y-135026400D02*
X75615800Y-135178800D01*
X81483200Y-135026400D02*
X75768200Y-135026400D01*
X89255600Y-134645400D02*
X89662000Y-134239000D01*
X85699600Y-134645400D02*
X89255600Y-134645400D01*
X138252200Y-135788400D02*
X140157200Y-135788400D01*
X137185400Y-136855200D02*
X138252200Y-135788400D01*
X122862010Y-123342400D02*
X120548400Y-123342400D01*
X123799600Y-124279990D02*
X122862010Y-123342400D01*
X120548400Y-123342400D02*
X120548400Y-123342400D01*
X126083390Y-124279990D02*
X128879600Y-127076200D01*
X123799600Y-124279990D02*
X126083390Y-124279990D01*
X128778000Y-127177800D02*
X128879600Y-127076200D01*
X137185400Y-136855200D02*
X135483600Y-136855200D01*
X128879600Y-128219200D02*
X129463800Y-128803400D01*
X128879600Y-127076200D02*
X128879600Y-128219200D01*
X128879600Y-133426200D02*
X128778000Y-133527800D01*
D17*
X129184400Y-129997200D02*
X128879600Y-129997200D01*
X129413000Y-130225800D02*
X129184400Y-129997200D01*
D18*
X128879600Y-129997200D02*
X128879600Y-133426200D01*
X128879600Y-128219200D02*
X128879600Y-129997200D01*
X66542920Y-97820480D02*
X66542920Y-102582980D01*
X66542920Y-102582980D02*
X66542920Y-131157980D01*
D17*
X66497200Y-131203700D02*
X66542920Y-131157980D01*
X66497200Y-132537200D02*
X66497200Y-131203700D01*
D18*
X66522600Y-93421200D02*
X66542920Y-97820480D01*
D17*
X71305420Y-131157980D02*
X71305420Y-133129020D01*
X71305420Y-133129020D02*
X71305420Y-133332220D01*
X71305420Y-133332220D02*
X74574400Y-136601200D01*
X108966000Y-136601200D02*
X110032800Y-135534400D01*
X74574400Y-136601200D02*
X108966000Y-136601200D01*
D18*
X71305420Y-131157980D02*
X71305420Y-93370400D01*
D17*
X76047600Y-131178300D02*
X76067920Y-131157980D01*
X76047600Y-132537200D02*
X76047600Y-131178300D01*
D18*
X76067920Y-105059480D02*
X76067920Y-93319600D01*
X76067920Y-131157980D02*
X76067920Y-105059480D01*
D17*
X80830420Y-131157980D02*
X80830420Y-131681220D01*
X80830420Y-131681220D02*
X84582000Y-135432800D01*
X108331000Y-134162800D02*
X107061000Y-135432800D01*
X107061000Y-135432800D02*
X106553000Y-135432800D01*
X84582000Y-135432800D02*
X106553000Y-135432800D01*
D18*
X80830419Y-109885480D02*
X80830419Y-93294200D01*
X80830419Y-131157980D02*
X80830419Y-109885480D01*
D17*
X85801200Y-131366260D02*
X85592920Y-131157980D01*
X85801200Y-132842000D02*
X85801200Y-131366260D01*
D18*
X85592919Y-131157980D02*
X85592919Y-93319600D01*
X90355420Y-131157981D02*
X90355419Y-93565980D01*
D17*
X106476800Y-133248400D02*
X105968800Y-133756400D01*
X92953840Y-133756400D02*
X90355420Y-131157980D01*
X105968800Y-133756400D02*
X92953840Y-133756400D01*
X95117920Y-131795520D02*
X95961200Y-132638800D01*
X95117920Y-131157981D02*
X95117920Y-131795520D01*
D18*
X95117920Y-131157981D02*
X95123000Y-93268800D01*
D17*
X99880420Y-131157980D02*
X99880420Y-131376420D01*
X99880420Y-131376420D02*
X100330000Y-131826000D01*
X105511600Y-131826000D02*
X106070400Y-131267200D01*
X100330000Y-131826000D02*
X105511600Y-131826000D01*
D18*
X99880420Y-124109481D02*
X99880421Y-93599000D01*
X99880420Y-131157981D02*
X99880420Y-124109481D01*
D17*
X105308400Y-128778000D02*
X102260400Y-128778000D01*
X106934000Y-129870200D02*
X105308400Y-128778000D01*
X102260401Y-124015500D02*
X102450899Y-124015500D01*
X105054400Y-127152400D02*
X105054400Y-125933200D01*
X103136700Y-124015500D02*
X102260400Y-124015500D01*
X105054400Y-125933200D02*
X103136700Y-124015500D01*
X103200200Y-119253000D02*
X104698800Y-120751600D01*
X102260400Y-119253000D02*
X103200200Y-119253000D01*
X104381300Y-114490500D02*
X102260400Y-114490500D01*
X104800400Y-114909600D02*
X104381300Y-114490500D01*
X104911213Y-109728000D02*
X102260400Y-109728000D01*
X108610400Y-113538000D02*
X104911213Y-109728000D01*
X108839000Y-113766600D02*
X108610400Y-113538000D01*
X108839000Y-126263400D02*
X108839000Y-113766600D01*
X104406700Y-104965500D02*
X104546400Y-105105200D01*
X102260400Y-104965500D02*
X104406700Y-104965500D01*
X102260401Y-100203000D02*
X102895399Y-100203000D01*
X110744000Y-108051601D02*
X102895399Y-100203000D01*
X110744000Y-126085600D02*
X110744000Y-108051601D01*
X103212900Y-95440500D02*
X106934000Y-99161600D01*
X102260400Y-95440500D02*
X103212900Y-95440500D01*
X131597400Y-123825000D02*
X136982200Y-129209800D01*
X144165800Y-129209800D02*
X145207200Y-128168400D01*
X136982200Y-129209800D02*
X144165800Y-129209800D01*
X119278400Y-127508000D02*
X119176800Y-127609600D01*
X122682000Y-127508000D02*
X119278400Y-127508000D01*
X115138200Y-129946400D02*
X112649000Y-127457200D01*
X116179570Y-129946400D02*
X115138200Y-129946400D01*
X131699000Y-122377200D02*
X134772400Y-125450600D01*
X139979400Y-125450600D02*
X140157200Y-125628400D01*
X134772400Y-125450600D02*
X139979400Y-125450600D01*
X136677400Y-128168400D02*
X140157200Y-128168400D01*
X131597400Y-123088400D02*
X136677400Y-128168400D01*
X114985800Y-131902200D02*
X113309400Y-131902200D01*
X116103400Y-131013200D02*
X114985800Y-131902200D01*
X127508000Y-136397266D02*
X130251210Y-133654056D01*
X127508000Y-136982200D02*
X127508000Y-136397266D01*
X130251190Y-133476990D02*
X130251210Y-133477010D01*
X130251210Y-133477010D02*
X130251210Y-133654056D01*
X130251210Y-133477010D02*
X130251191Y-133476991D01*
X119888000Y-92988666D02*
X119822045Y-92922711D01*
X122732790Y-95701545D02*
X119888000Y-92856755D01*
X122732790Y-111886256D02*
X122732790Y-95701545D01*
X130251190Y-119404656D02*
X122732790Y-111886256D01*
X130251190Y-132130790D02*
X130251190Y-119404656D01*
X130251210Y-132130810D02*
X130251190Y-132130790D01*
X130251210Y-133477010D02*
X130251210Y-132130810D01*
X119888000Y-95314910D02*
X122427980Y-97854890D01*
X122427980Y-97854890D02*
X122427980Y-99161600D01*
X122427980Y-99161600D02*
X122427981Y-112012513D01*
X122427981Y-112012513D02*
X129946380Y-119530912D01*
X129946380Y-119530912D02*
X129946380Y-127127000D01*
X129946380Y-127127000D02*
X129946380Y-127457200D01*
X129946380Y-132384780D02*
X129946400Y-132384800D01*
X129946380Y-127457200D02*
X129946380Y-132384780D01*
X126517400Y-136880600D02*
X126517400Y-136956800D01*
X129946400Y-133451600D02*
X126517400Y-136880600D01*
X129946400Y-132791200D02*
X129946400Y-133451600D01*
X129946380Y-132791180D02*
X129946400Y-132791200D01*
X129946380Y-132384780D02*
X129946380Y-132791180D01*
X118567200Y-136880600D02*
X118567200Y-136548932D01*
X116916190Y-132712054D02*
X116636770Y-132432634D01*
X116916190Y-134897922D02*
X116916190Y-132712054D01*
X118567200Y-136548932D02*
X116916190Y-134897922D01*
X116636770Y-132432634D02*
X116636770Y-99771230D01*
X116636770Y-99771230D02*
X118618000Y-97790000D01*
X119871065Y-97790000D02*
X119888000Y-97773065D01*
X118618000Y-97790000D02*
X119871065Y-97790000D01*
X119097780Y-100231220D02*
X119888000Y-100231220D01*
X116941580Y-102387420D02*
X119097780Y-100231220D01*
X116941580Y-132306378D02*
X116941580Y-102387420D01*
X117221000Y-132585798D02*
X116941580Y-132306378D01*
X117221000Y-134771666D02*
X117221000Y-132585798D01*
X119177534Y-136728200D02*
X117221000Y-134771666D01*
X120015000Y-136728200D02*
X119177534Y-136728200D01*
X119611425Y-102689375D02*
X119888000Y-102689375D01*
X117246390Y-105054410D02*
X119611425Y-102689375D01*
X117246390Y-132180122D02*
X117246390Y-105054410D01*
X117652800Y-132586532D02*
X117246390Y-132180122D01*
X117652800Y-134772400D02*
X117652800Y-132586532D01*
X119075200Y-136194800D02*
X117652800Y-134772400D01*
X120573800Y-136194800D02*
X119075200Y-136194800D01*
X117551200Y-107484330D02*
X119888000Y-105147530D01*
X117551200Y-132053866D02*
X117551200Y-107484330D01*
X118084600Y-132587266D02*
X117551200Y-132053866D01*
X118084600Y-134747000D02*
X118084600Y-132587266D01*
X119075200Y-135737600D02*
X118084600Y-134747000D01*
X121081800Y-135737600D02*
X119075200Y-135737600D01*
X118033780Y-129591554D02*
X118033780Y-109459905D01*
X118033780Y-109459905D02*
X119888000Y-107605685D01*
X117881390Y-129743944D02*
X118033780Y-129591554D01*
X117881389Y-131952989D02*
X117881390Y-129743944D01*
X118567200Y-132638800D02*
X117881389Y-131952989D01*
X118338590Y-111613250D02*
X119888000Y-110063840D01*
X118338590Y-129717810D02*
X118338590Y-111613250D01*
X118186199Y-129870201D02*
X118338590Y-129717810D01*
X118186199Y-130860799D02*
X118186199Y-129870201D01*
X118668800Y-131343400D02*
X118186199Y-130860799D01*
X119583200Y-112522000D02*
X119888000Y-112522000D01*
X118643400Y-113461800D02*
X119583200Y-112522000D01*
X118643400Y-130556000D02*
X118643400Y-113461800D01*
X128600200Y-135736132D02*
X130556020Y-133780312D01*
X128600200Y-137007600D02*
X128600200Y-135736132D01*
X130556020Y-121201358D02*
X130556000Y-121201338D01*
X130556000Y-121201338D02*
X130556000Y-119278400D01*
X130556000Y-119278400D02*
X123037600Y-111760000D01*
X123037600Y-93548200D02*
X119888000Y-90398600D01*
X123037600Y-111760000D02*
X123037600Y-93548200D01*
X130556020Y-133780312D02*
X130557488Y-133780312D01*
X130556019Y-121201357D02*
X130556000Y-121201338D01*
X130556019Y-133778843D02*
X130556019Y-121201357D01*
X130557488Y-133780312D02*
X130556019Y-133778843D01*
X140004800Y-130556000D02*
X140157200Y-130708400D01*
X131470400Y-130556000D02*
X140004800Y-130556000D01*
X134137400Y-133248400D02*
X140157200Y-133248400D01*
X132003800Y-131114800D02*
X134137400Y-133248400D01*
X130911600Y-136220200D02*
X130911600Y-135407400D01*
X129666999Y-137464801D02*
X130911600Y-136220200D01*
X125882401Y-137464801D02*
X129666999Y-137464801D01*
X121234200Y-132816600D02*
X125882401Y-137464801D01*
X121234200Y-131800600D02*
X121234200Y-132816600D01*
X122910600Y-126542800D02*
X122453400Y-126542800D01*
X119919799Y-123040671D02*
X120246671Y-122713799D01*
X119919799Y-124009199D02*
X119919799Y-123040671D01*
X122453400Y-126542800D02*
X119919799Y-124009199D01*
X131013220Y-126111020D02*
X131013220Y-122250200D01*
X132613400Y-127711200D02*
X131013220Y-126111020D01*
X120246671Y-122713799D02*
X122434399Y-122713799D01*
X137769600Y-134416800D02*
X144475200Y-134416800D01*
X145207200Y-133684800D02*
X145207200Y-133248400D01*
X144475200Y-134416800D02*
X145207200Y-133684800D01*
X133865999Y-129979799D02*
X132638800Y-128752600D01*
X144478599Y-129979799D02*
X133865999Y-129979799D01*
X145207200Y-130708400D02*
X144478599Y-129979799D01*
X133502400Y-134137400D02*
X133654800Y-134137400D01*
X132029200Y-132994400D02*
X132359400Y-132994400D01*
X132626100Y-133261100D02*
X133502400Y-134137400D01*
X132359400Y-132994400D02*
X132626100Y-133261100D01*
X134289800Y-134086600D02*
X135128000Y-134086600D01*
X132207000Y-132003800D02*
X134289800Y-134086600D01*
X147067201Y-139701200D02*
X58774400Y-139701200D01*
X58774400Y-91465492D01*
X62179200Y-91465492D01*
X62230000Y-133604092D01*
X62231482Y-133618956D01*
X62235836Y-133633245D01*
X62242893Y-133646411D01*
X62252383Y-133657946D01*
X62263942Y-133667409D01*
X62277124Y-133674435D01*
X62291424Y-133678754D01*
X62305971Y-133680200D01*
X71249238Y-133707089D01*
X74348292Y-136806144D01*
X74357832Y-136817768D01*
X74404243Y-136855858D01*
X74457194Y-136884160D01*
X74514648Y-136901589D01*
X74519803Y-136902097D01*
X74559434Y-136906000D01*
X74559442Y-136906000D01*
X74574400Y-136907473D01*
X74589358Y-136906000D01*
X108951042Y-136906000D01*
X108966000Y-136907473D01*
X108980958Y-136906000D01*
X108980966Y-136906000D01*
X109025751Y-136901589D01*
X109083206Y-136884160D01*
X109136157Y-136855858D01*
X109182568Y-136817768D01*
X109192112Y-136806139D01*
X109857755Y-136140497D01*
X109970888Y-136163000D01*
X110094712Y-136163000D01*
X110216156Y-136138844D01*
X110330554Y-136091459D01*
X110433509Y-136022666D01*
X110521066Y-135935109D01*
X110589859Y-135832154D01*
X110637244Y-135717756D01*
X110661400Y-135596312D01*
X110661400Y-135472488D01*
X110637244Y-135351044D01*
X110589859Y-135236646D01*
X110521066Y-135133691D01*
X110433509Y-135046134D01*
X110330554Y-134977341D01*
X110216156Y-134929956D01*
X110094712Y-134905800D01*
X109970888Y-134905800D01*
X109849444Y-134929956D01*
X109735046Y-134977341D01*
X109632091Y-135046134D01*
X109544534Y-135133691D01*
X109475741Y-135236646D01*
X109428356Y-135351044D01*
X109404200Y-135472488D01*
X109404200Y-135596312D01*
X109426703Y-135709445D01*
X108839749Y-136296400D01*
X74700652Y-136296400D01*
X72113940Y-133709689D01*
X82458941Y-133740792D01*
X84355892Y-135637744D01*
X84365432Y-135649368D01*
X84411843Y-135687458D01*
X84464794Y-135715760D01*
X84504819Y-135727902D01*
X84522248Y-135733189D01*
X84527889Y-135733745D01*
X84567034Y-135737600D01*
X84567041Y-135737600D01*
X84581999Y-135739073D01*
X84596957Y-135737600D01*
X107046042Y-135737600D01*
X107061000Y-135739073D01*
X107075958Y-135737600D01*
X107075966Y-135737600D01*
X107120751Y-135733189D01*
X107178206Y-135715760D01*
X107231157Y-135687458D01*
X107277568Y-135649368D01*
X107287112Y-135637739D01*
X108155955Y-134768897D01*
X108269088Y-134791400D01*
X108392912Y-134791400D01*
X108514356Y-134767244D01*
X108628754Y-134719859D01*
X108731709Y-134651066D01*
X108819266Y-134563509D01*
X108888059Y-134460554D01*
X108935444Y-134346156D01*
X108959600Y-134224712D01*
X108959600Y-134100888D01*
X108935444Y-133979444D01*
X108888059Y-133865046D01*
X108819266Y-133762091D01*
X108731709Y-133674534D01*
X108628754Y-133605741D01*
X108514356Y-133558356D01*
X108392912Y-133534200D01*
X108269088Y-133534200D01*
X108147644Y-133558356D01*
X108033246Y-133605741D01*
X107930291Y-133674534D01*
X107842734Y-133762091D01*
X107773941Y-133865046D01*
X107726556Y-133979444D01*
X107702400Y-134100888D01*
X107702400Y-134224712D01*
X107724903Y-134337845D01*
X106934749Y-135128000D01*
X84708252Y-135128000D01*
X83323644Y-133743392D01*
X92537483Y-133771095D01*
X92727732Y-133961344D01*
X92737272Y-133972968D01*
X92783683Y-134011058D01*
X92828419Y-134034969D01*
X92836634Y-134039360D01*
X92894088Y-134056789D01*
X92899243Y-134057297D01*
X92938874Y-134061200D01*
X92938882Y-134061200D01*
X92953840Y-134062673D01*
X92968798Y-134061200D01*
X105953842Y-134061200D01*
X105968800Y-134062673D01*
X105983758Y-134061200D01*
X105983766Y-134061200D01*
X106028551Y-134056789D01*
X106086006Y-134039360D01*
X106138957Y-134011058D01*
X106185368Y-133972968D01*
X106194912Y-133961339D01*
X106301754Y-133854497D01*
X106414888Y-133877000D01*
X106538712Y-133877000D01*
X106660156Y-133852844D01*
X106774554Y-133805459D01*
X106877509Y-133736666D01*
X106965066Y-133649109D01*
X107033859Y-133546154D01*
X107081244Y-133431756D01*
X107105400Y-133310312D01*
X107105400Y-133186488D01*
X107081244Y-133065044D01*
X107033859Y-132950646D01*
X106965066Y-132847691D01*
X106877509Y-132760134D01*
X106774554Y-132691341D01*
X106660156Y-132643956D01*
X106538712Y-132619800D01*
X106414888Y-132619800D01*
X106293444Y-132643956D01*
X106179046Y-132691341D01*
X106076091Y-132760134D01*
X105988534Y-132847691D01*
X105919741Y-132950646D01*
X105872356Y-133065044D01*
X105848200Y-133186488D01*
X105848200Y-133310312D01*
X105870703Y-133423446D01*
X105842549Y-133451600D01*
X104622600Y-133451600D01*
X104622600Y-132130800D01*
X105496642Y-132130800D01*
X105511600Y-132132273D01*
X105526558Y-132130800D01*
X105526566Y-132130800D01*
X105571351Y-132126389D01*
X105628806Y-132108960D01*
X105681757Y-132080658D01*
X105728168Y-132042568D01*
X105737712Y-132030939D01*
X105895355Y-131873297D01*
X106008488Y-131895800D01*
X106132312Y-131895800D01*
X106253756Y-131871644D01*
X106368154Y-131824259D01*
X106471109Y-131755466D01*
X106558666Y-131667909D01*
X106627459Y-131564954D01*
X106674844Y-131450556D01*
X106699000Y-131329112D01*
X106699000Y-131205288D01*
X106674844Y-131083844D01*
X106627459Y-130969446D01*
X106558666Y-130866491D01*
X106471109Y-130778934D01*
X106368154Y-130710141D01*
X106253756Y-130662756D01*
X106132312Y-130638600D01*
X106008488Y-130638600D01*
X105887044Y-130662756D01*
X105772646Y-130710141D01*
X105669691Y-130778934D01*
X105582134Y-130866491D01*
X105513341Y-130969446D01*
X105465956Y-131083844D01*
X105441800Y-131205288D01*
X105441800Y-131329112D01*
X105464303Y-131442245D01*
X105385349Y-131521200D01*
X104622600Y-131521200D01*
X104622600Y-129082800D01*
X105215517Y-129082800D01*
X106305400Y-129815066D01*
X106305400Y-129932112D01*
X106329556Y-130053556D01*
X106376941Y-130167954D01*
X106445734Y-130270909D01*
X106533291Y-130358466D01*
X106636246Y-130427259D01*
X106750644Y-130474644D01*
X106872088Y-130498800D01*
X106995912Y-130498800D01*
X107117356Y-130474644D01*
X107231754Y-130427259D01*
X107334709Y-130358466D01*
X107422266Y-130270909D01*
X107491059Y-130167954D01*
X107538444Y-130053556D01*
X107562600Y-129932112D01*
X107562600Y-129808288D01*
X107538444Y-129686844D01*
X107491059Y-129572446D01*
X107422266Y-129469491D01*
X107334709Y-129381934D01*
X107231754Y-129313141D01*
X107117356Y-129265756D01*
X106995912Y-129241600D01*
X106872088Y-129241600D01*
X106750644Y-129265756D01*
X106645639Y-129309250D01*
X105490489Y-128533135D01*
X105478557Y-128523342D01*
X105452184Y-128509246D01*
X105426327Y-128495340D01*
X105425953Y-128495226D01*
X105425606Y-128495040D01*
X105397097Y-128486392D01*
X105368917Y-128477765D01*
X105368530Y-128477726D01*
X105368151Y-128477611D01*
X105338532Y-128474694D01*
X105309181Y-128471727D01*
X105293828Y-128473200D01*
X104622600Y-128473200D01*
X104622600Y-127609575D01*
X104653691Y-127640666D01*
X104756646Y-127709459D01*
X104871044Y-127756844D01*
X104992488Y-127781000D01*
X105116312Y-127781000D01*
X105237756Y-127756844D01*
X105352154Y-127709459D01*
X105455109Y-127640666D01*
X105542666Y-127553109D01*
X105611459Y-127450154D01*
X105627192Y-127412170D01*
X112191800Y-127412170D01*
X112191800Y-127502230D01*
X112209370Y-127590560D01*
X112243835Y-127673765D01*
X112293870Y-127748648D01*
X112357552Y-127812330D01*
X112432435Y-127862365D01*
X112515640Y-127896830D01*
X112603970Y-127914400D01*
X112675149Y-127914400D01*
X114912092Y-130151344D01*
X114921632Y-130162968D01*
X114968043Y-130201058D01*
X115020994Y-130229360D01*
X115061019Y-130241502D01*
X115078448Y-130246789D01*
X115084089Y-130247345D01*
X115123234Y-130251200D01*
X115123241Y-130251200D01*
X115138199Y-130252673D01*
X115153157Y-130251200D01*
X115837792Y-130251200D01*
X115888122Y-130301530D01*
X115963005Y-130351565D01*
X116046210Y-130386030D01*
X116134540Y-130403600D01*
X116224600Y-130403600D01*
X116312930Y-130386030D01*
X116331970Y-130378143D01*
X116331970Y-130616056D01*
X116319965Y-130608035D01*
X116236760Y-130573570D01*
X116148430Y-130556000D01*
X116058370Y-130556000D01*
X115970040Y-130573570D01*
X115886835Y-130608035D01*
X115811952Y-130658070D01*
X115748270Y-130721752D01*
X115698235Y-130796635D01*
X115663770Y-130879840D01*
X115646200Y-130968170D01*
X115646200Y-130987411D01*
X114879358Y-131597400D01*
X113651178Y-131597400D01*
X113600848Y-131547070D01*
X113525965Y-131497035D01*
X113442760Y-131462570D01*
X113354430Y-131445000D01*
X113264370Y-131445000D01*
X113176040Y-131462570D01*
X113092835Y-131497035D01*
X113017952Y-131547070D01*
X112954270Y-131610752D01*
X112904235Y-131685635D01*
X112869770Y-131768840D01*
X112852200Y-131857170D01*
X112852200Y-131947230D01*
X112869770Y-132035560D01*
X112904235Y-132118765D01*
X112954270Y-132193648D01*
X113017952Y-132257330D01*
X113092835Y-132307365D01*
X113176040Y-132341830D01*
X113264370Y-132359400D01*
X113354430Y-132359400D01*
X113442760Y-132341830D01*
X113525965Y-132307365D01*
X113600848Y-132257330D01*
X113651178Y-132207000D01*
X114983538Y-132207000D01*
X115011165Y-132207422D01*
X115028257Y-132204292D01*
X115045551Y-132202589D01*
X115057721Y-132198897D01*
X115070223Y-132196608D01*
X115086372Y-132190206D01*
X115103006Y-132185160D01*
X115114221Y-132179166D01*
X115126038Y-132174481D01*
X115140624Y-132165053D01*
X115155957Y-132156858D01*
X115177369Y-132139285D01*
X116026279Y-131464017D01*
X116058370Y-131470400D01*
X116148430Y-131470400D01*
X116236760Y-131452830D01*
X116319965Y-131418365D01*
X116331970Y-131410344D01*
X116331970Y-132417676D01*
X116330497Y-132432634D01*
X116331970Y-132447592D01*
X116331970Y-132447599D01*
X116334697Y-132475288D01*
X116336381Y-132492385D01*
X116343609Y-132516211D01*
X116353810Y-132549839D01*
X116382112Y-132602790D01*
X116420202Y-132649202D01*
X116431830Y-132658746D01*
X116611391Y-132838307D01*
X116611390Y-134882964D01*
X116609917Y-134897922D01*
X116611390Y-134912880D01*
X116611390Y-134912887D01*
X116614240Y-134941822D01*
X116615801Y-134957673D01*
X116621768Y-134977343D01*
X116633230Y-135015127D01*
X116661532Y-135068078D01*
X116699622Y-135114490D01*
X116711251Y-135124034D01*
X118197770Y-136610554D01*
X118162035Y-136664035D01*
X118127570Y-136747240D01*
X118110000Y-136835570D01*
X118110000Y-136925630D01*
X118127570Y-137013960D01*
X118162035Y-137097165D01*
X118212070Y-137172048D01*
X118275752Y-137235730D01*
X118350635Y-137285765D01*
X118433840Y-137320230D01*
X118522170Y-137337800D01*
X118612230Y-137337800D01*
X118700560Y-137320230D01*
X118783765Y-137285765D01*
X118858648Y-137235730D01*
X118922330Y-137172048D01*
X118972365Y-137097165D01*
X119006830Y-137013960D01*
X119012475Y-136985583D01*
X119060328Y-137011160D01*
X119117782Y-137028589D01*
X119122937Y-137029097D01*
X119162568Y-137033000D01*
X119162576Y-137033000D01*
X119177534Y-137034473D01*
X119192492Y-137033000D01*
X119673222Y-137033000D01*
X119723552Y-137083330D01*
X119798435Y-137133365D01*
X119881640Y-137167830D01*
X119969970Y-137185400D01*
X120060030Y-137185400D01*
X120148360Y-137167830D01*
X120231565Y-137133365D01*
X120306448Y-137083330D01*
X120370130Y-137019648D01*
X120420165Y-136944765D01*
X120454630Y-136861560D01*
X120472200Y-136773230D01*
X120472200Y-136683170D01*
X120463414Y-136639000D01*
X120528770Y-136652000D01*
X120618830Y-136652000D01*
X120707160Y-136634430D01*
X120790365Y-136599965D01*
X120865248Y-136549930D01*
X120928930Y-136486248D01*
X120978965Y-136411365D01*
X121013430Y-136328160D01*
X121031000Y-136239830D01*
X121031000Y-136193652D01*
X121036770Y-136194800D01*
X121126830Y-136194800D01*
X121215160Y-136177230D01*
X121298365Y-136142765D01*
X121373248Y-136092730D01*
X121436930Y-136029048D01*
X121486965Y-135954165D01*
X121521430Y-135870960D01*
X121539000Y-135782630D01*
X121539000Y-135692570D01*
X121521430Y-135604240D01*
X121486965Y-135521035D01*
X121436930Y-135446152D01*
X121373248Y-135382470D01*
X121298365Y-135332435D01*
X121215160Y-135297970D01*
X121126830Y-135280400D01*
X121036770Y-135280400D01*
X120948440Y-135297970D01*
X120865235Y-135332435D01*
X120790352Y-135382470D01*
X120740022Y-135432800D01*
X119201452Y-135432800D01*
X118389400Y-134620749D01*
X118389400Y-133060022D01*
X118433840Y-133078430D01*
X118522170Y-133096000D01*
X118612230Y-133096000D01*
X118700560Y-133078430D01*
X118783765Y-133043965D01*
X118858648Y-132993930D01*
X118922330Y-132930248D01*
X118972365Y-132855365D01*
X119006830Y-132772160D01*
X119024400Y-132683830D01*
X119024400Y-132593770D01*
X119006830Y-132505440D01*
X118972365Y-132422235D01*
X118922330Y-132347352D01*
X118858648Y-132283670D01*
X118783765Y-132233635D01*
X118700560Y-132199170D01*
X118612230Y-132181600D01*
X118541052Y-132181600D01*
X118186188Y-131826737D01*
X118186189Y-131291840D01*
X118211600Y-131317251D01*
X118211600Y-131388430D01*
X118229170Y-131476760D01*
X118263635Y-131559965D01*
X118313670Y-131634848D01*
X118377352Y-131698530D01*
X118452235Y-131748565D01*
X118535440Y-131783030D01*
X118623770Y-131800600D01*
X118713830Y-131800600D01*
X118802160Y-131783030D01*
X118885365Y-131748565D01*
X118960248Y-131698530D01*
X119023930Y-131634848D01*
X119073965Y-131559965D01*
X119108430Y-131476760D01*
X119126000Y-131388430D01*
X119126000Y-131298370D01*
X119108430Y-131210040D01*
X119073965Y-131126835D01*
X119023930Y-131051952D01*
X118960248Y-130988270D01*
X118889824Y-130941214D01*
X118934848Y-130911130D01*
X118998530Y-130847448D01*
X119048565Y-130772565D01*
X119083030Y-130689360D01*
X119100600Y-130601030D01*
X119100600Y-130510970D01*
X119083030Y-130422640D01*
X119048565Y-130339435D01*
X118998530Y-130264552D01*
X118948200Y-130214222D01*
X118948200Y-128006724D01*
X118960235Y-128014765D01*
X119043440Y-128049230D01*
X119131770Y-128066800D01*
X119221830Y-128066800D01*
X119310160Y-128049230D01*
X119393365Y-128014765D01*
X119468248Y-127964730D01*
X119531930Y-127901048D01*
X119581965Y-127826165D01*
X119587501Y-127812800D01*
X122340222Y-127812800D01*
X122390552Y-127863130D01*
X122465435Y-127913165D01*
X122548640Y-127947630D01*
X122636970Y-127965200D01*
X122727030Y-127965200D01*
X122815360Y-127947630D01*
X122898565Y-127913165D01*
X122973448Y-127863130D01*
X123037130Y-127799448D01*
X123087165Y-127724565D01*
X123121630Y-127641360D01*
X123139200Y-127553030D01*
X123139200Y-127462970D01*
X123121630Y-127374640D01*
X123087165Y-127291435D01*
X123037130Y-127216552D01*
X122973448Y-127152870D01*
X122898565Y-127102835D01*
X122815360Y-127068370D01*
X122727030Y-127050800D01*
X122636970Y-127050800D01*
X122548640Y-127068370D01*
X122465435Y-127102835D01*
X122390552Y-127152870D01*
X122340222Y-127203200D01*
X119390383Y-127203200D01*
X119310160Y-127169970D01*
X119221830Y-127152400D01*
X119131770Y-127152400D01*
X119043440Y-127169970D01*
X118960235Y-127204435D01*
X118948200Y-127212476D01*
X118948200Y-113588051D01*
X119634060Y-112902192D01*
X119671435Y-112927165D01*
X119754640Y-112961630D01*
X119842970Y-112979200D01*
X119933030Y-112979200D01*
X120021360Y-112961630D01*
X120104565Y-112927165D01*
X120179448Y-112877130D01*
X120243130Y-112813448D01*
X120293165Y-112738565D01*
X120327630Y-112655360D01*
X120345200Y-112567030D01*
X120345200Y-112476970D01*
X120327630Y-112388640D01*
X120293165Y-112305435D01*
X120243130Y-112230552D01*
X120179448Y-112166870D01*
X120104565Y-112116835D01*
X120021360Y-112082370D01*
X119933030Y-112064800D01*
X119842970Y-112064800D01*
X119754640Y-112082370D01*
X119671435Y-112116835D01*
X119596552Y-112166870D01*
X119543817Y-112219605D01*
X119528603Y-112221103D01*
X119523448Y-112221611D01*
X119465994Y-112239040D01*
X119413043Y-112267342D01*
X119366632Y-112305432D01*
X119357092Y-112317056D01*
X118643390Y-113030759D01*
X118643390Y-111739501D01*
X119861852Y-110521040D01*
X119933030Y-110521040D01*
X120021360Y-110503470D01*
X120104565Y-110469005D01*
X120179448Y-110418970D01*
X120243130Y-110355288D01*
X120293165Y-110280405D01*
X120327630Y-110197200D01*
X120345200Y-110108870D01*
X120345200Y-110018810D01*
X120327630Y-109930480D01*
X120293165Y-109847275D01*
X120243130Y-109772392D01*
X120179448Y-109708710D01*
X120104565Y-109658675D01*
X120021360Y-109624210D01*
X119933030Y-109606640D01*
X119842970Y-109606640D01*
X119754640Y-109624210D01*
X119671435Y-109658675D01*
X119596552Y-109708710D01*
X119532870Y-109772392D01*
X119482835Y-109847275D01*
X119448370Y-109930480D01*
X119430800Y-110018810D01*
X119430800Y-110089988D01*
X118338580Y-111182209D01*
X118338580Y-109586156D01*
X119861852Y-108062885D01*
X119933030Y-108062885D01*
X120021360Y-108045315D01*
X120104565Y-108010850D01*
X120179448Y-107960815D01*
X120243130Y-107897133D01*
X120293165Y-107822250D01*
X120327630Y-107739045D01*
X120345200Y-107650715D01*
X120345200Y-107560655D01*
X120327630Y-107472325D01*
X120293165Y-107389120D01*
X120243130Y-107314237D01*
X120179448Y-107250555D01*
X120104565Y-107200520D01*
X120021360Y-107166055D01*
X119933030Y-107148485D01*
X119842970Y-107148485D01*
X119754640Y-107166055D01*
X119671435Y-107200520D01*
X119596552Y-107250555D01*
X119532870Y-107314237D01*
X119482835Y-107389120D01*
X119448370Y-107472325D01*
X119430800Y-107560655D01*
X119430800Y-107631833D01*
X117856000Y-109206634D01*
X117856000Y-107610581D01*
X119861852Y-105604730D01*
X119933030Y-105604730D01*
X120021360Y-105587160D01*
X120104565Y-105552695D01*
X120179448Y-105502660D01*
X120243130Y-105438978D01*
X120293165Y-105364095D01*
X120327630Y-105280890D01*
X120345200Y-105192560D01*
X120345200Y-105102500D01*
X120327630Y-105014170D01*
X120293165Y-104930965D01*
X120243130Y-104856082D01*
X120179448Y-104792400D01*
X120104565Y-104742365D01*
X120021360Y-104707900D01*
X119933030Y-104690330D01*
X119842970Y-104690330D01*
X119754640Y-104707900D01*
X119671435Y-104742365D01*
X119596552Y-104792400D01*
X119532870Y-104856082D01*
X119482835Y-104930965D01*
X119448370Y-105014170D01*
X119430800Y-105102500D01*
X119430800Y-105173678D01*
X117551190Y-107053289D01*
X117551190Y-105180661D01*
X119650980Y-103080873D01*
X119671435Y-103094540D01*
X119754640Y-103129005D01*
X119842970Y-103146575D01*
X119933030Y-103146575D01*
X120021360Y-103129005D01*
X120104565Y-103094540D01*
X120179448Y-103044505D01*
X120243130Y-102980823D01*
X120293165Y-102905940D01*
X120327630Y-102822735D01*
X120345200Y-102734405D01*
X120345200Y-102644345D01*
X120327630Y-102556015D01*
X120293165Y-102472810D01*
X120243130Y-102397927D01*
X120179448Y-102334245D01*
X120104565Y-102284210D01*
X120021360Y-102249745D01*
X119933030Y-102232175D01*
X119842970Y-102232175D01*
X119754640Y-102249745D01*
X119671435Y-102284210D01*
X119596552Y-102334245D01*
X119537516Y-102393281D01*
X119494219Y-102406415D01*
X119441268Y-102434717D01*
X119426291Y-102447009D01*
X119406481Y-102463266D01*
X119406475Y-102463272D01*
X119394857Y-102472807D01*
X119385322Y-102484425D01*
X117246380Y-104623369D01*
X117246380Y-102513671D01*
X119224032Y-100536020D01*
X119546222Y-100536020D01*
X119596552Y-100586350D01*
X119671435Y-100636385D01*
X119754640Y-100670850D01*
X119842970Y-100688420D01*
X119933030Y-100688420D01*
X120021360Y-100670850D01*
X120104565Y-100636385D01*
X120179448Y-100586350D01*
X120243130Y-100522668D01*
X120293165Y-100447785D01*
X120327630Y-100364580D01*
X120345200Y-100276250D01*
X120345200Y-100186190D01*
X120327630Y-100097860D01*
X120293165Y-100014655D01*
X120243130Y-99939772D01*
X120179448Y-99876090D01*
X120104565Y-99826055D01*
X120021360Y-99791590D01*
X119933030Y-99774020D01*
X119842970Y-99774020D01*
X119754640Y-99791590D01*
X119671435Y-99826055D01*
X119596552Y-99876090D01*
X119546222Y-99926420D01*
X119112737Y-99926420D01*
X119097779Y-99924947D01*
X119082821Y-99926420D01*
X119082814Y-99926420D01*
X119043669Y-99930275D01*
X119038028Y-99930831D01*
X119024656Y-99934888D01*
X118980574Y-99948260D01*
X118927623Y-99976562D01*
X118881212Y-100014652D01*
X118871672Y-100026276D01*
X116941570Y-101956379D01*
X116941570Y-99897481D01*
X118744252Y-98094800D01*
X119563157Y-98094800D01*
X119596552Y-98128195D01*
X119671435Y-98178230D01*
X119754640Y-98212695D01*
X119842970Y-98230265D01*
X119933030Y-98230265D01*
X120021360Y-98212695D01*
X120104565Y-98178230D01*
X120179448Y-98128195D01*
X120243130Y-98064513D01*
X120293165Y-97989630D01*
X120327630Y-97906425D01*
X120345200Y-97818095D01*
X120345200Y-97728035D01*
X120327630Y-97639705D01*
X120293165Y-97556500D01*
X120243130Y-97481617D01*
X120179448Y-97417935D01*
X120104565Y-97367900D01*
X120021360Y-97333435D01*
X119933030Y-97315865D01*
X119842970Y-97315865D01*
X119754640Y-97333435D01*
X119671435Y-97367900D01*
X119596552Y-97417935D01*
X119532870Y-97481617D01*
X119530476Y-97485200D01*
X118632957Y-97485200D01*
X118617999Y-97483727D01*
X118603041Y-97485200D01*
X118603034Y-97485200D01*
X118563889Y-97489055D01*
X118558248Y-97489611D01*
X118540819Y-97494898D01*
X118500794Y-97507040D01*
X118447843Y-97535342D01*
X118401432Y-97573432D01*
X118391892Y-97585056D01*
X116431827Y-99545122D01*
X116420203Y-99554662D01*
X116382113Y-99601073D01*
X116366985Y-99629376D01*
X116353810Y-99654025D01*
X116336381Y-99711479D01*
X116330497Y-99771230D01*
X116331971Y-99786198D01*
X116331970Y-129514657D01*
X116312930Y-129506770D01*
X116224600Y-129489200D01*
X116134540Y-129489200D01*
X116046210Y-129506770D01*
X115963005Y-129541235D01*
X115888122Y-129591270D01*
X115837792Y-129641600D01*
X115264452Y-129641600D01*
X113106200Y-127483349D01*
X113106200Y-127412170D01*
X113088630Y-127323840D01*
X113054165Y-127240635D01*
X113004130Y-127165752D01*
X112940448Y-127102070D01*
X112865565Y-127052035D01*
X112782360Y-127017570D01*
X112694030Y-127000000D01*
X112603970Y-127000000D01*
X112515640Y-127017570D01*
X112432435Y-127052035D01*
X112357552Y-127102070D01*
X112293870Y-127165752D01*
X112243835Y-127240635D01*
X112209370Y-127323840D01*
X112191800Y-127412170D01*
X105627192Y-127412170D01*
X105658844Y-127335756D01*
X105683000Y-127214312D01*
X105683000Y-127090488D01*
X105658844Y-126969044D01*
X105611459Y-126854646D01*
X105542666Y-126751691D01*
X105455109Y-126664134D01*
X105359200Y-126600049D01*
X105359200Y-125948157D01*
X105360673Y-125933199D01*
X105359200Y-125918241D01*
X105359200Y-125918234D01*
X105354789Y-125873449D01*
X105337360Y-125815994D01*
X105309058Y-125763043D01*
X105270968Y-125716632D01*
X105259344Y-125707092D01*
X104622600Y-125070348D01*
X104622600Y-121377358D01*
X104636888Y-121380200D01*
X104760712Y-121380200D01*
X104882156Y-121356044D01*
X104996554Y-121308659D01*
X105099509Y-121239866D01*
X105187066Y-121152309D01*
X105255859Y-121049354D01*
X105303244Y-120934956D01*
X105327400Y-120813512D01*
X105327400Y-120689688D01*
X105303244Y-120568244D01*
X105255859Y-120453846D01*
X105187066Y-120350891D01*
X105099509Y-120263334D01*
X104996554Y-120194541D01*
X104882156Y-120147156D01*
X104760712Y-120123000D01*
X104636888Y-120123000D01*
X104622600Y-120125842D01*
X104622600Y-115515149D01*
X104738488Y-115538200D01*
X104862312Y-115538200D01*
X104983756Y-115514044D01*
X105098154Y-115466659D01*
X105201109Y-115397866D01*
X105288666Y-115310309D01*
X105357459Y-115207354D01*
X105404844Y-115092956D01*
X105429000Y-114971512D01*
X105429000Y-114847688D01*
X105404844Y-114726244D01*
X105357459Y-114611846D01*
X105288666Y-114508891D01*
X105201109Y-114421334D01*
X105098154Y-114352541D01*
X104983756Y-114305156D01*
X104862312Y-114281000D01*
X104738488Y-114281000D01*
X104625354Y-114303503D01*
X104622600Y-114300749D01*
X104622600Y-110032800D01*
X104782319Y-110032800D01*
X108382867Y-113741206D01*
X108384292Y-113742943D01*
X108393264Y-113751915D01*
X108402142Y-113761059D01*
X108403865Y-113762516D01*
X108534201Y-113892853D01*
X108534200Y-125711049D01*
X108438291Y-125775134D01*
X108350734Y-125862691D01*
X108281941Y-125965646D01*
X108234556Y-126080044D01*
X108210400Y-126201488D01*
X108210400Y-126325312D01*
X108234556Y-126446756D01*
X108281941Y-126561154D01*
X108350734Y-126664109D01*
X108438291Y-126751666D01*
X108541246Y-126820459D01*
X108655644Y-126867844D01*
X108777088Y-126892000D01*
X108900912Y-126892000D01*
X109022356Y-126867844D01*
X109136754Y-126820459D01*
X109239709Y-126751666D01*
X109327266Y-126664109D01*
X109396059Y-126561154D01*
X109443444Y-126446756D01*
X109467600Y-126325312D01*
X109467600Y-126201488D01*
X109443444Y-126080044D01*
X109396059Y-125965646D01*
X109327266Y-125862691D01*
X109239709Y-125775134D01*
X109143800Y-125711049D01*
X109143800Y-113781557D01*
X109145273Y-113766599D01*
X109143800Y-113751641D01*
X109143800Y-113751634D01*
X109139389Y-113706849D01*
X109121960Y-113649394D01*
X109093658Y-113596443D01*
X109055568Y-113550032D01*
X109043944Y-113540492D01*
X108827554Y-113324103D01*
X105138752Y-109524799D01*
X105127781Y-109511432D01*
X105106278Y-109493784D01*
X105085108Y-109475882D01*
X105083132Y-109474788D01*
X105081370Y-109473342D01*
X105056794Y-109460207D01*
X105032581Y-109446801D01*
X105030424Y-109446112D01*
X105028419Y-109445040D01*
X105001832Y-109436975D01*
X104975390Y-109428525D01*
X104973134Y-109428269D01*
X104970964Y-109427611D01*
X104943312Y-109424888D01*
X104915732Y-109421760D01*
X104898508Y-109423200D01*
X104622600Y-109423200D01*
X104622600Y-105730958D01*
X104729756Y-105709644D01*
X104844154Y-105662259D01*
X104947109Y-105593466D01*
X105034666Y-105505909D01*
X105103459Y-105402954D01*
X105150844Y-105288556D01*
X105175000Y-105167112D01*
X105175000Y-105043288D01*
X105150844Y-104921844D01*
X105103459Y-104807446D01*
X105034666Y-104704491D01*
X104947109Y-104616934D01*
X104844154Y-104548141D01*
X104729756Y-104500756D01*
X104622600Y-104479442D01*
X104622600Y-102361252D01*
X110439201Y-108177854D01*
X110439200Y-125711049D01*
X110343291Y-125775134D01*
X110255734Y-125862691D01*
X110186941Y-125965646D01*
X110139556Y-126080044D01*
X110115400Y-126201488D01*
X110115400Y-126325312D01*
X110139556Y-126446756D01*
X110186941Y-126561154D01*
X110255734Y-126664109D01*
X110343291Y-126751666D01*
X110446246Y-126820459D01*
X110560644Y-126867844D01*
X110682088Y-126892000D01*
X110805912Y-126892000D01*
X110927356Y-126867844D01*
X111041754Y-126820459D01*
X111144709Y-126751666D01*
X111232266Y-126664109D01*
X111301059Y-126561154D01*
X111348444Y-126446756D01*
X111372600Y-126325312D01*
X111372600Y-126201488D01*
X111348444Y-126080044D01*
X111301059Y-125965646D01*
X111232266Y-125862691D01*
X111144709Y-125775134D01*
X111048800Y-125711049D01*
X111048800Y-108066559D01*
X111050273Y-108051601D01*
X111048800Y-108036643D01*
X111048800Y-108036635D01*
X111044389Y-107991850D01*
X111026960Y-107934395D01*
X110998658Y-107881444D01*
X110960568Y-107835033D01*
X110948944Y-107825493D01*
X104622600Y-101499150D01*
X104622600Y-97281251D01*
X106327903Y-98986555D01*
X106305400Y-99099688D01*
X106305400Y-99223512D01*
X106329556Y-99344956D01*
X106376941Y-99459354D01*
X106445734Y-99562309D01*
X106533291Y-99649866D01*
X106636246Y-99718659D01*
X106750644Y-99766044D01*
X106872088Y-99790200D01*
X106995912Y-99790200D01*
X107117356Y-99766044D01*
X107231754Y-99718659D01*
X107334709Y-99649866D01*
X107422266Y-99562309D01*
X107491059Y-99459354D01*
X107538444Y-99344956D01*
X107562600Y-99223512D01*
X107562600Y-99099688D01*
X107538444Y-98978244D01*
X107491059Y-98863846D01*
X107422266Y-98760891D01*
X107334709Y-98673334D01*
X107231754Y-98604541D01*
X107117356Y-98557156D01*
X106995912Y-98533000D01*
X106872088Y-98533000D01*
X106758955Y-98555503D01*
X104622600Y-96419149D01*
X104622600Y-91338400D01*
X104621136Y-91323534D01*
X104616800Y-91309240D01*
X104609758Y-91296066D01*
X104600282Y-91284518D01*
X104588734Y-91275042D01*
X104575560Y-91268000D01*
X104561266Y-91263664D01*
X104546171Y-91262200D01*
X62255171Y-91389200D01*
X62240310Y-91390709D01*
X62226028Y-91395088D01*
X62212875Y-91402169D01*
X62201357Y-91411681D01*
X62191915Y-91423256D01*
X62184913Y-91436451D01*
X62180620Y-91450759D01*
X62179200Y-91465492D01*
X58774400Y-91465492D01*
X58774400Y-90353570D01*
X119430800Y-90353570D01*
X119430800Y-90443630D01*
X119448370Y-90531960D01*
X119482835Y-90615165D01*
X119532870Y-90690048D01*
X119596552Y-90753730D01*
X119671435Y-90803765D01*
X119754640Y-90838230D01*
X119842970Y-90855800D01*
X119914149Y-90855800D01*
X122732801Y-93674453D01*
X122732801Y-95270504D01*
X120345200Y-92882904D01*
X120345200Y-92811725D01*
X120327630Y-92723395D01*
X120293165Y-92640190D01*
X120243130Y-92565307D01*
X120179448Y-92501625D01*
X120104565Y-92451590D01*
X120021360Y-92417125D01*
X119933030Y-92399555D01*
X119842970Y-92399555D01*
X119754640Y-92417125D01*
X119671435Y-92451590D01*
X119596552Y-92501625D01*
X119532870Y-92565307D01*
X119482835Y-92640190D01*
X119448370Y-92723395D01*
X119430800Y-92811725D01*
X119430800Y-92901785D01*
X119448370Y-92990115D01*
X119482835Y-93073320D01*
X119532870Y-93148203D01*
X119596552Y-93211885D01*
X119671435Y-93261920D01*
X119754640Y-93296385D01*
X119842970Y-93313955D01*
X119914149Y-93313955D01*
X122427991Y-95827798D01*
X122427991Y-97423849D01*
X120345200Y-95341059D01*
X120345200Y-95269880D01*
X120327630Y-95181550D01*
X120293165Y-95098345D01*
X120243130Y-95023462D01*
X120179448Y-94959780D01*
X120104565Y-94909745D01*
X120021360Y-94875280D01*
X119933030Y-94857710D01*
X119842970Y-94857710D01*
X119754640Y-94875280D01*
X119671435Y-94909745D01*
X119596552Y-94959780D01*
X119532870Y-95023462D01*
X119482835Y-95098345D01*
X119448370Y-95181550D01*
X119430800Y-95269880D01*
X119430800Y-95359940D01*
X119448370Y-95448270D01*
X119482835Y-95531475D01*
X119532870Y-95606358D01*
X119596552Y-95670040D01*
X119671435Y-95720075D01*
X119754640Y-95754540D01*
X119842970Y-95772110D01*
X119914149Y-95772110D01*
X122123180Y-97981142D01*
X122123181Y-99146625D01*
X122123180Y-99146635D01*
X122123182Y-111997545D01*
X122121708Y-112012513D01*
X122127592Y-112072264D01*
X122145021Y-112129718D01*
X122157355Y-112152793D01*
X122173324Y-112182670D01*
X122211414Y-112229081D01*
X122223038Y-112238621D01*
X129641580Y-119657164D01*
X129641581Y-127112025D01*
X129641580Y-127112035D01*
X129641580Y-128382170D01*
X129597160Y-128363770D01*
X129508830Y-128346200D01*
X129506666Y-128346200D01*
X129233200Y-128072735D01*
X129233200Y-127595944D01*
X129280309Y-127564466D01*
X129367866Y-127476909D01*
X129436659Y-127373954D01*
X129484044Y-127259556D01*
X129508200Y-127138112D01*
X129508200Y-127014288D01*
X129484044Y-126892844D01*
X129436659Y-126778446D01*
X129367866Y-126675491D01*
X129280309Y-126587934D01*
X129177354Y-126519141D01*
X129062956Y-126471756D01*
X128941512Y-126447600D01*
X128817688Y-126447600D01*
X128762119Y-126458653D01*
X126345703Y-124042238D01*
X126334632Y-124028748D01*
X126280790Y-123984561D01*
X126219361Y-123951726D01*
X126152708Y-123931507D01*
X126100752Y-123926390D01*
X126100742Y-123926390D01*
X126083390Y-123924681D01*
X126066038Y-123926390D01*
X124092578Y-123926390D01*
X124091048Y-123924860D01*
X124016165Y-123874825D01*
X123932960Y-123840360D01*
X123844630Y-123822790D01*
X123842466Y-123822790D01*
X123124323Y-123104648D01*
X123113252Y-123091158D01*
X123059410Y-123046971D01*
X122997981Y-123014136D01*
X122931328Y-122993917D01*
X122879372Y-122988800D01*
X122879362Y-122988800D01*
X122862010Y-122987091D01*
X122844658Y-122988800D01*
X122800518Y-122988800D01*
X122839564Y-122930364D01*
X122874029Y-122847159D01*
X122891599Y-122758829D01*
X122891599Y-122668769D01*
X122874029Y-122580439D01*
X122839564Y-122497234D01*
X122789529Y-122422351D01*
X122725847Y-122358669D01*
X122650964Y-122308634D01*
X122567759Y-122274169D01*
X122479429Y-122256599D01*
X122389369Y-122256599D01*
X122301039Y-122274169D01*
X122217834Y-122308634D01*
X122142951Y-122358669D01*
X122092621Y-122408999D01*
X120261629Y-122408999D01*
X120246671Y-122407526D01*
X120231713Y-122408999D01*
X120231705Y-122408999D01*
X120192074Y-122412902D01*
X120186919Y-122413410D01*
X120129465Y-122430839D01*
X120076514Y-122459141D01*
X120030103Y-122497231D01*
X120020563Y-122508855D01*
X119714855Y-122814564D01*
X119703232Y-122824103D01*
X119665142Y-122870514D01*
X119650014Y-122898817D01*
X119636839Y-122923466D01*
X119619410Y-122980920D01*
X119613526Y-123040671D01*
X119615000Y-123055639D01*
X119614999Y-123994241D01*
X119613526Y-124009199D01*
X119614999Y-124024157D01*
X119614999Y-124024164D01*
X119616575Y-124040163D01*
X119619410Y-124068950D01*
X119629862Y-124103405D01*
X119636839Y-124126404D01*
X119665141Y-124179355D01*
X119703231Y-124225767D01*
X119714860Y-124235311D01*
X122227292Y-126747744D01*
X122236832Y-126759368D01*
X122283243Y-126797458D01*
X122326776Y-126820726D01*
X122336194Y-126825760D01*
X122393648Y-126843189D01*
X122398803Y-126843697D01*
X122438434Y-126847600D01*
X122438442Y-126847600D01*
X122453400Y-126849073D01*
X122468358Y-126847600D01*
X122568822Y-126847600D01*
X122619152Y-126897930D01*
X122694035Y-126947965D01*
X122777240Y-126982430D01*
X122865570Y-127000000D01*
X122955630Y-127000000D01*
X123043960Y-126982430D01*
X123127165Y-126947965D01*
X123202048Y-126897930D01*
X123265730Y-126834248D01*
X123315765Y-126759365D01*
X123350230Y-126676160D01*
X123367800Y-126587830D01*
X123367800Y-126497770D01*
X123350230Y-126409440D01*
X123315765Y-126326235D01*
X123265730Y-126251352D01*
X123202048Y-126187670D01*
X123127165Y-126137635D01*
X123043960Y-126103170D01*
X122955630Y-126085600D01*
X122865570Y-126085600D01*
X122777240Y-126103170D01*
X122694035Y-126137635D01*
X122619152Y-126187670D01*
X122574237Y-126232585D01*
X120224599Y-123882948D01*
X120224599Y-123882055D01*
X120250646Y-123899459D01*
X120365044Y-123946844D01*
X120486488Y-123971000D01*
X120610312Y-123971000D01*
X120731756Y-123946844D01*
X120846154Y-123899459D01*
X120949109Y-123830666D01*
X121036666Y-123743109D01*
X121068144Y-123696000D01*
X122715545Y-123696000D01*
X123342400Y-124322856D01*
X123342400Y-124325020D01*
X123359970Y-124413350D01*
X123394435Y-124496555D01*
X123444470Y-124571438D01*
X123508152Y-124635120D01*
X123583035Y-124685155D01*
X123666240Y-124719620D01*
X123754570Y-124737190D01*
X123844630Y-124737190D01*
X123932960Y-124719620D01*
X124016165Y-124685155D01*
X124091048Y-124635120D01*
X124092578Y-124633590D01*
X125936925Y-124633590D01*
X128262053Y-126958719D01*
X128251000Y-127014288D01*
X128251000Y-127138112D01*
X128275156Y-127259556D01*
X128322541Y-127373954D01*
X128391334Y-127476909D01*
X128478891Y-127564466D01*
X128526000Y-127595944D01*
X128526001Y-128201829D01*
X128526000Y-128201839D01*
X128526000Y-128201848D01*
X128524291Y-128219200D01*
X128526000Y-128236552D01*
X128526001Y-129979829D01*
X128526000Y-129979839D01*
X128526001Y-132951789D01*
X128480246Y-132970741D01*
X128377291Y-133039534D01*
X128289734Y-133127091D01*
X128220941Y-133230046D01*
X128173556Y-133344444D01*
X128149400Y-133465888D01*
X128149400Y-133589712D01*
X128173556Y-133711156D01*
X128220941Y-133825554D01*
X128289734Y-133928509D01*
X128377291Y-134016066D01*
X128480246Y-134084859D01*
X128594644Y-134132244D01*
X128716088Y-134156400D01*
X128810548Y-134156400D01*
X126466102Y-136500847D01*
X126384040Y-136517170D01*
X126300835Y-136551635D01*
X126225952Y-136601670D01*
X126162270Y-136665352D01*
X126112235Y-136740235D01*
X126077770Y-136823440D01*
X126060200Y-136911770D01*
X126060200Y-137001830D01*
X126077770Y-137090160D01*
X126106699Y-137160001D01*
X126008653Y-137160001D01*
X121539000Y-132690349D01*
X121539000Y-132142378D01*
X121589330Y-132092048D01*
X121639365Y-132017165D01*
X121673830Y-131933960D01*
X121691400Y-131845630D01*
X121691400Y-131755570D01*
X121673830Y-131667240D01*
X121639365Y-131584035D01*
X121589330Y-131509152D01*
X121525648Y-131445470D01*
X121450765Y-131395435D01*
X121367560Y-131360970D01*
X121279230Y-131343400D01*
X121189170Y-131343400D01*
X121100840Y-131360970D01*
X121017635Y-131395435D01*
X120942752Y-131445470D01*
X120879070Y-131509152D01*
X120829035Y-131584035D01*
X120794570Y-131667240D01*
X120777000Y-131755570D01*
X120777000Y-131845630D01*
X120794570Y-131933960D01*
X120829035Y-132017165D01*
X120879070Y-132092048D01*
X120929400Y-132142378D01*
X120929401Y-132801632D01*
X120927927Y-132816600D01*
X120933811Y-132876351D01*
X120951240Y-132933805D01*
X120956476Y-132943600D01*
X120979543Y-132986757D01*
X120985816Y-132994400D01*
X121004617Y-133017308D01*
X121017633Y-133033168D01*
X121029257Y-133042708D01*
X125656293Y-137669745D01*
X125665833Y-137681369D01*
X125712244Y-137719459D01*
X125765195Y-137747761D01*
X125822649Y-137765190D01*
X125827804Y-137765698D01*
X125867435Y-137769601D01*
X125867443Y-137769601D01*
X125882401Y-137771074D01*
X125897359Y-137769601D01*
X129652041Y-137769601D01*
X129666999Y-137771074D01*
X129681957Y-137769601D01*
X129681965Y-137769601D01*
X129726750Y-137765190D01*
X129784205Y-137747761D01*
X129837156Y-137719459D01*
X129883567Y-137681369D01*
X129893111Y-137669740D01*
X130707651Y-136855200D01*
X135128290Y-136855200D01*
X135135117Y-136924518D01*
X135155336Y-136991171D01*
X135188171Y-137052600D01*
X135232358Y-137106442D01*
X135286200Y-137150629D01*
X135347629Y-137183464D01*
X135414282Y-137203683D01*
X135466238Y-137208800D01*
X136665656Y-137208800D01*
X136697134Y-137255909D01*
X136784691Y-137343466D01*
X136887646Y-137412259D01*
X137002044Y-137459644D01*
X137123488Y-137483800D01*
X137247312Y-137483800D01*
X137368756Y-137459644D01*
X137483154Y-137412259D01*
X137586109Y-137343466D01*
X137673666Y-137255909D01*
X137742459Y-137152954D01*
X137789844Y-137038556D01*
X137814000Y-136917112D01*
X137814000Y-136793288D01*
X137802947Y-136737718D01*
X138352494Y-136188172D01*
X138352494Y-136288400D01*
X138356908Y-136333213D01*
X138369979Y-136376305D01*
X138391206Y-136416018D01*
X138419773Y-136450827D01*
X138454582Y-136479394D01*
X138494295Y-136500621D01*
X138537387Y-136513692D01*
X138582200Y-136518106D01*
X141732200Y-136518106D01*
X141777013Y-136513692D01*
X141820105Y-136500621D01*
X141859818Y-136479394D01*
X141894627Y-136450827D01*
X141923194Y-136416018D01*
X141944421Y-136376305D01*
X141957492Y-136333213D01*
X141961906Y-136288400D01*
X141961906Y-135288400D01*
X141957492Y-135243587D01*
X141944421Y-135200495D01*
X141923194Y-135160782D01*
X141894627Y-135125973D01*
X141859818Y-135097406D01*
X141820105Y-135076179D01*
X141777013Y-135063108D01*
X141732200Y-135058694D01*
X138582200Y-135058694D01*
X138537387Y-135063108D01*
X138494295Y-135076179D01*
X138454582Y-135097406D01*
X138419773Y-135125973D01*
X138391206Y-135160782D01*
X138369979Y-135200495D01*
X138356908Y-135243587D01*
X138352494Y-135288400D01*
X138352494Y-135434800D01*
X138269551Y-135434800D01*
X138252199Y-135433091D01*
X138234847Y-135434800D01*
X138234838Y-135434800D01*
X138182882Y-135439917D01*
X138116229Y-135460136D01*
X138089078Y-135474649D01*
X138054800Y-135492971D01*
X138020608Y-135521032D01*
X138000958Y-135537158D01*
X137989892Y-135550642D01*
X137302882Y-136237653D01*
X137247312Y-136226600D01*
X137123488Y-136226600D01*
X137002044Y-136250756D01*
X136887646Y-136298141D01*
X136784691Y-136366934D01*
X136697134Y-136454491D01*
X136665656Y-136501600D01*
X135466238Y-136501600D01*
X135414282Y-136506717D01*
X135347629Y-136526936D01*
X135286200Y-136559771D01*
X135232358Y-136603958D01*
X135188171Y-136657800D01*
X135155336Y-136719229D01*
X135135117Y-136785882D01*
X135128290Y-136855200D01*
X130707651Y-136855200D01*
X131116545Y-136446307D01*
X131128168Y-136436768D01*
X131166258Y-136390357D01*
X131194560Y-136337406D01*
X131211989Y-136279951D01*
X131216400Y-136235166D01*
X131216400Y-136235158D01*
X131217873Y-136220200D01*
X131216400Y-136205242D01*
X131216400Y-135749178D01*
X131266730Y-135698848D01*
X131316765Y-135623965D01*
X131351230Y-135540760D01*
X131368800Y-135452430D01*
X131368800Y-135362370D01*
X131351230Y-135274040D01*
X131316765Y-135190835D01*
X131266730Y-135115952D01*
X131203048Y-135052270D01*
X131128165Y-135002235D01*
X131044960Y-134967770D01*
X130956630Y-134950200D01*
X130866570Y-134950200D01*
X130778240Y-134967770D01*
X130695035Y-135002235D01*
X130620152Y-135052270D01*
X130556470Y-135115952D01*
X130506435Y-135190835D01*
X130471970Y-135274040D01*
X130454400Y-135362370D01*
X130454400Y-135452430D01*
X130471970Y-135540760D01*
X130506435Y-135623965D01*
X130556470Y-135698848D01*
X130606801Y-135749179D01*
X130606800Y-136093948D01*
X129540748Y-137160001D01*
X129031943Y-137160001D01*
X129039830Y-137140960D01*
X129057400Y-137052630D01*
X129057400Y-136962570D01*
X129039830Y-136874240D01*
X129005365Y-136791035D01*
X128955330Y-136716152D01*
X128905000Y-136665822D01*
X128905000Y-135862383D01*
X130754244Y-134013140D01*
X130774056Y-133996880D01*
X130812146Y-133950469D01*
X130840448Y-133897518D01*
X130857877Y-133840063D01*
X130863762Y-133780312D01*
X130860819Y-133750431D01*
X130860819Y-130510970D01*
X131013200Y-130510970D01*
X131013200Y-130601030D01*
X131030770Y-130689360D01*
X131065235Y-130772565D01*
X131115270Y-130847448D01*
X131178952Y-130911130D01*
X131253835Y-130961165D01*
X131337040Y-130995630D01*
X131425370Y-131013200D01*
X131515430Y-131013200D01*
X131559600Y-131004414D01*
X131546600Y-131069770D01*
X131546600Y-131159830D01*
X131564170Y-131248160D01*
X131598635Y-131331365D01*
X131648670Y-131406248D01*
X131712352Y-131469930D01*
X131787235Y-131519965D01*
X131870440Y-131554430D01*
X131958770Y-131572000D01*
X132029949Y-131572000D01*
X132037209Y-131579260D01*
X131990435Y-131598635D01*
X131915552Y-131648670D01*
X131851870Y-131712352D01*
X131801835Y-131787235D01*
X131767370Y-131870440D01*
X131749800Y-131958770D01*
X131749800Y-132048830D01*
X131767370Y-132137160D01*
X131801835Y-132220365D01*
X131851870Y-132295248D01*
X131915552Y-132358930D01*
X131990435Y-132408965D01*
X132073640Y-132443430D01*
X132161970Y-132461000D01*
X132233149Y-132461000D01*
X132491606Y-132719458D01*
X132476606Y-132711440D01*
X132419151Y-132694011D01*
X132374366Y-132689600D01*
X132374358Y-132689600D01*
X132370609Y-132689231D01*
X132320648Y-132639270D01*
X132245765Y-132589235D01*
X132162560Y-132554770D01*
X132074230Y-132537200D01*
X131984170Y-132537200D01*
X131895840Y-132554770D01*
X131812635Y-132589235D01*
X131737752Y-132639270D01*
X131674070Y-132702952D01*
X131624035Y-132777835D01*
X131589570Y-132861040D01*
X131572000Y-132949370D01*
X131572000Y-133039430D01*
X131589570Y-133127760D01*
X131624035Y-133210965D01*
X131674070Y-133285848D01*
X131737752Y-133349530D01*
X131812635Y-133399565D01*
X131895840Y-133434030D01*
X131984170Y-133451600D01*
X132074230Y-133451600D01*
X132162560Y-133434030D01*
X132245765Y-133399565D01*
X132298366Y-133364418D01*
X132421156Y-133487208D01*
X132421161Y-133487212D01*
X133222568Y-134288620D01*
X133249635Y-134353965D01*
X133299670Y-134428848D01*
X133363352Y-134492530D01*
X133438235Y-134542565D01*
X133521440Y-134577030D01*
X133609770Y-134594600D01*
X133699830Y-134594600D01*
X133788160Y-134577030D01*
X133871365Y-134542565D01*
X133946248Y-134492530D01*
X134009930Y-134428848D01*
X134059965Y-134353965D01*
X134079034Y-134307930D01*
X134119643Y-134341258D01*
X134172594Y-134369560D01*
X134230048Y-134386989D01*
X134235689Y-134387545D01*
X134274834Y-134391400D01*
X134274841Y-134391400D01*
X134289799Y-134392873D01*
X134304757Y-134391400D01*
X134786222Y-134391400D01*
X134836552Y-134441730D01*
X134911435Y-134491765D01*
X134994640Y-134526230D01*
X135082970Y-134543800D01*
X135173030Y-134543800D01*
X135261360Y-134526230D01*
X135344565Y-134491765D01*
X135419448Y-134441730D01*
X135483130Y-134378048D01*
X135487324Y-134371770D01*
X137312400Y-134371770D01*
X137312400Y-134461830D01*
X137329970Y-134550160D01*
X137364435Y-134633365D01*
X137414470Y-134708248D01*
X137478152Y-134771930D01*
X137553035Y-134821965D01*
X137636240Y-134856430D01*
X137724570Y-134874000D01*
X137814630Y-134874000D01*
X137902960Y-134856430D01*
X137986165Y-134821965D01*
X138061048Y-134771930D01*
X138111378Y-134721600D01*
X144460242Y-134721600D01*
X144475200Y-134723073D01*
X144490158Y-134721600D01*
X144490166Y-134721600D01*
X144534951Y-134717189D01*
X144592406Y-134699760D01*
X144645357Y-134671458D01*
X144691768Y-134633368D01*
X144701312Y-134621739D01*
X145344946Y-133978106D01*
X146782200Y-133978106D01*
X146827013Y-133973692D01*
X146870105Y-133960621D01*
X146909818Y-133939394D01*
X146944627Y-133910827D01*
X146973194Y-133876018D01*
X146994421Y-133836305D01*
X147007492Y-133793213D01*
X147011906Y-133748400D01*
X147011906Y-132748400D01*
X147007492Y-132703587D01*
X146994421Y-132660495D01*
X146973194Y-132620782D01*
X146944627Y-132585973D01*
X146909818Y-132557406D01*
X146870105Y-132536179D01*
X146827013Y-132523108D01*
X146782200Y-132518694D01*
X143632200Y-132518694D01*
X143587387Y-132523108D01*
X143544295Y-132536179D01*
X143504582Y-132557406D01*
X143469773Y-132585973D01*
X143441206Y-132620782D01*
X143419979Y-132660495D01*
X143406908Y-132703587D01*
X143402494Y-132748400D01*
X143402494Y-133748400D01*
X143406908Y-133793213D01*
X143419979Y-133836305D01*
X143441206Y-133876018D01*
X143469773Y-133910827D01*
X143504582Y-133939394D01*
X143544295Y-133960621D01*
X143587387Y-133973692D01*
X143632200Y-133978106D01*
X144482843Y-133978106D01*
X144348949Y-134112000D01*
X138111378Y-134112000D01*
X138061048Y-134061670D01*
X137986165Y-134011635D01*
X137902960Y-133977170D01*
X137814630Y-133959600D01*
X137724570Y-133959600D01*
X137636240Y-133977170D01*
X137553035Y-134011635D01*
X137478152Y-134061670D01*
X137414470Y-134125352D01*
X137364435Y-134200235D01*
X137329970Y-134283440D01*
X137312400Y-134371770D01*
X135487324Y-134371770D01*
X135533165Y-134303165D01*
X135567630Y-134219960D01*
X135585200Y-134131630D01*
X135585200Y-134041570D01*
X135567630Y-133953240D01*
X135533165Y-133870035D01*
X135483130Y-133795152D01*
X135419448Y-133731470D01*
X135344565Y-133681435D01*
X135261360Y-133646970D01*
X135173030Y-133629400D01*
X135082970Y-133629400D01*
X134994640Y-133646970D01*
X134911435Y-133681435D01*
X134836552Y-133731470D01*
X134786222Y-133781800D01*
X134416052Y-133781800D01*
X134187452Y-133553200D01*
X138352494Y-133553200D01*
X138352494Y-133748400D01*
X138356908Y-133793213D01*
X138369979Y-133836305D01*
X138391206Y-133876018D01*
X138419773Y-133910827D01*
X138454582Y-133939394D01*
X138494295Y-133960621D01*
X138537387Y-133973692D01*
X138582200Y-133978106D01*
X141732200Y-133978106D01*
X141777013Y-133973692D01*
X141820105Y-133960621D01*
X141859818Y-133939394D01*
X141894627Y-133910827D01*
X141923194Y-133876018D01*
X141944421Y-133836305D01*
X141957492Y-133793213D01*
X141961906Y-133748400D01*
X141961906Y-132748400D01*
X141957492Y-132703587D01*
X141944421Y-132660495D01*
X141923194Y-132620782D01*
X141894627Y-132585973D01*
X141859818Y-132557406D01*
X141820105Y-132536179D01*
X141777013Y-132523108D01*
X141732200Y-132518694D01*
X138582200Y-132518694D01*
X138537387Y-132523108D01*
X138494295Y-132536179D01*
X138454582Y-132557406D01*
X138419773Y-132585973D01*
X138391206Y-132620782D01*
X138369979Y-132660495D01*
X138356908Y-132703587D01*
X138352494Y-132748400D01*
X138352494Y-132943600D01*
X134263652Y-132943600D01*
X132461000Y-131140949D01*
X132461000Y-131069770D01*
X132443430Y-130981440D01*
X132408965Y-130898235D01*
X132383952Y-130860800D01*
X138352494Y-130860800D01*
X138352494Y-131208400D01*
X138356908Y-131253213D01*
X138369979Y-131296305D01*
X138391206Y-131336018D01*
X138419773Y-131370827D01*
X138454582Y-131399394D01*
X138494295Y-131420621D01*
X138537387Y-131433692D01*
X138582200Y-131438106D01*
X141732200Y-131438106D01*
X141777013Y-131433692D01*
X141820105Y-131420621D01*
X141859818Y-131399394D01*
X141894627Y-131370827D01*
X141923194Y-131336018D01*
X141944421Y-131296305D01*
X141957492Y-131253213D01*
X141961906Y-131208400D01*
X141961906Y-130284599D01*
X143402494Y-130284599D01*
X143402494Y-131208400D01*
X143406908Y-131253213D01*
X143419979Y-131296305D01*
X143441206Y-131336018D01*
X143469773Y-131370827D01*
X143504582Y-131399394D01*
X143544295Y-131420621D01*
X143587387Y-131433692D01*
X143632200Y-131438106D01*
X146782200Y-131438106D01*
X146827013Y-131433692D01*
X146870105Y-131420621D01*
X146909818Y-131399394D01*
X146944627Y-131370827D01*
X146973194Y-131336018D01*
X146994421Y-131296305D01*
X147007492Y-131253213D01*
X147011906Y-131208400D01*
X147011906Y-130208400D01*
X147007492Y-130163587D01*
X146994421Y-130120495D01*
X146973194Y-130080782D01*
X146944627Y-130045973D01*
X146909818Y-130017406D01*
X146870105Y-129996179D01*
X146827013Y-129983108D01*
X146782200Y-129978694D01*
X144908545Y-129978694D01*
X144704711Y-129774860D01*
X144695167Y-129763231D01*
X144648756Y-129725141D01*
X144595805Y-129696839D01*
X144538350Y-129679410D01*
X144493565Y-129674999D01*
X144493557Y-129674999D01*
X144478599Y-129673526D01*
X144463641Y-129674999D01*
X133992251Y-129674999D01*
X133096000Y-128778749D01*
X133096000Y-128707570D01*
X133078430Y-128619240D01*
X133043965Y-128536035D01*
X132993930Y-128461152D01*
X132930248Y-128397470D01*
X132855365Y-128347435D01*
X132772160Y-128312970D01*
X132683830Y-128295400D01*
X132593770Y-128295400D01*
X132505440Y-128312970D01*
X132422235Y-128347435D01*
X132347352Y-128397470D01*
X132283670Y-128461152D01*
X132233635Y-128536035D01*
X132199170Y-128619240D01*
X132181600Y-128707570D01*
X132181600Y-128797630D01*
X132199170Y-128885960D01*
X132233635Y-128969165D01*
X132283670Y-129044048D01*
X132347352Y-129107730D01*
X132422235Y-129157765D01*
X132505440Y-129192230D01*
X132593770Y-129209800D01*
X132664949Y-129209800D01*
X133639890Y-130184742D01*
X133649431Y-130196367D01*
X133695842Y-130234457D01*
X133727167Y-130251200D01*
X131812178Y-130251200D01*
X131761848Y-130200870D01*
X131686965Y-130150835D01*
X131603760Y-130116370D01*
X131515430Y-130098800D01*
X131425370Y-130098800D01*
X131337040Y-130116370D01*
X131253835Y-130150835D01*
X131178952Y-130200870D01*
X131115270Y-130264552D01*
X131065235Y-130339435D01*
X131030770Y-130422640D01*
X131013200Y-130510970D01*
X130860819Y-130510970D01*
X130860819Y-126389670D01*
X132156200Y-127685052D01*
X132156200Y-127756230D01*
X132173770Y-127844560D01*
X132208235Y-127927765D01*
X132258270Y-128002648D01*
X132321952Y-128066330D01*
X132396835Y-128116365D01*
X132480040Y-128150830D01*
X132568370Y-128168400D01*
X132658430Y-128168400D01*
X132746760Y-128150830D01*
X132829965Y-128116365D01*
X132904848Y-128066330D01*
X132968530Y-128002648D01*
X133018565Y-127927765D01*
X133053030Y-127844560D01*
X133070600Y-127756230D01*
X133070600Y-127666170D01*
X133053030Y-127577840D01*
X133018565Y-127494635D01*
X132968530Y-127419752D01*
X132904848Y-127356070D01*
X132829965Y-127306035D01*
X132746760Y-127271570D01*
X132658430Y-127254000D01*
X132587252Y-127254000D01*
X131318020Y-125984769D01*
X131318020Y-124188194D01*
X131380835Y-124230165D01*
X131464040Y-124264630D01*
X131552370Y-124282200D01*
X131623549Y-124282200D01*
X136756092Y-129414744D01*
X136765632Y-129426368D01*
X136812043Y-129464458D01*
X136864994Y-129492760D01*
X136909076Y-129506132D01*
X136922448Y-129510189D01*
X136928089Y-129510745D01*
X136967234Y-129514600D01*
X136967241Y-129514600D01*
X136982199Y-129516073D01*
X136997157Y-129514600D01*
X144150842Y-129514600D01*
X144165800Y-129516073D01*
X144180758Y-129514600D01*
X144180766Y-129514600D01*
X144225551Y-129510189D01*
X144283006Y-129492760D01*
X144335957Y-129464458D01*
X144382368Y-129426368D01*
X144391912Y-129414739D01*
X144908546Y-128898106D01*
X146782200Y-128898106D01*
X146827013Y-128893692D01*
X146870105Y-128880621D01*
X146909818Y-128859394D01*
X146944627Y-128830827D01*
X146973194Y-128796018D01*
X146994421Y-128756305D01*
X147007492Y-128713213D01*
X147011906Y-128668400D01*
X147011906Y-127668400D01*
X147007492Y-127623587D01*
X146994421Y-127580495D01*
X146973194Y-127540782D01*
X146944627Y-127505973D01*
X146909818Y-127477406D01*
X146870105Y-127456179D01*
X146827013Y-127443108D01*
X146782200Y-127438694D01*
X143632200Y-127438694D01*
X143587387Y-127443108D01*
X143544295Y-127456179D01*
X143504582Y-127477406D01*
X143469773Y-127505973D01*
X143441206Y-127540782D01*
X143419979Y-127580495D01*
X143406908Y-127623587D01*
X143402494Y-127668400D01*
X143402494Y-128668400D01*
X143406908Y-128713213D01*
X143419979Y-128756305D01*
X143441206Y-128796018D01*
X143469773Y-128830827D01*
X143504582Y-128859394D01*
X143544295Y-128880621D01*
X143587387Y-128893692D01*
X143632200Y-128898106D01*
X144046443Y-128898106D01*
X144039549Y-128905000D01*
X137108452Y-128905000D01*
X136678060Y-128474608D01*
X136692358Y-128473200D01*
X138352494Y-128473200D01*
X138352494Y-128668400D01*
X138356908Y-128713213D01*
X138369979Y-128756305D01*
X138391206Y-128796018D01*
X138419773Y-128830827D01*
X138454582Y-128859394D01*
X138494295Y-128880621D01*
X138537387Y-128893692D01*
X138582200Y-128898106D01*
X141732200Y-128898106D01*
X141777013Y-128893692D01*
X141820105Y-128880621D01*
X141859818Y-128859394D01*
X141894627Y-128830827D01*
X141923194Y-128796018D01*
X141944421Y-128756305D01*
X141957492Y-128713213D01*
X141961906Y-128668400D01*
X141961906Y-127668400D01*
X141957492Y-127623587D01*
X141944421Y-127580495D01*
X141923194Y-127540782D01*
X141894627Y-127505973D01*
X141859818Y-127477406D01*
X141820105Y-127456179D01*
X141777013Y-127443108D01*
X141732200Y-127438694D01*
X138582200Y-127438694D01*
X138537387Y-127443108D01*
X138494295Y-127456179D01*
X138454582Y-127477406D01*
X138419773Y-127505973D01*
X138391206Y-127540782D01*
X138369979Y-127580495D01*
X138356908Y-127623587D01*
X138352494Y-127668400D01*
X138352494Y-127863600D01*
X136803652Y-127863600D01*
X134681632Y-125741580D01*
X134712648Y-125750989D01*
X134717803Y-125751497D01*
X134757434Y-125755400D01*
X134757442Y-125755400D01*
X134772400Y-125756873D01*
X134787358Y-125755400D01*
X138352494Y-125755400D01*
X138352494Y-126128400D01*
X138356908Y-126173213D01*
X138369979Y-126216305D01*
X138391206Y-126256018D01*
X138419773Y-126290827D01*
X138454582Y-126319394D01*
X138494295Y-126340621D01*
X138537387Y-126353692D01*
X138582200Y-126358106D01*
X141732200Y-126358106D01*
X141777013Y-126353692D01*
X141820105Y-126340621D01*
X141859818Y-126319394D01*
X141894627Y-126290827D01*
X141923194Y-126256018D01*
X141944421Y-126216305D01*
X141957492Y-126173213D01*
X141961906Y-126128400D01*
X141961906Y-125128400D01*
X143402494Y-125128400D01*
X143402494Y-126128400D01*
X143406908Y-126173213D01*
X143419979Y-126216305D01*
X143441206Y-126256018D01*
X143469773Y-126290827D01*
X143504582Y-126319394D01*
X143544295Y-126340621D01*
X143587387Y-126353692D01*
X143632200Y-126358106D01*
X146782200Y-126358106D01*
X146827013Y-126353692D01*
X146870105Y-126340621D01*
X146909818Y-126319394D01*
X146944627Y-126290827D01*
X146973194Y-126256018D01*
X146994421Y-126216305D01*
X147007492Y-126173213D01*
X147011906Y-126128400D01*
X147011906Y-125128400D01*
X147007492Y-125083587D01*
X146994421Y-125040495D01*
X146973194Y-125000782D01*
X146944627Y-124965973D01*
X146909818Y-124937406D01*
X146870105Y-124916179D01*
X146827013Y-124903108D01*
X146782200Y-124898694D01*
X143632200Y-124898694D01*
X143587387Y-124903108D01*
X143544295Y-124916179D01*
X143504582Y-124937406D01*
X143469773Y-124965973D01*
X143441206Y-125000782D01*
X143419979Y-125040495D01*
X143406908Y-125083587D01*
X143402494Y-125128400D01*
X141961906Y-125128400D01*
X141957492Y-125083587D01*
X141944421Y-125040495D01*
X141923194Y-125000782D01*
X141894627Y-124965973D01*
X141859818Y-124937406D01*
X141820105Y-124916179D01*
X141777013Y-124903108D01*
X141732200Y-124898694D01*
X138582200Y-124898694D01*
X138537387Y-124903108D01*
X138494295Y-124916179D01*
X138454582Y-124937406D01*
X138419773Y-124965973D01*
X138391206Y-125000782D01*
X138369979Y-125040495D01*
X138356908Y-125083587D01*
X138352494Y-125128400D01*
X138352494Y-125145800D01*
X134898652Y-125145800D01*
X132156200Y-122403349D01*
X132156200Y-122332170D01*
X132138630Y-122243840D01*
X132104165Y-122160635D01*
X132054130Y-122085752D01*
X131990448Y-122022070D01*
X131915565Y-121972035D01*
X131832360Y-121937570D01*
X131744030Y-121920000D01*
X131653970Y-121920000D01*
X131565640Y-121937570D01*
X131482435Y-121972035D01*
X131409699Y-122020635D01*
X131368350Y-121958752D01*
X131304668Y-121895070D01*
X131229785Y-121845035D01*
X131146580Y-121810570D01*
X131058250Y-121793000D01*
X130968190Y-121793000D01*
X130879860Y-121810570D01*
X130860819Y-121818457D01*
X130860819Y-121216325D01*
X130862293Y-121201357D01*
X130860800Y-121186196D01*
X130860800Y-119293357D01*
X130862273Y-119278399D01*
X130860800Y-119263441D01*
X130860800Y-119263434D01*
X130856389Y-119218649D01*
X130838960Y-119161194D01*
X130810658Y-119108243D01*
X130772568Y-119061832D01*
X130760944Y-119052292D01*
X123342400Y-111633749D01*
X123342400Y-93563157D01*
X123343873Y-93548199D01*
X123342400Y-93533241D01*
X123342400Y-93533234D01*
X123337989Y-93488449D01*
X123320560Y-93430994D01*
X123292258Y-93378043D01*
X123254168Y-93331632D01*
X123242544Y-93322092D01*
X121157252Y-91236800D01*
X123355705Y-91236800D01*
X123355705Y-96012000D01*
X146685000Y-96012000D01*
X146685000Y-91236800D01*
X123355705Y-91236800D01*
X121157252Y-91236800D01*
X120345200Y-90424749D01*
X120345200Y-90353570D01*
X120327630Y-90265240D01*
X120293165Y-90182035D01*
X120243130Y-90107152D01*
X120179448Y-90043470D01*
X120104565Y-89993435D01*
X120021360Y-89958970D01*
X119933030Y-89941400D01*
X119842970Y-89941400D01*
X119754640Y-89958970D01*
X119671435Y-89993435D01*
X119596552Y-90043470D01*
X119532870Y-90107152D01*
X119482835Y-90182035D01*
X119448370Y-90265240D01*
X119430800Y-90353570D01*
X58774400Y-90353570D01*
X58774400Y-89508400D01*
X147067200Y-89508400D01*
X147067201Y-139701200D01*
G04 #@! TA.AperFunction,Conductor*
D19*
G36*
X147067201Y-139701200D02*
G01*
X58774400Y-139701200D01*
X58774400Y-91465492D01*
X62179200Y-91465492D01*
X62230000Y-133604092D01*
X62231482Y-133618956D01*
X62235836Y-133633245D01*
X62242893Y-133646411D01*
X62252383Y-133657946D01*
X62263942Y-133667409D01*
X62277124Y-133674435D01*
X62291424Y-133678754D01*
X62305971Y-133680200D01*
X71249238Y-133707089D01*
X74348292Y-136806144D01*
X74357832Y-136817768D01*
X74404243Y-136855858D01*
X74457194Y-136884160D01*
X74514648Y-136901589D01*
X74519803Y-136902097D01*
X74559434Y-136906000D01*
X74559442Y-136906000D01*
X74574400Y-136907473D01*
X74589358Y-136906000D01*
X108951042Y-136906000D01*
X108966000Y-136907473D01*
X108980958Y-136906000D01*
X108980966Y-136906000D01*
X109025751Y-136901589D01*
X109083206Y-136884160D01*
X109136157Y-136855858D01*
X109182568Y-136817768D01*
X109192112Y-136806139D01*
X109857755Y-136140497D01*
X109970888Y-136163000D01*
X110094712Y-136163000D01*
X110216156Y-136138844D01*
X110330554Y-136091459D01*
X110433509Y-136022666D01*
X110521066Y-135935109D01*
X110589859Y-135832154D01*
X110637244Y-135717756D01*
X110661400Y-135596312D01*
X110661400Y-135472488D01*
X110637244Y-135351044D01*
X110589859Y-135236646D01*
X110521066Y-135133691D01*
X110433509Y-135046134D01*
X110330554Y-134977341D01*
X110216156Y-134929956D01*
X110094712Y-134905800D01*
X109970888Y-134905800D01*
X109849444Y-134929956D01*
X109735046Y-134977341D01*
X109632091Y-135046134D01*
X109544534Y-135133691D01*
X109475741Y-135236646D01*
X109428356Y-135351044D01*
X109404200Y-135472488D01*
X109404200Y-135596312D01*
X109426703Y-135709445D01*
X108839749Y-136296400D01*
X74700652Y-136296400D01*
X72113940Y-133709689D01*
X82458941Y-133740792D01*
X84355892Y-135637744D01*
X84365432Y-135649368D01*
X84411843Y-135687458D01*
X84464794Y-135715760D01*
X84504819Y-135727902D01*
X84522248Y-135733189D01*
X84527889Y-135733745D01*
X84567034Y-135737600D01*
X84567041Y-135737600D01*
X84581999Y-135739073D01*
X84596957Y-135737600D01*
X107046042Y-135737600D01*
X107061000Y-135739073D01*
X107075958Y-135737600D01*
X107075966Y-135737600D01*
X107120751Y-135733189D01*
X107178206Y-135715760D01*
X107231157Y-135687458D01*
X107277568Y-135649368D01*
X107287112Y-135637739D01*
X108155955Y-134768897D01*
X108269088Y-134791400D01*
X108392912Y-134791400D01*
X108514356Y-134767244D01*
X108628754Y-134719859D01*
X108731709Y-134651066D01*
X108819266Y-134563509D01*
X108888059Y-134460554D01*
X108935444Y-134346156D01*
X108959600Y-134224712D01*
X108959600Y-134100888D01*
X108935444Y-133979444D01*
X108888059Y-133865046D01*
X108819266Y-133762091D01*
X108731709Y-133674534D01*
X108628754Y-133605741D01*
X108514356Y-133558356D01*
X108392912Y-133534200D01*
X108269088Y-133534200D01*
X108147644Y-133558356D01*
X108033246Y-133605741D01*
X107930291Y-133674534D01*
X107842734Y-133762091D01*
X107773941Y-133865046D01*
X107726556Y-133979444D01*
X107702400Y-134100888D01*
X107702400Y-134224712D01*
X107724903Y-134337845D01*
X106934749Y-135128000D01*
X84708252Y-135128000D01*
X83323644Y-133743392D01*
X92537483Y-133771095D01*
X92727732Y-133961344D01*
X92737272Y-133972968D01*
X92783683Y-134011058D01*
X92828419Y-134034969D01*
X92836634Y-134039360D01*
X92894088Y-134056789D01*
X92899243Y-134057297D01*
X92938874Y-134061200D01*
X92938882Y-134061200D01*
X92953840Y-134062673D01*
X92968798Y-134061200D01*
X105953842Y-134061200D01*
X105968800Y-134062673D01*
X105983758Y-134061200D01*
X105983766Y-134061200D01*
X106028551Y-134056789D01*
X106086006Y-134039360D01*
X106138957Y-134011058D01*
X106185368Y-133972968D01*
X106194912Y-133961339D01*
X106301754Y-133854497D01*
X106414888Y-133877000D01*
X106538712Y-133877000D01*
X106660156Y-133852844D01*
X106774554Y-133805459D01*
X106877509Y-133736666D01*
X106965066Y-133649109D01*
X107033859Y-133546154D01*
X107081244Y-133431756D01*
X107105400Y-133310312D01*
X107105400Y-133186488D01*
X107081244Y-133065044D01*
X107033859Y-132950646D01*
X106965066Y-132847691D01*
X106877509Y-132760134D01*
X106774554Y-132691341D01*
X106660156Y-132643956D01*
X106538712Y-132619800D01*
X106414888Y-132619800D01*
X106293444Y-132643956D01*
X106179046Y-132691341D01*
X106076091Y-132760134D01*
X105988534Y-132847691D01*
X105919741Y-132950646D01*
X105872356Y-133065044D01*
X105848200Y-133186488D01*
X105848200Y-133310312D01*
X105870703Y-133423446D01*
X105842549Y-133451600D01*
X104622600Y-133451600D01*
X104622600Y-132130800D01*
X105496642Y-132130800D01*
X105511600Y-132132273D01*
X105526558Y-132130800D01*
X105526566Y-132130800D01*
X105571351Y-132126389D01*
X105628806Y-132108960D01*
X105681757Y-132080658D01*
X105728168Y-132042568D01*
X105737712Y-132030939D01*
X105895355Y-131873297D01*
X106008488Y-131895800D01*
X106132312Y-131895800D01*
X106253756Y-131871644D01*
X106368154Y-131824259D01*
X106471109Y-131755466D01*
X106558666Y-131667909D01*
X106627459Y-131564954D01*
X106674844Y-131450556D01*
X106699000Y-131329112D01*
X106699000Y-131205288D01*
X106674844Y-131083844D01*
X106627459Y-130969446D01*
X106558666Y-130866491D01*
X106471109Y-130778934D01*
X106368154Y-130710141D01*
X106253756Y-130662756D01*
X106132312Y-130638600D01*
X106008488Y-130638600D01*
X105887044Y-130662756D01*
X105772646Y-130710141D01*
X105669691Y-130778934D01*
X105582134Y-130866491D01*
X105513341Y-130969446D01*
X105465956Y-131083844D01*
X105441800Y-131205288D01*
X105441800Y-131329112D01*
X105464303Y-131442245D01*
X105385349Y-131521200D01*
X104622600Y-131521200D01*
X104622600Y-129082800D01*
X105215517Y-129082800D01*
X106305400Y-129815066D01*
X106305400Y-129932112D01*
X106329556Y-130053556D01*
X106376941Y-130167954D01*
X106445734Y-130270909D01*
X106533291Y-130358466D01*
X106636246Y-130427259D01*
X106750644Y-130474644D01*
X106872088Y-130498800D01*
X106995912Y-130498800D01*
X107117356Y-130474644D01*
X107231754Y-130427259D01*
X107334709Y-130358466D01*
X107422266Y-130270909D01*
X107491059Y-130167954D01*
X107538444Y-130053556D01*
X107562600Y-129932112D01*
X107562600Y-129808288D01*
X107538444Y-129686844D01*
X107491059Y-129572446D01*
X107422266Y-129469491D01*
X107334709Y-129381934D01*
X107231754Y-129313141D01*
X107117356Y-129265756D01*
X106995912Y-129241600D01*
X106872088Y-129241600D01*
X106750644Y-129265756D01*
X106645639Y-129309250D01*
X105490489Y-128533135D01*
X105478557Y-128523342D01*
X105452184Y-128509246D01*
X105426327Y-128495340D01*
X105425953Y-128495226D01*
X105425606Y-128495040D01*
X105397097Y-128486392D01*
X105368917Y-128477765D01*
X105368530Y-128477726D01*
X105368151Y-128477611D01*
X105338532Y-128474694D01*
X105309181Y-128471727D01*
X105293828Y-128473200D01*
X104622600Y-128473200D01*
X104622600Y-127609575D01*
X104653691Y-127640666D01*
X104756646Y-127709459D01*
X104871044Y-127756844D01*
X104992488Y-127781000D01*
X105116312Y-127781000D01*
X105237756Y-127756844D01*
X105352154Y-127709459D01*
X105455109Y-127640666D01*
X105542666Y-127553109D01*
X105611459Y-127450154D01*
X105627192Y-127412170D01*
X112191800Y-127412170D01*
X112191800Y-127502230D01*
X112209370Y-127590560D01*
X112243835Y-127673765D01*
X112293870Y-127748648D01*
X112357552Y-127812330D01*
X112432435Y-127862365D01*
X112515640Y-127896830D01*
X112603970Y-127914400D01*
X112675149Y-127914400D01*
X114912092Y-130151344D01*
X114921632Y-130162968D01*
X114968043Y-130201058D01*
X115020994Y-130229360D01*
X115061019Y-130241502D01*
X115078448Y-130246789D01*
X115084089Y-130247345D01*
X115123234Y-130251200D01*
X115123241Y-130251200D01*
X115138199Y-130252673D01*
X115153157Y-130251200D01*
X115837792Y-130251200D01*
X115888122Y-130301530D01*
X115963005Y-130351565D01*
X116046210Y-130386030D01*
X116134540Y-130403600D01*
X116224600Y-130403600D01*
X116312930Y-130386030D01*
X116331970Y-130378143D01*
X116331970Y-130616056D01*
X116319965Y-130608035D01*
X116236760Y-130573570D01*
X116148430Y-130556000D01*
X116058370Y-130556000D01*
X115970040Y-130573570D01*
X115886835Y-130608035D01*
X115811952Y-130658070D01*
X115748270Y-130721752D01*
X115698235Y-130796635D01*
X115663770Y-130879840D01*
X115646200Y-130968170D01*
X115646200Y-130987411D01*
X114879358Y-131597400D01*
X113651178Y-131597400D01*
X113600848Y-131547070D01*
X113525965Y-131497035D01*
X113442760Y-131462570D01*
X113354430Y-131445000D01*
X113264370Y-131445000D01*
X113176040Y-131462570D01*
X113092835Y-131497035D01*
X113017952Y-131547070D01*
X112954270Y-131610752D01*
X112904235Y-131685635D01*
X112869770Y-131768840D01*
X112852200Y-131857170D01*
X112852200Y-131947230D01*
X112869770Y-132035560D01*
X112904235Y-132118765D01*
X112954270Y-132193648D01*
X113017952Y-132257330D01*
X113092835Y-132307365D01*
X113176040Y-132341830D01*
X113264370Y-132359400D01*
X113354430Y-132359400D01*
X113442760Y-132341830D01*
X113525965Y-132307365D01*
X113600848Y-132257330D01*
X113651178Y-132207000D01*
X114983538Y-132207000D01*
X115011165Y-132207422D01*
X115028257Y-132204292D01*
X115045551Y-132202589D01*
X115057721Y-132198897D01*
X115070223Y-132196608D01*
X115086372Y-132190206D01*
X115103006Y-132185160D01*
X115114221Y-132179166D01*
X115126038Y-132174481D01*
X115140624Y-132165053D01*
X115155957Y-132156858D01*
X115177369Y-132139285D01*
X116026279Y-131464017D01*
X116058370Y-131470400D01*
X116148430Y-131470400D01*
X116236760Y-131452830D01*
X116319965Y-131418365D01*
X116331970Y-131410344D01*
X116331970Y-132417676D01*
X116330497Y-132432634D01*
X116331970Y-132447592D01*
X116331970Y-132447599D01*
X116334697Y-132475288D01*
X116336381Y-132492385D01*
X116343609Y-132516211D01*
X116353810Y-132549839D01*
X116382112Y-132602790D01*
X116420202Y-132649202D01*
X116431830Y-132658746D01*
X116611391Y-132838307D01*
X116611390Y-134882964D01*
X116609917Y-134897922D01*
X116611390Y-134912880D01*
X116611390Y-134912887D01*
X116614240Y-134941822D01*
X116615801Y-134957673D01*
X116621768Y-134977343D01*
X116633230Y-135015127D01*
X116661532Y-135068078D01*
X116699622Y-135114490D01*
X116711251Y-135124034D01*
X118197770Y-136610554D01*
X118162035Y-136664035D01*
X118127570Y-136747240D01*
X118110000Y-136835570D01*
X118110000Y-136925630D01*
X118127570Y-137013960D01*
X118162035Y-137097165D01*
X118212070Y-137172048D01*
X118275752Y-137235730D01*
X118350635Y-137285765D01*
X118433840Y-137320230D01*
X118522170Y-137337800D01*
X118612230Y-137337800D01*
X118700560Y-137320230D01*
X118783765Y-137285765D01*
X118858648Y-137235730D01*
X118922330Y-137172048D01*
X118972365Y-137097165D01*
X119006830Y-137013960D01*
X119012475Y-136985583D01*
X119060328Y-137011160D01*
X119117782Y-137028589D01*
X119122937Y-137029097D01*
X119162568Y-137033000D01*
X119162576Y-137033000D01*
X119177534Y-137034473D01*
X119192492Y-137033000D01*
X119673222Y-137033000D01*
X119723552Y-137083330D01*
X119798435Y-137133365D01*
X119881640Y-137167830D01*
X119969970Y-137185400D01*
X120060030Y-137185400D01*
X120148360Y-137167830D01*
X120231565Y-137133365D01*
X120306448Y-137083330D01*
X120370130Y-137019648D01*
X120420165Y-136944765D01*
X120454630Y-136861560D01*
X120472200Y-136773230D01*
X120472200Y-136683170D01*
X120463414Y-136639000D01*
X120528770Y-136652000D01*
X120618830Y-136652000D01*
X120707160Y-136634430D01*
X120790365Y-136599965D01*
X120865248Y-136549930D01*
X120928930Y-136486248D01*
X120978965Y-136411365D01*
X121013430Y-136328160D01*
X121031000Y-136239830D01*
X121031000Y-136193652D01*
X121036770Y-136194800D01*
X121126830Y-136194800D01*
X121215160Y-136177230D01*
X121298365Y-136142765D01*
X121373248Y-136092730D01*
X121436930Y-136029048D01*
X121486965Y-135954165D01*
X121521430Y-135870960D01*
X121539000Y-135782630D01*
X121539000Y-135692570D01*
X121521430Y-135604240D01*
X121486965Y-135521035D01*
X121436930Y-135446152D01*
X121373248Y-135382470D01*
X121298365Y-135332435D01*
X121215160Y-135297970D01*
X121126830Y-135280400D01*
X121036770Y-135280400D01*
X120948440Y-135297970D01*
X120865235Y-135332435D01*
X120790352Y-135382470D01*
X120740022Y-135432800D01*
X119201452Y-135432800D01*
X118389400Y-134620749D01*
X118389400Y-133060022D01*
X118433840Y-133078430D01*
X118522170Y-133096000D01*
X118612230Y-133096000D01*
X118700560Y-133078430D01*
X118783765Y-133043965D01*
X118858648Y-132993930D01*
X118922330Y-132930248D01*
X118972365Y-132855365D01*
X119006830Y-132772160D01*
X119024400Y-132683830D01*
X119024400Y-132593770D01*
X119006830Y-132505440D01*
X118972365Y-132422235D01*
X118922330Y-132347352D01*
X118858648Y-132283670D01*
X118783765Y-132233635D01*
X118700560Y-132199170D01*
X118612230Y-132181600D01*
X118541052Y-132181600D01*
X118186188Y-131826737D01*
X118186189Y-131291840D01*
X118211600Y-131317251D01*
X118211600Y-131388430D01*
X118229170Y-131476760D01*
X118263635Y-131559965D01*
X118313670Y-131634848D01*
X118377352Y-131698530D01*
X118452235Y-131748565D01*
X118535440Y-131783030D01*
X118623770Y-131800600D01*
X118713830Y-131800600D01*
X118802160Y-131783030D01*
X118885365Y-131748565D01*
X118960248Y-131698530D01*
X119023930Y-131634848D01*
X119073965Y-131559965D01*
X119108430Y-131476760D01*
X119126000Y-131388430D01*
X119126000Y-131298370D01*
X119108430Y-131210040D01*
X119073965Y-131126835D01*
X119023930Y-131051952D01*
X118960248Y-130988270D01*
X118889824Y-130941214D01*
X118934848Y-130911130D01*
X118998530Y-130847448D01*
X119048565Y-130772565D01*
X119083030Y-130689360D01*
X119100600Y-130601030D01*
X119100600Y-130510970D01*
X119083030Y-130422640D01*
X119048565Y-130339435D01*
X118998530Y-130264552D01*
X118948200Y-130214222D01*
X118948200Y-128006724D01*
X118960235Y-128014765D01*
X119043440Y-128049230D01*
X119131770Y-128066800D01*
X119221830Y-128066800D01*
X119310160Y-128049230D01*
X119393365Y-128014765D01*
X119468248Y-127964730D01*
X119531930Y-127901048D01*
X119581965Y-127826165D01*
X119587501Y-127812800D01*
X122340222Y-127812800D01*
X122390552Y-127863130D01*
X122465435Y-127913165D01*
X122548640Y-127947630D01*
X122636970Y-127965200D01*
X122727030Y-127965200D01*
X122815360Y-127947630D01*
X122898565Y-127913165D01*
X122973448Y-127863130D01*
X123037130Y-127799448D01*
X123087165Y-127724565D01*
X123121630Y-127641360D01*
X123139200Y-127553030D01*
X123139200Y-127462970D01*
X123121630Y-127374640D01*
X123087165Y-127291435D01*
X123037130Y-127216552D01*
X122973448Y-127152870D01*
X122898565Y-127102835D01*
X122815360Y-127068370D01*
X122727030Y-127050800D01*
X122636970Y-127050800D01*
X122548640Y-127068370D01*
X122465435Y-127102835D01*
X122390552Y-127152870D01*
X122340222Y-127203200D01*
X119390383Y-127203200D01*
X119310160Y-127169970D01*
X119221830Y-127152400D01*
X119131770Y-127152400D01*
X119043440Y-127169970D01*
X118960235Y-127204435D01*
X118948200Y-127212476D01*
X118948200Y-113588051D01*
X119634060Y-112902192D01*
X119671435Y-112927165D01*
X119754640Y-112961630D01*
X119842970Y-112979200D01*
X119933030Y-112979200D01*
X120021360Y-112961630D01*
X120104565Y-112927165D01*
X120179448Y-112877130D01*
X120243130Y-112813448D01*
X120293165Y-112738565D01*
X120327630Y-112655360D01*
X120345200Y-112567030D01*
X120345200Y-112476970D01*
X120327630Y-112388640D01*
X120293165Y-112305435D01*
X120243130Y-112230552D01*
X120179448Y-112166870D01*
X120104565Y-112116835D01*
X120021360Y-112082370D01*
X119933030Y-112064800D01*
X119842970Y-112064800D01*
X119754640Y-112082370D01*
X119671435Y-112116835D01*
X119596552Y-112166870D01*
X119543817Y-112219605D01*
X119528603Y-112221103D01*
X119523448Y-112221611D01*
X119465994Y-112239040D01*
X119413043Y-112267342D01*
X119366632Y-112305432D01*
X119357092Y-112317056D01*
X118643390Y-113030759D01*
X118643390Y-111739501D01*
X119861852Y-110521040D01*
X119933030Y-110521040D01*
X120021360Y-110503470D01*
X120104565Y-110469005D01*
X120179448Y-110418970D01*
X120243130Y-110355288D01*
X120293165Y-110280405D01*
X120327630Y-110197200D01*
X120345200Y-110108870D01*
X120345200Y-110018810D01*
X120327630Y-109930480D01*
X120293165Y-109847275D01*
X120243130Y-109772392D01*
X120179448Y-109708710D01*
X120104565Y-109658675D01*
X120021360Y-109624210D01*
X119933030Y-109606640D01*
X119842970Y-109606640D01*
X119754640Y-109624210D01*
X119671435Y-109658675D01*
X119596552Y-109708710D01*
X119532870Y-109772392D01*
X119482835Y-109847275D01*
X119448370Y-109930480D01*
X119430800Y-110018810D01*
X119430800Y-110089988D01*
X118338580Y-111182209D01*
X118338580Y-109586156D01*
X119861852Y-108062885D01*
X119933030Y-108062885D01*
X120021360Y-108045315D01*
X120104565Y-108010850D01*
X120179448Y-107960815D01*
X120243130Y-107897133D01*
X120293165Y-107822250D01*
X120327630Y-107739045D01*
X120345200Y-107650715D01*
X120345200Y-107560655D01*
X120327630Y-107472325D01*
X120293165Y-107389120D01*
X120243130Y-107314237D01*
X120179448Y-107250555D01*
X120104565Y-107200520D01*
X120021360Y-107166055D01*
X119933030Y-107148485D01*
X119842970Y-107148485D01*
X119754640Y-107166055D01*
X119671435Y-107200520D01*
X119596552Y-107250555D01*
X119532870Y-107314237D01*
X119482835Y-107389120D01*
X119448370Y-107472325D01*
X119430800Y-107560655D01*
X119430800Y-107631833D01*
X117856000Y-109206634D01*
X117856000Y-107610581D01*
X119861852Y-105604730D01*
X119933030Y-105604730D01*
X120021360Y-105587160D01*
X120104565Y-105552695D01*
X120179448Y-105502660D01*
X120243130Y-105438978D01*
X120293165Y-105364095D01*
X120327630Y-105280890D01*
X120345200Y-105192560D01*
X120345200Y-105102500D01*
X120327630Y-105014170D01*
X120293165Y-104930965D01*
X120243130Y-104856082D01*
X120179448Y-104792400D01*
X120104565Y-104742365D01*
X120021360Y-104707900D01*
X119933030Y-104690330D01*
X119842970Y-104690330D01*
X119754640Y-104707900D01*
X119671435Y-104742365D01*
X119596552Y-104792400D01*
X119532870Y-104856082D01*
X119482835Y-104930965D01*
X119448370Y-105014170D01*
X119430800Y-105102500D01*
X119430800Y-105173678D01*
X117551190Y-107053289D01*
X117551190Y-105180661D01*
X119650980Y-103080873D01*
X119671435Y-103094540D01*
X119754640Y-103129005D01*
X119842970Y-103146575D01*
X119933030Y-103146575D01*
X120021360Y-103129005D01*
X120104565Y-103094540D01*
X120179448Y-103044505D01*
X120243130Y-102980823D01*
X120293165Y-102905940D01*
X120327630Y-102822735D01*
X120345200Y-102734405D01*
X120345200Y-102644345D01*
X120327630Y-102556015D01*
X120293165Y-102472810D01*
X120243130Y-102397927D01*
X120179448Y-102334245D01*
X120104565Y-102284210D01*
X120021360Y-102249745D01*
X119933030Y-102232175D01*
X119842970Y-102232175D01*
X119754640Y-102249745D01*
X119671435Y-102284210D01*
X119596552Y-102334245D01*
X119537516Y-102393281D01*
X119494219Y-102406415D01*
X119441268Y-102434717D01*
X119426291Y-102447009D01*
X119406481Y-102463266D01*
X119406475Y-102463272D01*
X119394857Y-102472807D01*
X119385322Y-102484425D01*
X117246380Y-104623369D01*
X117246380Y-102513671D01*
X119224032Y-100536020D01*
X119546222Y-100536020D01*
X119596552Y-100586350D01*
X119671435Y-100636385D01*
X119754640Y-100670850D01*
X119842970Y-100688420D01*
X119933030Y-100688420D01*
X120021360Y-100670850D01*
X120104565Y-100636385D01*
X120179448Y-100586350D01*
X120243130Y-100522668D01*
X120293165Y-100447785D01*
X120327630Y-100364580D01*
X120345200Y-100276250D01*
X120345200Y-100186190D01*
X120327630Y-100097860D01*
X120293165Y-100014655D01*
X120243130Y-99939772D01*
X120179448Y-99876090D01*
X120104565Y-99826055D01*
X120021360Y-99791590D01*
X119933030Y-99774020D01*
X119842970Y-99774020D01*
X119754640Y-99791590D01*
X119671435Y-99826055D01*
X119596552Y-99876090D01*
X119546222Y-99926420D01*
X119112737Y-99926420D01*
X119097779Y-99924947D01*
X119082821Y-99926420D01*
X119082814Y-99926420D01*
X119043669Y-99930275D01*
X119038028Y-99930831D01*
X119024656Y-99934888D01*
X118980574Y-99948260D01*
X118927623Y-99976562D01*
X118881212Y-100014652D01*
X118871672Y-100026276D01*
X116941570Y-101956379D01*
X116941570Y-99897481D01*
X118744252Y-98094800D01*
X119563157Y-98094800D01*
X119596552Y-98128195D01*
X119671435Y-98178230D01*
X119754640Y-98212695D01*
X119842970Y-98230265D01*
X119933030Y-98230265D01*
X120021360Y-98212695D01*
X120104565Y-98178230D01*
X120179448Y-98128195D01*
X120243130Y-98064513D01*
X120293165Y-97989630D01*
X120327630Y-97906425D01*
X120345200Y-97818095D01*
X120345200Y-97728035D01*
X120327630Y-97639705D01*
X120293165Y-97556500D01*
X120243130Y-97481617D01*
X120179448Y-97417935D01*
X120104565Y-97367900D01*
X120021360Y-97333435D01*
X119933030Y-97315865D01*
X119842970Y-97315865D01*
X119754640Y-97333435D01*
X119671435Y-97367900D01*
X119596552Y-97417935D01*
X119532870Y-97481617D01*
X119530476Y-97485200D01*
X118632957Y-97485200D01*
X118617999Y-97483727D01*
X118603041Y-97485200D01*
X118603034Y-97485200D01*
X118563889Y-97489055D01*
X118558248Y-97489611D01*
X118540819Y-97494898D01*
X118500794Y-97507040D01*
X118447843Y-97535342D01*
X118401432Y-97573432D01*
X118391892Y-97585056D01*
X116431827Y-99545122D01*
X116420203Y-99554662D01*
X116382113Y-99601073D01*
X116366985Y-99629376D01*
X116353810Y-99654025D01*
X116336381Y-99711479D01*
X116330497Y-99771230D01*
X116331971Y-99786198D01*
X116331970Y-129514657D01*
X116312930Y-129506770D01*
X116224600Y-129489200D01*
X116134540Y-129489200D01*
X116046210Y-129506770D01*
X115963005Y-129541235D01*
X115888122Y-129591270D01*
X115837792Y-129641600D01*
X115264452Y-129641600D01*
X113106200Y-127483349D01*
X113106200Y-127412170D01*
X113088630Y-127323840D01*
X113054165Y-127240635D01*
X113004130Y-127165752D01*
X112940448Y-127102070D01*
X112865565Y-127052035D01*
X112782360Y-127017570D01*
X112694030Y-127000000D01*
X112603970Y-127000000D01*
X112515640Y-127017570D01*
X112432435Y-127052035D01*
X112357552Y-127102070D01*
X112293870Y-127165752D01*
X112243835Y-127240635D01*
X112209370Y-127323840D01*
X112191800Y-127412170D01*
X105627192Y-127412170D01*
X105658844Y-127335756D01*
X105683000Y-127214312D01*
X105683000Y-127090488D01*
X105658844Y-126969044D01*
X105611459Y-126854646D01*
X105542666Y-126751691D01*
X105455109Y-126664134D01*
X105359200Y-126600049D01*
X105359200Y-125948157D01*
X105360673Y-125933199D01*
X105359200Y-125918241D01*
X105359200Y-125918234D01*
X105354789Y-125873449D01*
X105337360Y-125815994D01*
X105309058Y-125763043D01*
X105270968Y-125716632D01*
X105259344Y-125707092D01*
X104622600Y-125070348D01*
X104622600Y-121377358D01*
X104636888Y-121380200D01*
X104760712Y-121380200D01*
X104882156Y-121356044D01*
X104996554Y-121308659D01*
X105099509Y-121239866D01*
X105187066Y-121152309D01*
X105255859Y-121049354D01*
X105303244Y-120934956D01*
X105327400Y-120813512D01*
X105327400Y-120689688D01*
X105303244Y-120568244D01*
X105255859Y-120453846D01*
X105187066Y-120350891D01*
X105099509Y-120263334D01*
X104996554Y-120194541D01*
X104882156Y-120147156D01*
X104760712Y-120123000D01*
X104636888Y-120123000D01*
X104622600Y-120125842D01*
X104622600Y-115515149D01*
X104738488Y-115538200D01*
X104862312Y-115538200D01*
X104983756Y-115514044D01*
X105098154Y-115466659D01*
X105201109Y-115397866D01*
X105288666Y-115310309D01*
X105357459Y-115207354D01*
X105404844Y-115092956D01*
X105429000Y-114971512D01*
X105429000Y-114847688D01*
X105404844Y-114726244D01*
X105357459Y-114611846D01*
X105288666Y-114508891D01*
X105201109Y-114421334D01*
X105098154Y-114352541D01*
X104983756Y-114305156D01*
X104862312Y-114281000D01*
X104738488Y-114281000D01*
X104625354Y-114303503D01*
X104622600Y-114300749D01*
X104622600Y-110032800D01*
X104782319Y-110032800D01*
X108382867Y-113741206D01*
X108384292Y-113742943D01*
X108393264Y-113751915D01*
X108402142Y-113761059D01*
X108403865Y-113762516D01*
X108534201Y-113892853D01*
X108534200Y-125711049D01*
X108438291Y-125775134D01*
X108350734Y-125862691D01*
X108281941Y-125965646D01*
X108234556Y-126080044D01*
X108210400Y-126201488D01*
X108210400Y-126325312D01*
X108234556Y-126446756D01*
X108281941Y-126561154D01*
X108350734Y-126664109D01*
X108438291Y-126751666D01*
X108541246Y-126820459D01*
X108655644Y-126867844D01*
X108777088Y-126892000D01*
X108900912Y-126892000D01*
X109022356Y-126867844D01*
X109136754Y-126820459D01*
X109239709Y-126751666D01*
X109327266Y-126664109D01*
X109396059Y-126561154D01*
X109443444Y-126446756D01*
X109467600Y-126325312D01*
X109467600Y-126201488D01*
X109443444Y-126080044D01*
X109396059Y-125965646D01*
X109327266Y-125862691D01*
X109239709Y-125775134D01*
X109143800Y-125711049D01*
X109143800Y-113781557D01*
X109145273Y-113766599D01*
X109143800Y-113751641D01*
X109143800Y-113751634D01*
X109139389Y-113706849D01*
X109121960Y-113649394D01*
X109093658Y-113596443D01*
X109055568Y-113550032D01*
X109043944Y-113540492D01*
X108827554Y-113324103D01*
X105138752Y-109524799D01*
X105127781Y-109511432D01*
X105106278Y-109493784D01*
X105085108Y-109475882D01*
X105083132Y-109474788D01*
X105081370Y-109473342D01*
X105056794Y-109460207D01*
X105032581Y-109446801D01*
X105030424Y-109446112D01*
X105028419Y-109445040D01*
X105001832Y-109436975D01*
X104975390Y-109428525D01*
X104973134Y-109428269D01*
X104970964Y-109427611D01*
X104943312Y-109424888D01*
X104915732Y-109421760D01*
X104898508Y-109423200D01*
X104622600Y-109423200D01*
X104622600Y-105730958D01*
X104729756Y-105709644D01*
X104844154Y-105662259D01*
X104947109Y-105593466D01*
X105034666Y-105505909D01*
X105103459Y-105402954D01*
X105150844Y-105288556D01*
X105175000Y-105167112D01*
X105175000Y-105043288D01*
X105150844Y-104921844D01*
X105103459Y-104807446D01*
X105034666Y-104704491D01*
X104947109Y-104616934D01*
X104844154Y-104548141D01*
X104729756Y-104500756D01*
X104622600Y-104479442D01*
X104622600Y-102361252D01*
X110439201Y-108177854D01*
X110439200Y-125711049D01*
X110343291Y-125775134D01*
X110255734Y-125862691D01*
X110186941Y-125965646D01*
X110139556Y-126080044D01*
X110115400Y-126201488D01*
X110115400Y-126325312D01*
X110139556Y-126446756D01*
X110186941Y-126561154D01*
X110255734Y-126664109D01*
X110343291Y-126751666D01*
X110446246Y-126820459D01*
X110560644Y-126867844D01*
X110682088Y-126892000D01*
X110805912Y-126892000D01*
X110927356Y-126867844D01*
X111041754Y-126820459D01*
X111144709Y-126751666D01*
X111232266Y-126664109D01*
X111301059Y-126561154D01*
X111348444Y-126446756D01*
X111372600Y-126325312D01*
X111372600Y-126201488D01*
X111348444Y-126080044D01*
X111301059Y-125965646D01*
X111232266Y-125862691D01*
X111144709Y-125775134D01*
X111048800Y-125711049D01*
X111048800Y-108066559D01*
X111050273Y-108051601D01*
X111048800Y-108036643D01*
X111048800Y-108036635D01*
X111044389Y-107991850D01*
X111026960Y-107934395D01*
X110998658Y-107881444D01*
X110960568Y-107835033D01*
X110948944Y-107825493D01*
X104622600Y-101499150D01*
X104622600Y-97281251D01*
X106327903Y-98986555D01*
X106305400Y-99099688D01*
X106305400Y-99223512D01*
X106329556Y-99344956D01*
X106376941Y-99459354D01*
X106445734Y-99562309D01*
X106533291Y-99649866D01*
X106636246Y-99718659D01*
X106750644Y-99766044D01*
X106872088Y-99790200D01*
X106995912Y-99790200D01*
X107117356Y-99766044D01*
X107231754Y-99718659D01*
X107334709Y-99649866D01*
X107422266Y-99562309D01*
X107491059Y-99459354D01*
X107538444Y-99344956D01*
X107562600Y-99223512D01*
X107562600Y-99099688D01*
X107538444Y-98978244D01*
X107491059Y-98863846D01*
X107422266Y-98760891D01*
X107334709Y-98673334D01*
X107231754Y-98604541D01*
X107117356Y-98557156D01*
X106995912Y-98533000D01*
X106872088Y-98533000D01*
X106758955Y-98555503D01*
X104622600Y-96419149D01*
X104622600Y-91338400D01*
X104621136Y-91323534D01*
X104616800Y-91309240D01*
X104609758Y-91296066D01*
X104600282Y-91284518D01*
X104588734Y-91275042D01*
X104575560Y-91268000D01*
X104561266Y-91263664D01*
X104546171Y-91262200D01*
X62255171Y-91389200D01*
X62240310Y-91390709D01*
X62226028Y-91395088D01*
X62212875Y-91402169D01*
X62201357Y-91411681D01*
X62191915Y-91423256D01*
X62184913Y-91436451D01*
X62180620Y-91450759D01*
X62179200Y-91465492D01*
X58774400Y-91465492D01*
X58774400Y-90353570D01*
X119430800Y-90353570D01*
X119430800Y-90443630D01*
X119448370Y-90531960D01*
X119482835Y-90615165D01*
X119532870Y-90690048D01*
X119596552Y-90753730D01*
X119671435Y-90803765D01*
X119754640Y-90838230D01*
X119842970Y-90855800D01*
X119914149Y-90855800D01*
X122732801Y-93674453D01*
X122732801Y-95270504D01*
X120345200Y-92882904D01*
X120345200Y-92811725D01*
X120327630Y-92723395D01*
X120293165Y-92640190D01*
X120243130Y-92565307D01*
X120179448Y-92501625D01*
X120104565Y-92451590D01*
X120021360Y-92417125D01*
X119933030Y-92399555D01*
X119842970Y-92399555D01*
X119754640Y-92417125D01*
X119671435Y-92451590D01*
X119596552Y-92501625D01*
X119532870Y-92565307D01*
X119482835Y-92640190D01*
X119448370Y-92723395D01*
X119430800Y-92811725D01*
X119430800Y-92901785D01*
X119448370Y-92990115D01*
X119482835Y-93073320D01*
X119532870Y-93148203D01*
X119596552Y-93211885D01*
X119671435Y-93261920D01*
X119754640Y-93296385D01*
X119842970Y-93313955D01*
X119914149Y-93313955D01*
X122427991Y-95827798D01*
X122427991Y-97423849D01*
X120345200Y-95341059D01*
X120345200Y-95269880D01*
X120327630Y-95181550D01*
X120293165Y-95098345D01*
X120243130Y-95023462D01*
X120179448Y-94959780D01*
X120104565Y-94909745D01*
X120021360Y-94875280D01*
X119933030Y-94857710D01*
X119842970Y-94857710D01*
X119754640Y-94875280D01*
X119671435Y-94909745D01*
X119596552Y-94959780D01*
X119532870Y-95023462D01*
X119482835Y-95098345D01*
X119448370Y-95181550D01*
X119430800Y-95269880D01*
X119430800Y-95359940D01*
X119448370Y-95448270D01*
X119482835Y-95531475D01*
X119532870Y-95606358D01*
X119596552Y-95670040D01*
X119671435Y-95720075D01*
X119754640Y-95754540D01*
X119842970Y-95772110D01*
X119914149Y-95772110D01*
X122123180Y-97981142D01*
X122123181Y-99146625D01*
X122123180Y-99146635D01*
X122123182Y-111997545D01*
X122121708Y-112012513D01*
X122127592Y-112072264D01*
X122145021Y-112129718D01*
X122157355Y-112152793D01*
X122173324Y-112182670D01*
X122211414Y-112229081D01*
X122223038Y-112238621D01*
X129641580Y-119657164D01*
X129641581Y-127112025D01*
X129641580Y-127112035D01*
X129641580Y-128382170D01*
X129597160Y-128363770D01*
X129508830Y-128346200D01*
X129506666Y-128346200D01*
X129233200Y-128072735D01*
X129233200Y-127595944D01*
X129280309Y-127564466D01*
X129367866Y-127476909D01*
X129436659Y-127373954D01*
X129484044Y-127259556D01*
X129508200Y-127138112D01*
X129508200Y-127014288D01*
X129484044Y-126892844D01*
X129436659Y-126778446D01*
X129367866Y-126675491D01*
X129280309Y-126587934D01*
X129177354Y-126519141D01*
X129062956Y-126471756D01*
X128941512Y-126447600D01*
X128817688Y-126447600D01*
X128762119Y-126458653D01*
X126345703Y-124042238D01*
X126334632Y-124028748D01*
X126280790Y-123984561D01*
X126219361Y-123951726D01*
X126152708Y-123931507D01*
X126100752Y-123926390D01*
X126100742Y-123926390D01*
X126083390Y-123924681D01*
X126066038Y-123926390D01*
X124092578Y-123926390D01*
X124091048Y-123924860D01*
X124016165Y-123874825D01*
X123932960Y-123840360D01*
X123844630Y-123822790D01*
X123842466Y-123822790D01*
X123124323Y-123104648D01*
X123113252Y-123091158D01*
X123059410Y-123046971D01*
X122997981Y-123014136D01*
X122931328Y-122993917D01*
X122879372Y-122988800D01*
X122879362Y-122988800D01*
X122862010Y-122987091D01*
X122844658Y-122988800D01*
X122800518Y-122988800D01*
X122839564Y-122930364D01*
X122874029Y-122847159D01*
X122891599Y-122758829D01*
X122891599Y-122668769D01*
X122874029Y-122580439D01*
X122839564Y-122497234D01*
X122789529Y-122422351D01*
X122725847Y-122358669D01*
X122650964Y-122308634D01*
X122567759Y-122274169D01*
X122479429Y-122256599D01*
X122389369Y-122256599D01*
X122301039Y-122274169D01*
X122217834Y-122308634D01*
X122142951Y-122358669D01*
X122092621Y-122408999D01*
X120261629Y-122408999D01*
X120246671Y-122407526D01*
X120231713Y-122408999D01*
X120231705Y-122408999D01*
X120192074Y-122412902D01*
X120186919Y-122413410D01*
X120129465Y-122430839D01*
X120076514Y-122459141D01*
X120030103Y-122497231D01*
X120020563Y-122508855D01*
X119714855Y-122814564D01*
X119703232Y-122824103D01*
X119665142Y-122870514D01*
X119650014Y-122898817D01*
X119636839Y-122923466D01*
X119619410Y-122980920D01*
X119613526Y-123040671D01*
X119615000Y-123055639D01*
X119614999Y-123994241D01*
X119613526Y-124009199D01*
X119614999Y-124024157D01*
X119614999Y-124024164D01*
X119616575Y-124040163D01*
X119619410Y-124068950D01*
X119629862Y-124103405D01*
X119636839Y-124126404D01*
X119665141Y-124179355D01*
X119703231Y-124225767D01*
X119714860Y-124235311D01*
X122227292Y-126747744D01*
X122236832Y-126759368D01*
X122283243Y-126797458D01*
X122326776Y-126820726D01*
X122336194Y-126825760D01*
X122393648Y-126843189D01*
X122398803Y-126843697D01*
X122438434Y-126847600D01*
X122438442Y-126847600D01*
X122453400Y-126849073D01*
X122468358Y-126847600D01*
X122568822Y-126847600D01*
X122619152Y-126897930D01*
X122694035Y-126947965D01*
X122777240Y-126982430D01*
X122865570Y-127000000D01*
X122955630Y-127000000D01*
X123043960Y-126982430D01*
X123127165Y-126947965D01*
X123202048Y-126897930D01*
X123265730Y-126834248D01*
X123315765Y-126759365D01*
X123350230Y-126676160D01*
X123367800Y-126587830D01*
X123367800Y-126497770D01*
X123350230Y-126409440D01*
X123315765Y-126326235D01*
X123265730Y-126251352D01*
X123202048Y-126187670D01*
X123127165Y-126137635D01*
X123043960Y-126103170D01*
X122955630Y-126085600D01*
X122865570Y-126085600D01*
X122777240Y-126103170D01*
X122694035Y-126137635D01*
X122619152Y-126187670D01*
X122574237Y-126232585D01*
X120224599Y-123882948D01*
X120224599Y-123882055D01*
X120250646Y-123899459D01*
X120365044Y-123946844D01*
X120486488Y-123971000D01*
X120610312Y-123971000D01*
X120731756Y-123946844D01*
X120846154Y-123899459D01*
X120949109Y-123830666D01*
X121036666Y-123743109D01*
X121068144Y-123696000D01*
X122715545Y-123696000D01*
X123342400Y-124322856D01*
X123342400Y-124325020D01*
X123359970Y-124413350D01*
X123394435Y-124496555D01*
X123444470Y-124571438D01*
X123508152Y-124635120D01*
X123583035Y-124685155D01*
X123666240Y-124719620D01*
X123754570Y-124737190D01*
X123844630Y-124737190D01*
X123932960Y-124719620D01*
X124016165Y-124685155D01*
X124091048Y-124635120D01*
X124092578Y-124633590D01*
X125936925Y-124633590D01*
X128262053Y-126958719D01*
X128251000Y-127014288D01*
X128251000Y-127138112D01*
X128275156Y-127259556D01*
X128322541Y-127373954D01*
X128391334Y-127476909D01*
X128478891Y-127564466D01*
X128526000Y-127595944D01*
X128526001Y-128201829D01*
X128526000Y-128201839D01*
X128526000Y-128201848D01*
X128524291Y-128219200D01*
X128526000Y-128236552D01*
X128526001Y-129979829D01*
X128526000Y-129979839D01*
X128526001Y-132951789D01*
X128480246Y-132970741D01*
X128377291Y-133039534D01*
X128289734Y-133127091D01*
X128220941Y-133230046D01*
X128173556Y-133344444D01*
X128149400Y-133465888D01*
X128149400Y-133589712D01*
X128173556Y-133711156D01*
X128220941Y-133825554D01*
X128289734Y-133928509D01*
X128377291Y-134016066D01*
X128480246Y-134084859D01*
X128594644Y-134132244D01*
X128716088Y-134156400D01*
X128810548Y-134156400D01*
X126466102Y-136500847D01*
X126384040Y-136517170D01*
X126300835Y-136551635D01*
X126225952Y-136601670D01*
X126162270Y-136665352D01*
X126112235Y-136740235D01*
X126077770Y-136823440D01*
X126060200Y-136911770D01*
X126060200Y-137001830D01*
X126077770Y-137090160D01*
X126106699Y-137160001D01*
X126008653Y-137160001D01*
X121539000Y-132690349D01*
X121539000Y-132142378D01*
X121589330Y-132092048D01*
X121639365Y-132017165D01*
X121673830Y-131933960D01*
X121691400Y-131845630D01*
X121691400Y-131755570D01*
X121673830Y-131667240D01*
X121639365Y-131584035D01*
X121589330Y-131509152D01*
X121525648Y-131445470D01*
X121450765Y-131395435D01*
X121367560Y-131360970D01*
X121279230Y-131343400D01*
X121189170Y-131343400D01*
X121100840Y-131360970D01*
X121017635Y-131395435D01*
X120942752Y-131445470D01*
X120879070Y-131509152D01*
X120829035Y-131584035D01*
X120794570Y-131667240D01*
X120777000Y-131755570D01*
X120777000Y-131845630D01*
X120794570Y-131933960D01*
X120829035Y-132017165D01*
X120879070Y-132092048D01*
X120929400Y-132142378D01*
X120929401Y-132801632D01*
X120927927Y-132816600D01*
X120933811Y-132876351D01*
X120951240Y-132933805D01*
X120956476Y-132943600D01*
X120979543Y-132986757D01*
X120985816Y-132994400D01*
X121004617Y-133017308D01*
X121017633Y-133033168D01*
X121029257Y-133042708D01*
X125656293Y-137669745D01*
X125665833Y-137681369D01*
X125712244Y-137719459D01*
X125765195Y-137747761D01*
X125822649Y-137765190D01*
X125827804Y-137765698D01*
X125867435Y-137769601D01*
X125867443Y-137769601D01*
X125882401Y-137771074D01*
X125897359Y-137769601D01*
X129652041Y-137769601D01*
X129666999Y-137771074D01*
X129681957Y-137769601D01*
X129681965Y-137769601D01*
X129726750Y-137765190D01*
X129784205Y-137747761D01*
X129837156Y-137719459D01*
X129883567Y-137681369D01*
X129893111Y-137669740D01*
X130707651Y-136855200D01*
X135128290Y-136855200D01*
X135135117Y-136924518D01*
X135155336Y-136991171D01*
X135188171Y-137052600D01*
X135232358Y-137106442D01*
X135286200Y-137150629D01*
X135347629Y-137183464D01*
X135414282Y-137203683D01*
X135466238Y-137208800D01*
X136665656Y-137208800D01*
X136697134Y-137255909D01*
X136784691Y-137343466D01*
X136887646Y-137412259D01*
X137002044Y-137459644D01*
X137123488Y-137483800D01*
X137247312Y-137483800D01*
X137368756Y-137459644D01*
X137483154Y-137412259D01*
X137586109Y-137343466D01*
X137673666Y-137255909D01*
X137742459Y-137152954D01*
X137789844Y-137038556D01*
X137814000Y-136917112D01*
X137814000Y-136793288D01*
X137802947Y-136737718D01*
X138352494Y-136188172D01*
X138352494Y-136288400D01*
X138356908Y-136333213D01*
X138369979Y-136376305D01*
X138391206Y-136416018D01*
X138419773Y-136450827D01*
X138454582Y-136479394D01*
X138494295Y-136500621D01*
X138537387Y-136513692D01*
X138582200Y-136518106D01*
X141732200Y-136518106D01*
X141777013Y-136513692D01*
X141820105Y-136500621D01*
X141859818Y-136479394D01*
X141894627Y-136450827D01*
X141923194Y-136416018D01*
X141944421Y-136376305D01*
X141957492Y-136333213D01*
X141961906Y-136288400D01*
X141961906Y-135288400D01*
X141957492Y-135243587D01*
X141944421Y-135200495D01*
X141923194Y-135160782D01*
X141894627Y-135125973D01*
X141859818Y-135097406D01*
X141820105Y-135076179D01*
X141777013Y-135063108D01*
X141732200Y-135058694D01*
X138582200Y-135058694D01*
X138537387Y-135063108D01*
X138494295Y-135076179D01*
X138454582Y-135097406D01*
X138419773Y-135125973D01*
X138391206Y-135160782D01*
X138369979Y-135200495D01*
X138356908Y-135243587D01*
X138352494Y-135288400D01*
X138352494Y-135434800D01*
X138269551Y-135434800D01*
X138252199Y-135433091D01*
X138234847Y-135434800D01*
X138234838Y-135434800D01*
X138182882Y-135439917D01*
X138116229Y-135460136D01*
X138089078Y-135474649D01*
X138054800Y-135492971D01*
X138020608Y-135521032D01*
X138000958Y-135537158D01*
X137989892Y-135550642D01*
X137302882Y-136237653D01*
X137247312Y-136226600D01*
X137123488Y-136226600D01*
X137002044Y-136250756D01*
X136887646Y-136298141D01*
X136784691Y-136366934D01*
X136697134Y-136454491D01*
X136665656Y-136501600D01*
X135466238Y-136501600D01*
X135414282Y-136506717D01*
X135347629Y-136526936D01*
X135286200Y-136559771D01*
X135232358Y-136603958D01*
X135188171Y-136657800D01*
X135155336Y-136719229D01*
X135135117Y-136785882D01*
X135128290Y-136855200D01*
X130707651Y-136855200D01*
X131116545Y-136446307D01*
X131128168Y-136436768D01*
X131166258Y-136390357D01*
X131194560Y-136337406D01*
X131211989Y-136279951D01*
X131216400Y-136235166D01*
X131216400Y-136235158D01*
X131217873Y-136220200D01*
X131216400Y-136205242D01*
X131216400Y-135749178D01*
X131266730Y-135698848D01*
X131316765Y-135623965D01*
X131351230Y-135540760D01*
X131368800Y-135452430D01*
X131368800Y-135362370D01*
X131351230Y-135274040D01*
X131316765Y-135190835D01*
X131266730Y-135115952D01*
X131203048Y-135052270D01*
X131128165Y-135002235D01*
X131044960Y-134967770D01*
X130956630Y-134950200D01*
X130866570Y-134950200D01*
X130778240Y-134967770D01*
X130695035Y-135002235D01*
X130620152Y-135052270D01*
X130556470Y-135115952D01*
X130506435Y-135190835D01*
X130471970Y-135274040D01*
X130454400Y-135362370D01*
X130454400Y-135452430D01*
X130471970Y-135540760D01*
X130506435Y-135623965D01*
X130556470Y-135698848D01*
X130606801Y-135749179D01*
X130606800Y-136093948D01*
X129540748Y-137160001D01*
X129031943Y-137160001D01*
X129039830Y-137140960D01*
X129057400Y-137052630D01*
X129057400Y-136962570D01*
X129039830Y-136874240D01*
X129005365Y-136791035D01*
X128955330Y-136716152D01*
X128905000Y-136665822D01*
X128905000Y-135862383D01*
X130754244Y-134013140D01*
X130774056Y-133996880D01*
X130812146Y-133950469D01*
X130840448Y-133897518D01*
X130857877Y-133840063D01*
X130863762Y-133780312D01*
X130860819Y-133750431D01*
X130860819Y-130510970D01*
X131013200Y-130510970D01*
X131013200Y-130601030D01*
X131030770Y-130689360D01*
X131065235Y-130772565D01*
X131115270Y-130847448D01*
X131178952Y-130911130D01*
X131253835Y-130961165D01*
X131337040Y-130995630D01*
X131425370Y-131013200D01*
X131515430Y-131013200D01*
X131559600Y-131004414D01*
X131546600Y-131069770D01*
X131546600Y-131159830D01*
X131564170Y-131248160D01*
X131598635Y-131331365D01*
X131648670Y-131406248D01*
X131712352Y-131469930D01*
X131787235Y-131519965D01*
X131870440Y-131554430D01*
X131958770Y-131572000D01*
X132029949Y-131572000D01*
X132037209Y-131579260D01*
X131990435Y-131598635D01*
X131915552Y-131648670D01*
X131851870Y-131712352D01*
X131801835Y-131787235D01*
X131767370Y-131870440D01*
X131749800Y-131958770D01*
X131749800Y-132048830D01*
X131767370Y-132137160D01*
X131801835Y-132220365D01*
X131851870Y-132295248D01*
X131915552Y-132358930D01*
X131990435Y-132408965D01*
X132073640Y-132443430D01*
X132161970Y-132461000D01*
X132233149Y-132461000D01*
X132491606Y-132719458D01*
X132476606Y-132711440D01*
X132419151Y-132694011D01*
X132374366Y-132689600D01*
X132374358Y-132689600D01*
X132370609Y-132689231D01*
X132320648Y-132639270D01*
X132245765Y-132589235D01*
X132162560Y-132554770D01*
X132074230Y-132537200D01*
X131984170Y-132537200D01*
X131895840Y-132554770D01*
X131812635Y-132589235D01*
X131737752Y-132639270D01*
X131674070Y-132702952D01*
X131624035Y-132777835D01*
X131589570Y-132861040D01*
X131572000Y-132949370D01*
X131572000Y-133039430D01*
X131589570Y-133127760D01*
X131624035Y-133210965D01*
X131674070Y-133285848D01*
X131737752Y-133349530D01*
X131812635Y-133399565D01*
X131895840Y-133434030D01*
X131984170Y-133451600D01*
X132074230Y-133451600D01*
X132162560Y-133434030D01*
X132245765Y-133399565D01*
X132298366Y-133364418D01*
X132421156Y-133487208D01*
X132421161Y-133487212D01*
X133222568Y-134288620D01*
X133249635Y-134353965D01*
X133299670Y-134428848D01*
X133363352Y-134492530D01*
X133438235Y-134542565D01*
X133521440Y-134577030D01*
X133609770Y-134594600D01*
X133699830Y-134594600D01*
X133788160Y-134577030D01*
X133871365Y-134542565D01*
X133946248Y-134492530D01*
X134009930Y-134428848D01*
X134059965Y-134353965D01*
X134079034Y-134307930D01*
X134119643Y-134341258D01*
X134172594Y-134369560D01*
X134230048Y-134386989D01*
X134235689Y-134387545D01*
X134274834Y-134391400D01*
X134274841Y-134391400D01*
X134289799Y-134392873D01*
X134304757Y-134391400D01*
X134786222Y-134391400D01*
X134836552Y-134441730D01*
X134911435Y-134491765D01*
X134994640Y-134526230D01*
X135082970Y-134543800D01*
X135173030Y-134543800D01*
X135261360Y-134526230D01*
X135344565Y-134491765D01*
X135419448Y-134441730D01*
X135483130Y-134378048D01*
X135487324Y-134371770D01*
X137312400Y-134371770D01*
X137312400Y-134461830D01*
X137329970Y-134550160D01*
X137364435Y-134633365D01*
X137414470Y-134708248D01*
X137478152Y-134771930D01*
X137553035Y-134821965D01*
X137636240Y-134856430D01*
X137724570Y-134874000D01*
X137814630Y-134874000D01*
X137902960Y-134856430D01*
X137986165Y-134821965D01*
X138061048Y-134771930D01*
X138111378Y-134721600D01*
X144460242Y-134721600D01*
X144475200Y-134723073D01*
X144490158Y-134721600D01*
X144490166Y-134721600D01*
X144534951Y-134717189D01*
X144592406Y-134699760D01*
X144645357Y-134671458D01*
X144691768Y-134633368D01*
X144701312Y-134621739D01*
X145344946Y-133978106D01*
X146782200Y-133978106D01*
X146827013Y-133973692D01*
X146870105Y-133960621D01*
X146909818Y-133939394D01*
X146944627Y-133910827D01*
X146973194Y-133876018D01*
X146994421Y-133836305D01*
X147007492Y-133793213D01*
X147011906Y-133748400D01*
X147011906Y-132748400D01*
X147007492Y-132703587D01*
X146994421Y-132660495D01*
X146973194Y-132620782D01*
X146944627Y-132585973D01*
X146909818Y-132557406D01*
X146870105Y-132536179D01*
X146827013Y-132523108D01*
X146782200Y-132518694D01*
X143632200Y-132518694D01*
X143587387Y-132523108D01*
X143544295Y-132536179D01*
X143504582Y-132557406D01*
X143469773Y-132585973D01*
X143441206Y-132620782D01*
X143419979Y-132660495D01*
X143406908Y-132703587D01*
X143402494Y-132748400D01*
X143402494Y-133748400D01*
X143406908Y-133793213D01*
X143419979Y-133836305D01*
X143441206Y-133876018D01*
X143469773Y-133910827D01*
X143504582Y-133939394D01*
X143544295Y-133960621D01*
X143587387Y-133973692D01*
X143632200Y-133978106D01*
X144482843Y-133978106D01*
X144348949Y-134112000D01*
X138111378Y-134112000D01*
X138061048Y-134061670D01*
X137986165Y-134011635D01*
X137902960Y-133977170D01*
X137814630Y-133959600D01*
X137724570Y-133959600D01*
X137636240Y-133977170D01*
X137553035Y-134011635D01*
X137478152Y-134061670D01*
X137414470Y-134125352D01*
X137364435Y-134200235D01*
X137329970Y-134283440D01*
X137312400Y-134371770D01*
X135487324Y-134371770D01*
X135533165Y-134303165D01*
X135567630Y-134219960D01*
X135585200Y-134131630D01*
X135585200Y-134041570D01*
X135567630Y-133953240D01*
X135533165Y-133870035D01*
X135483130Y-133795152D01*
X135419448Y-133731470D01*
X135344565Y-133681435D01*
X135261360Y-133646970D01*
X135173030Y-133629400D01*
X135082970Y-133629400D01*
X134994640Y-133646970D01*
X134911435Y-133681435D01*
X134836552Y-133731470D01*
X134786222Y-133781800D01*
X134416052Y-133781800D01*
X134187452Y-133553200D01*
X138352494Y-133553200D01*
X138352494Y-133748400D01*
X138356908Y-133793213D01*
X138369979Y-133836305D01*
X138391206Y-133876018D01*
X138419773Y-133910827D01*
X138454582Y-133939394D01*
X138494295Y-133960621D01*
X138537387Y-133973692D01*
X138582200Y-133978106D01*
X141732200Y-133978106D01*
X141777013Y-133973692D01*
X141820105Y-133960621D01*
X141859818Y-133939394D01*
X141894627Y-133910827D01*
X141923194Y-133876018D01*
X141944421Y-133836305D01*
X141957492Y-133793213D01*
X141961906Y-133748400D01*
X141961906Y-132748400D01*
X141957492Y-132703587D01*
X141944421Y-132660495D01*
X141923194Y-132620782D01*
X141894627Y-132585973D01*
X141859818Y-132557406D01*
X141820105Y-132536179D01*
X141777013Y-132523108D01*
X141732200Y-132518694D01*
X138582200Y-132518694D01*
X138537387Y-132523108D01*
X138494295Y-132536179D01*
X138454582Y-132557406D01*
X138419773Y-132585973D01*
X138391206Y-132620782D01*
X138369979Y-132660495D01*
X138356908Y-132703587D01*
X138352494Y-132748400D01*
X138352494Y-132943600D01*
X134263652Y-132943600D01*
X132461000Y-131140949D01*
X132461000Y-131069770D01*
X132443430Y-130981440D01*
X132408965Y-130898235D01*
X132383952Y-130860800D01*
X138352494Y-130860800D01*
X138352494Y-131208400D01*
X138356908Y-131253213D01*
X138369979Y-131296305D01*
X138391206Y-131336018D01*
X138419773Y-131370827D01*
X138454582Y-131399394D01*
X138494295Y-131420621D01*
X138537387Y-131433692D01*
X138582200Y-131438106D01*
X141732200Y-131438106D01*
X141777013Y-131433692D01*
X141820105Y-131420621D01*
X141859818Y-131399394D01*
X141894627Y-131370827D01*
X141923194Y-131336018D01*
X141944421Y-131296305D01*
X141957492Y-131253213D01*
X141961906Y-131208400D01*
X141961906Y-130284599D01*
X143402494Y-130284599D01*
X143402494Y-131208400D01*
X143406908Y-131253213D01*
X143419979Y-131296305D01*
X143441206Y-131336018D01*
X143469773Y-131370827D01*
X143504582Y-131399394D01*
X143544295Y-131420621D01*
X143587387Y-131433692D01*
X143632200Y-131438106D01*
X146782200Y-131438106D01*
X146827013Y-131433692D01*
X146870105Y-131420621D01*
X146909818Y-131399394D01*
X146944627Y-131370827D01*
X146973194Y-131336018D01*
X146994421Y-131296305D01*
X147007492Y-131253213D01*
X147011906Y-131208400D01*
X147011906Y-130208400D01*
X147007492Y-130163587D01*
X146994421Y-130120495D01*
X146973194Y-130080782D01*
X146944627Y-130045973D01*
X146909818Y-130017406D01*
X146870105Y-129996179D01*
X146827013Y-129983108D01*
X146782200Y-129978694D01*
X144908545Y-129978694D01*
X144704711Y-129774860D01*
X144695167Y-129763231D01*
X144648756Y-129725141D01*
X144595805Y-129696839D01*
X144538350Y-129679410D01*
X144493565Y-129674999D01*
X144493557Y-129674999D01*
X144478599Y-129673526D01*
X144463641Y-129674999D01*
X133992251Y-129674999D01*
X133096000Y-128778749D01*
X133096000Y-128707570D01*
X133078430Y-128619240D01*
X133043965Y-128536035D01*
X132993930Y-128461152D01*
X132930248Y-128397470D01*
X132855365Y-128347435D01*
X132772160Y-128312970D01*
X132683830Y-128295400D01*
X132593770Y-128295400D01*
X132505440Y-128312970D01*
X132422235Y-128347435D01*
X132347352Y-128397470D01*
X132283670Y-128461152D01*
X132233635Y-128536035D01*
X132199170Y-128619240D01*
X132181600Y-128707570D01*
X132181600Y-128797630D01*
X132199170Y-128885960D01*
X132233635Y-128969165D01*
X132283670Y-129044048D01*
X132347352Y-129107730D01*
X132422235Y-129157765D01*
X132505440Y-129192230D01*
X132593770Y-129209800D01*
X132664949Y-129209800D01*
X133639890Y-130184742D01*
X133649431Y-130196367D01*
X133695842Y-130234457D01*
X133727167Y-130251200D01*
X131812178Y-130251200D01*
X131761848Y-130200870D01*
X131686965Y-130150835D01*
X131603760Y-130116370D01*
X131515430Y-130098800D01*
X131425370Y-130098800D01*
X131337040Y-130116370D01*
X131253835Y-130150835D01*
X131178952Y-130200870D01*
X131115270Y-130264552D01*
X131065235Y-130339435D01*
X131030770Y-130422640D01*
X131013200Y-130510970D01*
X130860819Y-130510970D01*
X130860819Y-126389670D01*
X132156200Y-127685052D01*
X132156200Y-127756230D01*
X132173770Y-127844560D01*
X132208235Y-127927765D01*
X132258270Y-128002648D01*
X132321952Y-128066330D01*
X132396835Y-128116365D01*
X132480040Y-128150830D01*
X132568370Y-128168400D01*
X132658430Y-128168400D01*
X132746760Y-128150830D01*
X132829965Y-128116365D01*
X132904848Y-128066330D01*
X132968530Y-128002648D01*
X133018565Y-127927765D01*
X133053030Y-127844560D01*
X133070600Y-127756230D01*
X133070600Y-127666170D01*
X133053030Y-127577840D01*
X133018565Y-127494635D01*
X132968530Y-127419752D01*
X132904848Y-127356070D01*
X132829965Y-127306035D01*
X132746760Y-127271570D01*
X132658430Y-127254000D01*
X132587252Y-127254000D01*
X131318020Y-125984769D01*
X131318020Y-124188194D01*
X131380835Y-124230165D01*
X131464040Y-124264630D01*
X131552370Y-124282200D01*
X131623549Y-124282200D01*
X136756092Y-129414744D01*
X136765632Y-129426368D01*
X136812043Y-129464458D01*
X136864994Y-129492760D01*
X136909076Y-129506132D01*
X136922448Y-129510189D01*
X136928089Y-129510745D01*
X136967234Y-129514600D01*
X136967241Y-129514600D01*
X136982199Y-129516073D01*
X136997157Y-129514600D01*
X144150842Y-129514600D01*
X144165800Y-129516073D01*
X144180758Y-129514600D01*
X144180766Y-129514600D01*
X144225551Y-129510189D01*
X144283006Y-129492760D01*
X144335957Y-129464458D01*
X144382368Y-129426368D01*
X144391912Y-129414739D01*
X144908546Y-128898106D01*
X146782200Y-128898106D01*
X146827013Y-128893692D01*
X146870105Y-128880621D01*
X146909818Y-128859394D01*
X146944627Y-128830827D01*
X146973194Y-128796018D01*
X146994421Y-128756305D01*
X147007492Y-128713213D01*
X147011906Y-128668400D01*
X147011906Y-127668400D01*
X147007492Y-127623587D01*
X146994421Y-127580495D01*
X146973194Y-127540782D01*
X146944627Y-127505973D01*
X146909818Y-127477406D01*
X146870105Y-127456179D01*
X146827013Y-127443108D01*
X146782200Y-127438694D01*
X143632200Y-127438694D01*
X143587387Y-127443108D01*
X143544295Y-127456179D01*
X143504582Y-127477406D01*
X143469773Y-127505973D01*
X143441206Y-127540782D01*
X143419979Y-127580495D01*
X143406908Y-127623587D01*
X143402494Y-127668400D01*
X143402494Y-128668400D01*
X143406908Y-128713213D01*
X143419979Y-128756305D01*
X143441206Y-128796018D01*
X143469773Y-128830827D01*
X143504582Y-128859394D01*
X143544295Y-128880621D01*
X143587387Y-128893692D01*
X143632200Y-128898106D01*
X144046443Y-128898106D01*
X144039549Y-128905000D01*
X137108452Y-128905000D01*
X136678060Y-128474608D01*
X136692358Y-128473200D01*
X138352494Y-128473200D01*
X138352494Y-128668400D01*
X138356908Y-128713213D01*
X138369979Y-128756305D01*
X138391206Y-128796018D01*
X138419773Y-128830827D01*
X138454582Y-128859394D01*
X138494295Y-128880621D01*
X138537387Y-128893692D01*
X138582200Y-128898106D01*
X141732200Y-128898106D01*
X141777013Y-128893692D01*
X141820105Y-128880621D01*
X141859818Y-128859394D01*
X141894627Y-128830827D01*
X141923194Y-128796018D01*
X141944421Y-128756305D01*
X141957492Y-128713213D01*
X141961906Y-128668400D01*
X141961906Y-127668400D01*
X141957492Y-127623587D01*
X141944421Y-127580495D01*
X141923194Y-127540782D01*
X141894627Y-127505973D01*
X141859818Y-127477406D01*
X141820105Y-127456179D01*
X141777013Y-127443108D01*
X141732200Y-127438694D01*
X138582200Y-127438694D01*
X138537387Y-127443108D01*
X138494295Y-127456179D01*
X138454582Y-127477406D01*
X138419773Y-127505973D01*
X138391206Y-127540782D01*
X138369979Y-127580495D01*
X138356908Y-127623587D01*
X138352494Y-127668400D01*
X138352494Y-127863600D01*
X136803652Y-127863600D01*
X134681632Y-125741580D01*
X134712648Y-125750989D01*
X134717803Y-125751497D01*
X134757434Y-125755400D01*
X134757442Y-125755400D01*
X134772400Y-125756873D01*
X134787358Y-125755400D01*
X138352494Y-125755400D01*
X138352494Y-126128400D01*
X138356908Y-126173213D01*
X138369979Y-126216305D01*
X138391206Y-126256018D01*
X138419773Y-126290827D01*
X138454582Y-126319394D01*
X138494295Y-126340621D01*
X138537387Y-126353692D01*
X138582200Y-126358106D01*
X141732200Y-126358106D01*
X141777013Y-126353692D01*
X141820105Y-126340621D01*
X141859818Y-126319394D01*
X141894627Y-126290827D01*
X141923194Y-126256018D01*
X141944421Y-126216305D01*
X141957492Y-126173213D01*
X141961906Y-126128400D01*
X141961906Y-125128400D01*
X143402494Y-125128400D01*
X143402494Y-126128400D01*
X143406908Y-126173213D01*
X143419979Y-126216305D01*
X143441206Y-126256018D01*
X143469773Y-126290827D01*
X143504582Y-126319394D01*
X143544295Y-126340621D01*
X143587387Y-126353692D01*
X143632200Y-126358106D01*
X146782200Y-126358106D01*
X146827013Y-126353692D01*
X146870105Y-126340621D01*
X146909818Y-126319394D01*
X146944627Y-126290827D01*
X146973194Y-126256018D01*
X146994421Y-126216305D01*
X147007492Y-126173213D01*
X147011906Y-126128400D01*
X147011906Y-125128400D01*
X147007492Y-125083587D01*
X146994421Y-125040495D01*
X146973194Y-125000782D01*
X146944627Y-124965973D01*
X146909818Y-124937406D01*
X146870105Y-124916179D01*
X146827013Y-124903108D01*
X146782200Y-124898694D01*
X143632200Y-124898694D01*
X143587387Y-124903108D01*
X143544295Y-124916179D01*
X143504582Y-124937406D01*
X143469773Y-124965973D01*
X143441206Y-125000782D01*
X143419979Y-125040495D01*
X143406908Y-125083587D01*
X143402494Y-125128400D01*
X141961906Y-125128400D01*
X141957492Y-125083587D01*
X141944421Y-125040495D01*
X141923194Y-125000782D01*
X141894627Y-124965973D01*
X141859818Y-124937406D01*
X141820105Y-124916179D01*
X141777013Y-124903108D01*
X141732200Y-124898694D01*
X138582200Y-124898694D01*
X138537387Y-124903108D01*
X138494295Y-124916179D01*
X138454582Y-124937406D01*
X138419773Y-124965973D01*
X138391206Y-125000782D01*
X138369979Y-125040495D01*
X138356908Y-125083587D01*
X138352494Y-125128400D01*
X138352494Y-125145800D01*
X134898652Y-125145800D01*
X132156200Y-122403349D01*
X132156200Y-122332170D01*
X132138630Y-122243840D01*
X132104165Y-122160635D01*
X132054130Y-122085752D01*
X131990448Y-122022070D01*
X131915565Y-121972035D01*
X131832360Y-121937570D01*
X131744030Y-121920000D01*
X131653970Y-121920000D01*
X131565640Y-121937570D01*
X131482435Y-121972035D01*
X131409699Y-122020635D01*
X131368350Y-121958752D01*
X131304668Y-121895070D01*
X131229785Y-121845035D01*
X131146580Y-121810570D01*
X131058250Y-121793000D01*
X130968190Y-121793000D01*
X130879860Y-121810570D01*
X130860819Y-121818457D01*
X130860819Y-121216325D01*
X130862293Y-121201357D01*
X130860800Y-121186196D01*
X130860800Y-119293357D01*
X130862273Y-119278399D01*
X130860800Y-119263441D01*
X130860800Y-119263434D01*
X130856389Y-119218649D01*
X130838960Y-119161194D01*
X130810658Y-119108243D01*
X130772568Y-119061832D01*
X130760944Y-119052292D01*
X123342400Y-111633749D01*
X123342400Y-93563157D01*
X123343873Y-93548199D01*
X123342400Y-93533241D01*
X123342400Y-93533234D01*
X123337989Y-93488449D01*
X123320560Y-93430994D01*
X123292258Y-93378043D01*
X123254168Y-93331632D01*
X123242544Y-93322092D01*
X121157252Y-91236800D01*
X123355705Y-91236800D01*
X123355705Y-96012000D01*
X146685000Y-96012000D01*
X146685000Y-91236800D01*
X123355705Y-91236800D01*
X121157252Y-91236800D01*
X120345200Y-90424749D01*
X120345200Y-90353570D01*
X120327630Y-90265240D01*
X120293165Y-90182035D01*
X120243130Y-90107152D01*
X120179448Y-90043470D01*
X120104565Y-89993435D01*
X120021360Y-89958970D01*
X119933030Y-89941400D01*
X119842970Y-89941400D01*
X119754640Y-89958970D01*
X119671435Y-89993435D01*
X119596552Y-90043470D01*
X119532870Y-90107152D01*
X119482835Y-90182035D01*
X119448370Y-90265240D01*
X119430800Y-90353570D01*
X58774400Y-90353570D01*
X58774400Y-89508400D01*
X147067200Y-89508400D01*
X147067201Y-139701200D01*
G37*
G04 #@! TD.AperFunction*
M02*
