G04 #@! TF.GenerationSoftware,KiCad,Pcbnew,(5.1.8)-1*
G04 #@! TF.CreationDate,2020-12-31T16:53:10-05:00*
G04 #@! TF.ProjectId,trackpad_test,74726163-6b70-4616-945f-746573742e6b,rev?*
G04 #@! TF.SameCoordinates,Original*
G04 #@! TF.FileFunction,Legend,Top*
G04 #@! TF.FilePolarity,Positive*
%FSLAX46Y46*%
G04 Gerber Fmt 4.6, Leading zero omitted, Abs format (unit mm)*
G04 Created by KiCad (PCBNEW (5.1.8)-1) date 2020-12-31 16:53:10*
%MOMM*%
%LPD*%
G01*
G04 APERTURE LIST*
%ADD10C,2.000000*%
%ADD11C,0.254000*%
%ADD12C,0.150000*%
%ADD13C,0.200000*%
%ADD14C,0.120000*%
%ADD15C,0.010000*%
G04 APERTURE END LIST*
D10*
X115681000Y-96723200D02*
G75*
G03*
X115681000Y-96723200I-1000000J0D01*
G01*
X115681000Y-104521000D02*
G75*
G03*
X115681000Y-104521000I-1000000J0D01*
G01*
X109966000Y-108000800D02*
G75*
G03*
X109966000Y-108000800I-1000000J0D01*
G01*
X109966000Y-103047800D02*
G75*
G03*
X109966000Y-103047800I-1000000J0D01*
G01*
X109966000Y-98272600D02*
G75*
G03*
X109966000Y-98272600I-1000000J0D01*
G01*
X109966000Y-93522800D02*
G75*
G03*
X109966000Y-93522800I-1000000J0D01*
G01*
D11*
X102438200Y-95427800D02*
X108127800Y-93700600D01*
X102489000Y-128701800D02*
X108407200Y-107416600D01*
X102489000Y-123926600D02*
X108051600Y-107772200D01*
X102362000Y-118948200D02*
X108077000Y-102184200D01*
X108940600Y-98221800D02*
X114808000Y-104495600D01*
X109067600Y-102997000D02*
X114909600Y-96570800D01*
X115214400Y-104521000D02*
X121183400Y-112395000D01*
X115036600Y-104546400D02*
X121031000Y-110058200D01*
X115062000Y-104444800D02*
X120954800Y-107569000D01*
X115189000Y-104521000D02*
X121005600Y-105181400D01*
X114960400Y-104444800D02*
X121234200Y-102717600D01*
X114985800Y-96926400D02*
X121107200Y-102590600D01*
X114985800Y-97002600D02*
X121081800Y-100203000D01*
X114909600Y-96951800D02*
X121335800Y-97815400D01*
X114985800Y-97028000D02*
X120573800Y-95427800D01*
X114833400Y-97028000D02*
X120980200Y-92938600D01*
X114757200Y-97078800D02*
X121005600Y-90474800D01*
X108991400Y-107873800D02*
X114909600Y-104444800D01*
X109143800Y-103073200D02*
X114960400Y-104368600D01*
X108864400Y-98374200D02*
X114757200Y-97053400D01*
X109270800Y-93599000D02*
X114833400Y-96977200D01*
X102260400Y-98755200D02*
X108508800Y-93370400D01*
X102412800Y-103479600D02*
X108864400Y-98247200D01*
X102260400Y-108153200D02*
X108661200Y-98044000D01*
X102362000Y-113284000D02*
X108178600Y-102311200D01*
D12*
X65075228Y-129398780D02*
X65646657Y-129398780D01*
X65360942Y-130398780D02*
X65360942Y-129398780D01*
X66122847Y-130398780D02*
X66027609Y-130351161D01*
X65979990Y-130303542D01*
X65932371Y-130208304D01*
X65932371Y-129922590D01*
X65979990Y-129827352D01*
X66027609Y-129779733D01*
X66122847Y-129732114D01*
X66265704Y-129732114D01*
X66360942Y-129779733D01*
X66408561Y-129827352D01*
X66456180Y-129922590D01*
X66456180Y-130208304D01*
X66408561Y-130303542D01*
X66360942Y-130351161D01*
X66265704Y-130398780D01*
X66122847Y-130398780D01*
X67313323Y-129732114D02*
X67313323Y-130398780D01*
X66884752Y-129732114D02*
X66884752Y-130255923D01*
X66932371Y-130351161D01*
X67027609Y-130398780D01*
X67170466Y-130398780D01*
X67265704Y-130351161D01*
X67313323Y-130303542D01*
X68218085Y-130351161D02*
X68122847Y-130398780D01*
X67932371Y-130398780D01*
X67837133Y-130351161D01*
X67789514Y-130303542D01*
X67741895Y-130208304D01*
X67741895Y-129922590D01*
X67789514Y-129827352D01*
X67837133Y-129779733D01*
X67932371Y-129732114D01*
X68122847Y-129732114D01*
X68218085Y-129779733D01*
X68646657Y-130398780D02*
X68646657Y-129398780D01*
X69075228Y-130398780D02*
X69075228Y-129874971D01*
X69027609Y-129779733D01*
X68932371Y-129732114D01*
X68789514Y-129732114D01*
X68694276Y-129779733D01*
X68646657Y-129827352D01*
X69551419Y-129732114D02*
X69551419Y-130732114D01*
X69551419Y-129779733D02*
X69646657Y-129732114D01*
X69837133Y-129732114D01*
X69932371Y-129779733D01*
X69979990Y-129827352D01*
X70027609Y-129922590D01*
X70027609Y-130208304D01*
X69979990Y-130303542D01*
X69932371Y-130351161D01*
X69837133Y-130398780D01*
X69646657Y-130398780D01*
X69551419Y-130351161D01*
X70884752Y-130398780D02*
X70884752Y-129874971D01*
X70837133Y-129779733D01*
X70741895Y-129732114D01*
X70551419Y-129732114D01*
X70456180Y-129779733D01*
X70884752Y-130351161D02*
X70789514Y-130398780D01*
X70551419Y-130398780D01*
X70456180Y-130351161D01*
X70408561Y-130255923D01*
X70408561Y-130160685D01*
X70456180Y-130065447D01*
X70551419Y-130017828D01*
X70789514Y-130017828D01*
X70884752Y-129970209D01*
X71789514Y-130398780D02*
X71789514Y-129398780D01*
X71789514Y-130351161D02*
X71694276Y-130398780D01*
X71503800Y-130398780D01*
X71408561Y-130351161D01*
X71360942Y-130303542D01*
X71313323Y-130208304D01*
X71313323Y-129922590D01*
X71360942Y-129827352D01*
X71408561Y-129779733D01*
X71503800Y-129732114D01*
X71694276Y-129732114D01*
X71789514Y-129779733D01*
X140711180Y-134435695D02*
X140234990Y-134769028D01*
X140711180Y-135007123D02*
X139711180Y-135007123D01*
X139711180Y-134626171D01*
X139758800Y-134530933D01*
X139806419Y-134483314D01*
X139901657Y-134435695D01*
X140044514Y-134435695D01*
X140139752Y-134483314D01*
X140187371Y-134530933D01*
X140234990Y-134626171D01*
X140234990Y-135007123D01*
X140663561Y-133626171D02*
X140711180Y-133721409D01*
X140711180Y-133911885D01*
X140663561Y-134007123D01*
X140568323Y-134054742D01*
X140187371Y-134054742D01*
X140092133Y-134007123D01*
X140044514Y-133911885D01*
X140044514Y-133721409D01*
X140092133Y-133626171D01*
X140187371Y-133578552D01*
X140282609Y-133578552D01*
X140377847Y-134054742D01*
X140663561Y-133197600D02*
X140711180Y-133102361D01*
X140711180Y-132911885D01*
X140663561Y-132816647D01*
X140568323Y-132769028D01*
X140520704Y-132769028D01*
X140425466Y-132816647D01*
X140377847Y-132911885D01*
X140377847Y-133054742D01*
X140330228Y-133149980D01*
X140234990Y-133197600D01*
X140187371Y-133197600D01*
X140092133Y-133149980D01*
X140044514Y-133054742D01*
X140044514Y-132911885D01*
X140092133Y-132816647D01*
X140663561Y-131959504D02*
X140711180Y-132054742D01*
X140711180Y-132245219D01*
X140663561Y-132340457D01*
X140568323Y-132388076D01*
X140187371Y-132388076D01*
X140092133Y-132340457D01*
X140044514Y-132245219D01*
X140044514Y-132054742D01*
X140092133Y-131959504D01*
X140187371Y-131911885D01*
X140282609Y-131911885D01*
X140377847Y-132388076D01*
X140044514Y-131626171D02*
X140044514Y-131245219D01*
X139711180Y-131483314D02*
X140568323Y-131483314D01*
X140663561Y-131435695D01*
X140711180Y-131340457D01*
X140711180Y-131245219D01*
X140615942Y-127428285D02*
X140663561Y-127475904D01*
X140711180Y-127618761D01*
X140711180Y-127714000D01*
X140663561Y-127856857D01*
X140568323Y-127952095D01*
X140473085Y-127999714D01*
X140282609Y-128047333D01*
X140139752Y-128047333D01*
X139949276Y-127999714D01*
X139854038Y-127952095D01*
X139758800Y-127856857D01*
X139711180Y-127714000D01*
X139711180Y-127618761D01*
X139758800Y-127475904D01*
X139806419Y-127428285D01*
X140711180Y-126571142D02*
X140187371Y-126571142D01*
X140092133Y-126618761D01*
X140044514Y-126714000D01*
X140044514Y-126904476D01*
X140092133Y-126999714D01*
X140663561Y-126571142D02*
X140711180Y-126666380D01*
X140711180Y-126904476D01*
X140663561Y-126999714D01*
X140568323Y-127047333D01*
X140473085Y-127047333D01*
X140377847Y-126999714D01*
X140330228Y-126904476D01*
X140330228Y-126666380D01*
X140282609Y-126571142D01*
X140711180Y-125952095D02*
X140663561Y-126047333D01*
X140568323Y-126094952D01*
X139711180Y-126094952D01*
X140663561Y-125142571D02*
X140711180Y-125237809D01*
X140711180Y-125428285D01*
X140663561Y-125523523D01*
X140615942Y-125571142D01*
X140520704Y-125618761D01*
X140234990Y-125618761D01*
X140139752Y-125571142D01*
X140092133Y-125523523D01*
X140044514Y-125428285D01*
X140044514Y-125237809D01*
X140092133Y-125142571D01*
X140044514Y-124285428D02*
X140711180Y-124285428D01*
X140044514Y-124714000D02*
X140568323Y-124714000D01*
X140663561Y-124666380D01*
X140711180Y-124571142D01*
X140711180Y-124428285D01*
X140663561Y-124333047D01*
X140615942Y-124285428D01*
X140711180Y-123666380D02*
X140663561Y-123761619D01*
X140568323Y-123809238D01*
X139711180Y-123809238D01*
X140711180Y-122856857D02*
X140187371Y-122856857D01*
X140092133Y-122904476D01*
X140044514Y-122999714D01*
X140044514Y-123190190D01*
X140092133Y-123285428D01*
X140663561Y-122856857D02*
X140711180Y-122952095D01*
X140711180Y-123190190D01*
X140663561Y-123285428D01*
X140568323Y-123333047D01*
X140473085Y-123333047D01*
X140377847Y-123285428D01*
X140330228Y-123190190D01*
X140330228Y-122952095D01*
X140282609Y-122856857D01*
X140044514Y-122523523D02*
X140044514Y-122142571D01*
X139711180Y-122380666D02*
X140568323Y-122380666D01*
X140663561Y-122333047D01*
X140711180Y-122237809D01*
X140711180Y-122142571D01*
X140663561Y-121428285D02*
X140711180Y-121523523D01*
X140711180Y-121714000D01*
X140663561Y-121809238D01*
X140568323Y-121856857D01*
X140187371Y-121856857D01*
X140092133Y-121809238D01*
X140044514Y-121714000D01*
X140044514Y-121523523D01*
X140092133Y-121428285D01*
X140187371Y-121380666D01*
X140282609Y-121380666D01*
X140377847Y-121856857D01*
X124167923Y-112830680D02*
X124358400Y-112830680D01*
X124453638Y-112783061D01*
X124501257Y-112735442D01*
X124596495Y-112592585D01*
X124644114Y-112402109D01*
X124644114Y-112021157D01*
X124596495Y-111925919D01*
X124548876Y-111878300D01*
X124453638Y-111830680D01*
X124263161Y-111830680D01*
X124167923Y-111878300D01*
X124120304Y-111925919D01*
X124072685Y-112021157D01*
X124072685Y-112259252D01*
X124120304Y-112354490D01*
X124167923Y-112402109D01*
X124263161Y-112449728D01*
X124453638Y-112449728D01*
X124548876Y-112402109D01*
X124596495Y-112354490D01*
X124644114Y-112259252D01*
X124263161Y-109815204D02*
X124167923Y-109767585D01*
X124120304Y-109719966D01*
X124072685Y-109624728D01*
X124072685Y-109577109D01*
X124120304Y-109481871D01*
X124167923Y-109434252D01*
X124263161Y-109386632D01*
X124453638Y-109386632D01*
X124548876Y-109434252D01*
X124596495Y-109481871D01*
X124644114Y-109577109D01*
X124644114Y-109624728D01*
X124596495Y-109719966D01*
X124548876Y-109767585D01*
X124453638Y-109815204D01*
X124263161Y-109815204D01*
X124167923Y-109862823D01*
X124120304Y-109910442D01*
X124072685Y-110005680D01*
X124072685Y-110196156D01*
X124120304Y-110291394D01*
X124167923Y-110339013D01*
X124263161Y-110386632D01*
X124453638Y-110386632D01*
X124548876Y-110339013D01*
X124596495Y-110291394D01*
X124644114Y-110196156D01*
X124644114Y-110005680D01*
X124596495Y-109910442D01*
X124548876Y-109862823D01*
X124453638Y-109815204D01*
X124025066Y-106942588D02*
X124691733Y-106942588D01*
X124263161Y-107942588D01*
X124548876Y-104498544D02*
X124358400Y-104498544D01*
X124263161Y-104546164D01*
X124215542Y-104593783D01*
X124120304Y-104736640D01*
X124072685Y-104927116D01*
X124072685Y-105308068D01*
X124120304Y-105403306D01*
X124167923Y-105450925D01*
X124263161Y-105498544D01*
X124453638Y-105498544D01*
X124548876Y-105450925D01*
X124596495Y-105403306D01*
X124644114Y-105308068D01*
X124644114Y-105069973D01*
X124596495Y-104974735D01*
X124548876Y-104927116D01*
X124453638Y-104879497D01*
X124263161Y-104879497D01*
X124167923Y-104927116D01*
X124120304Y-104974735D01*
X124072685Y-105069973D01*
X124596495Y-102054500D02*
X124120304Y-102054500D01*
X124072685Y-102530691D01*
X124120304Y-102483072D01*
X124215542Y-102435453D01*
X124453638Y-102435453D01*
X124548876Y-102483072D01*
X124596495Y-102530691D01*
X124644114Y-102625929D01*
X124644114Y-102864024D01*
X124596495Y-102959262D01*
X124548876Y-103006881D01*
X124453638Y-103054500D01*
X124215542Y-103054500D01*
X124120304Y-103006881D01*
X124072685Y-102959262D01*
X124548876Y-99943790D02*
X124548876Y-100610456D01*
X124310780Y-99562837D02*
X124072685Y-100277123D01*
X124691733Y-100277123D01*
X124025066Y-97166412D02*
X124644114Y-97166412D01*
X124310780Y-97547365D01*
X124453638Y-97547365D01*
X124548876Y-97594984D01*
X124596495Y-97642603D01*
X124644114Y-97737841D01*
X124644114Y-97975936D01*
X124596495Y-98071174D01*
X124548876Y-98118793D01*
X124453638Y-98166412D01*
X124167923Y-98166412D01*
X124072685Y-98118793D01*
X124025066Y-98071174D01*
X124072685Y-94817607D02*
X124120304Y-94769988D01*
X124215542Y-94722368D01*
X124453638Y-94722368D01*
X124548876Y-94769988D01*
X124596495Y-94817607D01*
X124644114Y-94912845D01*
X124644114Y-95008083D01*
X124596495Y-95150940D01*
X124025066Y-95722368D01*
X124644114Y-95722368D01*
X124644114Y-93278324D02*
X124072685Y-93278324D01*
X124358400Y-93278324D02*
X124358400Y-92278324D01*
X124263161Y-92421182D01*
X124167923Y-92516420D01*
X124072685Y-92564039D01*
X124310780Y-89834280D02*
X124406019Y-89834280D01*
X124501257Y-89881900D01*
X124548876Y-89929519D01*
X124596495Y-90024757D01*
X124644114Y-90215233D01*
X124644114Y-90453328D01*
X124596495Y-90643804D01*
X124548876Y-90739042D01*
X124501257Y-90786661D01*
X124406019Y-90834280D01*
X124310780Y-90834280D01*
X124215542Y-90786661D01*
X124167923Y-90739042D01*
X124120304Y-90643804D01*
X124072685Y-90453328D01*
X124072685Y-90215233D01*
X124120304Y-90024757D01*
X124167923Y-89929519D01*
X124215542Y-89881900D01*
X124310780Y-89834280D01*
D13*
X134699200Y-129469400D02*
X134099200Y-129469400D01*
X134099200Y-129469400D02*
X134099200Y-131469400D01*
X134099200Y-131469400D02*
X134699200Y-131469400D01*
X134699200Y-131469400D02*
X134699200Y-129469400D01*
D14*
X132055600Y-135637241D02*
X132055600Y-135329959D01*
X132815600Y-135637241D02*
X132815600Y-135329959D01*
X131381400Y-130311400D02*
X131381400Y-128461400D01*
X129931400Y-130311400D02*
X131381400Y-130311400D01*
D15*
G36*
X83762475Y-108949273D02*
G01*
X83970852Y-109145459D01*
X84088091Y-109411877D01*
X84099400Y-109524441D01*
X84142617Y-109739246D01*
X84296007Y-109928685D01*
X84394065Y-110008854D01*
X84585582Y-110144941D01*
X84716795Y-110186155D01*
X84859329Y-110143774D01*
X84953093Y-110096899D01*
X85172457Y-110010810D01*
X85362258Y-110025245D01*
X85465996Y-110063141D01*
X85728286Y-110242319D01*
X85861008Y-110480507D01*
X85872624Y-110738628D01*
X85771597Y-110977605D01*
X85566391Y-111158361D01*
X85265468Y-111241819D01*
X85210358Y-111243533D01*
X84978399Y-111266769D01*
X84847097Y-111358714D01*
X84790270Y-111459301D01*
X84746483Y-111718197D01*
X84825348Y-111957501D01*
X84998340Y-112125830D01*
X85187482Y-112174866D01*
X85436797Y-112243316D01*
X85608641Y-112370823D01*
X85764236Y-112633883D01*
X85781526Y-112904818D01*
X85685535Y-113150595D01*
X85501287Y-113338183D01*
X85253808Y-113434550D01*
X84968121Y-113406663D01*
X84859772Y-113359328D01*
X84731076Y-113328520D01*
X84581789Y-113392229D01*
X84399671Y-113537432D01*
X84198397Y-113757974D01*
X84102837Y-113958632D01*
X84099400Y-113994591D01*
X84022802Y-114254706D01*
X83824414Y-114473495D01*
X83572364Y-114592900D01*
X83390025Y-114602248D01*
X83219595Y-114513563D01*
X83085530Y-114391356D01*
X82915481Y-114171465D01*
X82832028Y-113961085D01*
X82829400Y-113927095D01*
X82768536Y-113744061D01*
X82618147Y-113559950D01*
X82426537Y-113414411D01*
X82242008Y-113347094D01*
X82145731Y-113365907D01*
X81871166Y-113449478D01*
X81575631Y-113405731D01*
X81333235Y-113247469D01*
X81311545Y-113221781D01*
X81263463Y-113137613D01*
X82398776Y-113137613D01*
X82534169Y-113309143D01*
X82636848Y-113388267D01*
X82855651Y-113522435D01*
X82996261Y-113547018D01*
X83059005Y-113514645D01*
X83128291Y-113417182D01*
X83115104Y-113378766D01*
X83893442Y-113378766D01*
X83930699Y-113487853D01*
X83934141Y-113492109D01*
X84082664Y-113558997D01*
X84283465Y-113465002D01*
X84464983Y-113292568D01*
X84565955Y-113125430D01*
X84561782Y-112918568D01*
X84544813Y-112845985D01*
X84459388Y-112619459D01*
X84356971Y-112553342D01*
X84230257Y-112649008D01*
X84071943Y-112907833D01*
X84056529Y-112937926D01*
X83932441Y-113208792D01*
X83893442Y-113378766D01*
X83115104Y-113378766D01*
X83083157Y-113285700D01*
X83056149Y-113242416D01*
X82920435Y-113018339D01*
X82836670Y-112867900D01*
X82742491Y-112736776D01*
X82646407Y-112746891D01*
X82607206Y-112776270D01*
X82423623Y-112970338D01*
X82398776Y-113137613D01*
X81263463Y-113137613D01*
X81162711Y-112961247D01*
X81168161Y-112724320D01*
X81329191Y-112467815D01*
X81334333Y-112461810D01*
X81581398Y-112271858D01*
X81662267Y-112256350D01*
X82214357Y-112256350D01*
X82251036Y-112410106D01*
X82307523Y-112516678D01*
X82415076Y-112673846D01*
X82499406Y-112696101D01*
X82541382Y-112663808D01*
X82930287Y-112663808D01*
X82998121Y-112832198D01*
X83075141Y-112981080D01*
X83256080Y-113257204D01*
X83427682Y-113372092D01*
X83600071Y-113324218D01*
X83783370Y-113112056D01*
X83930066Y-112852200D01*
X84069879Y-112545542D01*
X84110901Y-112374836D01*
X84079452Y-112335372D01*
X83850084Y-112327937D01*
X84426306Y-112327937D01*
X84461547Y-112418480D01*
X84601086Y-112507527D01*
X84699186Y-112436208D01*
X84727261Y-112374605D01*
X84748146Y-112202499D01*
X84711934Y-112027464D01*
X84637466Y-111925850D01*
X84615284Y-111920866D01*
X84516058Y-111992373D01*
X84444947Y-112154341D01*
X84426306Y-112327937D01*
X83850084Y-112327937D01*
X83628735Y-112320762D01*
X83274837Y-112355229D01*
X83047619Y-112435198D01*
X83013032Y-112462948D01*
X82937365Y-112558302D01*
X82930287Y-112663808D01*
X82541382Y-112663808D01*
X82561730Y-112648154D01*
X82625220Y-112545053D01*
X82601538Y-112405968D01*
X82530171Y-112253934D01*
X82429848Y-112078409D01*
X82361000Y-112037119D01*
X82285075Y-112110123D01*
X82275963Y-112122458D01*
X82214357Y-112256350D01*
X81662267Y-112256350D01*
X81792839Y-112231311D01*
X82036156Y-112163993D01*
X82175505Y-111984455D01*
X82192960Y-111726323D01*
X82187918Y-111709243D01*
X82484509Y-111709243D01*
X82494767Y-111856109D01*
X82589818Y-112061122D01*
X82606032Y-112090915D01*
X82727748Y-112286302D01*
X82823233Y-112351818D01*
X82926174Y-112316989D01*
X83021565Y-112206751D01*
X83017391Y-112136753D01*
X82996559Y-112075414D01*
X84127675Y-112075414D01*
X84170106Y-112194520D01*
X84255909Y-112154628D01*
X84368718Y-111974958D01*
X84466438Y-111741758D01*
X84469016Y-111575402D01*
X84432713Y-111487531D01*
X84328991Y-111375435D01*
X84234639Y-111419043D01*
X84162637Y-111604765D01*
X84133455Y-111800890D01*
X84127675Y-112075414D01*
X82996559Y-112075414D01*
X82970994Y-112000145D01*
X82925584Y-111774087D01*
X82917034Y-111716091D01*
X82851835Y-111459024D01*
X82754365Y-111358190D01*
X82635194Y-111418519D01*
X82551563Y-111545606D01*
X82484509Y-111709243D01*
X82187918Y-111709243D01*
X82146310Y-111568304D01*
X82027878Y-111387280D01*
X81841570Y-111329188D01*
X81799279Y-111328200D01*
X81650622Y-111288132D01*
X82191726Y-111288132D01*
X82241918Y-111422555D01*
X82327076Y-111541057D01*
X82396768Y-111512639D01*
X82413870Y-111487805D01*
X82481270Y-111299450D01*
X82489436Y-111222366D01*
X82450423Y-111143964D01*
X82823794Y-111143964D01*
X82856923Y-111237189D01*
X82963920Y-111306292D01*
X82995558Y-111305374D01*
X83096336Y-111253488D01*
X83276713Y-111162710D01*
X83282761Y-111159688D01*
X83469821Y-111087214D01*
X83626022Y-111107172D01*
X83779784Y-111185482D01*
X83986512Y-111276270D01*
X84123050Y-111256258D01*
X84149093Y-111237424D01*
X84152566Y-111231911D01*
X84488842Y-111231911D01*
X84494491Y-111292056D01*
X84582585Y-111404517D01*
X84679369Y-111357939D01*
X84736425Y-111237152D01*
X84761742Y-111077135D01*
X84744176Y-111013421D01*
X84649496Y-111009625D01*
X84546313Y-111102621D01*
X84488842Y-111231911D01*
X84152566Y-111231911D01*
X84198640Y-111158783D01*
X84183156Y-111029531D01*
X84094000Y-110812539D01*
X84010685Y-110642847D01*
X83866810Y-110372637D01*
X83755528Y-110222282D01*
X83639948Y-110157216D01*
X83483176Y-110142874D01*
X83477043Y-110142866D01*
X83318898Y-110154922D01*
X83208557Y-110215009D01*
X83110378Y-110359010D01*
X82988720Y-110622806D01*
X82979793Y-110643464D01*
X82860383Y-110952641D01*
X82823794Y-111143964D01*
X82450423Y-111143964D01*
X82429595Y-111102110D01*
X82301721Y-111078987D01*
X82195481Y-111157116D01*
X82191726Y-111288132D01*
X81650622Y-111288132D01*
X81529790Y-111255564D01*
X81343884Y-111120381D01*
X81177886Y-110862496D01*
X81155430Y-110639536D01*
X82409426Y-110639536D01*
X82413768Y-110839618D01*
X82502801Y-110966859D01*
X82594170Y-110989533D01*
X82665459Y-110918264D01*
X82774604Y-110733113D01*
X82876392Y-110521452D01*
X82985999Y-110267515D01*
X83061043Y-110081993D01*
X83069235Y-110056878D01*
X83945519Y-110056878D01*
X84010679Y-110278478D01*
X84157882Y-110603622D01*
X84295910Y-110861983D01*
X84395546Y-110983399D01*
X84476794Y-110989871D01*
X84496548Y-110976130D01*
X84574843Y-110831811D01*
X84607400Y-110614088D01*
X84557518Y-110373002D01*
X84382586Y-110178306D01*
X84356828Y-110158788D01*
X84116555Y-110001590D01*
X83980131Y-109966101D01*
X83945519Y-110056878D01*
X83069235Y-110056878D01*
X83083400Y-110013452D01*
X83027689Y-109966622D01*
X82887785Y-110016568D01*
X82704529Y-110145872D01*
X82643532Y-110201040D01*
X82486954Y-110411661D01*
X82409426Y-110639536D01*
X81155430Y-110639536D01*
X81151230Y-110597836D01*
X81238123Y-110357094D01*
X81412769Y-110170961D01*
X81649376Y-110070130D01*
X81922149Y-110085293D01*
X82128547Y-110186722D01*
X82250789Y-110255396D01*
X82359530Y-110244984D01*
X82509432Y-110140168D01*
X82613052Y-110050951D01*
X82817094Y-109836367D01*
X82903759Y-109631954D01*
X82914066Y-109502394D01*
X82986074Y-109205961D01*
X83175786Y-108983440D01*
X83443733Y-108876669D01*
X83507939Y-108872866D01*
X83762475Y-108949273D01*
G37*
X83762475Y-108949273D02*
X83970852Y-109145459D01*
X84088091Y-109411877D01*
X84099400Y-109524441D01*
X84142617Y-109739246D01*
X84296007Y-109928685D01*
X84394065Y-110008854D01*
X84585582Y-110144941D01*
X84716795Y-110186155D01*
X84859329Y-110143774D01*
X84953093Y-110096899D01*
X85172457Y-110010810D01*
X85362258Y-110025245D01*
X85465996Y-110063141D01*
X85728286Y-110242319D01*
X85861008Y-110480507D01*
X85872624Y-110738628D01*
X85771597Y-110977605D01*
X85566391Y-111158361D01*
X85265468Y-111241819D01*
X85210358Y-111243533D01*
X84978399Y-111266769D01*
X84847097Y-111358714D01*
X84790270Y-111459301D01*
X84746483Y-111718197D01*
X84825348Y-111957501D01*
X84998340Y-112125830D01*
X85187482Y-112174866D01*
X85436797Y-112243316D01*
X85608641Y-112370823D01*
X85764236Y-112633883D01*
X85781526Y-112904818D01*
X85685535Y-113150595D01*
X85501287Y-113338183D01*
X85253808Y-113434550D01*
X84968121Y-113406663D01*
X84859772Y-113359328D01*
X84731076Y-113328520D01*
X84581789Y-113392229D01*
X84399671Y-113537432D01*
X84198397Y-113757974D01*
X84102837Y-113958632D01*
X84099400Y-113994591D01*
X84022802Y-114254706D01*
X83824414Y-114473495D01*
X83572364Y-114592900D01*
X83390025Y-114602248D01*
X83219595Y-114513563D01*
X83085530Y-114391356D01*
X82915481Y-114171465D01*
X82832028Y-113961085D01*
X82829400Y-113927095D01*
X82768536Y-113744061D01*
X82618147Y-113559950D01*
X82426537Y-113414411D01*
X82242008Y-113347094D01*
X82145731Y-113365907D01*
X81871166Y-113449478D01*
X81575631Y-113405731D01*
X81333235Y-113247469D01*
X81311545Y-113221781D01*
X81263463Y-113137613D01*
X82398776Y-113137613D01*
X82534169Y-113309143D01*
X82636848Y-113388267D01*
X82855651Y-113522435D01*
X82996261Y-113547018D01*
X83059005Y-113514645D01*
X83128291Y-113417182D01*
X83115104Y-113378766D01*
X83893442Y-113378766D01*
X83930699Y-113487853D01*
X83934141Y-113492109D01*
X84082664Y-113558997D01*
X84283465Y-113465002D01*
X84464983Y-113292568D01*
X84565955Y-113125430D01*
X84561782Y-112918568D01*
X84544813Y-112845985D01*
X84459388Y-112619459D01*
X84356971Y-112553342D01*
X84230257Y-112649008D01*
X84071943Y-112907833D01*
X84056529Y-112937926D01*
X83932441Y-113208792D01*
X83893442Y-113378766D01*
X83115104Y-113378766D01*
X83083157Y-113285700D01*
X83056149Y-113242416D01*
X82920435Y-113018339D01*
X82836670Y-112867900D01*
X82742491Y-112736776D01*
X82646407Y-112746891D01*
X82607206Y-112776270D01*
X82423623Y-112970338D01*
X82398776Y-113137613D01*
X81263463Y-113137613D01*
X81162711Y-112961247D01*
X81168161Y-112724320D01*
X81329191Y-112467815D01*
X81334333Y-112461810D01*
X81581398Y-112271858D01*
X81662267Y-112256350D01*
X82214357Y-112256350D01*
X82251036Y-112410106D01*
X82307523Y-112516678D01*
X82415076Y-112673846D01*
X82499406Y-112696101D01*
X82541382Y-112663808D01*
X82930287Y-112663808D01*
X82998121Y-112832198D01*
X83075141Y-112981080D01*
X83256080Y-113257204D01*
X83427682Y-113372092D01*
X83600071Y-113324218D01*
X83783370Y-113112056D01*
X83930066Y-112852200D01*
X84069879Y-112545542D01*
X84110901Y-112374836D01*
X84079452Y-112335372D01*
X83850084Y-112327937D01*
X84426306Y-112327937D01*
X84461547Y-112418480D01*
X84601086Y-112507527D01*
X84699186Y-112436208D01*
X84727261Y-112374605D01*
X84748146Y-112202499D01*
X84711934Y-112027464D01*
X84637466Y-111925850D01*
X84615284Y-111920866D01*
X84516058Y-111992373D01*
X84444947Y-112154341D01*
X84426306Y-112327937D01*
X83850084Y-112327937D01*
X83628735Y-112320762D01*
X83274837Y-112355229D01*
X83047619Y-112435198D01*
X83013032Y-112462948D01*
X82937365Y-112558302D01*
X82930287Y-112663808D01*
X82541382Y-112663808D01*
X82561730Y-112648154D01*
X82625220Y-112545053D01*
X82601538Y-112405968D01*
X82530171Y-112253934D01*
X82429848Y-112078409D01*
X82361000Y-112037119D01*
X82285075Y-112110123D01*
X82275963Y-112122458D01*
X82214357Y-112256350D01*
X81662267Y-112256350D01*
X81792839Y-112231311D01*
X82036156Y-112163993D01*
X82175505Y-111984455D01*
X82192960Y-111726323D01*
X82187918Y-111709243D01*
X82484509Y-111709243D01*
X82494767Y-111856109D01*
X82589818Y-112061122D01*
X82606032Y-112090915D01*
X82727748Y-112286302D01*
X82823233Y-112351818D01*
X82926174Y-112316989D01*
X83021565Y-112206751D01*
X83017391Y-112136753D01*
X82996559Y-112075414D01*
X84127675Y-112075414D01*
X84170106Y-112194520D01*
X84255909Y-112154628D01*
X84368718Y-111974958D01*
X84466438Y-111741758D01*
X84469016Y-111575402D01*
X84432713Y-111487531D01*
X84328991Y-111375435D01*
X84234639Y-111419043D01*
X84162637Y-111604765D01*
X84133455Y-111800890D01*
X84127675Y-112075414D01*
X82996559Y-112075414D01*
X82970994Y-112000145D01*
X82925584Y-111774087D01*
X82917034Y-111716091D01*
X82851835Y-111459024D01*
X82754365Y-111358190D01*
X82635194Y-111418519D01*
X82551563Y-111545606D01*
X82484509Y-111709243D01*
X82187918Y-111709243D01*
X82146310Y-111568304D01*
X82027878Y-111387280D01*
X81841570Y-111329188D01*
X81799279Y-111328200D01*
X81650622Y-111288132D01*
X82191726Y-111288132D01*
X82241918Y-111422555D01*
X82327076Y-111541057D01*
X82396768Y-111512639D01*
X82413870Y-111487805D01*
X82481270Y-111299450D01*
X82489436Y-111222366D01*
X82450423Y-111143964D01*
X82823794Y-111143964D01*
X82856923Y-111237189D01*
X82963920Y-111306292D01*
X82995558Y-111305374D01*
X83096336Y-111253488D01*
X83276713Y-111162710D01*
X83282761Y-111159688D01*
X83469821Y-111087214D01*
X83626022Y-111107172D01*
X83779784Y-111185482D01*
X83986512Y-111276270D01*
X84123050Y-111256258D01*
X84149093Y-111237424D01*
X84152566Y-111231911D01*
X84488842Y-111231911D01*
X84494491Y-111292056D01*
X84582585Y-111404517D01*
X84679369Y-111357939D01*
X84736425Y-111237152D01*
X84761742Y-111077135D01*
X84744176Y-111013421D01*
X84649496Y-111009625D01*
X84546313Y-111102621D01*
X84488842Y-111231911D01*
X84152566Y-111231911D01*
X84198640Y-111158783D01*
X84183156Y-111029531D01*
X84094000Y-110812539D01*
X84010685Y-110642847D01*
X83866810Y-110372637D01*
X83755528Y-110222282D01*
X83639948Y-110157216D01*
X83483176Y-110142874D01*
X83477043Y-110142866D01*
X83318898Y-110154922D01*
X83208557Y-110215009D01*
X83110378Y-110359010D01*
X82988720Y-110622806D01*
X82979793Y-110643464D01*
X82860383Y-110952641D01*
X82823794Y-111143964D01*
X82450423Y-111143964D01*
X82429595Y-111102110D01*
X82301721Y-111078987D01*
X82195481Y-111157116D01*
X82191726Y-111288132D01*
X81650622Y-111288132D01*
X81529790Y-111255564D01*
X81343884Y-111120381D01*
X81177886Y-110862496D01*
X81155430Y-110639536D01*
X82409426Y-110639536D01*
X82413768Y-110839618D01*
X82502801Y-110966859D01*
X82594170Y-110989533D01*
X82665459Y-110918264D01*
X82774604Y-110733113D01*
X82876392Y-110521452D01*
X82985999Y-110267515D01*
X83061043Y-110081993D01*
X83069235Y-110056878D01*
X83945519Y-110056878D01*
X84010679Y-110278478D01*
X84157882Y-110603622D01*
X84295910Y-110861983D01*
X84395546Y-110983399D01*
X84476794Y-110989871D01*
X84496548Y-110976130D01*
X84574843Y-110831811D01*
X84607400Y-110614088D01*
X84557518Y-110373002D01*
X84382586Y-110178306D01*
X84356828Y-110158788D01*
X84116555Y-110001590D01*
X83980131Y-109966101D01*
X83945519Y-110056878D01*
X83069235Y-110056878D01*
X83083400Y-110013452D01*
X83027689Y-109966622D01*
X82887785Y-110016568D01*
X82704529Y-110145872D01*
X82643532Y-110201040D01*
X82486954Y-110411661D01*
X82409426Y-110639536D01*
X81155430Y-110639536D01*
X81151230Y-110597836D01*
X81238123Y-110357094D01*
X81412769Y-110170961D01*
X81649376Y-110070130D01*
X81922149Y-110085293D01*
X82128547Y-110186722D01*
X82250789Y-110255396D01*
X82359530Y-110244984D01*
X82509432Y-110140168D01*
X82613052Y-110050951D01*
X82817094Y-109836367D01*
X82903759Y-109631954D01*
X82914066Y-109502394D01*
X82986074Y-109205961D01*
X83175786Y-108983440D01*
X83443733Y-108876669D01*
X83507939Y-108872866D01*
X83762475Y-108949273D01*
G36*
X83966876Y-95473347D02*
G01*
X84279871Y-95603637D01*
X84305565Y-95616133D01*
X84816273Y-95951147D01*
X85314041Y-96446421D01*
X85791897Y-97092984D01*
X86242872Y-97881869D01*
X86514854Y-98458866D01*
X86718473Y-98869319D01*
X86901741Y-99121376D01*
X87008492Y-99202388D01*
X87330902Y-99445672D01*
X87517132Y-99764711D01*
X87556243Y-100127684D01*
X87448344Y-100481949D01*
X87384234Y-100637324D01*
X87371062Y-100797850D01*
X87409718Y-101023084D01*
X87459365Y-101218578D01*
X87523141Y-101477996D01*
X87610248Y-101860680D01*
X87711247Y-102323766D01*
X87816702Y-102824388D01*
X87867708Y-103073200D01*
X87964033Y-103526605D01*
X88054827Y-103915290D01*
X88132990Y-104211717D01*
X88191420Y-104388350D01*
X88216520Y-104425984D01*
X88322060Y-104405946D01*
X88559074Y-104352400D01*
X88894780Y-104272993D01*
X89296398Y-104175370D01*
X89391066Y-104152029D01*
X90262781Y-103944120D01*
X91016444Y-103783821D01*
X91694750Y-103665508D01*
X92340397Y-103583556D01*
X92996079Y-103532343D01*
X93704495Y-103506244D01*
X94344066Y-103499657D01*
X94946749Y-103500158D01*
X95410508Y-103505730D01*
X95765733Y-103518798D01*
X96042814Y-103541786D01*
X96272139Y-103577118D01*
X96484098Y-103627216D01*
X96682709Y-103686172D01*
X97322604Y-103937266D01*
X97817441Y-104247319D01*
X98185134Y-104629305D01*
X98349616Y-104893533D01*
X98485515Y-105177184D01*
X98552741Y-105411817D01*
X98567359Y-105677849D01*
X98555132Y-105922313D01*
X98449194Y-106502596D01*
X98217745Y-107128610D01*
X97878766Y-107756173D01*
X97701924Y-108018982D01*
X97542599Y-108257754D01*
X97473536Y-108428978D01*
X97476436Y-108595064D01*
X97501206Y-108703533D01*
X97552120Y-109078677D01*
X97544942Y-109531884D01*
X97486559Y-109993143D01*
X97383860Y-110392443D01*
X97320264Y-110542679D01*
X96968624Y-111082114D01*
X96539573Y-111490773D01*
X96241868Y-111670351D01*
X95861111Y-111854672D01*
X96158182Y-112143184D01*
X96352916Y-112351302D01*
X96527795Y-112586800D01*
X96696080Y-112875564D01*
X96871029Y-113243479D01*
X97065902Y-113716430D01*
X97293959Y-114320303D01*
X97345374Y-114460866D01*
X97537240Y-114971472D01*
X97742244Y-115490023D01*
X97940293Y-115967375D01*
X98111293Y-116354382D01*
X98169803Y-116477327D01*
X98446601Y-117172073D01*
X98570779Y-117814686D01*
X98543480Y-118398690D01*
X98365850Y-118917613D01*
X98039032Y-119364980D01*
X97597812Y-119713859D01*
X97372547Y-119906197D01*
X97307400Y-120091609D01*
X97237425Y-120328580D01*
X97060836Y-120573276D01*
X96827632Y-120769041D01*
X96636548Y-120851776D01*
X96361532Y-120851720D01*
X96064658Y-120764138D01*
X95816408Y-120616438D01*
X95708801Y-120491013D01*
X95663924Y-120430578D01*
X95586832Y-120385410D01*
X95452749Y-120352142D01*
X95236899Y-120327411D01*
X94914505Y-120307849D01*
X94460791Y-120290093D01*
X94156820Y-120280207D01*
X93297246Y-120238142D01*
X92484992Y-120163732D01*
X91673621Y-120050012D01*
X90816695Y-119890019D01*
X89867777Y-119676787D01*
X89448195Y-119574066D01*
X89019729Y-119470032D01*
X88652710Y-119386401D01*
X88376817Y-119329508D01*
X88221732Y-119305687D01*
X88199209Y-119307501D01*
X88170941Y-119400332D01*
X88121189Y-119625571D01*
X88057133Y-119948735D01*
X87990456Y-120310075D01*
X87714394Y-121682761D01*
X87395885Y-122956640D01*
X87038934Y-124122887D01*
X86647550Y-125172677D01*
X86225740Y-126097186D01*
X85777511Y-126887590D01*
X85306870Y-127535064D01*
X84817825Y-128030784D01*
X84337476Y-128354323D01*
X83893366Y-128509966D01*
X83409388Y-128564899D01*
X82960875Y-128511894D01*
X82896489Y-128492599D01*
X82357202Y-128227664D01*
X81836458Y-127799468D01*
X81337314Y-127213377D01*
X80862831Y-126474753D01*
X80416066Y-125588962D01*
X80000078Y-124561367D01*
X79617926Y-123397332D01*
X79287506Y-122163798D01*
X79169377Y-121650754D01*
X79049974Y-121089642D01*
X78945174Y-120557205D01*
X78884939Y-120218200D01*
X78818933Y-119845716D01*
X78755525Y-119535531D01*
X78703028Y-119325832D01*
X78675750Y-119257395D01*
X78575823Y-119251497D01*
X78342607Y-119283393D01*
X78006527Y-119347614D01*
X77598007Y-119438689D01*
X77398195Y-119487088D01*
X76521322Y-119688861D01*
X75587965Y-119875936D01*
X74665773Y-120035849D01*
X73822399Y-120156136D01*
X73666041Y-120174694D01*
X73378489Y-120218180D01*
X73209635Y-120281839D01*
X73108888Y-120389761D01*
X73073374Y-120456899D01*
X72864414Y-120722413D01*
X72572187Y-120875946D01*
X72242203Y-120915471D01*
X71919973Y-120838963D01*
X71651006Y-120644397D01*
X71563170Y-120524118D01*
X71463933Y-120379035D01*
X71345725Y-120285551D01*
X71162476Y-120221871D01*
X70868115Y-120166202D01*
X70775632Y-120151584D01*
X69961681Y-119970853D01*
X69293550Y-119707541D01*
X68772020Y-119366461D01*
X68397874Y-118952429D01*
X68171894Y-118470256D01*
X68094861Y-117924757D01*
X68121186Y-117706025D01*
X68630981Y-117706025D01*
X68633850Y-118192538D01*
X68784526Y-118604710D01*
X69086676Y-118952644D01*
X69536733Y-119242792D01*
X69735601Y-119335123D01*
X69951635Y-119413308D01*
X70223514Y-119488167D01*
X70589916Y-119570517D01*
X71018400Y-119657211D01*
X71280946Y-119691465D01*
X71459871Y-119649322D01*
X71632051Y-119508366D01*
X71672231Y-119466569D01*
X71871397Y-119297180D01*
X72065909Y-119193614D01*
X72095295Y-119186021D01*
X72418614Y-119189612D01*
X72739403Y-119296712D01*
X72978886Y-119480732D01*
X72982757Y-119485587D01*
X73069286Y-119582376D01*
X73167181Y-119635362D01*
X73319029Y-119650956D01*
X73567415Y-119635569D01*
X73813583Y-119610637D01*
X74555607Y-119513649D01*
X75401518Y-119371889D01*
X76295168Y-119195917D01*
X77098509Y-119014758D01*
X79231066Y-119014758D01*
X79257452Y-119256646D01*
X79282385Y-119418199D01*
X79334755Y-119712732D01*
X79408431Y-120107255D01*
X79497280Y-120568775D01*
X79569952Y-120937866D01*
X79894067Y-122390802D01*
X80257488Y-123687638D01*
X80659473Y-124826549D01*
X81099280Y-125805708D01*
X81576166Y-126623292D01*
X82089387Y-127277475D01*
X82193346Y-127385556D01*
X82490761Y-127667154D01*
X82727101Y-127844337D01*
X82945678Y-127946021D01*
X83088583Y-127983286D01*
X83568148Y-128017504D01*
X84015116Y-127905377D01*
X84360817Y-127716340D01*
X84744214Y-127384589D01*
X85133652Y-126900097D01*
X85521486Y-126278905D01*
X85900071Y-125537052D01*
X86261765Y-124690577D01*
X86598921Y-123755520D01*
X86903896Y-122747921D01*
X87106832Y-121954597D01*
X87192736Y-121574164D01*
X87284523Y-121139411D01*
X87376551Y-120680721D01*
X87463175Y-120228473D01*
X87538751Y-119813050D01*
X87597636Y-119464831D01*
X87634186Y-119214199D01*
X87642757Y-119091534D01*
X87640003Y-119084499D01*
X87552110Y-119053672D01*
X87343180Y-118986583D01*
X87054159Y-118896322D01*
X86978066Y-118872863D01*
X86684486Y-118777198D01*
X86273955Y-118636058D01*
X85939822Y-118517816D01*
X88298121Y-118517816D01*
X88308593Y-118620176D01*
X88369889Y-118698325D01*
X88513200Y-118769878D01*
X88769721Y-118852452D01*
X89010066Y-118919863D01*
X90124459Y-119198232D01*
X91258009Y-119430361D01*
X92369387Y-119609725D01*
X93417267Y-119729796D01*
X94360322Y-119784049D01*
X94495624Y-119786158D01*
X95451516Y-119794866D01*
X95773681Y-119456200D01*
X95992184Y-119249642D01*
X96176700Y-119147930D01*
X96391369Y-119117904D01*
X96428785Y-119117533D01*
X96697548Y-119150799D01*
X96923351Y-119232457D01*
X96948419Y-119248301D01*
X97144396Y-119331861D01*
X97294313Y-119293870D01*
X97500001Y-119136186D01*
X97724356Y-118895766D01*
X97918065Y-118632694D01*
X98031813Y-118407053D01*
X98036798Y-118389235D01*
X98065793Y-118016969D01*
X98002175Y-117561901D01*
X97856185Y-117075747D01*
X97711592Y-116746866D01*
X97433275Y-116196533D01*
X96883504Y-116154200D01*
X96333733Y-116111866D01*
X95952733Y-115087565D01*
X95788426Y-114655182D01*
X95657160Y-114344973D01*
X95536671Y-114119066D01*
X95404693Y-113939588D01*
X95238965Y-113768668D01*
X95106066Y-113647317D01*
X94707695Y-113300214D01*
X94316724Y-112975218D01*
X93956804Y-112690490D01*
X93651585Y-112464193D01*
X93424717Y-112314490D01*
X93299850Y-112259543D01*
X93298978Y-112259533D01*
X93183550Y-112305155D01*
X92962534Y-112429084D01*
X92668636Y-112611918D01*
X92363125Y-112814702D01*
X91550066Y-113369872D01*
X91550066Y-116154200D01*
X90026066Y-116154200D01*
X90026066Y-114285786D01*
X89454566Y-114606306D01*
X89161242Y-114771813D01*
X88913203Y-114913563D01*
X88758328Y-115004162D01*
X88746577Y-115011346D01*
X88693731Y-115075939D01*
X88646226Y-115213127D01*
X88600583Y-115443315D01*
X88553324Y-115786907D01*
X88500972Y-116264308D01*
X88457965Y-116704533D01*
X88409657Y-117221661D01*
X88366841Y-117691916D01*
X88332195Y-118084909D01*
X88308399Y-118370248D01*
X88298131Y-118517544D01*
X88298121Y-118517816D01*
X85939822Y-118517816D01*
X85787845Y-118464035D01*
X85267526Y-118275720D01*
X84887735Y-118135555D01*
X84416953Y-117962600D01*
X83996066Y-117812465D01*
X83652623Y-117694617D01*
X83414176Y-117618526D01*
X83310574Y-117593533D01*
X83159322Y-117625192D01*
X82932159Y-117704077D01*
X82860906Y-117733306D01*
X82680952Y-117803614D01*
X82371077Y-117917842D01*
X81961582Y-118065108D01*
X81482765Y-118234534D01*
X80964927Y-118415236D01*
X80882066Y-118443919D01*
X79231066Y-119014758D01*
X77098509Y-119014758D01*
X77180405Y-118996290D01*
X77495400Y-118918335D01*
X78553733Y-118649385D01*
X78548128Y-118311959D01*
X78535567Y-117983941D01*
X78509273Y-117575499D01*
X78472510Y-117118181D01*
X78428543Y-116643537D01*
X78380636Y-116183116D01*
X78332055Y-115768468D01*
X78302629Y-115552638D01*
X78862352Y-115552638D01*
X78864131Y-115747417D01*
X78878705Y-115921366D01*
X78906423Y-116185913D01*
X78945007Y-116565623D01*
X78989078Y-117007107D01*
X79028002Y-117403033D01*
X79071626Y-117799005D01*
X79117108Y-118125260D01*
X79159262Y-118349579D01*
X79192903Y-118439743D01*
X79194903Y-118440200D01*
X79291747Y-118413858D01*
X79523153Y-118340423D01*
X79863700Y-118228282D01*
X80287963Y-118085822D01*
X80770519Y-117921429D01*
X80843932Y-117896230D01*
X81334341Y-117725337D01*
X81770672Y-117568731D01*
X82127182Y-117436023D01*
X82378131Y-117336823D01*
X82497777Y-117280743D01*
X82502436Y-117277029D01*
X82487378Y-117248514D01*
X84063518Y-117248514D01*
X84356625Y-117369910D01*
X84545416Y-117443439D01*
X84858243Y-117560252D01*
X85259414Y-117707426D01*
X85713234Y-117872033D01*
X86184008Y-118041150D01*
X86636044Y-118201849D01*
X87033646Y-118341206D01*
X87147400Y-118380505D01*
X87441642Y-118475453D01*
X87615218Y-118500696D01*
X87706145Y-118445625D01*
X87752444Y-118299633D01*
X87767927Y-118207366D01*
X87795997Y-117993469D01*
X87833658Y-117660231D01*
X87875539Y-117256980D01*
X87908556Y-116916200D01*
X87959136Y-116372593D01*
X87995122Y-115975090D01*
X88018124Y-115701240D01*
X88029753Y-115528592D01*
X88031618Y-115434692D01*
X88025331Y-115397089D01*
X88017860Y-115392200D01*
X87936224Y-115427959D01*
X87734657Y-115525112D01*
X87444253Y-115668472D01*
X87124695Y-115828447D01*
X86697854Y-116038527D01*
X86181834Y-116285141D01*
X85642651Y-116537086D01*
X85160959Y-116756604D01*
X84063518Y-117248514D01*
X82487378Y-117248514D01*
X82467128Y-117210170D01*
X82297611Y-117099706D01*
X82018475Y-116960831D01*
X81920367Y-116917341D01*
X81598652Y-116772904D01*
X81175193Y-116575365D01*
X80699329Y-116348099D01*
X80220396Y-116114483D01*
X80100028Y-116054875D01*
X79694661Y-115855054D01*
X79343712Y-115685157D01*
X79074616Y-115558224D01*
X78914814Y-115487294D01*
X78883772Y-115476866D01*
X78862352Y-115552638D01*
X78302629Y-115552638D01*
X78286063Y-115431141D01*
X78245926Y-115202687D01*
X78217433Y-115116171D01*
X78109360Y-115042729D01*
X77890297Y-114909519D01*
X77597392Y-114738804D01*
X77410733Y-114632740D01*
X76691066Y-114227558D01*
X76666938Y-115063879D01*
X76642809Y-115900200D01*
X75989604Y-115898010D01*
X75336400Y-115895821D01*
X74244599Y-114158504D01*
X73898812Y-113616561D01*
X73763583Y-113412069D01*
X75238503Y-113412069D01*
X75251733Y-113444866D01*
X75327815Y-113525637D01*
X75341396Y-113529533D01*
X75377762Y-113464027D01*
X75378733Y-113444866D01*
X75313645Y-113363453D01*
X75289069Y-113360200D01*
X75238503Y-113412069D01*
X73763583Y-113412069D01*
X73597972Y-113161636D01*
X73351523Y-112807148D01*
X73168909Y-112566515D01*
X73059575Y-112453157D01*
X73039418Y-112446194D01*
X72929196Y-112507723D01*
X72722449Y-112653692D01*
X72452477Y-112859822D01*
X72250305Y-113021533D01*
X71574572Y-113571866D01*
X71571653Y-114736033D01*
X71568733Y-115900200D01*
X70298733Y-115900200D01*
X70292375Y-114841866D01*
X69996681Y-115180533D01*
X69641464Y-115625124D01*
X69304835Y-116114565D01*
X69017941Y-116599137D01*
X68811929Y-117029120D01*
X68772255Y-117135067D01*
X68630981Y-117706025D01*
X68121186Y-117706025D01*
X68167556Y-117320744D01*
X68390763Y-116663032D01*
X68765262Y-115956433D01*
X69291835Y-115205762D01*
X69863037Y-114532844D01*
X70298733Y-114056124D01*
X70298733Y-112217409D01*
X71566205Y-112217409D01*
X71571630Y-112532904D01*
X71604517Y-112705445D01*
X71684378Y-112748022D01*
X71830724Y-112673628D01*
X72063064Y-112495255D01*
X72349772Y-112266043D01*
X72824918Y-111891553D01*
X72641326Y-111624259D01*
X72626874Y-111607464D01*
X74108100Y-111607464D01*
X74270156Y-111869998D01*
X74427274Y-112060605D01*
X74668810Y-112286177D01*
X74884306Y-112454929D01*
X75336400Y-112777326D01*
X75360444Y-111829863D01*
X75366945Y-111447571D01*
X75366264Y-111132172D01*
X75358877Y-110919312D01*
X75347348Y-110845259D01*
X75265255Y-110871898D01*
X75078149Y-110974942D01*
X74820513Y-111134800D01*
X74709153Y-111207791D01*
X74108100Y-111607464D01*
X72626874Y-111607464D01*
X72354536Y-111290975D01*
X71910813Y-110897400D01*
X71716900Y-110744255D01*
X71656890Y-110708098D01*
X71615695Y-110724215D01*
X71589799Y-110816377D01*
X71575684Y-111008357D01*
X71569836Y-111323926D01*
X71568733Y-111745967D01*
X71566205Y-112217409D01*
X70298733Y-112217409D01*
X70298733Y-109442307D01*
X69819068Y-108882420D01*
X69195357Y-108087598D01*
X68724192Y-107340132D01*
X68405094Y-106643810D01*
X68237588Y-106002416D01*
X68229055Y-105699056D01*
X68761155Y-105699056D01*
X68846696Y-106241171D01*
X69065086Y-106836179D01*
X69413044Y-107471319D01*
X69835866Y-108068747D01*
X70256400Y-108606468D01*
X70281606Y-108104667D01*
X70306813Y-107602866D01*
X71556239Y-107602866D01*
X72684319Y-109379759D01*
X72994665Y-109867161D01*
X73274303Y-110303590D01*
X73510756Y-110669796D01*
X73691549Y-110946533D01*
X73804205Y-111114551D01*
X73836814Y-111157759D01*
X73912522Y-111113970D01*
X74098657Y-110994540D01*
X74365461Y-110818813D01*
X74619981Y-110648682D01*
X75378733Y-110138499D01*
X75378733Y-110003590D01*
X76648733Y-110003590D01*
X76648733Y-113595067D01*
X77389566Y-114022974D01*
X77704469Y-114203054D01*
X77961770Y-114346796D01*
X78128325Y-114435879D01*
X78172733Y-114455873D01*
X78183287Y-114375827D01*
X78193286Y-114146594D01*
X78202361Y-113788320D01*
X78210141Y-113321151D01*
X78216257Y-112765233D01*
X78220341Y-112140712D01*
X78221542Y-111793866D01*
X78221717Y-111669100D01*
X78768792Y-111669100D01*
X78769448Y-112276337D01*
X78772649Y-112869078D01*
X78778353Y-113422699D01*
X78786519Y-113912574D01*
X78797106Y-114314081D01*
X78810071Y-114602593D01*
X78825373Y-114753488D01*
X78830196Y-114767920D01*
X78935199Y-114848617D01*
X79170632Y-114985967D01*
X79511985Y-115168307D01*
X79934746Y-115383977D01*
X80414404Y-115621315D01*
X80926447Y-115868660D01*
X81446366Y-116114349D01*
X81949647Y-116346721D01*
X82411781Y-116554115D01*
X82808256Y-116724870D01*
X83114561Y-116847322D01*
X83306184Y-116909812D01*
X83343966Y-116915411D01*
X83474847Y-116883735D01*
X83720562Y-116797730D01*
X84041276Y-116671995D01*
X84275299Y-116574073D01*
X84616394Y-116423058D01*
X85066714Y-116216803D01*
X85583715Y-115975166D01*
X86124850Y-115718002D01*
X86563914Y-115505980D01*
X88054762Y-114780013D01*
X88109081Y-114014766D01*
X88140548Y-113394358D01*
X88157685Y-112654938D01*
X88160510Y-111846221D01*
X88149041Y-111017918D01*
X88123296Y-110219743D01*
X88107611Y-109893896D01*
X88090385Y-109573528D01*
X88629191Y-109573528D01*
X88630345Y-109930940D01*
X88634351Y-110379213D01*
X88640763Y-110893269D01*
X88649137Y-111448030D01*
X88659028Y-112018418D01*
X88669990Y-112579354D01*
X88681579Y-113105761D01*
X88693349Y-113572558D01*
X88704855Y-113954669D01*
X88715653Y-114227016D01*
X88725296Y-114364519D01*
X88728523Y-114376200D01*
X88819084Y-114337055D01*
X89019087Y-114232697D01*
X89291422Y-114082738D01*
X89401218Y-114020687D01*
X90026066Y-113665175D01*
X90026066Y-112474178D01*
X91550066Y-112474178D01*
X91571314Y-112604059D01*
X91650583Y-112629007D01*
X91811159Y-112545083D01*
X92015733Y-112395429D01*
X92113478Y-112310580D01*
X92092418Y-112273163D01*
X91929999Y-112262900D01*
X91867566Y-112262226D01*
X91658403Y-112273548D01*
X91568867Y-112334112D01*
X91550066Y-112474178D01*
X90026066Y-112474178D01*
X90026066Y-109991589D01*
X89335719Y-109600464D01*
X89036558Y-109433627D01*
X88800906Y-109307250D01*
X88661306Y-109238519D01*
X88637219Y-109231602D01*
X88631334Y-109332056D01*
X88629191Y-109573528D01*
X88090385Y-109573528D01*
X88051822Y-108856340D01*
X86520111Y-108107837D01*
X85986656Y-107849590D01*
X85443295Y-107590833D01*
X84931354Y-107350946D01*
X84492162Y-107149310D01*
X84190547Y-107015396D01*
X83392695Y-106671459D01*
X82370214Y-107107649D01*
X81908724Y-107310757D01*
X81358261Y-107562675D01*
X80780403Y-107834705D01*
X80236730Y-108098151D01*
X80110864Y-108160557D01*
X79652292Y-108390259D01*
X79322776Y-108561185D01*
X79099681Y-108689817D01*
X78960373Y-108792642D01*
X78882219Y-108886142D01*
X78842584Y-108986803D01*
X78820629Y-109100237D01*
X78805142Y-109277335D01*
X78792450Y-109587684D01*
X78782510Y-110006659D01*
X78775281Y-110509636D01*
X78770723Y-111071992D01*
X78768792Y-111669100D01*
X78221717Y-111669100D01*
X78222461Y-111141235D01*
X78222019Y-110546429D01*
X78220332Y-110029645D01*
X78217516Y-109611078D01*
X78213688Y-109310926D01*
X78208964Y-109149385D01*
X78206185Y-109126866D01*
X78128414Y-109166126D01*
X77935373Y-109272228D01*
X77658615Y-109427655D01*
X77416543Y-109565228D01*
X76648733Y-110003590D01*
X75378733Y-110003590D01*
X75378733Y-107602866D01*
X76643004Y-107602866D01*
X76691066Y-109357560D01*
X77495400Y-108906719D01*
X78299733Y-108455879D01*
X78364157Y-107805010D01*
X78932880Y-107805010D01*
X78933808Y-108024631D01*
X78952840Y-108110659D01*
X78954311Y-108110866D01*
X79051437Y-108074921D01*
X79269109Y-107976588D01*
X79576876Y-107830116D01*
X79944288Y-107649756D01*
X80015535Y-107614228D01*
X80491580Y-107380691D01*
X81012145Y-107132454D01*
X81507713Y-106902327D01*
X81841970Y-106752209D01*
X82599730Y-106419792D01*
X84242065Y-106419792D01*
X84243585Y-106421608D01*
X84341365Y-106477832D01*
X84563848Y-106589336D01*
X84881397Y-106741739D01*
X85264373Y-106920660D01*
X85411733Y-106988418D01*
X85883349Y-107207192D01*
X86370150Y-107437814D01*
X86816970Y-107653868D01*
X87168645Y-107828943D01*
X87189733Y-107839729D01*
X87497156Y-107994411D01*
X87747132Y-108114667D01*
X87901909Y-108182581D01*
X87930566Y-108191300D01*
X87977957Y-108122071D01*
X87994066Y-107980209D01*
X87985103Y-107811728D01*
X87960868Y-107523593D01*
X87925342Y-107152698D01*
X87882506Y-106735938D01*
X87836343Y-106310208D01*
X87790833Y-105912401D01*
X87749959Y-105579412D01*
X87717700Y-105348135D01*
X87700580Y-105260575D01*
X87618586Y-105230283D01*
X87407497Y-105262129D01*
X87056279Y-105358168D01*
X86877656Y-105413877D01*
X86283546Y-105608296D01*
X85728245Y-105798712D01*
X85231987Y-105977382D01*
X84815007Y-106136566D01*
X84497537Y-106268523D01*
X84299812Y-106365512D01*
X84242065Y-106419792D01*
X82599730Y-106419792D01*
X82674874Y-106386828D01*
X82265303Y-106222843D01*
X81976444Y-106111375D01*
X81607348Y-105975082D01*
X81187172Y-105824027D01*
X80745074Y-105668273D01*
X80310210Y-105517883D01*
X79911737Y-105382921D01*
X79578812Y-105273449D01*
X79340593Y-105199531D01*
X79226236Y-105171229D01*
X79220680Y-105172030D01*
X79183731Y-105280397D01*
X79141118Y-105517392D01*
X79095813Y-105850238D01*
X79050786Y-106246157D01*
X79009009Y-106672371D01*
X78973451Y-107096103D01*
X78947085Y-107484575D01*
X78932880Y-107805010D01*
X78364157Y-107805010D01*
X78436231Y-107076873D01*
X78486732Y-106582132D01*
X78536692Y-106120046D01*
X78581785Y-105728733D01*
X78617685Y-105446314D01*
X78632285Y-105349213D01*
X78691839Y-105000559D01*
X77733786Y-104738301D01*
X77183784Y-104600643D01*
X79294672Y-104600643D01*
X79377978Y-104632552D01*
X79592575Y-104708435D01*
X79909306Y-104818144D01*
X80299012Y-104951529D01*
X80458733Y-105005824D01*
X80968988Y-105182921D01*
X81513966Y-105378622D01*
X82028512Y-105569174D01*
X82447471Y-105730822D01*
X82448400Y-105731192D01*
X82802705Y-105869887D01*
X83101114Y-105981947D01*
X83307231Y-106053994D01*
X83380315Y-106073794D01*
X83492592Y-106046759D01*
X83721418Y-105970117D01*
X84026380Y-105857797D01*
X84184648Y-105796591D01*
X84524396Y-105668329D01*
X84975800Y-105505180D01*
X85489487Y-105324624D01*
X86016081Y-105144142D01*
X86136610Y-105103678D01*
X88267432Y-105103678D01*
X88277684Y-105336445D01*
X88303377Y-105675116D01*
X88342378Y-106088552D01*
X88360839Y-106264299D01*
X88413413Y-106756057D01*
X88464293Y-107240812D01*
X88508212Y-107667822D01*
X88539905Y-107986341D01*
X88543888Y-108028057D01*
X88596075Y-108580249D01*
X89289904Y-108968722D01*
X89983733Y-109357196D01*
X90006997Y-108014364D01*
X90007000Y-108014153D01*
X91550066Y-108014153D01*
X91555028Y-110354533D01*
X91912380Y-110580067D01*
X92080374Y-110678333D01*
X92240153Y-110743479D01*
X92432511Y-110782623D01*
X92698243Y-110802885D01*
X93078140Y-110811381D01*
X93246649Y-110812901D01*
X94223566Y-110820200D01*
X94507142Y-110571848D01*
X95319316Y-110571848D01*
X95343457Y-110601399D01*
X95492487Y-110542842D01*
X95509821Y-110533991D01*
X95700330Y-110404803D01*
X95812928Y-110272396D01*
X95814861Y-110267668D01*
X95821294Y-110198097D01*
X95734797Y-110230756D01*
X95616014Y-110310812D01*
X95412643Y-110469786D01*
X95319316Y-110571848D01*
X94507142Y-110571848D01*
X94982316Y-110155699D01*
X95376485Y-109809948D01*
X95659278Y-109554699D01*
X95845763Y-109367827D01*
X95951012Y-109227205D01*
X95990092Y-109110708D01*
X95978076Y-108996211D01*
X95930031Y-108861587D01*
X95905405Y-108800405D01*
X95677022Y-108441744D01*
X95457357Y-108260659D01*
X95345525Y-108196570D01*
X95227140Y-108147986D01*
X95077089Y-108112292D01*
X94870258Y-108086878D01*
X94581534Y-108069130D01*
X94185803Y-108056435D01*
X93657951Y-108046181D01*
X93349233Y-108041343D01*
X91550066Y-108014153D01*
X90007000Y-108014153D01*
X90030261Y-106671533D01*
X92335330Y-106673210D01*
X93269550Y-106678609D01*
X94052364Y-106695522D01*
X94701502Y-106727235D01*
X95234691Y-106777039D01*
X95669659Y-106848220D01*
X96024136Y-106944068D01*
X96315849Y-107067870D01*
X96562527Y-107222916D01*
X96781897Y-107412493D01*
X96882666Y-107516683D01*
X97190825Y-107850480D01*
X97477176Y-107378004D01*
X97711667Y-106942084D01*
X97900612Y-106496179D01*
X98025162Y-106090714D01*
X98066635Y-105800980D01*
X98019267Y-105499107D01*
X97893742Y-105155637D01*
X97723823Y-104856046D01*
X97664004Y-104781647D01*
X97501985Y-104648123D01*
X97258802Y-104494852D01*
X97138066Y-104430308D01*
X96806670Y-104280841D01*
X96470160Y-104169477D01*
X96096546Y-104091389D01*
X95653837Y-104041750D01*
X95110039Y-104015730D01*
X94433163Y-104008502D01*
X94344066Y-104008661D01*
X93699960Y-104015840D01*
X93165001Y-104036732D01*
X92679228Y-104076376D01*
X92182676Y-104139814D01*
X91615383Y-104232085D01*
X91550066Y-104243512D01*
X91061079Y-104334245D01*
X90539177Y-104439223D01*
X90012292Y-104551926D01*
X89508353Y-104665835D01*
X89055292Y-104774431D01*
X88681040Y-104871196D01*
X88413526Y-104949610D01*
X88280683Y-105003155D01*
X88274755Y-105007955D01*
X88267432Y-105103678D01*
X86136610Y-105103678D01*
X86237233Y-105069897D01*
X86733916Y-104902129D01*
X87091153Y-104774318D01*
X87331150Y-104676004D01*
X87476113Y-104596725D01*
X87548248Y-104526017D01*
X87569762Y-104453421D01*
X87569997Y-104442006D01*
X87552505Y-104292639D01*
X87505253Y-104012475D01*
X87435203Y-103636021D01*
X87349320Y-103197781D01*
X87254566Y-102732262D01*
X87157905Y-102273971D01*
X87066300Y-101857412D01*
X86986714Y-101517093D01*
X86952556Y-101382334D01*
X86873180Y-101127382D01*
X86783417Y-100990600D01*
X86643808Y-100923339D01*
X86565465Y-100905063D01*
X86242693Y-100770959D01*
X85981492Y-100538001D01*
X85838477Y-100262646D01*
X85831401Y-99991379D01*
X85909587Y-99693213D01*
X86047601Y-99446112D01*
X86130922Y-99366197D01*
X86206768Y-99301146D01*
X86231619Y-99219245D01*
X86199922Y-99081309D01*
X86106125Y-98848154D01*
X86034221Y-98683661D01*
X85606782Y-97814934D01*
X85164711Y-97111360D01*
X84711182Y-96573278D01*
X84249372Y-96201029D01*
X83782456Y-95994952D01*
X83313609Y-95955386D01*
X82846006Y-96082672D01*
X82382823Y-96377148D01*
X81927234Y-96839155D01*
X81482415Y-97469032D01*
X81105342Y-98156502D01*
X80684133Y-99112113D01*
X80291715Y-100206588D01*
X79936985Y-101410634D01*
X79628837Y-102694953D01*
X79447314Y-103616584D01*
X79380806Y-103997597D01*
X79329810Y-104310966D01*
X79299521Y-104523198D01*
X79294672Y-104600643D01*
X77183784Y-104600643D01*
X76508761Y-104431694D01*
X75332504Y-104193721D01*
X74216563Y-104024267D01*
X73172486Y-103923218D01*
X72211819Y-103890461D01*
X71346110Y-103925880D01*
X70586905Y-104029363D01*
X69945753Y-104200796D01*
X69434199Y-104440063D01*
X69063793Y-104747051D01*
X69001741Y-104824549D01*
X68811743Y-105222595D01*
X68761155Y-105699056D01*
X68229055Y-105699056D01*
X68221197Y-105419737D01*
X68355445Y-104899559D01*
X68639854Y-104445668D01*
X69073947Y-104061851D01*
X69657249Y-103751892D01*
X70389283Y-103519579D01*
X70497376Y-103494832D01*
X70956270Y-103426203D01*
X71544365Y-103387415D01*
X72224356Y-103377480D01*
X72958941Y-103395412D01*
X73710817Y-103440223D01*
X74442679Y-103510927D01*
X75117226Y-103606537D01*
X75188752Y-103618962D01*
X75584054Y-103694510D01*
X76056406Y-103793202D01*
X76571529Y-103906957D01*
X77095141Y-104027692D01*
X77592962Y-104147326D01*
X78030712Y-104257779D01*
X78374109Y-104350968D01*
X78588874Y-104418812D01*
X78600220Y-104423199D01*
X78655054Y-104418394D01*
X78708489Y-104344263D01*
X78766984Y-104179922D01*
X78836997Y-103904489D01*
X78924988Y-103497082D01*
X78997346Y-103139229D01*
X79313507Y-101714293D01*
X79668317Y-100416784D01*
X80058948Y-99253665D01*
X80482572Y-98231898D01*
X80936362Y-97358445D01*
X81417491Y-96640268D01*
X81824669Y-96177773D01*
X82245732Y-95814156D01*
X82653108Y-95582423D01*
X83097403Y-95457803D01*
X83358138Y-95427237D01*
X83691088Y-95420819D01*
X83966876Y-95473347D01*
G37*
X83966876Y-95473347D02*
X84279871Y-95603637D01*
X84305565Y-95616133D01*
X84816273Y-95951147D01*
X85314041Y-96446421D01*
X85791897Y-97092984D01*
X86242872Y-97881869D01*
X86514854Y-98458866D01*
X86718473Y-98869319D01*
X86901741Y-99121376D01*
X87008492Y-99202388D01*
X87330902Y-99445672D01*
X87517132Y-99764711D01*
X87556243Y-100127684D01*
X87448344Y-100481949D01*
X87384234Y-100637324D01*
X87371062Y-100797850D01*
X87409718Y-101023084D01*
X87459365Y-101218578D01*
X87523141Y-101477996D01*
X87610248Y-101860680D01*
X87711247Y-102323766D01*
X87816702Y-102824388D01*
X87867708Y-103073200D01*
X87964033Y-103526605D01*
X88054827Y-103915290D01*
X88132990Y-104211717D01*
X88191420Y-104388350D01*
X88216520Y-104425984D01*
X88322060Y-104405946D01*
X88559074Y-104352400D01*
X88894780Y-104272993D01*
X89296398Y-104175370D01*
X89391066Y-104152029D01*
X90262781Y-103944120D01*
X91016444Y-103783821D01*
X91694750Y-103665508D01*
X92340397Y-103583556D01*
X92996079Y-103532343D01*
X93704495Y-103506244D01*
X94344066Y-103499657D01*
X94946749Y-103500158D01*
X95410508Y-103505730D01*
X95765733Y-103518798D01*
X96042814Y-103541786D01*
X96272139Y-103577118D01*
X96484098Y-103627216D01*
X96682709Y-103686172D01*
X97322604Y-103937266D01*
X97817441Y-104247319D01*
X98185134Y-104629305D01*
X98349616Y-104893533D01*
X98485515Y-105177184D01*
X98552741Y-105411817D01*
X98567359Y-105677849D01*
X98555132Y-105922313D01*
X98449194Y-106502596D01*
X98217745Y-107128610D01*
X97878766Y-107756173D01*
X97701924Y-108018982D01*
X97542599Y-108257754D01*
X97473536Y-108428978D01*
X97476436Y-108595064D01*
X97501206Y-108703533D01*
X97552120Y-109078677D01*
X97544942Y-109531884D01*
X97486559Y-109993143D01*
X97383860Y-110392443D01*
X97320264Y-110542679D01*
X96968624Y-111082114D01*
X96539573Y-111490773D01*
X96241868Y-111670351D01*
X95861111Y-111854672D01*
X96158182Y-112143184D01*
X96352916Y-112351302D01*
X96527795Y-112586800D01*
X96696080Y-112875564D01*
X96871029Y-113243479D01*
X97065902Y-113716430D01*
X97293959Y-114320303D01*
X97345374Y-114460866D01*
X97537240Y-114971472D01*
X97742244Y-115490023D01*
X97940293Y-115967375D01*
X98111293Y-116354382D01*
X98169803Y-116477327D01*
X98446601Y-117172073D01*
X98570779Y-117814686D01*
X98543480Y-118398690D01*
X98365850Y-118917613D01*
X98039032Y-119364980D01*
X97597812Y-119713859D01*
X97372547Y-119906197D01*
X97307400Y-120091609D01*
X97237425Y-120328580D01*
X97060836Y-120573276D01*
X96827632Y-120769041D01*
X96636548Y-120851776D01*
X96361532Y-120851720D01*
X96064658Y-120764138D01*
X95816408Y-120616438D01*
X95708801Y-120491013D01*
X95663924Y-120430578D01*
X95586832Y-120385410D01*
X95452749Y-120352142D01*
X95236899Y-120327411D01*
X94914505Y-120307849D01*
X94460791Y-120290093D01*
X94156820Y-120280207D01*
X93297246Y-120238142D01*
X92484992Y-120163732D01*
X91673621Y-120050012D01*
X90816695Y-119890019D01*
X89867777Y-119676787D01*
X89448195Y-119574066D01*
X89019729Y-119470032D01*
X88652710Y-119386401D01*
X88376817Y-119329508D01*
X88221732Y-119305687D01*
X88199209Y-119307501D01*
X88170941Y-119400332D01*
X88121189Y-119625571D01*
X88057133Y-119948735D01*
X87990456Y-120310075D01*
X87714394Y-121682761D01*
X87395885Y-122956640D01*
X87038934Y-124122887D01*
X86647550Y-125172677D01*
X86225740Y-126097186D01*
X85777511Y-126887590D01*
X85306870Y-127535064D01*
X84817825Y-128030784D01*
X84337476Y-128354323D01*
X83893366Y-128509966D01*
X83409388Y-128564899D01*
X82960875Y-128511894D01*
X82896489Y-128492599D01*
X82357202Y-128227664D01*
X81836458Y-127799468D01*
X81337314Y-127213377D01*
X80862831Y-126474753D01*
X80416066Y-125588962D01*
X80000078Y-124561367D01*
X79617926Y-123397332D01*
X79287506Y-122163798D01*
X79169377Y-121650754D01*
X79049974Y-121089642D01*
X78945174Y-120557205D01*
X78884939Y-120218200D01*
X78818933Y-119845716D01*
X78755525Y-119535531D01*
X78703028Y-119325832D01*
X78675750Y-119257395D01*
X78575823Y-119251497D01*
X78342607Y-119283393D01*
X78006527Y-119347614D01*
X77598007Y-119438689D01*
X77398195Y-119487088D01*
X76521322Y-119688861D01*
X75587965Y-119875936D01*
X74665773Y-120035849D01*
X73822399Y-120156136D01*
X73666041Y-120174694D01*
X73378489Y-120218180D01*
X73209635Y-120281839D01*
X73108888Y-120389761D01*
X73073374Y-120456899D01*
X72864414Y-120722413D01*
X72572187Y-120875946D01*
X72242203Y-120915471D01*
X71919973Y-120838963D01*
X71651006Y-120644397D01*
X71563170Y-120524118D01*
X71463933Y-120379035D01*
X71345725Y-120285551D01*
X71162476Y-120221871D01*
X70868115Y-120166202D01*
X70775632Y-120151584D01*
X69961681Y-119970853D01*
X69293550Y-119707541D01*
X68772020Y-119366461D01*
X68397874Y-118952429D01*
X68171894Y-118470256D01*
X68094861Y-117924757D01*
X68121186Y-117706025D01*
X68630981Y-117706025D01*
X68633850Y-118192538D01*
X68784526Y-118604710D01*
X69086676Y-118952644D01*
X69536733Y-119242792D01*
X69735601Y-119335123D01*
X69951635Y-119413308D01*
X70223514Y-119488167D01*
X70589916Y-119570517D01*
X71018400Y-119657211D01*
X71280946Y-119691465D01*
X71459871Y-119649322D01*
X71632051Y-119508366D01*
X71672231Y-119466569D01*
X71871397Y-119297180D01*
X72065909Y-119193614D01*
X72095295Y-119186021D01*
X72418614Y-119189612D01*
X72739403Y-119296712D01*
X72978886Y-119480732D01*
X72982757Y-119485587D01*
X73069286Y-119582376D01*
X73167181Y-119635362D01*
X73319029Y-119650956D01*
X73567415Y-119635569D01*
X73813583Y-119610637D01*
X74555607Y-119513649D01*
X75401518Y-119371889D01*
X76295168Y-119195917D01*
X77098509Y-119014758D01*
X79231066Y-119014758D01*
X79257452Y-119256646D01*
X79282385Y-119418199D01*
X79334755Y-119712732D01*
X79408431Y-120107255D01*
X79497280Y-120568775D01*
X79569952Y-120937866D01*
X79894067Y-122390802D01*
X80257488Y-123687638D01*
X80659473Y-124826549D01*
X81099280Y-125805708D01*
X81576166Y-126623292D01*
X82089387Y-127277475D01*
X82193346Y-127385556D01*
X82490761Y-127667154D01*
X82727101Y-127844337D01*
X82945678Y-127946021D01*
X83088583Y-127983286D01*
X83568148Y-128017504D01*
X84015116Y-127905377D01*
X84360817Y-127716340D01*
X84744214Y-127384589D01*
X85133652Y-126900097D01*
X85521486Y-126278905D01*
X85900071Y-125537052D01*
X86261765Y-124690577D01*
X86598921Y-123755520D01*
X86903896Y-122747921D01*
X87106832Y-121954597D01*
X87192736Y-121574164D01*
X87284523Y-121139411D01*
X87376551Y-120680721D01*
X87463175Y-120228473D01*
X87538751Y-119813050D01*
X87597636Y-119464831D01*
X87634186Y-119214199D01*
X87642757Y-119091534D01*
X87640003Y-119084499D01*
X87552110Y-119053672D01*
X87343180Y-118986583D01*
X87054159Y-118896322D01*
X86978066Y-118872863D01*
X86684486Y-118777198D01*
X86273955Y-118636058D01*
X85939822Y-118517816D01*
X88298121Y-118517816D01*
X88308593Y-118620176D01*
X88369889Y-118698325D01*
X88513200Y-118769878D01*
X88769721Y-118852452D01*
X89010066Y-118919863D01*
X90124459Y-119198232D01*
X91258009Y-119430361D01*
X92369387Y-119609725D01*
X93417267Y-119729796D01*
X94360322Y-119784049D01*
X94495624Y-119786158D01*
X95451516Y-119794866D01*
X95773681Y-119456200D01*
X95992184Y-119249642D01*
X96176700Y-119147930D01*
X96391369Y-119117904D01*
X96428785Y-119117533D01*
X96697548Y-119150799D01*
X96923351Y-119232457D01*
X96948419Y-119248301D01*
X97144396Y-119331861D01*
X97294313Y-119293870D01*
X97500001Y-119136186D01*
X97724356Y-118895766D01*
X97918065Y-118632694D01*
X98031813Y-118407053D01*
X98036798Y-118389235D01*
X98065793Y-118016969D01*
X98002175Y-117561901D01*
X97856185Y-117075747D01*
X97711592Y-116746866D01*
X97433275Y-116196533D01*
X96883504Y-116154200D01*
X96333733Y-116111866D01*
X95952733Y-115087565D01*
X95788426Y-114655182D01*
X95657160Y-114344973D01*
X95536671Y-114119066D01*
X95404693Y-113939588D01*
X95238965Y-113768668D01*
X95106066Y-113647317D01*
X94707695Y-113300214D01*
X94316724Y-112975218D01*
X93956804Y-112690490D01*
X93651585Y-112464193D01*
X93424717Y-112314490D01*
X93299850Y-112259543D01*
X93298978Y-112259533D01*
X93183550Y-112305155D01*
X92962534Y-112429084D01*
X92668636Y-112611918D01*
X92363125Y-112814702D01*
X91550066Y-113369872D01*
X91550066Y-116154200D01*
X90026066Y-116154200D01*
X90026066Y-114285786D01*
X89454566Y-114606306D01*
X89161242Y-114771813D01*
X88913203Y-114913563D01*
X88758328Y-115004162D01*
X88746577Y-115011346D01*
X88693731Y-115075939D01*
X88646226Y-115213127D01*
X88600583Y-115443315D01*
X88553324Y-115786907D01*
X88500972Y-116264308D01*
X88457965Y-116704533D01*
X88409657Y-117221661D01*
X88366841Y-117691916D01*
X88332195Y-118084909D01*
X88308399Y-118370248D01*
X88298131Y-118517544D01*
X88298121Y-118517816D01*
X85939822Y-118517816D01*
X85787845Y-118464035D01*
X85267526Y-118275720D01*
X84887735Y-118135555D01*
X84416953Y-117962600D01*
X83996066Y-117812465D01*
X83652623Y-117694617D01*
X83414176Y-117618526D01*
X83310574Y-117593533D01*
X83159322Y-117625192D01*
X82932159Y-117704077D01*
X82860906Y-117733306D01*
X82680952Y-117803614D01*
X82371077Y-117917842D01*
X81961582Y-118065108D01*
X81482765Y-118234534D01*
X80964927Y-118415236D01*
X80882066Y-118443919D01*
X79231066Y-119014758D01*
X77098509Y-119014758D01*
X77180405Y-118996290D01*
X77495400Y-118918335D01*
X78553733Y-118649385D01*
X78548128Y-118311959D01*
X78535567Y-117983941D01*
X78509273Y-117575499D01*
X78472510Y-117118181D01*
X78428543Y-116643537D01*
X78380636Y-116183116D01*
X78332055Y-115768468D01*
X78302629Y-115552638D01*
X78862352Y-115552638D01*
X78864131Y-115747417D01*
X78878705Y-115921366D01*
X78906423Y-116185913D01*
X78945007Y-116565623D01*
X78989078Y-117007107D01*
X79028002Y-117403033D01*
X79071626Y-117799005D01*
X79117108Y-118125260D01*
X79159262Y-118349579D01*
X79192903Y-118439743D01*
X79194903Y-118440200D01*
X79291747Y-118413858D01*
X79523153Y-118340423D01*
X79863700Y-118228282D01*
X80287963Y-118085822D01*
X80770519Y-117921429D01*
X80843932Y-117896230D01*
X81334341Y-117725337D01*
X81770672Y-117568731D01*
X82127182Y-117436023D01*
X82378131Y-117336823D01*
X82497777Y-117280743D01*
X82502436Y-117277029D01*
X82487378Y-117248514D01*
X84063518Y-117248514D01*
X84356625Y-117369910D01*
X84545416Y-117443439D01*
X84858243Y-117560252D01*
X85259414Y-117707426D01*
X85713234Y-117872033D01*
X86184008Y-118041150D01*
X86636044Y-118201849D01*
X87033646Y-118341206D01*
X87147400Y-118380505D01*
X87441642Y-118475453D01*
X87615218Y-118500696D01*
X87706145Y-118445625D01*
X87752444Y-118299633D01*
X87767927Y-118207366D01*
X87795997Y-117993469D01*
X87833658Y-117660231D01*
X87875539Y-117256980D01*
X87908556Y-116916200D01*
X87959136Y-116372593D01*
X87995122Y-115975090D01*
X88018124Y-115701240D01*
X88029753Y-115528592D01*
X88031618Y-115434692D01*
X88025331Y-115397089D01*
X88017860Y-115392200D01*
X87936224Y-115427959D01*
X87734657Y-115525112D01*
X87444253Y-115668472D01*
X87124695Y-115828447D01*
X86697854Y-116038527D01*
X86181834Y-116285141D01*
X85642651Y-116537086D01*
X85160959Y-116756604D01*
X84063518Y-117248514D01*
X82487378Y-117248514D01*
X82467128Y-117210170D01*
X82297611Y-117099706D01*
X82018475Y-116960831D01*
X81920367Y-116917341D01*
X81598652Y-116772904D01*
X81175193Y-116575365D01*
X80699329Y-116348099D01*
X80220396Y-116114483D01*
X80100028Y-116054875D01*
X79694661Y-115855054D01*
X79343712Y-115685157D01*
X79074616Y-115558224D01*
X78914814Y-115487294D01*
X78883772Y-115476866D01*
X78862352Y-115552638D01*
X78302629Y-115552638D01*
X78286063Y-115431141D01*
X78245926Y-115202687D01*
X78217433Y-115116171D01*
X78109360Y-115042729D01*
X77890297Y-114909519D01*
X77597392Y-114738804D01*
X77410733Y-114632740D01*
X76691066Y-114227558D01*
X76666938Y-115063879D01*
X76642809Y-115900200D01*
X75989604Y-115898010D01*
X75336400Y-115895821D01*
X74244599Y-114158504D01*
X73898812Y-113616561D01*
X73763583Y-113412069D01*
X75238503Y-113412069D01*
X75251733Y-113444866D01*
X75327815Y-113525637D01*
X75341396Y-113529533D01*
X75377762Y-113464027D01*
X75378733Y-113444866D01*
X75313645Y-113363453D01*
X75289069Y-113360200D01*
X75238503Y-113412069D01*
X73763583Y-113412069D01*
X73597972Y-113161636D01*
X73351523Y-112807148D01*
X73168909Y-112566515D01*
X73059575Y-112453157D01*
X73039418Y-112446194D01*
X72929196Y-112507723D01*
X72722449Y-112653692D01*
X72452477Y-112859822D01*
X72250305Y-113021533D01*
X71574572Y-113571866D01*
X71571653Y-114736033D01*
X71568733Y-115900200D01*
X70298733Y-115900200D01*
X70292375Y-114841866D01*
X69996681Y-115180533D01*
X69641464Y-115625124D01*
X69304835Y-116114565D01*
X69017941Y-116599137D01*
X68811929Y-117029120D01*
X68772255Y-117135067D01*
X68630981Y-117706025D01*
X68121186Y-117706025D01*
X68167556Y-117320744D01*
X68390763Y-116663032D01*
X68765262Y-115956433D01*
X69291835Y-115205762D01*
X69863037Y-114532844D01*
X70298733Y-114056124D01*
X70298733Y-112217409D01*
X71566205Y-112217409D01*
X71571630Y-112532904D01*
X71604517Y-112705445D01*
X71684378Y-112748022D01*
X71830724Y-112673628D01*
X72063064Y-112495255D01*
X72349772Y-112266043D01*
X72824918Y-111891553D01*
X72641326Y-111624259D01*
X72626874Y-111607464D01*
X74108100Y-111607464D01*
X74270156Y-111869998D01*
X74427274Y-112060605D01*
X74668810Y-112286177D01*
X74884306Y-112454929D01*
X75336400Y-112777326D01*
X75360444Y-111829863D01*
X75366945Y-111447571D01*
X75366264Y-111132172D01*
X75358877Y-110919312D01*
X75347348Y-110845259D01*
X75265255Y-110871898D01*
X75078149Y-110974942D01*
X74820513Y-111134800D01*
X74709153Y-111207791D01*
X74108100Y-111607464D01*
X72626874Y-111607464D01*
X72354536Y-111290975D01*
X71910813Y-110897400D01*
X71716900Y-110744255D01*
X71656890Y-110708098D01*
X71615695Y-110724215D01*
X71589799Y-110816377D01*
X71575684Y-111008357D01*
X71569836Y-111323926D01*
X71568733Y-111745967D01*
X71566205Y-112217409D01*
X70298733Y-112217409D01*
X70298733Y-109442307D01*
X69819068Y-108882420D01*
X69195357Y-108087598D01*
X68724192Y-107340132D01*
X68405094Y-106643810D01*
X68237588Y-106002416D01*
X68229055Y-105699056D01*
X68761155Y-105699056D01*
X68846696Y-106241171D01*
X69065086Y-106836179D01*
X69413044Y-107471319D01*
X69835866Y-108068747D01*
X70256400Y-108606468D01*
X70281606Y-108104667D01*
X70306813Y-107602866D01*
X71556239Y-107602866D01*
X72684319Y-109379759D01*
X72994665Y-109867161D01*
X73274303Y-110303590D01*
X73510756Y-110669796D01*
X73691549Y-110946533D01*
X73804205Y-111114551D01*
X73836814Y-111157759D01*
X73912522Y-111113970D01*
X74098657Y-110994540D01*
X74365461Y-110818813D01*
X74619981Y-110648682D01*
X75378733Y-110138499D01*
X75378733Y-110003590D01*
X76648733Y-110003590D01*
X76648733Y-113595067D01*
X77389566Y-114022974D01*
X77704469Y-114203054D01*
X77961770Y-114346796D01*
X78128325Y-114435879D01*
X78172733Y-114455873D01*
X78183287Y-114375827D01*
X78193286Y-114146594D01*
X78202361Y-113788320D01*
X78210141Y-113321151D01*
X78216257Y-112765233D01*
X78220341Y-112140712D01*
X78221542Y-111793866D01*
X78221717Y-111669100D01*
X78768792Y-111669100D01*
X78769448Y-112276337D01*
X78772649Y-112869078D01*
X78778353Y-113422699D01*
X78786519Y-113912574D01*
X78797106Y-114314081D01*
X78810071Y-114602593D01*
X78825373Y-114753488D01*
X78830196Y-114767920D01*
X78935199Y-114848617D01*
X79170632Y-114985967D01*
X79511985Y-115168307D01*
X79934746Y-115383977D01*
X80414404Y-115621315D01*
X80926447Y-115868660D01*
X81446366Y-116114349D01*
X81949647Y-116346721D01*
X82411781Y-116554115D01*
X82808256Y-116724870D01*
X83114561Y-116847322D01*
X83306184Y-116909812D01*
X83343966Y-116915411D01*
X83474847Y-116883735D01*
X83720562Y-116797730D01*
X84041276Y-116671995D01*
X84275299Y-116574073D01*
X84616394Y-116423058D01*
X85066714Y-116216803D01*
X85583715Y-115975166D01*
X86124850Y-115718002D01*
X86563914Y-115505980D01*
X88054762Y-114780013D01*
X88109081Y-114014766D01*
X88140548Y-113394358D01*
X88157685Y-112654938D01*
X88160510Y-111846221D01*
X88149041Y-111017918D01*
X88123296Y-110219743D01*
X88107611Y-109893896D01*
X88090385Y-109573528D01*
X88629191Y-109573528D01*
X88630345Y-109930940D01*
X88634351Y-110379213D01*
X88640763Y-110893269D01*
X88649137Y-111448030D01*
X88659028Y-112018418D01*
X88669990Y-112579354D01*
X88681579Y-113105761D01*
X88693349Y-113572558D01*
X88704855Y-113954669D01*
X88715653Y-114227016D01*
X88725296Y-114364519D01*
X88728523Y-114376200D01*
X88819084Y-114337055D01*
X89019087Y-114232697D01*
X89291422Y-114082738D01*
X89401218Y-114020687D01*
X90026066Y-113665175D01*
X90026066Y-112474178D01*
X91550066Y-112474178D01*
X91571314Y-112604059D01*
X91650583Y-112629007D01*
X91811159Y-112545083D01*
X92015733Y-112395429D01*
X92113478Y-112310580D01*
X92092418Y-112273163D01*
X91929999Y-112262900D01*
X91867566Y-112262226D01*
X91658403Y-112273548D01*
X91568867Y-112334112D01*
X91550066Y-112474178D01*
X90026066Y-112474178D01*
X90026066Y-109991589D01*
X89335719Y-109600464D01*
X89036558Y-109433627D01*
X88800906Y-109307250D01*
X88661306Y-109238519D01*
X88637219Y-109231602D01*
X88631334Y-109332056D01*
X88629191Y-109573528D01*
X88090385Y-109573528D01*
X88051822Y-108856340D01*
X86520111Y-108107837D01*
X85986656Y-107849590D01*
X85443295Y-107590833D01*
X84931354Y-107350946D01*
X84492162Y-107149310D01*
X84190547Y-107015396D01*
X83392695Y-106671459D01*
X82370214Y-107107649D01*
X81908724Y-107310757D01*
X81358261Y-107562675D01*
X80780403Y-107834705D01*
X80236730Y-108098151D01*
X80110864Y-108160557D01*
X79652292Y-108390259D01*
X79322776Y-108561185D01*
X79099681Y-108689817D01*
X78960373Y-108792642D01*
X78882219Y-108886142D01*
X78842584Y-108986803D01*
X78820629Y-109100237D01*
X78805142Y-109277335D01*
X78792450Y-109587684D01*
X78782510Y-110006659D01*
X78775281Y-110509636D01*
X78770723Y-111071992D01*
X78768792Y-111669100D01*
X78221717Y-111669100D01*
X78222461Y-111141235D01*
X78222019Y-110546429D01*
X78220332Y-110029645D01*
X78217516Y-109611078D01*
X78213688Y-109310926D01*
X78208964Y-109149385D01*
X78206185Y-109126866D01*
X78128414Y-109166126D01*
X77935373Y-109272228D01*
X77658615Y-109427655D01*
X77416543Y-109565228D01*
X76648733Y-110003590D01*
X75378733Y-110003590D01*
X75378733Y-107602866D01*
X76643004Y-107602866D01*
X76691066Y-109357560D01*
X77495400Y-108906719D01*
X78299733Y-108455879D01*
X78364157Y-107805010D01*
X78932880Y-107805010D01*
X78933808Y-108024631D01*
X78952840Y-108110659D01*
X78954311Y-108110866D01*
X79051437Y-108074921D01*
X79269109Y-107976588D01*
X79576876Y-107830116D01*
X79944288Y-107649756D01*
X80015535Y-107614228D01*
X80491580Y-107380691D01*
X81012145Y-107132454D01*
X81507713Y-106902327D01*
X81841970Y-106752209D01*
X82599730Y-106419792D01*
X84242065Y-106419792D01*
X84243585Y-106421608D01*
X84341365Y-106477832D01*
X84563848Y-106589336D01*
X84881397Y-106741739D01*
X85264373Y-106920660D01*
X85411733Y-106988418D01*
X85883349Y-107207192D01*
X86370150Y-107437814D01*
X86816970Y-107653868D01*
X87168645Y-107828943D01*
X87189733Y-107839729D01*
X87497156Y-107994411D01*
X87747132Y-108114667D01*
X87901909Y-108182581D01*
X87930566Y-108191300D01*
X87977957Y-108122071D01*
X87994066Y-107980209D01*
X87985103Y-107811728D01*
X87960868Y-107523593D01*
X87925342Y-107152698D01*
X87882506Y-106735938D01*
X87836343Y-106310208D01*
X87790833Y-105912401D01*
X87749959Y-105579412D01*
X87717700Y-105348135D01*
X87700580Y-105260575D01*
X87618586Y-105230283D01*
X87407497Y-105262129D01*
X87056279Y-105358168D01*
X86877656Y-105413877D01*
X86283546Y-105608296D01*
X85728245Y-105798712D01*
X85231987Y-105977382D01*
X84815007Y-106136566D01*
X84497537Y-106268523D01*
X84299812Y-106365512D01*
X84242065Y-106419792D01*
X82599730Y-106419792D01*
X82674874Y-106386828D01*
X82265303Y-106222843D01*
X81976444Y-106111375D01*
X81607348Y-105975082D01*
X81187172Y-105824027D01*
X80745074Y-105668273D01*
X80310210Y-105517883D01*
X79911737Y-105382921D01*
X79578812Y-105273449D01*
X79340593Y-105199531D01*
X79226236Y-105171229D01*
X79220680Y-105172030D01*
X79183731Y-105280397D01*
X79141118Y-105517392D01*
X79095813Y-105850238D01*
X79050786Y-106246157D01*
X79009009Y-106672371D01*
X78973451Y-107096103D01*
X78947085Y-107484575D01*
X78932880Y-107805010D01*
X78364157Y-107805010D01*
X78436231Y-107076873D01*
X78486732Y-106582132D01*
X78536692Y-106120046D01*
X78581785Y-105728733D01*
X78617685Y-105446314D01*
X78632285Y-105349213D01*
X78691839Y-105000559D01*
X77733786Y-104738301D01*
X77183784Y-104600643D01*
X79294672Y-104600643D01*
X79377978Y-104632552D01*
X79592575Y-104708435D01*
X79909306Y-104818144D01*
X80299012Y-104951529D01*
X80458733Y-105005824D01*
X80968988Y-105182921D01*
X81513966Y-105378622D01*
X82028512Y-105569174D01*
X82447471Y-105730822D01*
X82448400Y-105731192D01*
X82802705Y-105869887D01*
X83101114Y-105981947D01*
X83307231Y-106053994D01*
X83380315Y-106073794D01*
X83492592Y-106046759D01*
X83721418Y-105970117D01*
X84026380Y-105857797D01*
X84184648Y-105796591D01*
X84524396Y-105668329D01*
X84975800Y-105505180D01*
X85489487Y-105324624D01*
X86016081Y-105144142D01*
X86136610Y-105103678D01*
X88267432Y-105103678D01*
X88277684Y-105336445D01*
X88303377Y-105675116D01*
X88342378Y-106088552D01*
X88360839Y-106264299D01*
X88413413Y-106756057D01*
X88464293Y-107240812D01*
X88508212Y-107667822D01*
X88539905Y-107986341D01*
X88543888Y-108028057D01*
X88596075Y-108580249D01*
X89289904Y-108968722D01*
X89983733Y-109357196D01*
X90006997Y-108014364D01*
X90007000Y-108014153D01*
X91550066Y-108014153D01*
X91555028Y-110354533D01*
X91912380Y-110580067D01*
X92080374Y-110678333D01*
X92240153Y-110743479D01*
X92432511Y-110782623D01*
X92698243Y-110802885D01*
X93078140Y-110811381D01*
X93246649Y-110812901D01*
X94223566Y-110820200D01*
X94507142Y-110571848D01*
X95319316Y-110571848D01*
X95343457Y-110601399D01*
X95492487Y-110542842D01*
X95509821Y-110533991D01*
X95700330Y-110404803D01*
X95812928Y-110272396D01*
X95814861Y-110267668D01*
X95821294Y-110198097D01*
X95734797Y-110230756D01*
X95616014Y-110310812D01*
X95412643Y-110469786D01*
X95319316Y-110571848D01*
X94507142Y-110571848D01*
X94982316Y-110155699D01*
X95376485Y-109809948D01*
X95659278Y-109554699D01*
X95845763Y-109367827D01*
X95951012Y-109227205D01*
X95990092Y-109110708D01*
X95978076Y-108996211D01*
X95930031Y-108861587D01*
X95905405Y-108800405D01*
X95677022Y-108441744D01*
X95457357Y-108260659D01*
X95345525Y-108196570D01*
X95227140Y-108147986D01*
X95077089Y-108112292D01*
X94870258Y-108086878D01*
X94581534Y-108069130D01*
X94185803Y-108056435D01*
X93657951Y-108046181D01*
X93349233Y-108041343D01*
X91550066Y-108014153D01*
X90007000Y-108014153D01*
X90030261Y-106671533D01*
X92335330Y-106673210D01*
X93269550Y-106678609D01*
X94052364Y-106695522D01*
X94701502Y-106727235D01*
X95234691Y-106777039D01*
X95669659Y-106848220D01*
X96024136Y-106944068D01*
X96315849Y-107067870D01*
X96562527Y-107222916D01*
X96781897Y-107412493D01*
X96882666Y-107516683D01*
X97190825Y-107850480D01*
X97477176Y-107378004D01*
X97711667Y-106942084D01*
X97900612Y-106496179D01*
X98025162Y-106090714D01*
X98066635Y-105800980D01*
X98019267Y-105499107D01*
X97893742Y-105155637D01*
X97723823Y-104856046D01*
X97664004Y-104781647D01*
X97501985Y-104648123D01*
X97258802Y-104494852D01*
X97138066Y-104430308D01*
X96806670Y-104280841D01*
X96470160Y-104169477D01*
X96096546Y-104091389D01*
X95653837Y-104041750D01*
X95110039Y-104015730D01*
X94433163Y-104008502D01*
X94344066Y-104008661D01*
X93699960Y-104015840D01*
X93165001Y-104036732D01*
X92679228Y-104076376D01*
X92182676Y-104139814D01*
X91615383Y-104232085D01*
X91550066Y-104243512D01*
X91061079Y-104334245D01*
X90539177Y-104439223D01*
X90012292Y-104551926D01*
X89508353Y-104665835D01*
X89055292Y-104774431D01*
X88681040Y-104871196D01*
X88413526Y-104949610D01*
X88280683Y-105003155D01*
X88274755Y-105007955D01*
X88267432Y-105103678D01*
X86136610Y-105103678D01*
X86237233Y-105069897D01*
X86733916Y-104902129D01*
X87091153Y-104774318D01*
X87331150Y-104676004D01*
X87476113Y-104596725D01*
X87548248Y-104526017D01*
X87569762Y-104453421D01*
X87569997Y-104442006D01*
X87552505Y-104292639D01*
X87505253Y-104012475D01*
X87435203Y-103636021D01*
X87349320Y-103197781D01*
X87254566Y-102732262D01*
X87157905Y-102273971D01*
X87066300Y-101857412D01*
X86986714Y-101517093D01*
X86952556Y-101382334D01*
X86873180Y-101127382D01*
X86783417Y-100990600D01*
X86643808Y-100923339D01*
X86565465Y-100905063D01*
X86242693Y-100770959D01*
X85981492Y-100538001D01*
X85838477Y-100262646D01*
X85831401Y-99991379D01*
X85909587Y-99693213D01*
X86047601Y-99446112D01*
X86130922Y-99366197D01*
X86206768Y-99301146D01*
X86231619Y-99219245D01*
X86199922Y-99081309D01*
X86106125Y-98848154D01*
X86034221Y-98683661D01*
X85606782Y-97814934D01*
X85164711Y-97111360D01*
X84711182Y-96573278D01*
X84249372Y-96201029D01*
X83782456Y-95994952D01*
X83313609Y-95955386D01*
X82846006Y-96082672D01*
X82382823Y-96377148D01*
X81927234Y-96839155D01*
X81482415Y-97469032D01*
X81105342Y-98156502D01*
X80684133Y-99112113D01*
X80291715Y-100206588D01*
X79936985Y-101410634D01*
X79628837Y-102694953D01*
X79447314Y-103616584D01*
X79380806Y-103997597D01*
X79329810Y-104310966D01*
X79299521Y-104523198D01*
X79294672Y-104600643D01*
X77183784Y-104600643D01*
X76508761Y-104431694D01*
X75332504Y-104193721D01*
X74216563Y-104024267D01*
X73172486Y-103923218D01*
X72211819Y-103890461D01*
X71346110Y-103925880D01*
X70586905Y-104029363D01*
X69945753Y-104200796D01*
X69434199Y-104440063D01*
X69063793Y-104747051D01*
X69001741Y-104824549D01*
X68811743Y-105222595D01*
X68761155Y-105699056D01*
X68229055Y-105699056D01*
X68221197Y-105419737D01*
X68355445Y-104899559D01*
X68639854Y-104445668D01*
X69073947Y-104061851D01*
X69657249Y-103751892D01*
X70389283Y-103519579D01*
X70497376Y-103494832D01*
X70956270Y-103426203D01*
X71544365Y-103387415D01*
X72224356Y-103377480D01*
X72958941Y-103395412D01*
X73710817Y-103440223D01*
X74442679Y-103510927D01*
X75117226Y-103606537D01*
X75188752Y-103618962D01*
X75584054Y-103694510D01*
X76056406Y-103793202D01*
X76571529Y-103906957D01*
X77095141Y-104027692D01*
X77592962Y-104147326D01*
X78030712Y-104257779D01*
X78374109Y-104350968D01*
X78588874Y-104418812D01*
X78600220Y-104423199D01*
X78655054Y-104418394D01*
X78708489Y-104344263D01*
X78766984Y-104179922D01*
X78836997Y-103904489D01*
X78924988Y-103497082D01*
X78997346Y-103139229D01*
X79313507Y-101714293D01*
X79668317Y-100416784D01*
X80058948Y-99253665D01*
X80482572Y-98231898D01*
X80936362Y-97358445D01*
X81417491Y-96640268D01*
X81824669Y-96177773D01*
X82245732Y-95814156D01*
X82653108Y-95582423D01*
X83097403Y-95457803D01*
X83358138Y-95427237D01*
X83691088Y-95420819D01*
X83966876Y-95473347D01*
G36*
X102641400Y-131394200D02*
G01*
X64033400Y-131394200D01*
X64033400Y-93294200D01*
X64541400Y-93294200D01*
X64541400Y-130886200D01*
X102133400Y-130886200D01*
X102133400Y-93294200D01*
X64541400Y-93294200D01*
X64033400Y-93294200D01*
X64033400Y-92786200D01*
X102641400Y-92786200D01*
X102641400Y-131394200D01*
G37*
X102641400Y-131394200D02*
X64033400Y-131394200D01*
X64033400Y-93294200D01*
X64541400Y-93294200D01*
X64541400Y-130886200D01*
X102133400Y-130886200D01*
X102133400Y-93294200D01*
X64541400Y-93294200D01*
X64033400Y-93294200D01*
X64033400Y-92786200D01*
X102641400Y-92786200D01*
X102641400Y-131394200D01*
D14*
X125792499Y-135331959D02*
X125792499Y-135639241D01*
X125032499Y-135331959D02*
X125032499Y-135639241D01*
X123650433Y-135331959D02*
X123650433Y-135639241D01*
X122890433Y-135331959D02*
X122890433Y-135639241D01*
X126863532Y-135331959D02*
X126863532Y-135639241D01*
X126103532Y-135331959D02*
X126103532Y-135639241D01*
X124721466Y-135331959D02*
X124721466Y-135639241D01*
X123961466Y-135331959D02*
X123961466Y-135639241D01*
X127934565Y-135331959D02*
X127934565Y-135639241D01*
X127174565Y-135331959D02*
X127174565Y-135639241D01*
X122579400Y-135331959D02*
X122579400Y-135639241D01*
X121819400Y-135331959D02*
X121819400Y-135639241D01*
X129005600Y-135331959D02*
X129005600Y-135639241D01*
X128245600Y-135331959D02*
X128245600Y-135639241D01*
X120227441Y-131489800D02*
X119920159Y-131489800D01*
X120227441Y-130729800D02*
X119920159Y-130729800D01*
X120227441Y-132536200D02*
X119920159Y-132536200D01*
X120227441Y-131776200D02*
X119920159Y-131776200D01*
X120227441Y-133582600D02*
X119920159Y-133582600D01*
X120227441Y-132822600D02*
X119920159Y-132822600D01*
X135482600Y-135331959D02*
X135482600Y-135639241D01*
X134722600Y-135331959D02*
X134722600Y-135639241D01*
X134085600Y-135331959D02*
X134085600Y-135639241D01*
X133325600Y-135331959D02*
X133325600Y-135639241D01*
X134519641Y-132764800D02*
X134212359Y-132764800D01*
X134519641Y-132004800D02*
X134212359Y-132004800D01*
X134443441Y-128751601D02*
X134136159Y-128751601D01*
X134443441Y-127991601D02*
X134136159Y-127991601D01*
X133856400Y-125762652D02*
X133856400Y-125240148D01*
X132386400Y-125762652D02*
X132386400Y-125240148D01*
X119635600Y-125204548D02*
X119635600Y-125727052D01*
X121105600Y-125204548D02*
X121105600Y-125727052D01*
X130402359Y-127964200D02*
X130709641Y-127964200D01*
X130402359Y-127204200D02*
X130709641Y-127204200D01*
X122860800Y-125345759D02*
X122860800Y-125653041D01*
X123620800Y-125345759D02*
X123620800Y-125653041D01*
X120201636Y-133879000D02*
X119985964Y-133879000D01*
X120201636Y-134599000D02*
X119985964Y-134599000D01*
X130222164Y-132770200D02*
X130437836Y-132770200D01*
X130222164Y-132050200D02*
X130437836Y-132050200D01*
X120201636Y-129713400D02*
X119985964Y-129713400D01*
X120201636Y-130433400D02*
X119985964Y-130433400D01*
X130448164Y-126877400D02*
X130663836Y-126877400D01*
X130448164Y-126157400D02*
X130663836Y-126157400D01*
X130448164Y-125861400D02*
X130663836Y-125861400D01*
X130448164Y-125141400D02*
X130663836Y-125141400D01*
X123947600Y-125393564D02*
X123947600Y-125609236D01*
X124667600Y-125393564D02*
X124667600Y-125609236D01*
X125217600Y-125393564D02*
X125217600Y-125609236D01*
X125937600Y-125393564D02*
X125937600Y-125609236D01*
X128172800Y-125609236D02*
X128172800Y-125393564D01*
X127452800Y-125609236D02*
X127452800Y-125393564D01*
X127106000Y-125609236D02*
X127106000Y-125393564D01*
X126386000Y-125609236D02*
X126386000Y-125393564D01*
X129188800Y-125609236D02*
X129188800Y-125393564D01*
X128468800Y-125609236D02*
X128468800Y-125393564D01*
X114859800Y-131924359D02*
X114859800Y-132231641D01*
X115619800Y-131924359D02*
X115619800Y-132231641D01*
X113742200Y-131926359D02*
X113742200Y-132233641D01*
X114502200Y-131926359D02*
X114502200Y-132233641D01*
X123430501Y-89714400D02*
X121145501Y-89714400D01*
X123430501Y-91184400D02*
X123430501Y-89714400D01*
X121145501Y-91184400D02*
X123430501Y-91184400D01*
X123430501Y-111710800D02*
X121145501Y-111710800D01*
X123430501Y-113180800D02*
X123430501Y-111710800D01*
X121145501Y-113180800D02*
X123430501Y-113180800D01*
X123430501Y-109266752D02*
X121145501Y-109266752D01*
X123430501Y-110736752D02*
X123430501Y-109266752D01*
X121145501Y-110736752D02*
X123430501Y-110736752D01*
X123430501Y-106822708D02*
X121145501Y-106822708D01*
X123430501Y-108292708D02*
X123430501Y-106822708D01*
X121145501Y-108292708D02*
X123430501Y-108292708D01*
X123430501Y-104378664D02*
X121145501Y-104378664D01*
X123430501Y-105848664D02*
X123430501Y-104378664D01*
X121145501Y-105848664D02*
X123430501Y-105848664D01*
X123430501Y-101934620D02*
X121145501Y-101934620D01*
X123430501Y-103404620D02*
X123430501Y-101934620D01*
X121145501Y-103404620D02*
X123430501Y-103404620D01*
X123430501Y-99490576D02*
X121145501Y-99490576D01*
X123430501Y-100960576D02*
X123430501Y-99490576D01*
X121145501Y-100960576D02*
X123430501Y-100960576D01*
X123430501Y-97046532D02*
X121145501Y-97046532D01*
X123430501Y-98516532D02*
X123430501Y-97046532D01*
X121145501Y-98516532D02*
X123430501Y-98516532D01*
X123430501Y-94602488D02*
X121145501Y-94602488D01*
X123430501Y-96072488D02*
X123430501Y-94602488D01*
X121145501Y-96072488D02*
X123430501Y-96072488D01*
X123430501Y-92158444D02*
X121145501Y-92158444D01*
X123430501Y-93628444D02*
X123430501Y-92158444D01*
X121145501Y-93628444D02*
X123430501Y-93628444D01*
X114533000Y-127999436D02*
X114533000Y-127783764D01*
X113813000Y-127999436D02*
X113813000Y-127783764D01*
X114879800Y-127783764D02*
X114879800Y-127999436D01*
X115599800Y-127783764D02*
X115599800Y-127999436D01*
X115498200Y-129901836D02*
X115498200Y-129686164D01*
X114778200Y-129901836D02*
X114778200Y-129686164D01*
X114533000Y-129901836D02*
X114533000Y-129686164D01*
X113813000Y-129901836D02*
X113813000Y-129686164D01*
X108630400Y-132513600D02*
X108405400Y-132513600D01*
X108405400Y-132513600D02*
X108405400Y-132288600D01*
X112400400Y-128293600D02*
X112625400Y-128293600D01*
X112625400Y-128293600D02*
X112625400Y-128518600D01*
X108630400Y-128293600D02*
X108405400Y-128293600D01*
X108405400Y-128293600D02*
X108405400Y-128518600D01*
X112400400Y-132513600D02*
X112625400Y-132513600D01*
D12*
X131717980Y-135650266D02*
X131241790Y-135983600D01*
X131717980Y-136221695D02*
X130717980Y-136221695D01*
X130717980Y-135840742D01*
X130765600Y-135745504D01*
X130813219Y-135697885D01*
X130908457Y-135650266D01*
X131051314Y-135650266D01*
X131146552Y-135697885D01*
X131194171Y-135745504D01*
X131241790Y-135840742D01*
X131241790Y-136221695D01*
X130717980Y-134745504D02*
X130717980Y-135221695D01*
X131194171Y-135269314D01*
X131146552Y-135221695D01*
X131098933Y-135126457D01*
X131098933Y-134888361D01*
X131146552Y-134793123D01*
X131194171Y-134745504D01*
X131289409Y-134697885D01*
X131527504Y-134697885D01*
X131622742Y-134745504D01*
X131670361Y-134793123D01*
X131717980Y-134888361D01*
X131717980Y-135126457D01*
X131670361Y-135221695D01*
X131622742Y-135269314D01*
M02*
