G04 #@! TF.GenerationSoftware,KiCad,Pcbnew,(5.1.8)-1*
G04 #@! TF.CreationDate,2020-12-31T16:53:10-05:00*
G04 #@! TF.ProjectId,trackpad_test,74726163-6b70-4616-945f-746573742e6b,rev?*
G04 #@! TF.SameCoordinates,Original*
G04 #@! TF.FileFunction,Legend,Bot*
G04 #@! TF.FilePolarity,Positive*
%FSLAX46Y46*%
G04 Gerber Fmt 4.6, Leading zero omitted, Abs format (unit mm)*
G04 Created by KiCad (PCBNEW (5.1.8)-1) date 2020-12-31 16:53:10*
%MOMM*%
%LPD*%
G01*
G04 APERTURE LIST*
%ADD10C,0.120000*%
%ADD11C,0.150000*%
G04 APERTURE END LIST*
D10*
X140082200Y-137118400D02*
X145282200Y-137118400D01*
X140082200Y-124298400D02*
X145282200Y-124298400D01*
X138642200Y-136548400D02*
X140082200Y-136548400D01*
X140082200Y-137118400D02*
X140082200Y-136548400D01*
X145282200Y-137118400D02*
X145282200Y-136548400D01*
X140082200Y-124868400D02*
X140082200Y-124298400D01*
X145282200Y-124868400D02*
X145282200Y-124298400D01*
X140082200Y-135028400D02*
X140082200Y-134008400D01*
X145282200Y-135028400D02*
X145282200Y-134008400D01*
X140082200Y-132488400D02*
X140082200Y-131468400D01*
X145282200Y-132488400D02*
X145282200Y-131468400D01*
X140082200Y-129948400D02*
X140082200Y-128928400D01*
X145282200Y-129948400D02*
X145282200Y-128928400D01*
X140082200Y-127408400D02*
X140082200Y-126388400D01*
X145282200Y-127408400D02*
X145282200Y-126388400D01*
D11*
X143015533Y-137570780D02*
X143015533Y-138285066D01*
X143063152Y-138427923D01*
X143158390Y-138523161D01*
X143301247Y-138570780D01*
X143396485Y-138570780D01*
X142586961Y-137666019D02*
X142539342Y-137618400D01*
X142444104Y-137570780D01*
X142206009Y-137570780D01*
X142110771Y-137618400D01*
X142063152Y-137666019D01*
X142015533Y-137761257D01*
X142015533Y-137856495D01*
X142063152Y-137999352D01*
X142634580Y-138570780D01*
X142015533Y-138570780D01*
M02*
