G04 #@! TF.GenerationSoftware,KiCad,Pcbnew,(5.1.8)-1*
G04 #@! TF.CreationDate,2020-12-31T16:53:10-05:00*
G04 #@! TF.ProjectId,trackpad_test,74726163-6b70-4616-945f-746573742e6b,rev?*
G04 #@! TF.SameCoordinates,Original*
G04 #@! TF.FileFunction,Paste,Top*
G04 #@! TF.FilePolarity,Positive*
%FSLAX46Y46*%
G04 Gerber Fmt 4.6, Leading zero omitted, Abs format (unit mm)*
G04 Created by KiCad (PCBNEW (5.1.8)-1) date 2020-12-31 16:53:10*
%MOMM*%
%LPD*%
G01*
G04 APERTURE LIST*
%ADD10C,0.100000*%
%ADD11R,0.950000X0.400000*%
%ADD12R,0.500000X0.600000*%
%ADD13R,5.080000X1.270000*%
%ADD14R,0.850000X0.200000*%
%ADD15R,0.200000X0.850000*%
%ADD16R,0.700000X1.000000*%
G04 APERTURE END LIST*
D10*
G36*
X123426000Y-132225800D02*
G01*
X123426000Y-130675800D01*
X125126000Y-130675800D01*
X125126000Y-132225800D01*
X123426000Y-132225800D01*
G37*
X123426000Y-132225800D02*
X123426000Y-130675800D01*
X125126000Y-130675800D01*
X125126000Y-132225800D01*
X123426000Y-132225800D01*
G36*
X125826000Y-132175800D02*
G01*
X125826000Y-130625800D01*
X127526000Y-130625800D01*
X127526000Y-132175800D01*
X125826000Y-132175800D01*
G37*
X125826000Y-132175800D02*
X125826000Y-130625800D01*
X127526000Y-130625800D01*
X127526000Y-132175800D01*
X125826000Y-132175800D01*
G36*
X125826000Y-129725800D02*
G01*
X125826000Y-128175800D01*
X127526000Y-128175800D01*
X127526000Y-129725800D01*
X125826000Y-129725800D01*
G37*
X125826000Y-129725800D02*
X125826000Y-128175800D01*
X127526000Y-128175800D01*
X127526000Y-129725800D01*
X125826000Y-129725800D01*
G36*
X123426000Y-129775800D02*
G01*
X123426000Y-128225800D01*
X125126000Y-128225800D01*
X125126000Y-129775800D01*
X123426000Y-129775800D01*
G37*
X123426000Y-129775800D02*
X123426000Y-128225800D01*
X125126000Y-128225800D01*
X125126000Y-129775800D01*
X123426000Y-129775800D01*
D11*
X133299200Y-131119400D03*
X133299200Y-130469400D03*
X133299200Y-129819400D03*
X135499200Y-129819400D03*
X135499200Y-130469400D03*
X135499200Y-131119400D03*
G36*
G01*
X132620600Y-135243600D02*
X132250600Y-135243600D01*
G75*
G02*
X132115600Y-135108600I0J135000D01*
G01*
X132115600Y-134838600D01*
G75*
G02*
X132250600Y-134703600I135000J0D01*
G01*
X132620600Y-134703600D01*
G75*
G02*
X132755600Y-134838600I0J-135000D01*
G01*
X132755600Y-135108600D01*
G75*
G02*
X132620600Y-135243600I-135000J0D01*
G01*
G37*
G36*
G01*
X132620600Y-136263600D02*
X132250600Y-136263600D01*
G75*
G02*
X132115600Y-136128600I0J135000D01*
G01*
X132115600Y-135858600D01*
G75*
G02*
X132250600Y-135723600I135000J0D01*
G01*
X132620600Y-135723600D01*
G75*
G02*
X132755600Y-135858600I0J-135000D01*
G01*
X132755600Y-136128600D01*
G75*
G02*
X132620600Y-136263600I-135000J0D01*
G01*
G37*
D12*
X130181400Y-129861400D03*
X130181400Y-128761400D03*
X130981400Y-128761400D03*
X130981400Y-129861400D03*
D13*
X136753600Y-112381800D03*
X136753600Y-90411800D03*
D14*
X128426000Y-128025800D03*
X128426000Y-128425800D03*
X128426000Y-128825800D03*
X128426000Y-129225800D03*
X128426000Y-129625800D03*
X128426000Y-130025800D03*
X128426000Y-130425800D03*
X128426000Y-130825800D03*
X128426000Y-131225800D03*
X128426000Y-131625800D03*
X128426000Y-132025800D03*
X128426000Y-132425800D03*
D15*
X127676000Y-133175800D03*
X127276000Y-133175800D03*
X126876000Y-133175800D03*
X126476000Y-133175800D03*
X126076000Y-133175800D03*
X125676000Y-133175800D03*
X125276000Y-133175800D03*
X124876000Y-133175800D03*
X124476000Y-133175800D03*
X124076000Y-133175800D03*
X123676000Y-133175800D03*
X123276000Y-133175800D03*
D14*
X122526000Y-132425800D03*
X122526000Y-132025800D03*
X122526000Y-131625800D03*
X122526000Y-131225800D03*
X122526000Y-130825800D03*
X122526000Y-130425800D03*
X122526000Y-130025800D03*
X122526000Y-129625800D03*
X122526000Y-129225800D03*
X122526000Y-128825800D03*
X122526000Y-128425800D03*
X122526000Y-128025800D03*
D15*
X123276000Y-127275800D03*
X123676000Y-127275800D03*
X124076000Y-127275800D03*
X124476000Y-127275800D03*
X124876000Y-127275800D03*
X125276000Y-127275800D03*
X125676000Y-127275800D03*
X126076000Y-127275800D03*
X126476000Y-127275800D03*
X126876000Y-127275800D03*
X127276000Y-127275800D03*
X127676000Y-127275800D03*
G36*
G01*
X125227499Y-135725600D02*
X125597499Y-135725600D01*
G75*
G02*
X125732499Y-135860600I0J-135000D01*
G01*
X125732499Y-136130600D01*
G75*
G02*
X125597499Y-136265600I-135000J0D01*
G01*
X125227499Y-136265600D01*
G75*
G02*
X125092499Y-136130600I0J135000D01*
G01*
X125092499Y-135860600D01*
G75*
G02*
X125227499Y-135725600I135000J0D01*
G01*
G37*
G36*
G01*
X125227499Y-134705600D02*
X125597499Y-134705600D01*
G75*
G02*
X125732499Y-134840600I0J-135000D01*
G01*
X125732499Y-135110600D01*
G75*
G02*
X125597499Y-135245600I-135000J0D01*
G01*
X125227499Y-135245600D01*
G75*
G02*
X125092499Y-135110600I0J135000D01*
G01*
X125092499Y-134840600D01*
G75*
G02*
X125227499Y-134705600I135000J0D01*
G01*
G37*
G36*
G01*
X123085433Y-135725600D02*
X123455433Y-135725600D01*
G75*
G02*
X123590433Y-135860600I0J-135000D01*
G01*
X123590433Y-136130600D01*
G75*
G02*
X123455433Y-136265600I-135000J0D01*
G01*
X123085433Y-136265600D01*
G75*
G02*
X122950433Y-136130600I0J135000D01*
G01*
X122950433Y-135860600D01*
G75*
G02*
X123085433Y-135725600I135000J0D01*
G01*
G37*
G36*
G01*
X123085433Y-134705600D02*
X123455433Y-134705600D01*
G75*
G02*
X123590433Y-134840600I0J-135000D01*
G01*
X123590433Y-135110600D01*
G75*
G02*
X123455433Y-135245600I-135000J0D01*
G01*
X123085433Y-135245600D01*
G75*
G02*
X122950433Y-135110600I0J135000D01*
G01*
X122950433Y-134840600D01*
G75*
G02*
X123085433Y-134705600I135000J0D01*
G01*
G37*
G36*
G01*
X126298532Y-135725600D02*
X126668532Y-135725600D01*
G75*
G02*
X126803532Y-135860600I0J-135000D01*
G01*
X126803532Y-136130600D01*
G75*
G02*
X126668532Y-136265600I-135000J0D01*
G01*
X126298532Y-136265600D01*
G75*
G02*
X126163532Y-136130600I0J135000D01*
G01*
X126163532Y-135860600D01*
G75*
G02*
X126298532Y-135725600I135000J0D01*
G01*
G37*
G36*
G01*
X126298532Y-134705600D02*
X126668532Y-134705600D01*
G75*
G02*
X126803532Y-134840600I0J-135000D01*
G01*
X126803532Y-135110600D01*
G75*
G02*
X126668532Y-135245600I-135000J0D01*
G01*
X126298532Y-135245600D01*
G75*
G02*
X126163532Y-135110600I0J135000D01*
G01*
X126163532Y-134840600D01*
G75*
G02*
X126298532Y-134705600I135000J0D01*
G01*
G37*
G36*
G01*
X124156466Y-135725600D02*
X124526466Y-135725600D01*
G75*
G02*
X124661466Y-135860600I0J-135000D01*
G01*
X124661466Y-136130600D01*
G75*
G02*
X124526466Y-136265600I-135000J0D01*
G01*
X124156466Y-136265600D01*
G75*
G02*
X124021466Y-136130600I0J135000D01*
G01*
X124021466Y-135860600D01*
G75*
G02*
X124156466Y-135725600I135000J0D01*
G01*
G37*
G36*
G01*
X124156466Y-134705600D02*
X124526466Y-134705600D01*
G75*
G02*
X124661466Y-134840600I0J-135000D01*
G01*
X124661466Y-135110600D01*
G75*
G02*
X124526466Y-135245600I-135000J0D01*
G01*
X124156466Y-135245600D01*
G75*
G02*
X124021466Y-135110600I0J135000D01*
G01*
X124021466Y-134840600D01*
G75*
G02*
X124156466Y-134705600I135000J0D01*
G01*
G37*
G36*
G01*
X127369565Y-135725600D02*
X127739565Y-135725600D01*
G75*
G02*
X127874565Y-135860600I0J-135000D01*
G01*
X127874565Y-136130600D01*
G75*
G02*
X127739565Y-136265600I-135000J0D01*
G01*
X127369565Y-136265600D01*
G75*
G02*
X127234565Y-136130600I0J135000D01*
G01*
X127234565Y-135860600D01*
G75*
G02*
X127369565Y-135725600I135000J0D01*
G01*
G37*
G36*
G01*
X127369565Y-134705600D02*
X127739565Y-134705600D01*
G75*
G02*
X127874565Y-134840600I0J-135000D01*
G01*
X127874565Y-135110600D01*
G75*
G02*
X127739565Y-135245600I-135000J0D01*
G01*
X127369565Y-135245600D01*
G75*
G02*
X127234565Y-135110600I0J135000D01*
G01*
X127234565Y-134840600D01*
G75*
G02*
X127369565Y-134705600I135000J0D01*
G01*
G37*
G36*
G01*
X122014400Y-135725600D02*
X122384400Y-135725600D01*
G75*
G02*
X122519400Y-135860600I0J-135000D01*
G01*
X122519400Y-136130600D01*
G75*
G02*
X122384400Y-136265600I-135000J0D01*
G01*
X122014400Y-136265600D01*
G75*
G02*
X121879400Y-136130600I0J135000D01*
G01*
X121879400Y-135860600D01*
G75*
G02*
X122014400Y-135725600I135000J0D01*
G01*
G37*
G36*
G01*
X122014400Y-134705600D02*
X122384400Y-134705600D01*
G75*
G02*
X122519400Y-134840600I0J-135000D01*
G01*
X122519400Y-135110600D01*
G75*
G02*
X122384400Y-135245600I-135000J0D01*
G01*
X122014400Y-135245600D01*
G75*
G02*
X121879400Y-135110600I0J135000D01*
G01*
X121879400Y-134840600D01*
G75*
G02*
X122014400Y-134705600I135000J0D01*
G01*
G37*
G36*
G01*
X128440600Y-135725600D02*
X128810600Y-135725600D01*
G75*
G02*
X128945600Y-135860600I0J-135000D01*
G01*
X128945600Y-136130600D01*
G75*
G02*
X128810600Y-136265600I-135000J0D01*
G01*
X128440600Y-136265600D01*
G75*
G02*
X128305600Y-136130600I0J135000D01*
G01*
X128305600Y-135860600D01*
G75*
G02*
X128440600Y-135725600I135000J0D01*
G01*
G37*
G36*
G01*
X128440600Y-134705600D02*
X128810600Y-134705600D01*
G75*
G02*
X128945600Y-134840600I0J-135000D01*
G01*
X128945600Y-135110600D01*
G75*
G02*
X128810600Y-135245600I-135000J0D01*
G01*
X128440600Y-135245600D01*
G75*
G02*
X128305600Y-135110600I0J135000D01*
G01*
X128305600Y-134840600D01*
G75*
G02*
X128440600Y-134705600I135000J0D01*
G01*
G37*
G36*
G01*
X119833800Y-130924800D02*
X119833800Y-131294800D01*
G75*
G02*
X119698800Y-131429800I-135000J0D01*
G01*
X119428800Y-131429800D01*
G75*
G02*
X119293800Y-131294800I0J135000D01*
G01*
X119293800Y-130924800D01*
G75*
G02*
X119428800Y-130789800I135000J0D01*
G01*
X119698800Y-130789800D01*
G75*
G02*
X119833800Y-130924800I0J-135000D01*
G01*
G37*
G36*
G01*
X120853800Y-130924800D02*
X120853800Y-131294800D01*
G75*
G02*
X120718800Y-131429800I-135000J0D01*
G01*
X120448800Y-131429800D01*
G75*
G02*
X120313800Y-131294800I0J135000D01*
G01*
X120313800Y-130924800D01*
G75*
G02*
X120448800Y-130789800I135000J0D01*
G01*
X120718800Y-130789800D01*
G75*
G02*
X120853800Y-130924800I0J-135000D01*
G01*
G37*
G36*
G01*
X119833800Y-131971200D02*
X119833800Y-132341200D01*
G75*
G02*
X119698800Y-132476200I-135000J0D01*
G01*
X119428800Y-132476200D01*
G75*
G02*
X119293800Y-132341200I0J135000D01*
G01*
X119293800Y-131971200D01*
G75*
G02*
X119428800Y-131836200I135000J0D01*
G01*
X119698800Y-131836200D01*
G75*
G02*
X119833800Y-131971200I0J-135000D01*
G01*
G37*
G36*
G01*
X120853800Y-131971200D02*
X120853800Y-132341200D01*
G75*
G02*
X120718800Y-132476200I-135000J0D01*
G01*
X120448800Y-132476200D01*
G75*
G02*
X120313800Y-132341200I0J135000D01*
G01*
X120313800Y-131971200D01*
G75*
G02*
X120448800Y-131836200I135000J0D01*
G01*
X120718800Y-131836200D01*
G75*
G02*
X120853800Y-131971200I0J-135000D01*
G01*
G37*
G36*
G01*
X119833800Y-133017600D02*
X119833800Y-133387600D01*
G75*
G02*
X119698800Y-133522600I-135000J0D01*
G01*
X119428800Y-133522600D01*
G75*
G02*
X119293800Y-133387600I0J135000D01*
G01*
X119293800Y-133017600D01*
G75*
G02*
X119428800Y-132882600I135000J0D01*
G01*
X119698800Y-132882600D01*
G75*
G02*
X119833800Y-133017600I0J-135000D01*
G01*
G37*
G36*
G01*
X120853800Y-133017600D02*
X120853800Y-133387600D01*
G75*
G02*
X120718800Y-133522600I-135000J0D01*
G01*
X120448800Y-133522600D01*
G75*
G02*
X120313800Y-133387600I0J135000D01*
G01*
X120313800Y-133017600D01*
G75*
G02*
X120448800Y-132882600I135000J0D01*
G01*
X120718800Y-132882600D01*
G75*
G02*
X120853800Y-133017600I0J-135000D01*
G01*
G37*
D16*
X141840999Y-121835001D03*
X145540999Y-127835001D03*
X145540999Y-121835001D03*
X141840999Y-127835001D03*
G36*
G01*
X134917600Y-135725600D02*
X135287600Y-135725600D01*
G75*
G02*
X135422600Y-135860600I0J-135000D01*
G01*
X135422600Y-136130600D01*
G75*
G02*
X135287600Y-136265600I-135000J0D01*
G01*
X134917600Y-136265600D01*
G75*
G02*
X134782600Y-136130600I0J135000D01*
G01*
X134782600Y-135860600D01*
G75*
G02*
X134917600Y-135725600I135000J0D01*
G01*
G37*
G36*
G01*
X134917600Y-134705600D02*
X135287600Y-134705600D01*
G75*
G02*
X135422600Y-134840600I0J-135000D01*
G01*
X135422600Y-135110600D01*
G75*
G02*
X135287600Y-135245600I-135000J0D01*
G01*
X134917600Y-135245600D01*
G75*
G02*
X134782600Y-135110600I0J135000D01*
G01*
X134782600Y-134840600D01*
G75*
G02*
X134917600Y-134705600I135000J0D01*
G01*
G37*
G36*
G01*
X133520600Y-135725600D02*
X133890600Y-135725600D01*
G75*
G02*
X134025600Y-135860600I0J-135000D01*
G01*
X134025600Y-136130600D01*
G75*
G02*
X133890600Y-136265600I-135000J0D01*
G01*
X133520600Y-136265600D01*
G75*
G02*
X133385600Y-136130600I0J135000D01*
G01*
X133385600Y-135860600D01*
G75*
G02*
X133520600Y-135725600I135000J0D01*
G01*
G37*
G36*
G01*
X133520600Y-134705600D02*
X133890600Y-134705600D01*
G75*
G02*
X134025600Y-134840600I0J-135000D01*
G01*
X134025600Y-135110600D01*
G75*
G02*
X133890600Y-135245600I-135000J0D01*
G01*
X133520600Y-135245600D01*
G75*
G02*
X133385600Y-135110600I0J135000D01*
G01*
X133385600Y-134840600D01*
G75*
G02*
X133520600Y-134705600I135000J0D01*
G01*
G37*
G36*
G01*
X134126000Y-132199800D02*
X134126000Y-132569800D01*
G75*
G02*
X133991000Y-132704800I-135000J0D01*
G01*
X133721000Y-132704800D01*
G75*
G02*
X133586000Y-132569800I0J135000D01*
G01*
X133586000Y-132199800D01*
G75*
G02*
X133721000Y-132064800I135000J0D01*
G01*
X133991000Y-132064800D01*
G75*
G02*
X134126000Y-132199800I0J-135000D01*
G01*
G37*
G36*
G01*
X135146000Y-132199800D02*
X135146000Y-132569800D01*
G75*
G02*
X135011000Y-132704800I-135000J0D01*
G01*
X134741000Y-132704800D01*
G75*
G02*
X134606000Y-132569800I0J135000D01*
G01*
X134606000Y-132199800D01*
G75*
G02*
X134741000Y-132064800I135000J0D01*
G01*
X135011000Y-132064800D01*
G75*
G02*
X135146000Y-132199800I0J-135000D01*
G01*
G37*
G36*
G01*
X134049800Y-128186601D02*
X134049800Y-128556601D01*
G75*
G02*
X133914800Y-128691601I-135000J0D01*
G01*
X133644800Y-128691601D01*
G75*
G02*
X133509800Y-128556601I0J135000D01*
G01*
X133509800Y-128186601D01*
G75*
G02*
X133644800Y-128051601I135000J0D01*
G01*
X133914800Y-128051601D01*
G75*
G02*
X134049800Y-128186601I0J-135000D01*
G01*
G37*
G36*
G01*
X135069800Y-128186601D02*
X135069800Y-128556601D01*
G75*
G02*
X134934800Y-128691601I-135000J0D01*
G01*
X134664800Y-128691601D01*
G75*
G02*
X134529800Y-128556601I0J135000D01*
G01*
X134529800Y-128186601D01*
G75*
G02*
X134664800Y-128051601I135000J0D01*
G01*
X134934800Y-128051601D01*
G75*
G02*
X135069800Y-128186601I0J-135000D01*
G01*
G37*
G36*
G01*
X133596400Y-125051400D02*
X132646400Y-125051400D01*
G75*
G02*
X132396400Y-124801400I0J250000D01*
G01*
X132396400Y-124301400D01*
G75*
G02*
X132646400Y-124051400I250000J0D01*
G01*
X133596400Y-124051400D01*
G75*
G02*
X133846400Y-124301400I0J-250000D01*
G01*
X133846400Y-124801400D01*
G75*
G02*
X133596400Y-125051400I-250000J0D01*
G01*
G37*
G36*
G01*
X133596400Y-126951400D02*
X132646400Y-126951400D01*
G75*
G02*
X132396400Y-126701400I0J250000D01*
G01*
X132396400Y-126201400D01*
G75*
G02*
X132646400Y-125951400I250000J0D01*
G01*
X133596400Y-125951400D01*
G75*
G02*
X133846400Y-126201400I0J-250000D01*
G01*
X133846400Y-126701400D01*
G75*
G02*
X133596400Y-126951400I-250000J0D01*
G01*
G37*
G36*
G01*
X119895600Y-125915800D02*
X120845600Y-125915800D01*
G75*
G02*
X121095600Y-126165800I0J-250000D01*
G01*
X121095600Y-126665800D01*
G75*
G02*
X120845600Y-126915800I-250000J0D01*
G01*
X119895600Y-126915800D01*
G75*
G02*
X119645600Y-126665800I0J250000D01*
G01*
X119645600Y-126165800D01*
G75*
G02*
X119895600Y-125915800I250000J0D01*
G01*
G37*
G36*
G01*
X119895600Y-124015800D02*
X120845600Y-124015800D01*
G75*
G02*
X121095600Y-124265800I0J-250000D01*
G01*
X121095600Y-124765800D01*
G75*
G02*
X120845600Y-125015800I-250000J0D01*
G01*
X119895600Y-125015800D01*
G75*
G02*
X119645600Y-124765800I0J250000D01*
G01*
X119645600Y-124265800D01*
G75*
G02*
X119895600Y-124015800I250000J0D01*
G01*
G37*
X141884400Y-130144000D03*
X145584400Y-136144000D03*
X145584400Y-130144000D03*
X141884400Y-136144000D03*
G36*
G01*
X130796000Y-127769200D02*
X130796000Y-127399200D01*
G75*
G02*
X130931000Y-127264200I135000J0D01*
G01*
X131201000Y-127264200D01*
G75*
G02*
X131336000Y-127399200I0J-135000D01*
G01*
X131336000Y-127769200D01*
G75*
G02*
X131201000Y-127904200I-135000J0D01*
G01*
X130931000Y-127904200D01*
G75*
G02*
X130796000Y-127769200I0J135000D01*
G01*
G37*
G36*
G01*
X129776000Y-127769200D02*
X129776000Y-127399200D01*
G75*
G02*
X129911000Y-127264200I135000J0D01*
G01*
X130181000Y-127264200D01*
G75*
G02*
X130316000Y-127399200I0J-135000D01*
G01*
X130316000Y-127769200D01*
G75*
G02*
X130181000Y-127904200I-135000J0D01*
G01*
X129911000Y-127904200D01*
G75*
G02*
X129776000Y-127769200I0J135000D01*
G01*
G37*
G36*
G01*
X123055800Y-125739400D02*
X123425800Y-125739400D01*
G75*
G02*
X123560800Y-125874400I0J-135000D01*
G01*
X123560800Y-126144400D01*
G75*
G02*
X123425800Y-126279400I-135000J0D01*
G01*
X123055800Y-126279400D01*
G75*
G02*
X122920800Y-126144400I0J135000D01*
G01*
X122920800Y-125874400D01*
G75*
G02*
X123055800Y-125739400I135000J0D01*
G01*
G37*
G36*
G01*
X123055800Y-124719400D02*
X123425800Y-124719400D01*
G75*
G02*
X123560800Y-124854400I0J-135000D01*
G01*
X123560800Y-125124400D01*
G75*
G02*
X123425800Y-125259400I-135000J0D01*
G01*
X123055800Y-125259400D01*
G75*
G02*
X122920800Y-125124400I0J135000D01*
G01*
X122920800Y-124854400D01*
G75*
G02*
X123055800Y-124719400I135000J0D01*
G01*
G37*
G36*
G01*
X119893800Y-134069000D02*
X119893800Y-134409000D01*
G75*
G02*
X119753800Y-134549000I-140000J0D01*
G01*
X119473800Y-134549000D01*
G75*
G02*
X119333800Y-134409000I0J140000D01*
G01*
X119333800Y-134069000D01*
G75*
G02*
X119473800Y-133929000I140000J0D01*
G01*
X119753800Y-133929000D01*
G75*
G02*
X119893800Y-134069000I0J-140000D01*
G01*
G37*
G36*
G01*
X120853800Y-134069000D02*
X120853800Y-134409000D01*
G75*
G02*
X120713800Y-134549000I-140000J0D01*
G01*
X120433800Y-134549000D01*
G75*
G02*
X120293800Y-134409000I0J140000D01*
G01*
X120293800Y-134069000D01*
G75*
G02*
X120433800Y-133929000I140000J0D01*
G01*
X120713800Y-133929000D01*
G75*
G02*
X120853800Y-134069000I0J-140000D01*
G01*
G37*
G36*
G01*
X130530000Y-132580200D02*
X130530000Y-132240200D01*
G75*
G02*
X130670000Y-132100200I140000J0D01*
G01*
X130950000Y-132100200D01*
G75*
G02*
X131090000Y-132240200I0J-140000D01*
G01*
X131090000Y-132580200D01*
G75*
G02*
X130950000Y-132720200I-140000J0D01*
G01*
X130670000Y-132720200D01*
G75*
G02*
X130530000Y-132580200I0J140000D01*
G01*
G37*
G36*
G01*
X129570000Y-132580200D02*
X129570000Y-132240200D01*
G75*
G02*
X129710000Y-132100200I140000J0D01*
G01*
X129990000Y-132100200D01*
G75*
G02*
X130130000Y-132240200I0J-140000D01*
G01*
X130130000Y-132580200D01*
G75*
G02*
X129990000Y-132720200I-140000J0D01*
G01*
X129710000Y-132720200D01*
G75*
G02*
X129570000Y-132580200I0J140000D01*
G01*
G37*
G36*
G01*
X119893800Y-129903400D02*
X119893800Y-130243400D01*
G75*
G02*
X119753800Y-130383400I-140000J0D01*
G01*
X119473800Y-130383400D01*
G75*
G02*
X119333800Y-130243400I0J140000D01*
G01*
X119333800Y-129903400D01*
G75*
G02*
X119473800Y-129763400I140000J0D01*
G01*
X119753800Y-129763400D01*
G75*
G02*
X119893800Y-129903400I0J-140000D01*
G01*
G37*
G36*
G01*
X120853800Y-129903400D02*
X120853800Y-130243400D01*
G75*
G02*
X120713800Y-130383400I-140000J0D01*
G01*
X120433800Y-130383400D01*
G75*
G02*
X120293800Y-130243400I0J140000D01*
G01*
X120293800Y-129903400D01*
G75*
G02*
X120433800Y-129763400I140000J0D01*
G01*
X120713800Y-129763400D01*
G75*
G02*
X120853800Y-129903400I0J-140000D01*
G01*
G37*
G36*
G01*
X130756000Y-126687400D02*
X130756000Y-126347400D01*
G75*
G02*
X130896000Y-126207400I140000J0D01*
G01*
X131176000Y-126207400D01*
G75*
G02*
X131316000Y-126347400I0J-140000D01*
G01*
X131316000Y-126687400D01*
G75*
G02*
X131176000Y-126827400I-140000J0D01*
G01*
X130896000Y-126827400D01*
G75*
G02*
X130756000Y-126687400I0J140000D01*
G01*
G37*
G36*
G01*
X129796000Y-126687400D02*
X129796000Y-126347400D01*
G75*
G02*
X129936000Y-126207400I140000J0D01*
G01*
X130216000Y-126207400D01*
G75*
G02*
X130356000Y-126347400I0J-140000D01*
G01*
X130356000Y-126687400D01*
G75*
G02*
X130216000Y-126827400I-140000J0D01*
G01*
X129936000Y-126827400D01*
G75*
G02*
X129796000Y-126687400I0J140000D01*
G01*
G37*
G36*
G01*
X130756000Y-125671400D02*
X130756000Y-125331400D01*
G75*
G02*
X130896000Y-125191400I140000J0D01*
G01*
X131176000Y-125191400D01*
G75*
G02*
X131316000Y-125331400I0J-140000D01*
G01*
X131316000Y-125671400D01*
G75*
G02*
X131176000Y-125811400I-140000J0D01*
G01*
X130896000Y-125811400D01*
G75*
G02*
X130756000Y-125671400I0J140000D01*
G01*
G37*
G36*
G01*
X129796000Y-125671400D02*
X129796000Y-125331400D01*
G75*
G02*
X129936000Y-125191400I140000J0D01*
G01*
X130216000Y-125191400D01*
G75*
G02*
X130356000Y-125331400I0J-140000D01*
G01*
X130356000Y-125671400D01*
G75*
G02*
X130216000Y-125811400I-140000J0D01*
G01*
X129936000Y-125811400D01*
G75*
G02*
X129796000Y-125671400I0J140000D01*
G01*
G37*
G36*
G01*
X124137600Y-125701400D02*
X124477600Y-125701400D01*
G75*
G02*
X124617600Y-125841400I0J-140000D01*
G01*
X124617600Y-126121400D01*
G75*
G02*
X124477600Y-126261400I-140000J0D01*
G01*
X124137600Y-126261400D01*
G75*
G02*
X123997600Y-126121400I0J140000D01*
G01*
X123997600Y-125841400D01*
G75*
G02*
X124137600Y-125701400I140000J0D01*
G01*
G37*
G36*
G01*
X124137600Y-124741400D02*
X124477600Y-124741400D01*
G75*
G02*
X124617600Y-124881400I0J-140000D01*
G01*
X124617600Y-125161400D01*
G75*
G02*
X124477600Y-125301400I-140000J0D01*
G01*
X124137600Y-125301400D01*
G75*
G02*
X123997600Y-125161400I0J140000D01*
G01*
X123997600Y-124881400D01*
G75*
G02*
X124137600Y-124741400I140000J0D01*
G01*
G37*
G36*
G01*
X125407600Y-125701400D02*
X125747600Y-125701400D01*
G75*
G02*
X125887600Y-125841400I0J-140000D01*
G01*
X125887600Y-126121400D01*
G75*
G02*
X125747600Y-126261400I-140000J0D01*
G01*
X125407600Y-126261400D01*
G75*
G02*
X125267600Y-126121400I0J140000D01*
G01*
X125267600Y-125841400D01*
G75*
G02*
X125407600Y-125701400I140000J0D01*
G01*
G37*
G36*
G01*
X125407600Y-124741400D02*
X125747600Y-124741400D01*
G75*
G02*
X125887600Y-124881400I0J-140000D01*
G01*
X125887600Y-125161400D01*
G75*
G02*
X125747600Y-125301400I-140000J0D01*
G01*
X125407600Y-125301400D01*
G75*
G02*
X125267600Y-125161400I0J140000D01*
G01*
X125267600Y-124881400D01*
G75*
G02*
X125407600Y-124741400I140000J0D01*
G01*
G37*
G36*
G01*
X127982800Y-125301400D02*
X127642800Y-125301400D01*
G75*
G02*
X127502800Y-125161400I0J140000D01*
G01*
X127502800Y-124881400D01*
G75*
G02*
X127642800Y-124741400I140000J0D01*
G01*
X127982800Y-124741400D01*
G75*
G02*
X128122800Y-124881400I0J-140000D01*
G01*
X128122800Y-125161400D01*
G75*
G02*
X127982800Y-125301400I-140000J0D01*
G01*
G37*
G36*
G01*
X127982800Y-126261400D02*
X127642800Y-126261400D01*
G75*
G02*
X127502800Y-126121400I0J140000D01*
G01*
X127502800Y-125841400D01*
G75*
G02*
X127642800Y-125701400I140000J0D01*
G01*
X127982800Y-125701400D01*
G75*
G02*
X128122800Y-125841400I0J-140000D01*
G01*
X128122800Y-126121400D01*
G75*
G02*
X127982800Y-126261400I-140000J0D01*
G01*
G37*
G36*
G01*
X126916000Y-125301400D02*
X126576000Y-125301400D01*
G75*
G02*
X126436000Y-125161400I0J140000D01*
G01*
X126436000Y-124881400D01*
G75*
G02*
X126576000Y-124741400I140000J0D01*
G01*
X126916000Y-124741400D01*
G75*
G02*
X127056000Y-124881400I0J-140000D01*
G01*
X127056000Y-125161400D01*
G75*
G02*
X126916000Y-125301400I-140000J0D01*
G01*
G37*
G36*
G01*
X126916000Y-126261400D02*
X126576000Y-126261400D01*
G75*
G02*
X126436000Y-126121400I0J140000D01*
G01*
X126436000Y-125841400D01*
G75*
G02*
X126576000Y-125701400I140000J0D01*
G01*
X126916000Y-125701400D01*
G75*
G02*
X127056000Y-125841400I0J-140000D01*
G01*
X127056000Y-126121400D01*
G75*
G02*
X126916000Y-126261400I-140000J0D01*
G01*
G37*
G36*
G01*
X128998800Y-125301400D02*
X128658800Y-125301400D01*
G75*
G02*
X128518800Y-125161400I0J140000D01*
G01*
X128518800Y-124881400D01*
G75*
G02*
X128658800Y-124741400I140000J0D01*
G01*
X128998800Y-124741400D01*
G75*
G02*
X129138800Y-124881400I0J-140000D01*
G01*
X129138800Y-125161400D01*
G75*
G02*
X128998800Y-125301400I-140000J0D01*
G01*
G37*
G36*
G01*
X128998800Y-126261400D02*
X128658800Y-126261400D01*
G75*
G02*
X128518800Y-126121400I0J140000D01*
G01*
X128518800Y-125841400D01*
G75*
G02*
X128658800Y-125701400I140000J0D01*
G01*
X128998800Y-125701400D01*
G75*
G02*
X129138800Y-125841400I0J-140000D01*
G01*
X129138800Y-126121400D01*
G75*
G02*
X128998800Y-126261400I-140000J0D01*
G01*
G37*
G36*
G01*
X115054800Y-132318000D02*
X115424800Y-132318000D01*
G75*
G02*
X115559800Y-132453000I0J-135000D01*
G01*
X115559800Y-132723000D01*
G75*
G02*
X115424800Y-132858000I-135000J0D01*
G01*
X115054800Y-132858000D01*
G75*
G02*
X114919800Y-132723000I0J135000D01*
G01*
X114919800Y-132453000D01*
G75*
G02*
X115054800Y-132318000I135000J0D01*
G01*
G37*
G36*
G01*
X115054800Y-131298000D02*
X115424800Y-131298000D01*
G75*
G02*
X115559800Y-131433000I0J-135000D01*
G01*
X115559800Y-131703000D01*
G75*
G02*
X115424800Y-131838000I-135000J0D01*
G01*
X115054800Y-131838000D01*
G75*
G02*
X114919800Y-131703000I0J135000D01*
G01*
X114919800Y-131433000D01*
G75*
G02*
X115054800Y-131298000I135000J0D01*
G01*
G37*
G36*
G01*
X113937200Y-132320000D02*
X114307200Y-132320000D01*
G75*
G02*
X114442200Y-132455000I0J-135000D01*
G01*
X114442200Y-132725000D01*
G75*
G02*
X114307200Y-132860000I-135000J0D01*
G01*
X113937200Y-132860000D01*
G75*
G02*
X113802200Y-132725000I0J135000D01*
G01*
X113802200Y-132455000D01*
G75*
G02*
X113937200Y-132320000I135000J0D01*
G01*
G37*
G36*
G01*
X113937200Y-131300000D02*
X114307200Y-131300000D01*
G75*
G02*
X114442200Y-131435000I0J-135000D01*
G01*
X114442200Y-131705000D01*
G75*
G02*
X114307200Y-131840000I-135000J0D01*
G01*
X113937200Y-131840000D01*
G75*
G02*
X113802200Y-131705000I0J135000D01*
G01*
X113802200Y-131435000D01*
G75*
G02*
X113937200Y-131300000I135000J0D01*
G01*
G37*
G36*
G01*
X121595501Y-90193150D02*
X121595501Y-90705650D01*
G75*
G02*
X121376751Y-90924400I-218750J0D01*
G01*
X120939251Y-90924400D01*
G75*
G02*
X120720501Y-90705650I0J218750D01*
G01*
X120720501Y-90193150D01*
G75*
G02*
X120939251Y-89974400I218750J0D01*
G01*
X121376751Y-89974400D01*
G75*
G02*
X121595501Y-90193150I0J-218750D01*
G01*
G37*
G36*
G01*
X123170501Y-90193150D02*
X123170501Y-90705650D01*
G75*
G02*
X122951751Y-90924400I-218750J0D01*
G01*
X122514251Y-90924400D01*
G75*
G02*
X122295501Y-90705650I0J218750D01*
G01*
X122295501Y-90193150D01*
G75*
G02*
X122514251Y-89974400I218750J0D01*
G01*
X122951751Y-89974400D01*
G75*
G02*
X123170501Y-90193150I0J-218750D01*
G01*
G37*
G36*
G01*
X121595501Y-112189550D02*
X121595501Y-112702050D01*
G75*
G02*
X121376751Y-112920800I-218750J0D01*
G01*
X120939251Y-112920800D01*
G75*
G02*
X120720501Y-112702050I0J218750D01*
G01*
X120720501Y-112189550D01*
G75*
G02*
X120939251Y-111970800I218750J0D01*
G01*
X121376751Y-111970800D01*
G75*
G02*
X121595501Y-112189550I0J-218750D01*
G01*
G37*
G36*
G01*
X123170501Y-112189550D02*
X123170501Y-112702050D01*
G75*
G02*
X122951751Y-112920800I-218750J0D01*
G01*
X122514251Y-112920800D01*
G75*
G02*
X122295501Y-112702050I0J218750D01*
G01*
X122295501Y-112189550D01*
G75*
G02*
X122514251Y-111970800I218750J0D01*
G01*
X122951751Y-111970800D01*
G75*
G02*
X123170501Y-112189550I0J-218750D01*
G01*
G37*
G36*
G01*
X121595501Y-109745502D02*
X121595501Y-110258002D01*
G75*
G02*
X121376751Y-110476752I-218750J0D01*
G01*
X120939251Y-110476752D01*
G75*
G02*
X120720501Y-110258002I0J218750D01*
G01*
X120720501Y-109745502D01*
G75*
G02*
X120939251Y-109526752I218750J0D01*
G01*
X121376751Y-109526752D01*
G75*
G02*
X121595501Y-109745502I0J-218750D01*
G01*
G37*
G36*
G01*
X123170501Y-109745502D02*
X123170501Y-110258002D01*
G75*
G02*
X122951751Y-110476752I-218750J0D01*
G01*
X122514251Y-110476752D01*
G75*
G02*
X122295501Y-110258002I0J218750D01*
G01*
X122295501Y-109745502D01*
G75*
G02*
X122514251Y-109526752I218750J0D01*
G01*
X122951751Y-109526752D01*
G75*
G02*
X123170501Y-109745502I0J-218750D01*
G01*
G37*
G36*
G01*
X121595501Y-107301458D02*
X121595501Y-107813958D01*
G75*
G02*
X121376751Y-108032708I-218750J0D01*
G01*
X120939251Y-108032708D01*
G75*
G02*
X120720501Y-107813958I0J218750D01*
G01*
X120720501Y-107301458D01*
G75*
G02*
X120939251Y-107082708I218750J0D01*
G01*
X121376751Y-107082708D01*
G75*
G02*
X121595501Y-107301458I0J-218750D01*
G01*
G37*
G36*
G01*
X123170501Y-107301458D02*
X123170501Y-107813958D01*
G75*
G02*
X122951751Y-108032708I-218750J0D01*
G01*
X122514251Y-108032708D01*
G75*
G02*
X122295501Y-107813958I0J218750D01*
G01*
X122295501Y-107301458D01*
G75*
G02*
X122514251Y-107082708I218750J0D01*
G01*
X122951751Y-107082708D01*
G75*
G02*
X123170501Y-107301458I0J-218750D01*
G01*
G37*
G36*
G01*
X121595501Y-104857414D02*
X121595501Y-105369914D01*
G75*
G02*
X121376751Y-105588664I-218750J0D01*
G01*
X120939251Y-105588664D01*
G75*
G02*
X120720501Y-105369914I0J218750D01*
G01*
X120720501Y-104857414D01*
G75*
G02*
X120939251Y-104638664I218750J0D01*
G01*
X121376751Y-104638664D01*
G75*
G02*
X121595501Y-104857414I0J-218750D01*
G01*
G37*
G36*
G01*
X123170501Y-104857414D02*
X123170501Y-105369914D01*
G75*
G02*
X122951751Y-105588664I-218750J0D01*
G01*
X122514251Y-105588664D01*
G75*
G02*
X122295501Y-105369914I0J218750D01*
G01*
X122295501Y-104857414D01*
G75*
G02*
X122514251Y-104638664I218750J0D01*
G01*
X122951751Y-104638664D01*
G75*
G02*
X123170501Y-104857414I0J-218750D01*
G01*
G37*
G36*
G01*
X121595501Y-102413370D02*
X121595501Y-102925870D01*
G75*
G02*
X121376751Y-103144620I-218750J0D01*
G01*
X120939251Y-103144620D01*
G75*
G02*
X120720501Y-102925870I0J218750D01*
G01*
X120720501Y-102413370D01*
G75*
G02*
X120939251Y-102194620I218750J0D01*
G01*
X121376751Y-102194620D01*
G75*
G02*
X121595501Y-102413370I0J-218750D01*
G01*
G37*
G36*
G01*
X123170501Y-102413370D02*
X123170501Y-102925870D01*
G75*
G02*
X122951751Y-103144620I-218750J0D01*
G01*
X122514251Y-103144620D01*
G75*
G02*
X122295501Y-102925870I0J218750D01*
G01*
X122295501Y-102413370D01*
G75*
G02*
X122514251Y-102194620I218750J0D01*
G01*
X122951751Y-102194620D01*
G75*
G02*
X123170501Y-102413370I0J-218750D01*
G01*
G37*
G36*
G01*
X121595501Y-99969326D02*
X121595501Y-100481826D01*
G75*
G02*
X121376751Y-100700576I-218750J0D01*
G01*
X120939251Y-100700576D01*
G75*
G02*
X120720501Y-100481826I0J218750D01*
G01*
X120720501Y-99969326D01*
G75*
G02*
X120939251Y-99750576I218750J0D01*
G01*
X121376751Y-99750576D01*
G75*
G02*
X121595501Y-99969326I0J-218750D01*
G01*
G37*
G36*
G01*
X123170501Y-99969326D02*
X123170501Y-100481826D01*
G75*
G02*
X122951751Y-100700576I-218750J0D01*
G01*
X122514251Y-100700576D01*
G75*
G02*
X122295501Y-100481826I0J218750D01*
G01*
X122295501Y-99969326D01*
G75*
G02*
X122514251Y-99750576I218750J0D01*
G01*
X122951751Y-99750576D01*
G75*
G02*
X123170501Y-99969326I0J-218750D01*
G01*
G37*
G36*
G01*
X121595501Y-97525282D02*
X121595501Y-98037782D01*
G75*
G02*
X121376751Y-98256532I-218750J0D01*
G01*
X120939251Y-98256532D01*
G75*
G02*
X120720501Y-98037782I0J218750D01*
G01*
X120720501Y-97525282D01*
G75*
G02*
X120939251Y-97306532I218750J0D01*
G01*
X121376751Y-97306532D01*
G75*
G02*
X121595501Y-97525282I0J-218750D01*
G01*
G37*
G36*
G01*
X123170501Y-97525282D02*
X123170501Y-98037782D01*
G75*
G02*
X122951751Y-98256532I-218750J0D01*
G01*
X122514251Y-98256532D01*
G75*
G02*
X122295501Y-98037782I0J218750D01*
G01*
X122295501Y-97525282D01*
G75*
G02*
X122514251Y-97306532I218750J0D01*
G01*
X122951751Y-97306532D01*
G75*
G02*
X123170501Y-97525282I0J-218750D01*
G01*
G37*
G36*
G01*
X121595501Y-95081238D02*
X121595501Y-95593738D01*
G75*
G02*
X121376751Y-95812488I-218750J0D01*
G01*
X120939251Y-95812488D01*
G75*
G02*
X120720501Y-95593738I0J218750D01*
G01*
X120720501Y-95081238D01*
G75*
G02*
X120939251Y-94862488I218750J0D01*
G01*
X121376751Y-94862488D01*
G75*
G02*
X121595501Y-95081238I0J-218750D01*
G01*
G37*
G36*
G01*
X123170501Y-95081238D02*
X123170501Y-95593738D01*
G75*
G02*
X122951751Y-95812488I-218750J0D01*
G01*
X122514251Y-95812488D01*
G75*
G02*
X122295501Y-95593738I0J218750D01*
G01*
X122295501Y-95081238D01*
G75*
G02*
X122514251Y-94862488I218750J0D01*
G01*
X122951751Y-94862488D01*
G75*
G02*
X123170501Y-95081238I0J-218750D01*
G01*
G37*
G36*
G01*
X121595501Y-92637194D02*
X121595501Y-93149694D01*
G75*
G02*
X121376751Y-93368444I-218750J0D01*
G01*
X120939251Y-93368444D01*
G75*
G02*
X120720501Y-93149694I0J218750D01*
G01*
X120720501Y-92637194D01*
G75*
G02*
X120939251Y-92418444I218750J0D01*
G01*
X121376751Y-92418444D01*
G75*
G02*
X121595501Y-92637194I0J-218750D01*
G01*
G37*
G36*
G01*
X123170501Y-92637194D02*
X123170501Y-93149694D01*
G75*
G02*
X122951751Y-93368444I-218750J0D01*
G01*
X122514251Y-93368444D01*
G75*
G02*
X122295501Y-93149694I0J218750D01*
G01*
X122295501Y-92637194D01*
G75*
G02*
X122514251Y-92418444I218750J0D01*
G01*
X122951751Y-92418444D01*
G75*
G02*
X123170501Y-92637194I0J-218750D01*
G01*
G37*
G36*
G01*
X114343000Y-127691600D02*
X114003000Y-127691600D01*
G75*
G02*
X113863000Y-127551600I0J140000D01*
G01*
X113863000Y-127271600D01*
G75*
G02*
X114003000Y-127131600I140000J0D01*
G01*
X114343000Y-127131600D01*
G75*
G02*
X114483000Y-127271600I0J-140000D01*
G01*
X114483000Y-127551600D01*
G75*
G02*
X114343000Y-127691600I-140000J0D01*
G01*
G37*
G36*
G01*
X114343000Y-128651600D02*
X114003000Y-128651600D01*
G75*
G02*
X113863000Y-128511600I0J140000D01*
G01*
X113863000Y-128231600D01*
G75*
G02*
X114003000Y-128091600I140000J0D01*
G01*
X114343000Y-128091600D01*
G75*
G02*
X114483000Y-128231600I0J-140000D01*
G01*
X114483000Y-128511600D01*
G75*
G02*
X114343000Y-128651600I-140000J0D01*
G01*
G37*
G36*
G01*
X115069800Y-128091600D02*
X115409800Y-128091600D01*
G75*
G02*
X115549800Y-128231600I0J-140000D01*
G01*
X115549800Y-128511600D01*
G75*
G02*
X115409800Y-128651600I-140000J0D01*
G01*
X115069800Y-128651600D01*
G75*
G02*
X114929800Y-128511600I0J140000D01*
G01*
X114929800Y-128231600D01*
G75*
G02*
X115069800Y-128091600I140000J0D01*
G01*
G37*
G36*
G01*
X115069800Y-127131600D02*
X115409800Y-127131600D01*
G75*
G02*
X115549800Y-127271600I0J-140000D01*
G01*
X115549800Y-127551600D01*
G75*
G02*
X115409800Y-127691600I-140000J0D01*
G01*
X115069800Y-127691600D01*
G75*
G02*
X114929800Y-127551600I0J140000D01*
G01*
X114929800Y-127271600D01*
G75*
G02*
X115069800Y-127131600I140000J0D01*
G01*
G37*
G36*
G01*
X115308200Y-129594000D02*
X114968200Y-129594000D01*
G75*
G02*
X114828200Y-129454000I0J140000D01*
G01*
X114828200Y-129174000D01*
G75*
G02*
X114968200Y-129034000I140000J0D01*
G01*
X115308200Y-129034000D01*
G75*
G02*
X115448200Y-129174000I0J-140000D01*
G01*
X115448200Y-129454000D01*
G75*
G02*
X115308200Y-129594000I-140000J0D01*
G01*
G37*
G36*
G01*
X115308200Y-130554000D02*
X114968200Y-130554000D01*
G75*
G02*
X114828200Y-130414000I0J140000D01*
G01*
X114828200Y-130134000D01*
G75*
G02*
X114968200Y-129994000I140000J0D01*
G01*
X115308200Y-129994000D01*
G75*
G02*
X115448200Y-130134000I0J-140000D01*
G01*
X115448200Y-130414000D01*
G75*
G02*
X115308200Y-130554000I-140000J0D01*
G01*
G37*
G36*
G01*
X114343000Y-129594000D02*
X114003000Y-129594000D01*
G75*
G02*
X113863000Y-129454000I0J140000D01*
G01*
X113863000Y-129174000D01*
G75*
G02*
X114003000Y-129034000I140000J0D01*
G01*
X114343000Y-129034000D01*
G75*
G02*
X114483000Y-129174000I0J-140000D01*
G01*
X114483000Y-129454000D01*
G75*
G02*
X114343000Y-129594000I-140000J0D01*
G01*
G37*
G36*
G01*
X114343000Y-130554000D02*
X114003000Y-130554000D01*
G75*
G02*
X113863000Y-130414000I0J140000D01*
G01*
X113863000Y-130134000D01*
G75*
G02*
X114003000Y-129994000I140000J0D01*
G01*
X114343000Y-129994000D01*
G75*
G02*
X114483000Y-130134000I0J-140000D01*
G01*
X114483000Y-130414000D01*
G75*
G02*
X114343000Y-130554000I-140000J0D01*
G01*
G37*
D10*
G36*
X111926621Y-132777735D02*
G01*
X111918179Y-132775175D01*
X111910399Y-132771016D01*
X111903580Y-132765420D01*
X111897984Y-132758601D01*
X111893825Y-132750821D01*
X111891265Y-132742379D01*
X111890400Y-132733600D01*
X111890400Y-132068600D01*
X111891265Y-132059821D01*
X111893825Y-132051379D01*
X111897984Y-132043599D01*
X111903580Y-132036780D01*
X111910399Y-132031184D01*
X111918179Y-132027025D01*
X111926621Y-132024465D01*
X111935400Y-132023600D01*
X111961760Y-132023600D01*
X111970539Y-132024465D01*
X111978981Y-132027025D01*
X111986761Y-132031184D01*
X111993580Y-132036780D01*
X112127220Y-132170420D01*
X112132816Y-132177239D01*
X112136975Y-132185019D01*
X112139535Y-132193461D01*
X112140400Y-132202240D01*
X112140400Y-132733600D01*
X112139535Y-132742379D01*
X112136975Y-132750821D01*
X112132816Y-132758601D01*
X112127220Y-132765420D01*
X112120401Y-132771016D01*
X112112621Y-132775175D01*
X112104179Y-132777735D01*
X112095400Y-132778600D01*
X111935400Y-132778600D01*
X111926621Y-132777735D01*
G37*
G36*
G01*
X111640400Y-131966100D02*
X111640400Y-132716100D01*
G75*
G02*
X111577900Y-132778600I-62500J0D01*
G01*
X111452900Y-132778600D01*
G75*
G02*
X111390400Y-132716100I0J62500D01*
G01*
X111390400Y-131966100D01*
G75*
G02*
X111452900Y-131903600I62500J0D01*
G01*
X111577900Y-131903600D01*
G75*
G02*
X111640400Y-131966100I0J-62500D01*
G01*
G37*
G36*
G01*
X111140400Y-131966100D02*
X111140400Y-132716100D01*
G75*
G02*
X111077900Y-132778600I-62500J0D01*
G01*
X110952900Y-132778600D01*
G75*
G02*
X110890400Y-132716100I0J62500D01*
G01*
X110890400Y-131966100D01*
G75*
G02*
X110952900Y-131903600I62500J0D01*
G01*
X111077900Y-131903600D01*
G75*
G02*
X111140400Y-131966100I0J-62500D01*
G01*
G37*
G36*
G01*
X110640400Y-131966100D02*
X110640400Y-132716100D01*
G75*
G02*
X110577900Y-132778600I-62500J0D01*
G01*
X110452900Y-132778600D01*
G75*
G02*
X110390400Y-132716100I0J62500D01*
G01*
X110390400Y-131966100D01*
G75*
G02*
X110452900Y-131903600I62500J0D01*
G01*
X110577900Y-131903600D01*
G75*
G02*
X110640400Y-131966100I0J-62500D01*
G01*
G37*
G36*
G01*
X110140400Y-131966100D02*
X110140400Y-132716100D01*
G75*
G02*
X110077900Y-132778600I-62500J0D01*
G01*
X109952900Y-132778600D01*
G75*
G02*
X109890400Y-132716100I0J62500D01*
G01*
X109890400Y-131966100D01*
G75*
G02*
X109952900Y-131903600I62500J0D01*
G01*
X110077900Y-131903600D01*
G75*
G02*
X110140400Y-131966100I0J-62500D01*
G01*
G37*
G36*
G01*
X109640400Y-131966100D02*
X109640400Y-132716100D01*
G75*
G02*
X109577900Y-132778600I-62500J0D01*
G01*
X109452900Y-132778600D01*
G75*
G02*
X109390400Y-132716100I0J62500D01*
G01*
X109390400Y-131966100D01*
G75*
G02*
X109452900Y-131903600I62500J0D01*
G01*
X109577900Y-131903600D01*
G75*
G02*
X109640400Y-131966100I0J-62500D01*
G01*
G37*
G36*
X108926621Y-132777735D02*
G01*
X108918179Y-132775175D01*
X108910399Y-132771016D01*
X108903580Y-132765420D01*
X108897984Y-132758601D01*
X108893825Y-132750821D01*
X108891265Y-132742379D01*
X108890400Y-132733600D01*
X108890400Y-132202240D01*
X108891265Y-132193461D01*
X108893825Y-132185019D01*
X108897984Y-132177239D01*
X108903580Y-132170420D01*
X109037220Y-132036780D01*
X109044039Y-132031184D01*
X109051819Y-132027025D01*
X109060261Y-132024465D01*
X109069040Y-132023600D01*
X109095400Y-132023600D01*
X109104179Y-132024465D01*
X109112621Y-132027025D01*
X109120401Y-132031184D01*
X109127220Y-132036780D01*
X109132816Y-132043599D01*
X109136975Y-132051379D01*
X109139535Y-132059821D01*
X109140400Y-132068600D01*
X109140400Y-132733600D01*
X109139535Y-132742379D01*
X109136975Y-132750821D01*
X109132816Y-132758601D01*
X109127220Y-132765420D01*
X109120401Y-132771016D01*
X109112621Y-132775175D01*
X109104179Y-132777735D01*
X109095400Y-132778600D01*
X108935400Y-132778600D01*
X108926621Y-132777735D01*
G37*
G36*
X108176621Y-132027735D02*
G01*
X108168179Y-132025175D01*
X108160399Y-132021016D01*
X108153580Y-132015420D01*
X108147984Y-132008601D01*
X108143825Y-132000821D01*
X108141265Y-131992379D01*
X108140400Y-131983600D01*
X108140400Y-131823600D01*
X108141265Y-131814821D01*
X108143825Y-131806379D01*
X108147984Y-131798599D01*
X108153580Y-131791780D01*
X108160399Y-131786184D01*
X108168179Y-131782025D01*
X108176621Y-131779465D01*
X108185400Y-131778600D01*
X108850400Y-131778600D01*
X108859179Y-131779465D01*
X108867621Y-131782025D01*
X108875401Y-131786184D01*
X108882220Y-131791780D01*
X108887816Y-131798599D01*
X108891975Y-131806379D01*
X108894535Y-131814821D01*
X108895400Y-131823600D01*
X108895400Y-131849960D01*
X108894535Y-131858739D01*
X108891975Y-131867181D01*
X108887816Y-131874961D01*
X108882220Y-131881780D01*
X108748580Y-132015420D01*
X108741761Y-132021016D01*
X108733981Y-132025175D01*
X108725539Y-132027735D01*
X108716760Y-132028600D01*
X108185400Y-132028600D01*
X108176621Y-132027735D01*
G37*
G36*
G01*
X109015400Y-131341100D02*
X109015400Y-131466100D01*
G75*
G02*
X108952900Y-131528600I-62500J0D01*
G01*
X108202900Y-131528600D01*
G75*
G02*
X108140400Y-131466100I0J62500D01*
G01*
X108140400Y-131341100D01*
G75*
G02*
X108202900Y-131278600I62500J0D01*
G01*
X108952900Y-131278600D01*
G75*
G02*
X109015400Y-131341100I0J-62500D01*
G01*
G37*
G36*
G01*
X109015400Y-130841100D02*
X109015400Y-130966100D01*
G75*
G02*
X108952900Y-131028600I-62500J0D01*
G01*
X108202900Y-131028600D01*
G75*
G02*
X108140400Y-130966100I0J62500D01*
G01*
X108140400Y-130841100D01*
G75*
G02*
X108202900Y-130778600I62500J0D01*
G01*
X108952900Y-130778600D01*
G75*
G02*
X109015400Y-130841100I0J-62500D01*
G01*
G37*
G36*
G01*
X109015400Y-130341100D02*
X109015400Y-130466100D01*
G75*
G02*
X108952900Y-130528600I-62500J0D01*
G01*
X108202900Y-130528600D01*
G75*
G02*
X108140400Y-130466100I0J62500D01*
G01*
X108140400Y-130341100D01*
G75*
G02*
X108202900Y-130278600I62500J0D01*
G01*
X108952900Y-130278600D01*
G75*
G02*
X109015400Y-130341100I0J-62500D01*
G01*
G37*
G36*
G01*
X109015400Y-129841100D02*
X109015400Y-129966100D01*
G75*
G02*
X108952900Y-130028600I-62500J0D01*
G01*
X108202900Y-130028600D01*
G75*
G02*
X108140400Y-129966100I0J62500D01*
G01*
X108140400Y-129841100D01*
G75*
G02*
X108202900Y-129778600I62500J0D01*
G01*
X108952900Y-129778600D01*
G75*
G02*
X109015400Y-129841100I0J-62500D01*
G01*
G37*
G36*
G01*
X109015400Y-129341100D02*
X109015400Y-129466100D01*
G75*
G02*
X108952900Y-129528600I-62500J0D01*
G01*
X108202900Y-129528600D01*
G75*
G02*
X108140400Y-129466100I0J62500D01*
G01*
X108140400Y-129341100D01*
G75*
G02*
X108202900Y-129278600I62500J0D01*
G01*
X108952900Y-129278600D01*
G75*
G02*
X109015400Y-129341100I0J-62500D01*
G01*
G37*
G36*
X108176621Y-129027735D02*
G01*
X108168179Y-129025175D01*
X108160399Y-129021016D01*
X108153580Y-129015420D01*
X108147984Y-129008601D01*
X108143825Y-129000821D01*
X108141265Y-128992379D01*
X108140400Y-128983600D01*
X108140400Y-128823600D01*
X108141265Y-128814821D01*
X108143825Y-128806379D01*
X108147984Y-128798599D01*
X108153580Y-128791780D01*
X108160399Y-128786184D01*
X108168179Y-128782025D01*
X108176621Y-128779465D01*
X108185400Y-128778600D01*
X108716760Y-128778600D01*
X108725539Y-128779465D01*
X108733981Y-128782025D01*
X108741761Y-128786184D01*
X108748580Y-128791780D01*
X108882220Y-128925420D01*
X108887816Y-128932239D01*
X108891975Y-128940019D01*
X108894535Y-128948461D01*
X108895400Y-128957240D01*
X108895400Y-128983600D01*
X108894535Y-128992379D01*
X108891975Y-129000821D01*
X108887816Y-129008601D01*
X108882220Y-129015420D01*
X108875401Y-129021016D01*
X108867621Y-129025175D01*
X108859179Y-129027735D01*
X108850400Y-129028600D01*
X108185400Y-129028600D01*
X108176621Y-129027735D01*
G37*
G36*
X109060261Y-128782735D02*
G01*
X109051819Y-128780175D01*
X109044039Y-128776016D01*
X109037220Y-128770420D01*
X108903580Y-128636780D01*
X108897984Y-128629961D01*
X108893825Y-128622181D01*
X108891265Y-128613739D01*
X108890400Y-128604960D01*
X108890400Y-128073600D01*
X108891265Y-128064821D01*
X108893825Y-128056379D01*
X108897984Y-128048599D01*
X108903580Y-128041780D01*
X108910399Y-128036184D01*
X108918179Y-128032025D01*
X108926621Y-128029465D01*
X108935400Y-128028600D01*
X109095400Y-128028600D01*
X109104179Y-128029465D01*
X109112621Y-128032025D01*
X109120401Y-128036184D01*
X109127220Y-128041780D01*
X109132816Y-128048599D01*
X109136975Y-128056379D01*
X109139535Y-128064821D01*
X109140400Y-128073600D01*
X109140400Y-128738600D01*
X109139535Y-128747379D01*
X109136975Y-128755821D01*
X109132816Y-128763601D01*
X109127220Y-128770420D01*
X109120401Y-128776016D01*
X109112621Y-128780175D01*
X109104179Y-128782735D01*
X109095400Y-128783600D01*
X109069040Y-128783600D01*
X109060261Y-128782735D01*
G37*
G36*
G01*
X109640400Y-128091100D02*
X109640400Y-128841100D01*
G75*
G02*
X109577900Y-128903600I-62500J0D01*
G01*
X109452900Y-128903600D01*
G75*
G02*
X109390400Y-128841100I0J62500D01*
G01*
X109390400Y-128091100D01*
G75*
G02*
X109452900Y-128028600I62500J0D01*
G01*
X109577900Y-128028600D01*
G75*
G02*
X109640400Y-128091100I0J-62500D01*
G01*
G37*
G36*
G01*
X110140400Y-128091100D02*
X110140400Y-128841100D01*
G75*
G02*
X110077900Y-128903600I-62500J0D01*
G01*
X109952900Y-128903600D01*
G75*
G02*
X109890400Y-128841100I0J62500D01*
G01*
X109890400Y-128091100D01*
G75*
G02*
X109952900Y-128028600I62500J0D01*
G01*
X110077900Y-128028600D01*
G75*
G02*
X110140400Y-128091100I0J-62500D01*
G01*
G37*
G36*
G01*
X110640400Y-128091100D02*
X110640400Y-128841100D01*
G75*
G02*
X110577900Y-128903600I-62500J0D01*
G01*
X110452900Y-128903600D01*
G75*
G02*
X110390400Y-128841100I0J62500D01*
G01*
X110390400Y-128091100D01*
G75*
G02*
X110452900Y-128028600I62500J0D01*
G01*
X110577900Y-128028600D01*
G75*
G02*
X110640400Y-128091100I0J-62500D01*
G01*
G37*
G36*
G01*
X111140400Y-128091100D02*
X111140400Y-128841100D01*
G75*
G02*
X111077900Y-128903600I-62500J0D01*
G01*
X110952900Y-128903600D01*
G75*
G02*
X110890400Y-128841100I0J62500D01*
G01*
X110890400Y-128091100D01*
G75*
G02*
X110952900Y-128028600I62500J0D01*
G01*
X111077900Y-128028600D01*
G75*
G02*
X111140400Y-128091100I0J-62500D01*
G01*
G37*
G36*
G01*
X111640400Y-128091100D02*
X111640400Y-128841100D01*
G75*
G02*
X111577900Y-128903600I-62500J0D01*
G01*
X111452900Y-128903600D01*
G75*
G02*
X111390400Y-128841100I0J62500D01*
G01*
X111390400Y-128091100D01*
G75*
G02*
X111452900Y-128028600I62500J0D01*
G01*
X111577900Y-128028600D01*
G75*
G02*
X111640400Y-128091100I0J-62500D01*
G01*
G37*
G36*
X111926621Y-128782735D02*
G01*
X111918179Y-128780175D01*
X111910399Y-128776016D01*
X111903580Y-128770420D01*
X111897984Y-128763601D01*
X111893825Y-128755821D01*
X111891265Y-128747379D01*
X111890400Y-128738600D01*
X111890400Y-128073600D01*
X111891265Y-128064821D01*
X111893825Y-128056379D01*
X111897984Y-128048599D01*
X111903580Y-128041780D01*
X111910399Y-128036184D01*
X111918179Y-128032025D01*
X111926621Y-128029465D01*
X111935400Y-128028600D01*
X112095400Y-128028600D01*
X112104179Y-128029465D01*
X112112621Y-128032025D01*
X112120401Y-128036184D01*
X112127220Y-128041780D01*
X112132816Y-128048599D01*
X112136975Y-128056379D01*
X112139535Y-128064821D01*
X112140400Y-128073600D01*
X112140400Y-128604960D01*
X112139535Y-128613739D01*
X112136975Y-128622181D01*
X112132816Y-128629961D01*
X112127220Y-128636780D01*
X111993580Y-128770420D01*
X111986761Y-128776016D01*
X111978981Y-128780175D01*
X111970539Y-128782735D01*
X111961760Y-128783600D01*
X111935400Y-128783600D01*
X111926621Y-128782735D01*
G37*
G36*
X112171621Y-129027735D02*
G01*
X112163179Y-129025175D01*
X112155399Y-129021016D01*
X112148580Y-129015420D01*
X112142984Y-129008601D01*
X112138825Y-129000821D01*
X112136265Y-128992379D01*
X112135400Y-128983600D01*
X112135400Y-128957240D01*
X112136265Y-128948461D01*
X112138825Y-128940019D01*
X112142984Y-128932239D01*
X112148580Y-128925420D01*
X112282220Y-128791780D01*
X112289039Y-128786184D01*
X112296819Y-128782025D01*
X112305261Y-128779465D01*
X112314040Y-128778600D01*
X112845400Y-128778600D01*
X112854179Y-128779465D01*
X112862621Y-128782025D01*
X112870401Y-128786184D01*
X112877220Y-128791780D01*
X112882816Y-128798599D01*
X112886975Y-128806379D01*
X112889535Y-128814821D01*
X112890400Y-128823600D01*
X112890400Y-128983600D01*
X112889535Y-128992379D01*
X112886975Y-129000821D01*
X112882816Y-129008601D01*
X112877220Y-129015420D01*
X112870401Y-129021016D01*
X112862621Y-129025175D01*
X112854179Y-129027735D01*
X112845400Y-129028600D01*
X112180400Y-129028600D01*
X112171621Y-129027735D01*
G37*
G36*
G01*
X112890400Y-129341100D02*
X112890400Y-129466100D01*
G75*
G02*
X112827900Y-129528600I-62500J0D01*
G01*
X112077900Y-129528600D01*
G75*
G02*
X112015400Y-129466100I0J62500D01*
G01*
X112015400Y-129341100D01*
G75*
G02*
X112077900Y-129278600I62500J0D01*
G01*
X112827900Y-129278600D01*
G75*
G02*
X112890400Y-129341100I0J-62500D01*
G01*
G37*
G36*
G01*
X112890400Y-129841100D02*
X112890400Y-129966100D01*
G75*
G02*
X112827900Y-130028600I-62500J0D01*
G01*
X112077900Y-130028600D01*
G75*
G02*
X112015400Y-129966100I0J62500D01*
G01*
X112015400Y-129841100D01*
G75*
G02*
X112077900Y-129778600I62500J0D01*
G01*
X112827900Y-129778600D01*
G75*
G02*
X112890400Y-129841100I0J-62500D01*
G01*
G37*
G36*
G01*
X112890400Y-130341100D02*
X112890400Y-130466100D01*
G75*
G02*
X112827900Y-130528600I-62500J0D01*
G01*
X112077900Y-130528600D01*
G75*
G02*
X112015400Y-130466100I0J62500D01*
G01*
X112015400Y-130341100D01*
G75*
G02*
X112077900Y-130278600I62500J0D01*
G01*
X112827900Y-130278600D01*
G75*
G02*
X112890400Y-130341100I0J-62500D01*
G01*
G37*
G36*
G01*
X112890400Y-130841100D02*
X112890400Y-130966100D01*
G75*
G02*
X112827900Y-131028600I-62500J0D01*
G01*
X112077900Y-131028600D01*
G75*
G02*
X112015400Y-130966100I0J62500D01*
G01*
X112015400Y-130841100D01*
G75*
G02*
X112077900Y-130778600I62500J0D01*
G01*
X112827900Y-130778600D01*
G75*
G02*
X112890400Y-130841100I0J-62500D01*
G01*
G37*
G36*
G01*
X112890400Y-131341100D02*
X112890400Y-131466100D01*
G75*
G02*
X112827900Y-131528600I-62500J0D01*
G01*
X112077900Y-131528600D01*
G75*
G02*
X112015400Y-131466100I0J62500D01*
G01*
X112015400Y-131341100D01*
G75*
G02*
X112077900Y-131278600I62500J0D01*
G01*
X112827900Y-131278600D01*
G75*
G02*
X112890400Y-131341100I0J-62500D01*
G01*
G37*
G36*
X112305261Y-132027735D02*
G01*
X112296819Y-132025175D01*
X112289039Y-132021016D01*
X112282220Y-132015420D01*
X112148580Y-131881780D01*
X112142984Y-131874961D01*
X112138825Y-131867181D01*
X112136265Y-131858739D01*
X112135400Y-131849960D01*
X112135400Y-131823600D01*
X112136265Y-131814821D01*
X112138825Y-131806379D01*
X112142984Y-131798599D01*
X112148580Y-131791780D01*
X112155399Y-131786184D01*
X112163179Y-131782025D01*
X112171621Y-131779465D01*
X112180400Y-131778600D01*
X112845400Y-131778600D01*
X112854179Y-131779465D01*
X112862621Y-131782025D01*
X112870401Y-131786184D01*
X112877220Y-131791780D01*
X112882816Y-131798599D01*
X112886975Y-131806379D01*
X112889535Y-131814821D01*
X112890400Y-131823600D01*
X112890400Y-131983600D01*
X112889535Y-131992379D01*
X112886975Y-132000821D01*
X112882816Y-132008601D01*
X112877220Y-132015420D01*
X112870401Y-132021016D01*
X112862621Y-132025175D01*
X112854179Y-132027735D01*
X112845400Y-132028600D01*
X112314040Y-132028600D01*
X112305261Y-132027735D01*
G37*
M02*
