M48
; DRILL file {KiCad (5.1.8)-1} date 12/31/20 16:53:17
; FORMAT={-:-/ absolute / inch / decimal}
; #@! TF.CreationDate,2020-12-31T16:53:17-05:00
; #@! TF.GenerationSoftware,Kicad,Pcbnew,(5.1.8)-1
FMAT,2
INCH
T1C0.0120
T2C0.0157
T3C0.1299
%
G90
G05
T1
X2.596Y-3.7575
X2.5985Y-3.945
X2.5985Y-4.1325
X2.5985Y-4.32
X2.5985Y-4.5075
X2.5985Y-4.695
X2.5985Y-4.8825
X2.5985Y-5.07
X2.6435Y-3.7575
X2.6435Y-3.945
X2.6435Y-4.1325
X2.6435Y-4.32
X2.6435Y-4.695
X2.6435Y-4.8825
X2.6435Y-5.07
X2.6435Y-4.5075
X2.7835Y-3.7575
X2.7835Y-3.945
X2.7835Y-4.1325
X2.7835Y-4.32
X2.7835Y-4.5075
X2.7835Y-4.695
X2.7835Y-4.8825
X2.7835Y-5.07
X2.831Y-3.7575
X2.831Y-3.945
X2.831Y-4.1325
X2.831Y-4.695
X2.831Y-4.8825
X2.831Y-5.07
X2.831Y-4.32
X2.831Y-4.5075
X2.9735Y-3.7575
X2.9735Y-3.945
X2.9735Y-4.1325
X2.9735Y-4.695
X2.9735Y-4.8825
X2.9735Y-5.07
X2.9735Y-4.32
X2.9735Y-4.5075
X3.016Y-3.7575
X3.0185Y-3.945
X3.0185Y-4.695
X3.0185Y-4.8825
X3.0185Y-4.1325
X3.0185Y-4.32
X3.0185Y-4.5075
X3.0185Y-5.07
X3.161Y-3.945
X3.161Y-4.695
X3.161Y-4.8825
X3.161Y-3.7575
X3.161Y-4.1325
X3.161Y-4.32
X3.161Y-4.5075
X3.161Y-5.07
X3.2035Y-3.945
X3.2035Y-4.1325
X3.2035Y-4.32
X3.2035Y-4.5075
X3.2035Y-4.695
X3.2035Y-4.8825
X3.2035Y-5.07
X3.204Y-3.7575
X3.346Y-3.7575
X3.346Y-3.945
X3.346Y-4.1325
X3.346Y-4.32
X3.346Y-4.5075
X3.346Y-4.695
X3.346Y-4.8825
X3.346Y-5.07
X3.391Y-3.7575
X3.3935Y-4.32
X3.3935Y-4.5075
X3.3935Y-5.07
X3.3935Y-3.945
X3.3935Y-4.1325
X3.3935Y-4.695
X3.3935Y-4.8825
X3.534Y-3.7575
X3.536Y-4.32
X3.536Y-4.5075
X3.536Y-5.07
X3.536Y-3.945
X3.536Y-4.1325
X3.536Y-4.695
X3.536Y-4.8825
X3.57Y-5.278
X3.5785Y-3.945
X3.5785Y-4.1325
X3.5785Y-4.32
X3.5785Y-4.5075
X3.5785Y-4.695
X3.5785Y-4.8825
X3.5785Y-5.07
X3.581Y-3.7575
X3.7235Y-4.5075
X3.7235Y-3.7575
X3.7235Y-3.945
X3.7235Y-4.1325
X3.7235Y-4.32
X3.7235Y-4.695
X3.7235Y-4.8825
X3.7235Y-5.07
X3.766Y-3.945
X3.766Y-4.1325
X3.766Y-4.32
X3.766Y-4.695
X3.766Y-4.8825
X3.766Y-5.07
X3.766Y-4.5075
X3.7685Y-3.7575
X3.9085Y-3.7575
X3.911Y-3.945
X3.911Y-4.1325
X3.911Y-4.32
X3.911Y-4.5075
X3.911Y-4.695
X3.911Y-4.8825
X3.911Y-5.07
X3.956Y-3.7575
X3.956Y-3.945
X3.956Y-4.1325
X3.956Y-4.32
X3.956Y-4.5075
X3.956Y-4.695
X3.956Y-4.8825
X3.956Y-5.07
X4.19Y-5.028
X4.205Y-4.946
X4.386Y-4.72
X4.435Y-5.018
X4.461Y-5.193
X4.571Y-5.158
X4.574Y-5.116
X4.668Y-5.222
X4.668Y-5.389
X4.671Y-5.14
X4.672Y-5.171
X4.692Y-5.024
X4.72Y-3.559
X4.72Y-3.6558
X4.72Y-3.7526
X4.72Y-3.8493
X4.72Y-3.9461
X4.72Y-4.0429
X4.72Y-4.1397
X4.72Y-4.2364
X4.72Y-4.3332
X4.72Y-4.43
X4.725Y-5.383
X4.747Y-5.362
X4.767Y-5.344
X4.773Y-5.189
X4.782Y-5.112
X4.8203Y-4.8313
X4.83Y-5.02
X4.839Y-4.982
X4.874Y-4.8929
X4.981Y-5.392
X5.02Y-5.393
X5.032Y-4.895
X5.063Y-5.394
X5.095Y-5.127
X5.097Y-5.071
X5.154Y-5.331
X5.158Y-4.813
X5.176Y-5.14
X5.181Y-4.846
X5.181Y-4.875
X5.185Y-4.818
X5.188Y-4.962
X5.195Y-5.077
X5.195Y-5.108
X5.197Y-5.162
X5.198Y-5.236
X5.199Y-5.05
X5.205Y-5.197
X5.221Y-5.028
X5.222Y-5.069
X5.262Y-5.281
X5.32Y-5.279
X5.424Y-5.292
X4.8711Y-5.127
X4.9056Y-5.127
X4.94Y-5.0778
X4.94Y-5.127
X4.94Y-5.1762
X4.9744Y-5.127
X5.0089Y-5.127
T2
X2.36Y-3.724
X2.37Y-4.702
X2.376Y-5.01
X2.38Y-4.206
X2.618Y-5.218
X2.763Y-5.37
X2.784Y-3.555
X2.977Y-5.322
X2.994Y-5.218
X3.208Y-5.316
X3.374Y-5.301
X3.378Y-5.23
X3.454Y-5.473
X3.778Y-5.222
X3.887Y-3.555
X4.116Y-4.138
X4.122Y-4.754
X4.126Y-4.524
X4.136Y-5.006
X4.146Y-5.119
X4.169Y-4.66
X4.176Y-5.168
X4.192Y-5.246
X4.21Y-3.904
X4.21Y-5.113
X4.265Y-5.282
X4.279Y-4.406
X4.285Y-4.971
X4.308Y-4.093
X4.311Y-4.27
X4.332Y-5.336
X4.349Y-5.134
X4.36Y-4.971
X4.42Y-5.318
X4.42Y-5.42
X4.447Y-3.555
X4.447Y-3.94
X4.447Y-4.209
X4.447Y-4.454
X4.447Y-4.55
X4.447Y-4.672
X4.447Y-4.806
X4.447Y-4.892
X4.447Y-4.972
X4.469Y-5.269
X4.469Y-5.372
X4.469Y-5.467
X4.501Y-4.742
X4.501Y-4.847
X4.501Y-4.931
X4.518Y-5.321
X4.518Y-5.419
X4.555Y-4.806
X4.555Y-4.892
X4.555Y-4.972
X4.577Y-5.257
X4.696Y-4.94
X4.746Y-4.856
X4.7567Y-4.742
X4.8623Y-4.742
X4.925Y-4.16
X4.958Y-3.555
X4.959Y-4.463
X4.966Y-5.468
X4.968Y-4.742
X4.974Y-3.88
X5.0503Y-4.463
X5.07Y-5.257
X5.0737Y-4.742
X5.074Y-5.003
X5.1417Y-4.463
X5.17Y-5.27
X5.1793Y-4.742
X5.182Y-5.392
X5.233Y-4.463
X5.285Y-4.742
X5.401Y-5.388
X5.422Y-5.198
X5.469Y-4.894
X5.478Y-4.53
X5.642Y-5.396
X5.706Y-4.458
X5.733Y-3.555
T3
X2.427Y-5.385
T0
M30
